<?plantuml 1.2026.2?><svg xmlns="http://www.w3.org/2000/svg" xmlns:xlink="http://www.w3.org/1999/xlink" contentStyleType="text/css" data-diagram-type="CLASS" height="414px" preserveAspectRatio="none" style="width:946px;height:414px;background:#FFFFFF;" version="1.1" viewBox="0 0 946 414" width="946px" zoomAndPan="magnify"><defs/><g><!--class Group--><g class="entity" data-qualified-name="Group" data-source-line="7" id="ent0002"><rect fill="#FFFFFF" height="113.1875" rx="2.5" ry="2.5" style="stroke:#000000;stroke-width:0.5;" width="150.0723" x="7" y="15"/><ellipse cx="56.3213" cy="31" fill="#ADD1B2" rx="11" ry="11" style="stroke:#181818;stroke-width:1;"/><path d="M59.29,36.6406 Q58.7119,36.9375 58.0713,37.0781 Q57.4307,37.2344 56.7275,37.2344 Q54.2275,37.2344 52.8994,35.5938 Q51.5869,33.9375 51.5869,30.8125 Q51.5869,27.6875 52.8994,26.0313 Q54.2275,24.375 56.7275,24.375 Q57.4307,24.375 58.0713,24.5313 Q58.7275,24.6875 59.29,24.9844 L59.29,27.7031 Q58.665,27.125 58.0713,26.8594 Q57.4775,26.5781 56.8525,26.5781 Q55.5088,26.5781 54.8213,27.6563 Q54.1338,28.7188 54.1338,30.8125 Q54.1338,32.9063 54.8213,33.9844 Q55.5088,35.0469 56.8525,35.0469 Q57.4775,35.0469 58.0713,34.7813 Q58.665,34.5 59.29,33.9219 L59.29,36.6406 Z " fill="#000000"/><text fill="#000000" font-family="sans-serif" font-size="14" lengthAdjust="spacing" textLength="42.9297" x="76.8213" y="35.8467">Group</text><line style="stroke:#000000;stroke-width:0.5;" x1="8" x2="156.0723" y1="47" y2="47"/><g data-visibility-modifier="PUBLIC_FIELD"><ellipse cx="18" cy="60.6484" fill="none" rx="3" ry="3" style="stroke:#038048;stroke-width:1;"/></g><text fill="#000000" font-family="sans-serif" font-size="14" lengthAdjust="spacing" textLength="59.0078" x="27" y="63.9951">String id</text><g data-visibility-modifier="PUBLIC_FIELD"><ellipse cx="18" cy="76.9453" fill="none" rx="3" ry="3" style="stroke:#038048;stroke-width:1;"/></g><text fill="#000000" font-family="sans-serif" font-size="14" lengthAdjust="spacing" textLength="85.9346" x="27" y="80.292">String name</text><g data-visibility-modifier="PUBLIC_FIELD"><ellipse cx="18" cy="93.2422" fill="none" rx="3" ry="3" style="stroke:#038048;stroke-width:1;"/></g><text fill="#000000" font-family="sans-serif" font-size="14" lengthAdjust="spacing" textLength="124.0723" x="27" y="96.5889">String description</text><g data-visibility-modifier="PUBLIC_FIELD"><ellipse cx="18" cy="109.5391" fill="none" rx="3" ry="3" style="stroke:#038048;stroke-width:1;"/></g><text fill="#000000" font-family="sans-serif" font-size="14" lengthAdjust="spacing" textLength="121.8779" x="27" y="112.8857">Boolean is_active</text><line style="stroke:#000000;stroke-width:0.5;" x1="8" x2="156.0723" y1="120.1875" y2="120.1875"/></g><!--class User--><g class="entity" data-qualified-name="User" data-source-line="14" id="ent0003"><rect fill="#FFFFFF" height="129.4844" rx="2.5" ry="2.5" style="stroke:#000000;stroke-width:0.5;" width="142.4707" x="254" y="7"/><ellipse cx="305.0303" cy="23" fill="#ADD1B2" rx="11" ry="11" style="stroke:#181818;stroke-width:1;"/><path d="M307.999,28.6406 Q307.4209,28.9375 306.7803,29.0781 Q306.1396,29.2344 305.4365,29.2344 Q302.9365,29.2344 301.6084,27.5938 Q300.2959,25.9375 300.2959,22.8125 Q300.2959,19.6875 301.6084,18.0313 Q302.9365,16.375 305.4365,16.375 Q306.1396,16.375 306.7803,16.5313 Q307.4365,16.6875 307.999,16.9844 L307.999,19.7031 Q307.374,19.125 306.7803,18.8594 Q306.1865,18.5781 305.5615,18.5781 Q304.2178,18.5781 303.5303,19.6563 Q302.8428,20.7188 302.8428,22.8125 Q302.8428,24.9063 303.5303,25.9844 Q304.2178,27.0469 305.5615,27.0469 Q306.1865,27.0469 306.7803,26.7813 Q307.374,26.5 307.999,25.9219 L307.999,28.6406 Z " fill="#000000"/><text fill="#000000" font-family="sans-serif" font-size="14" lengthAdjust="spacing" textLength="31.9102" x="325.5303" y="27.8467">User</text><line style="stroke:#000000;stroke-width:0.5;" x1="255" x2="395.4707" y1="39" y2="39"/><g data-visibility-modifier="PUBLIC_FIELD"><ellipse cx="265" cy="52.6484" fill="none" rx="3" ry="3" style="stroke:#038048;stroke-width:1;"/></g><text fill="#000000" font-family="sans-serif" font-size="14" lengthAdjust="spacing" textLength="52.6299" x="274" y="55.9951">UUID id</text><g data-visibility-modifier="PUBLIC_FIELD"><ellipse cx="265" cy="68.9453" fill="none" rx="3" ry="3" style="stroke:#038048;stroke-width:1;"/></g><text fill="#000000" font-family="sans-serif" font-size="14" lengthAdjust="spacing" textLength="116.4707" x="274" y="72.292">String username</text><g data-visibility-modifier="PUBLIC_FIELD"><ellipse cx="265" cy="85.2422" fill="none" rx="3" ry="3" style="stroke:#038048;stroke-width:1;"/></g><text fill="#000000" font-family="sans-serif" font-size="14" lengthAdjust="spacing" textLength="84.8408" x="274" y="88.5889">String email</text><g data-visibility-modifier="PUBLIC_FIELD"><ellipse cx="265" cy="101.5391" fill="none" rx="3" ry="3" style="stroke:#038048;stroke-width:1;"/></g><text fill="#000000" font-family="sans-serif" font-size="14" lengthAdjust="spacing" textLength="71.5039" x="274" y="104.8857">Enum role</text><g data-visibility-modifier="PUBLIC_FIELD"><ellipse cx="265" cy="117.8359" fill="none" rx="3" ry="3" style="stroke:#038048;stroke-width:1;"/></g><text fill="#000000" font-family="sans-serif" font-size="14" lengthAdjust="spacing" textLength="106.9756" x="274" y="121.1826">String group_id</text><line style="stroke:#000000;stroke-width:0.5;" x1="255" x2="395.4707" y1="128.4844" y2="128.4844"/></g><!--class Task--><g class="entity" data-qualified-name="Task" data-source-line="22" id="ent0004"><rect fill="#FFFFFF" height="194.6719" rx="2.5" ry="2.5" style="stroke:#000000;stroke-width:0.5;" width="179.6035" x="90" y="213"/><ellipse cx="159.2856" cy="229" fill="#ADD1B2" rx="11" ry="11" style="stroke:#181818;stroke-width:1;"/><path d="M162.2544,234.6406 Q161.6763,234.9375 161.0356,235.0781 Q160.395,235.2344 159.6919,235.2344 Q157.1919,235.2344 155.8638,233.5938 Q154.5513,231.9375 154.5513,228.8125 Q154.5513,225.6875 155.8638,224.0313 Q157.1919,222.375 159.6919,222.375 Q160.395,222.375 161.0356,222.5313 Q161.6919,222.6875 162.2544,222.9844 L162.2544,225.7031 Q161.6294,225.125 161.0356,224.8594 Q160.4419,224.5781 159.8169,224.5781 Q158.4731,224.5781 157.7856,225.6563 Q157.0981,226.7188 157.0981,228.8125 Q157.0981,230.9063 157.7856,231.9844 Q158.4731,233.0469 159.8169,233.0469 Q160.4419,233.0469 161.0356,232.7813 Q161.6294,232.5 162.2544,231.9219 L162.2544,234.6406 Z " fill="#000000"/><text fill="#000000" font-family="sans-serif" font-size="14" lengthAdjust="spacing" textLength="32.5322" x="179.7856" y="233.8467">Task</text><line style="stroke:#000000;stroke-width:0.5;" x1="91" x2="268.6035" y1="245" y2="245"/><g data-visibility-modifier="PUBLIC_FIELD"><ellipse cx="101" cy="258.6484" fill="none" rx="3" ry="3" style="stroke:#038048;stroke-width:1;"/></g><text fill="#000000" font-family="sans-serif" font-size="14" lengthAdjust="spacing" textLength="59.0078" x="110" y="261.9951">String id</text><g data-visibility-modifier="PUBLIC_FIELD"><ellipse cx="101" cy="274.9453" fill="none" rx="3" ry="3" style="stroke:#038048;stroke-width:1;"/></g><text fill="#000000" font-family="sans-serif" font-size="14" lengthAdjust="spacing" textLength="73.6025" x="110" y="278.292">String title</text><g data-visibility-modifier="PUBLIC_FIELD"><ellipse cx="101" cy="291.2422" fill="none" rx="3" ry="3" style="stroke:#038048;stroke-width:1;"/></g><text fill="#000000" font-family="sans-serif" font-size="14" lengthAdjust="spacing" textLength="124.0723" x="110" y="294.5889">String description</text><g data-visibility-modifier="PUBLIC_FIELD"><ellipse cx="101" cy="307.5391" fill="none" rx="3" ry="3" style="stroke:#038048;stroke-width:1;"/></g><text fill="#000000" font-family="sans-serif" font-size="14" lengthAdjust="spacing" textLength="153.6035" x="110" y="310.8857">Boolean is_completed</text><g data-visibility-modifier="PUBLIC_FIELD"><ellipse cx="101" cy="323.8359" fill="none" rx="3" ry="3" style="stroke:#038048;stroke-width:1;"/></g><text fill="#000000" font-family="sans-serif" font-size="14" lengthAdjust="spacing" textLength="132.3164" x="110" y="327.1826">Boolean is_deleted</text><g data-visibility-modifier="PUBLIC_FIELD"><ellipse cx="101" cy="340.1328" fill="none" rx="3" ry="3" style="stroke:#038048;stroke-width:1;"/></g><text fill="#000000" font-family="sans-serif" font-size="14" lengthAdjust="spacing" textLength="106.9756" x="110" y="343.4795">String group_id</text><g data-visibility-modifier="PUBLIC_FIELD"><ellipse cx="101" cy="356.4297" fill="none" rx="3" ry="3" style="stroke:#038048;stroke-width:1;"/></g><text fill="#000000" font-family="sans-serif" font-size="14" lengthAdjust="spacing" textLength="109.2656" x="110" y="359.7764">String owner_id</text><g data-visibility-modifier="PUBLIC_FIELD"><ellipse cx="101" cy="372.7266" fill="none" rx="3" ry="3" style="stroke:#038048;stroke-width:1;"/></g><text fill="#000000" font-family="sans-serif" font-size="14" lengthAdjust="spacing" textLength="149.3789" x="110" y="376.0732">String assigned_to_id</text><g data-visibility-modifier="PUBLIC_FIELD"><ellipse cx="101" cy="389.0234" fill="none" rx="3" ry="3" style="stroke:#038048;stroke-width:1;"/></g><text fill="#000000" font-family="sans-serif" font-size="14" lengthAdjust="spacing" textLength="147.3076" x="110" y="392.3701">DateTime created_at</text><line style="stroke:#000000;stroke-width:0.5;" x1="91" x2="268.6035" y1="399.6719" y2="399.6719"/></g><g class="entity" data-qualified-name="GMN10" data-source-line="44" id="ent0011"><path d="M701,230 L701,306.5 L270.31,310.5 L701,314.5 L701,391.3281 A0,0 0 0 0 701,391.3281 L939.0264,391.3281 A0,0 0 0 0 939.0264,391.3281 L939.0264,240 L929.0264,230 L701,230 A0,0 0 0 0 701,230" fill="#FEFFDD" style="stroke:#181818;stroke-width:0.5;"/><path d="M929.0264,230 L929.0264,240 L939.0264,240 L929.0264,230" fill="#FEFFDD" style="stroke:#181818;stroke-width:0.5;"/><text fill="#000000" font-family="sans-serif" font-size="13" font-weight="bold" lengthAdjust="spacing" textLength="188.6904" x="707" y="247.0669">Regla de Negocio (RBAC):</text><text fill="#000000" font-family="sans-serif" font-size="13" lengthAdjust="spacing" textLength="175.627" x="707" y="262.1997">- Miembro solo completa si</text><text fill="#000000" font-family="sans-serif" font-size="13" lengthAdjust="spacing" textLength="184.501" x="715.2646" y="277.3325">assigned_to == self o NULL.</text><text fill="#000000" font-family="sans-serif" font-size="13" lengthAdjust="spacing" textLength="158.7168" x="707" y="292.4653">- No puede crear tareas.</text><text fill="#000000" font-family="sans-serif" font-size="13" lengthAdjust="spacing" textLength="4.1323" x="707" y="307.5981">&#160;</text><text fill="#000000" font-family="sans-serif" font-size="13" font-weight="bold" lengthAdjust="spacing" textLength="156.7236" x="707" y="322.731">Validaci&#243;n de Grafos:</text><text fill="#000000" font-family="sans-serif" font-size="13" lengthAdjust="spacing" textLength="166.2324" x="707" y="337.8638">- Prohibida la circularidad</text><text fill="#000000" font-family="sans-serif" font-size="13" lengthAdjust="spacing" textLength="162.4175" x="715.2646" y="352.9966">mediante algoritmo DFS.</text><text fill="#000000" font-family="sans-serif" font-size="13" lengthAdjust="spacing" textLength="177.6772" x="707" y="368.1294">- Bloqueo de completado si</text><text fill="#000000" font-family="sans-serif" font-size="13" lengthAdjust="spacing" textLength="208.7617" x="715.2646" y="383.2622">predecesores est&#225;n pendientes.</text></g><!--reverse link Task to Task--><g class="link" data-entity-1="ent0004" data-entity-2="ent0004" data-link-type="aggregation" data-source-line="35" id="lnk5"><path codeLine="35" d="M282.1508,298.7582 C302.2908,299.8982 305,303.36 305,310.5 C305,317.64 290.31,321.78 270.17,322.92" fill="none" id="Task-backto-Task" style="stroke:#000000;stroke-width:1;"/><polygon fill="none" points="270.17,298.08,275.9344,302.4127,282.1508,298.7582,276.3865,294.4255,270.17,298.08" style="stroke:#000000;stroke-width:1;"/><text fill="#000000" font-family="sans-serif" font-size="13" lengthAdjust="spacing" textLength="180.5654" x="311" y="315.0669">depends_on (predecesores)</text><text fill="#000000" font-family="sans-serif" font-size="13" lengthAdjust="spacing" textLength="8.271" x="277.7008" y="309.7732">1</text><text fill="#000000" font-family="sans-serif" font-size="13" lengthAdjust="spacing" textLength="6.5" x="277.6302" y="336.5926">*</text></g><!--reverse link Task to Task--><g class="link" data-entity-1="ent0004" data-entity-2="ent0004" data-link-type="aggregation" data-source-line="36" id="lnk6"><path codeLine="36" d="M282.2483,288.0346 C378.2183,278.2646 497,286.56 497,310.5 C497,334.44 366.28,341.52 270.31,331.75" fill="none" id="Task-backto-Task-1" style="stroke:#000000;stroke-width:1;"/><polygon fill="none" points="270.31,289.25,276.6843,292.6218,282.2483,288.0346,275.874,284.6629,270.31,289.25" style="stroke:#000000;stroke-width:1;"/><text fill="#000000" font-family="sans-serif" font-size="13" lengthAdjust="spacing" textLength="156.7617" x="503" y="315.0669">required_by (sucesores)</text><text fill="#000000" font-family="sans-serif" font-size="13" lengthAdjust="spacing" textLength="8.271" x="277.5562" y="284.1334">1</text><text fill="#000000" font-family="sans-serif" font-size="13" lengthAdjust="spacing" textLength="6.5" x="277.4884" y="346.0357">*</text></g><!--reverse link Group to Task--><g class="link" data-entity-1="ent0002" data-entity-2="ent0004" data-link-type="composition" data-source-line="39" id="lnk7"><path codeLine="39" d="M72.1444,140.2132 C71.1944,158.1232 72.97,165.79 79,183 C82.58,193.21 87.36,203.21 92.91,212.84" fill="none" id="Group-backto-Task" style="stroke:#000000;stroke-width:1;"/><polygon fill="#000000" points="72.78,128.23,68.4678,134.0097,72.1444,140.2132,76.4566,134.4335,72.78,128.23" style="stroke:#000000;stroke-width:1;"/><text fill="#000000" font-family="sans-serif" font-size="13" lengthAdjust="spacing" textLength="56.2847" x="80" y="179.0669">contiene</text><text fill="#000000" font-family="sans-serif" font-size="13" lengthAdjust="spacing" textLength="8.271" x="63.1809" y="148.1216">1</text><text fill="#000000" font-family="sans-serif" font-size="13" lengthAdjust="spacing" textLength="6.5" x="80.0468" y="201.8732">*</text></g><!--link User to Task--><g class="link" data-entity-1="ent0003" data-entity-2="ent0004" data-link-type="association" data-source-line="40" id="lnk8"><path codeLine="40" d="M253.96,99.08 C224.63,113.99 193.65,135.79 177,166 C169.18,180.19 165.53,196.42 164.43,212.75" fill="none" id="User-Task" style="stroke:#000000;stroke-width:1;"/><text fill="#000000" font-family="sans-serif" font-size="13" lengthAdjust="spacing" textLength="165.1152" x="178" y="179.0669">es propietario de (owner)</text><text fill="#000000" font-family="sans-serif" font-size="13" lengthAdjust="spacing" textLength="8.271" x="237.7416" y="98.3239">1</text><text fill="#000000" font-family="sans-serif" font-size="13" lengthAdjust="spacing" textLength="6.5" x="157.0426" y="201.7763">*</text></g><!--link User to Task--><g class="link" data-entity-1="ent0003" data-entity-2="ent0004" data-link-type="association" data-source-line="41" id="lnk9"><path codeLine="41" d="M352.32,136.03 C355.39,151.92 355.22,168.53 348,183 C331.21,216.65 300.74,243.7 270.31,264.02" fill="none" id="User-Task-1" style="stroke:#000000;stroke-width:1;"/><text fill="#000000" font-family="sans-serif" font-size="13" lengthAdjust="spacing" textLength="187.7954" x="354" y="179.0669">tiene asignada (assigned_to)</text><text fill="#000000" font-family="sans-serif" font-size="13" lengthAdjust="spacing" textLength="8.271" x="347.0048" y="156.405">1</text><text fill="#000000" font-family="sans-serif" font-size="13" lengthAdjust="spacing" textLength="6.5" x="277.4884" y="256.9717">*</text></g><?plantuml-src bLDBRjj03Dth58GsTHIuGBS1ieZZDYYG6eKJTskCDRHCU3HKEAEuHT73z0mzGYvMQkJuYw2eLsD-tdjyfCAQV6F4r50w4mByp41_8rEkA-7MsrjsBB1PKSG-ms9H-kZ2QLcAteZmvZ3uAyjwl3j5QRQeb_0GXNm5P8__UrFZSSHYA8MQIEotYH6pG-E1mjoKaPvnpp4BA3kAsUpp-8oWrOfp4gmDkMteeszh4AKuBkbCQEOAjoDxD67zhtaYHVS_0vLSDmuZslEKnSF4gQgZA6yyobbKDLFbqSuZxtDZ4_6HQeHIK9zsRc8tuJkOegvFDMBGvzBXTtes0Re3WJ4sw2twaap8aWlvXnnuE8Iyo7jRhY2tgIhCsSEW4RHOOc31S96_tIFur9BMpXS_O13QVSUne58nEOhgGH_96hKqwy-h0orEGBKw4dhCitGUNSb9XK8smWrXD4Ai6u91il3YxPQ4g9QgeyOQ61oOsydr7164gbK4NgOczRiefbWvq-5Fi68T1WRJqStjnLLHQ7e8NmZhXJ04_NvWUme60a5QrW45N5z3GBS4Xidi_lvzwfumDAtwd5OfeBEW2LqgKNypJfqgwUMFxmJSYLboU2N-AhoYXUP1vPKaPUlK2JKs4TTeoNWToBYAXMBDCFxqq9EE73-rc3nx5Mnv9_bmxu0Xllpsq5s5cXTHjUaJEgl-0W00?></g></svg>