<?plantuml 1.2026.2?><svg xmlns="http://www.w3.org/2000/svg" xmlns:xlink="http://www.w3.org/1999/xlink" contentStyleType="text/css" data-diagram-type="SEQUENCE" height="575px" preserveAspectRatio="none" style="width:1395px;height:575px;background:#FFFFFF;" version="1.1" viewBox="0 0 1395 575" width="1395px" zoomAndPan="magnify"><defs/><g><g><title>..boundary..</title><rect fill="#FFFFFF" height="362.5938" style="stroke:#000000;stroke-width:1;" width="10" x="274.2119" y="113.4297"/></g><g><title>..control..</title><rect fill="#FFFFFF" height="304.3281" style="stroke:#000000;stroke-width:1;" width="10" x="459.7397" y="142.5625"/></g><g><title>..boundary..</title><rect fill="#FFFFFF" height="203.9297" style="stroke:#000000;stroke-width:1;" width="10" x="722.2944" y="171.6953"/></g><g><title>..control..</title><rect fill="#FFFFFF" height="145.6641" style="stroke:#000000;stroke-width:1;" width="10" x="1019.0776" y="200.8281"/></g><g><title>..entity..</title><rect fill="#FFFFFF" height="87.3984" style="stroke:#000000;stroke-width:1;" width="10" x="1166.5005" y="229.9609"/></g><g><title>PostgreSQL</title><rect fill="#FFFFFF" height="29.1328" style="stroke:#000000;stroke-width:1;" width="10" x="1346.2075" y="259.0938"/></g><g class="participant-lifeline" data-entity-uid="part1" data-qualified-name="Usuario" id="part1-lifeline"><g><title>Usuario</title><rect fill="#000000" fill-opacity="0.00000" height="411.7266" width="8" x="35.6021" y="82.2969"/><line style="stroke:#000000;stroke-width:1;stroke-dasharray:5,5;" x1="39" x2="39" y1="82.2969" y2="494.0234"/></g></g><g class="participant-lifeline" data-entity-uid="part2" data-qualified-name="CTM" id="part2-lifeline"><g><title>..boundary..</title><rect fill="#000000" fill-opacity="0.00000" height="411.7266" width="8" x="275.2119" y="82.2969"/><line style="stroke:#000000;stroke-width:1;stroke-dasharray:5,5;" x1="278.5327" x2="278.5327" y1="82.2969" y2="494.0234"/></g></g><g class="participant-lifeline" data-entity-uid="part3" data-qualified-name="UT" id="part3-lifeline"><g><title>..control..</title><rect fill="#000000" fill-opacity="0.00000" height="411.7266" width="8" x="460.7397" y="82.2969"/><line style="stroke:#000000;stroke-width:1;stroke-dasharray:5,5;" x1="464.6812" x2="464.6812" y1="82.2969" y2="494.0234"/></g></g><g class="participant-lifeline" data-entity-uid="part4" data-qualified-name="TR" id="part4-lifeline"><g><title>..boundary..</title><rect fill="#000000" fill-opacity="0.00000" height="411.7266" width="8" x="723.2944" y="82.2969"/><line style="stroke:#000000;stroke-width:1;stroke-dasharray:5,5;" x1="726.3013" x2="726.3013" y1="82.2969" y2="494.0234"/></g></g><g class="participant-lifeline" data-entity-uid="part5" data-qualified-name="TS" id="part5-lifeline"><g><title>..control..</title><rect fill="#000000" fill-opacity="0.00000" height="411.7266" width="8" x="1020.0776" y="82.2969"/><line style="stroke:#000000;stroke-width:1;stroke-dasharray:5,5;" x1="1023.9409" x2="1023.9409" y1="82.2969" y2="494.0234"/></g></g><g class="participant-lifeline" data-entity-uid="part6" data-qualified-name="TREP" id="part6-lifeline"><g><title>..entity..</title><rect fill="#000000" fill-opacity="0.00000" height="411.7266" width="8" x="1167.5005" y="82.2969"/><line style="stroke:#000000;stroke-width:1;stroke-dasharray:5,5;" x1="1170.6982" x2="1170.6982" y1="82.2969" y2="494.0234"/></g></g><g class="participant-lifeline" data-entity-uid="part7" data-qualified-name="DB" id="part7-lifeline"><g><title>PostgreSQL</title><rect fill="#000000" fill-opacity="0.00000" height="411.7266" width="8" x="1347.2075" y="82.2969"/><line style="stroke:#000000;stroke-width:1;stroke-dasharray:5,5;" x1="1350.8311" x2="1350.8311" y1="82.2969" y2="494.0234"/></g></g><g class="participant participant-head" data-entity-uid="part1" data-qualified-name="Usuario" id="part1-head"><text fill="#000000" font-family="Verdana" font-size="14" lengthAdjust="spacing" textLength="53.2041" x="10" y="78.9951">Usuario</text><ellipse cx="39.6021" cy="14" fill="#FFFFFF" rx="8" ry="8" style="stroke:#000000;stroke-width:1;"/><path d="M39.6021,22 L39.6021,49 M26.6021,30 L52.6021,30 M39.6021,49 L26.6021,64 M39.6021,49 L52.6021,64" fill="none" style="stroke:#000000;stroke-width:1;"/></g><g class="participant participant-tail" data-entity-uid="part1" data-qualified-name="Usuario" id="part1-tail"><text fill="#000000" font-family="Verdana" font-size="14" lengthAdjust="spacing" textLength="53.2041" x="10" y="506.0186">Usuario</text><ellipse cx="39.6021" cy="518.3203" fill="#FFFFFF" rx="8" ry="8" style="stroke:#000000;stroke-width:1;"/><path d="M39.6021,526.3203 L39.6021,553.3203 M26.6021,534.3203 L52.6021,534.3203 M39.6021,553.3203 L26.6021,568.3203 M39.6021,553.3203 L52.6021,568.3203" fill="none" style="stroke:#000000;stroke-width:1;"/></g><g class="participant participant-head" data-entity-uid="part2" data-qualified-name="CTM" id="part2-head"><rect fill="#FFFFFF" height="46.5938" rx="2.5" ry="2.5" style="stroke:#000000;stroke-width:1;" width="135.3584" x="211.5327" y="34.7031"/><text fill="#000000" font-family="Verdana" font-size="14" font-style="italic" lengthAdjust="spacing" textLength="83.9863" x="237.2188" y="54.6982">&#171;boundary&#187;</text><text fill="#000000" font-family="Verdana" font-size="14" lengthAdjust="spacing" textLength="121.3584" x="218.5327" y="70.9951">CreateTaskModal</text></g><g class="participant participant-tail" data-entity-uid="part2" data-qualified-name="CTM" id="part2-tail"><rect fill="#FFFFFF" height="46.5938" rx="2.5" ry="2.5" style="stroke:#000000;stroke-width:1;" width="135.3584" x="211.5327" y="493.0234"/><text fill="#000000" font-family="Verdana" font-size="14" font-style="italic" lengthAdjust="spacing" textLength="83.9863" x="237.2188" y="513.0186">&#171;boundary&#187;</text><text fill="#000000" font-family="Verdana" font-size="14" lengthAdjust="spacing" textLength="121.3584" x="218.5327" y="529.3154">CreateTaskModal</text></g><g class="participant participant-head" data-entity-uid="part3" data-qualified-name="UT" id="part3-head"><rect fill="#FFFFFF" height="46.5938" rx="2.5" ry="2.5" style="stroke:#000000;stroke-width:1;" width="80.1172" x="424.6812" y="34.7031"/><text fill="#000000" font-family="Verdana" font-size="14" font-style="italic" lengthAdjust="spacing" textLength="66.1172" x="431.6812" y="54.6982">&#171;control&#187;</text><text fill="#000000" font-family="Verdana" font-size="14" lengthAdjust="spacing" textLength="64.6064" x="432.4365" y="70.9951">useTasks</text></g><g class="participant participant-tail" data-entity-uid="part3" data-qualified-name="UT" id="part3-tail"><rect fill="#FFFFFF" height="46.5938" rx="2.5" ry="2.5" style="stroke:#000000;stroke-width:1;" width="80.1172" x="424.6812" y="493.0234"/><text fill="#000000" font-family="Verdana" font-size="14" font-style="italic" lengthAdjust="spacing" textLength="66.1172" x="431.6812" y="513.0186">&#171;control&#187;</text><text fill="#000000" font-family="Verdana" font-size="14" lengthAdjust="spacing" textLength="64.6064" x="432.4365" y="529.3154">useTasks</text></g><g class="participant participant-head" data-entity-uid="part4" data-qualified-name="TR" id="part4-head"><rect fill="#FFFFFF" height="46.5938" rx="2.5" ry="2.5" style="stroke:#000000;stroke-width:1;" width="97.9863" x="678.3013" y="34.7031"/><text fill="#000000" font-family="Verdana" font-size="14" font-style="italic" lengthAdjust="spacing" textLength="83.9863" x="685.3013" y="54.6982">&#171;boundary&#187;</text><text fill="#000000" font-family="Verdana" font-size="14" lengthAdjust="spacing" textLength="79.5566" x="687.5161" y="70.9951">TaskRouter</text></g><g class="participant participant-tail" data-entity-uid="part4" data-qualified-name="TR" id="part4-tail"><rect fill="#FFFFFF" height="46.5938" rx="2.5" ry="2.5" style="stroke:#000000;stroke-width:1;" width="97.9863" x="678.3013" y="493.0234"/><text fill="#000000" font-family="Verdana" font-size="14" font-style="italic" lengthAdjust="spacing" textLength="83.9863" x="685.3013" y="513.0186">&#171;boundary&#187;</text><text fill="#000000" font-family="Verdana" font-size="14" lengthAdjust="spacing" textLength="79.5566" x="687.5161" y="529.3154">TaskRouter</text></g><g class="participant participant-head" data-entity-uid="part5" data-qualified-name="TS" id="part5-head"><rect fill="#FFFFFF" height="46.5938" rx="2.5" ry="2.5" style="stroke:#000000;stroke-width:1;" width="98.2734" x="974.9409" y="34.7031"/><text fill="#000000" font-family="Verdana" font-size="14" font-style="italic" lengthAdjust="spacing" textLength="66.1172" x="991.019" y="54.6982">&#171;control&#187;</text><text fill="#000000" font-family="Verdana" font-size="14" lengthAdjust="spacing" textLength="84.2734" x="981.9409" y="70.9951">TaskService</text></g><g class="participant participant-tail" data-entity-uid="part5" data-qualified-name="TS" id="part5-tail"><rect fill="#FFFFFF" height="46.5938" rx="2.5" ry="2.5" style="stroke:#000000;stroke-width:1;" width="98.2734" x="974.9409" y="493.0234"/><text fill="#000000" font-family="Verdana" font-size="14" font-style="italic" lengthAdjust="spacing" textLength="66.1172" x="991.019" y="513.0186">&#171;control&#187;</text><text fill="#000000" font-family="Verdana" font-size="14" lengthAdjust="spacing" textLength="84.2734" x="981.9409" y="529.3154">TaskService</text></g><g class="participant participant-head" data-entity-uid="part6" data-qualified-name="TREP" id="part6-head"><rect fill="#FFFFFF" height="46.5938" rx="2.5" ry="2.5" style="stroke:#000000;stroke-width:1;" width="121.6045" x="1110.6982" y="34.7031"/><text fill="#000000" font-family="Verdana" font-size="14" font-style="italic" lengthAdjust="spacing" textLength="57.9209" x="1142.54" y="54.6982">&#171;entity&#187;</text><text fill="#000000" font-family="Verdana" font-size="14" lengthAdjust="spacing" textLength="107.6045" x="1117.6982" y="70.9951">TaskRepository</text></g><g class="participant participant-tail" data-entity-uid="part6" data-qualified-name="TREP" id="part6-tail"><rect fill="#FFFFFF" height="46.5938" rx="2.5" ry="2.5" style="stroke:#000000;stroke-width:1;" width="121.6045" x="1110.6982" y="493.0234"/><text fill="#000000" font-family="Verdana" font-size="14" font-style="italic" lengthAdjust="spacing" textLength="57.9209" x="1142.54" y="513.0186">&#171;entity&#187;</text><text fill="#000000" font-family="Verdana" font-size="14" lengthAdjust="spacing" textLength="107.6045" x="1117.6982" y="529.3154">TaskRepository</text></g><g class="participant participant-head" data-entity-uid="part7" data-qualified-name="DB" id="part7-head"><text fill="#000000" font-family="Verdana" font-size="14" lengthAdjust="spacing" textLength="80.7529" x="1307.8311" y="78.9951">PostgreSQL</text><path d="M1333.2075,30 C1333.2075,20 1351.2075,20 1351.2075,20 C1351.2075,20 1369.2075,20 1369.2075,30 L1369.2075,56 C1369.2075,66 1351.2075,66 1351.2075,66 C1351.2075,66 1333.2075,66 1333.2075,56 L1333.2075,30" fill="#FFFFFF" style="stroke:#000000;stroke-width:1;"/><path d="M1333.2075,30 C1333.2075,40 1351.2075,40 1351.2075,40 C1351.2075,40 1369.2075,40 1369.2075,30" fill="none" style="stroke:#000000;stroke-width:1;"/></g><g class="participant participant-tail" data-entity-uid="part7" data-qualified-name="DB" id="part7-tail"><text fill="#000000" font-family="Verdana" font-size="14" lengthAdjust="spacing" textLength="80.7529" x="1307.8311" y="506.0186">PostgreSQL</text><path d="M1333.2075,519.3203 C1333.2075,509.3203 1351.2075,509.3203 1351.2075,509.3203 C1351.2075,509.3203 1369.2075,509.3203 1369.2075,519.3203 L1369.2075,545.3203 C1369.2075,555.3203 1351.2075,555.3203 1351.2075,555.3203 C1351.2075,555.3203 1333.2075,555.3203 1333.2075,545.3203 L1333.2075,519.3203" fill="#FFFFFF" style="stroke:#000000;stroke-width:1;"/><path d="M1333.2075,519.3203 C1333.2075,529.3203 1351.2075,529.3203 1351.2075,529.3203 C1351.2075,529.3203 1369.2075,529.3203 1369.2075,519.3203" fill="none" style="stroke:#000000;stroke-width:1;"/></g><g><title>..boundary..</title><rect fill="#FFFFFF" height="362.5938" style="stroke:#000000;stroke-width:1;" width="10" x="274.2119" y="113.4297"/></g><g><title>..control..</title><rect fill="#FFFFFF" height="304.3281" style="stroke:#000000;stroke-width:1;" width="10" x="459.7397" y="142.5625"/></g><g><title>..boundary..</title><rect fill="#FFFFFF" height="203.9297" style="stroke:#000000;stroke-width:1;" width="10" x="722.2944" y="171.6953"/></g><g><title>..control..</title><rect fill="#FFFFFF" height="145.6641" style="stroke:#000000;stroke-width:1;" width="10" x="1019.0776" y="200.8281"/></g><g><title>..entity..</title><rect fill="#FFFFFF" height="87.3984" style="stroke:#000000;stroke-width:1;" width="10" x="1166.5005" y="229.9609"/></g><g><title>PostgreSQL</title><rect fill="#FFFFFF" height="29.1328" style="stroke:#000000;stroke-width:1;" width="10" x="1346.2075" y="259.0938"/></g><g class="message" data-entity-1="part1" data-entity-2="part2" id="msg1"><polygon fill="#000000" points="262.2119,109.4297,272.2119,113.4297,262.2119,117.4297,266.2119,113.4297" style="stroke:#000000;stroke-width:1;"/><line style="stroke:#000000;stroke-width:1;" x1="39.6021" x2="268.2119" y1="113.4297" y2="113.4297"/><text fill="#000000" font-family="Verdana" font-size="13" font-weight="bold" lengthAdjust="spacing" textLength="9.0454" x="46.6021" y="108.3638">1</text><text fill="#000000" font-family="Verdana" font-size="13" lengthAdjust="spacing" textLength="194.0669" x="59.6475" y="108.3638">completa formulario y guarda</text></g><g class="message" data-entity-1="part2" data-entity-2="part3" id="msg2"><polygon fill="#000000" points="447.7397,138.5625,457.7397,142.5625,447.7397,146.5625,451.7397,142.5625" style="stroke:#000000;stroke-width:1;"/><line style="stroke:#000000;stroke-width:1;" x1="284.2119" x2="453.7397" y1="142.5625" y2="142.5625"/><text fill="#000000" font-family="Verdana" font-size="13" font-weight="bold" lengthAdjust="spacing" textLength="9.0454" x="291.2119" y="137.4966">2</text><text fill="#000000" font-family="Verdana" font-size="13" lengthAdjust="spacing" textLength="143.4824" x="304.2573" y="137.4966">createTask(formData)</text></g><g class="message" data-entity-1="part3" data-entity-2="part4" id="msg3"><polygon fill="#000000" points="710.2944,167.6953,720.2944,171.6953,710.2944,175.6953,714.2944,171.6953" style="stroke:#000000;stroke-width:1;"/><line style="stroke:#000000;stroke-width:1;" x1="469.7397" x2="716.2944" y1="171.6953" y2="171.6953"/><text fill="#000000" font-family="Verdana" font-size="13" font-weight="bold" lengthAdjust="spacing" textLength="9.0454" x="476.7397" y="166.6294">3</text><text fill="#000000" font-family="Verdana" font-size="13" lengthAdjust="spacing" textLength="203.9692" x="489.7852" y="166.6294">POST /tasks (JSON Body + JWT)</text></g><g class="message" data-entity-1="part4" data-entity-2="part5" id="msg4"><polygon fill="#000000" points="1007.0776,196.8281,1017.0776,200.8281,1007.0776,204.8281,1011.0776,200.8281" style="stroke:#000000;stroke-width:1;"/><line style="stroke:#000000;stroke-width:1;" x1="732.2944" x2="1013.0776" y1="200.8281" y2="200.8281"/><text fill="#000000" font-family="Verdana" font-size="13" font-weight="bold" lengthAdjust="spacing" textLength="9.0454" x="739.2944" y="195.7622">4</text><text fill="#000000" font-family="Verdana" font-size="13" lengthAdjust="spacing" textLength="254.7378" x="752.3398" y="195.7622">create_new_task(data, current_user.id)</text></g><g class="message" data-entity-1="part5" data-entity-2="part6" id="msg5"><polygon fill="#000000" points="1154.5005,225.9609,1164.5005,229.9609,1154.5005,233.9609,1158.5005,229.9609" style="stroke:#000000;stroke-width:1;"/><line style="stroke:#000000;stroke-width:1;" x1="1029.0776" x2="1160.5005" y1="229.9609" y2="229.9609"/><text fill="#000000" font-family="Verdana" font-size="13" font-weight="bold" lengthAdjust="spacing" textLength="9.0454" x="1036.0776" y="224.895">5</text><text fill="#000000" font-family="Verdana" font-size="13" lengthAdjust="spacing" textLength="105.3774" x="1049.123" y="224.895">create(task_obj)</text></g><g class="message" data-entity-1="part6" data-entity-2="part7" id="msg6"><polygon fill="#000000" points="1334.2075,255.0938,1344.2075,259.0938,1334.2075,263.0938,1338.2075,259.0938" style="stroke:#000000;stroke-width:1;"/><line style="stroke:#000000;stroke-width:1;" x1="1176.5005" x2="1340.2075" y1="259.0938" y2="259.0938"/><text fill="#000000" font-family="Verdana" font-size="13" font-weight="bold" lengthAdjust="spacing" textLength="9.0454" x="1183.5005" y="254.0278">6</text><text fill="#000000" font-family="Verdana" font-size="13" lengthAdjust="spacing" textLength="137.6616" x="1196.5459" y="254.0278">INSERT INTO tasks ...</text></g><g class="message" data-entity-1="part7" data-entity-2="part6" id="msg7"><polygon fill="#000000" points="1187.5005,284.2266,1177.5005,288.2266,1187.5005,292.2266,1183.5005,288.2266" style="stroke:#000000;stroke-width:1;"/><line style="stroke:#000000;stroke-width:1;stroke-dasharray:2,2;" x1="1181.5005" x2="1350.2075" y1="288.2266" y2="288.2266"/><text fill="#000000" font-family="Verdana" font-size="13" font-weight="bold" lengthAdjust="spacing" textLength="9.0454" x="1193.5005" y="283.1606">7</text><text fill="#000000" font-family="Verdana" font-size="13" lengthAdjust="spacing" textLength="85.8013" x="1206.5459" y="283.1606">Task (con ID)</text></g><g class="message" data-entity-1="part6" data-entity-2="part5" id="msg8"><polygon fill="#000000" points="1040.0776,313.3594,1030.0776,317.3594,1040.0776,321.3594,1036.0776,317.3594" style="stroke:#000000;stroke-width:1;"/><line style="stroke:#000000;stroke-width:1;stroke-dasharray:2,2;" x1="1034.0776" x2="1170.5005" y1="317.3594" y2="317.3594"/><text fill="#000000" font-family="Verdana" font-size="13" font-weight="bold" lengthAdjust="spacing" textLength="9.0454" x="1046.0776" y="312.2935">8</text><text fill="#000000" font-family="Verdana" font-size="13" lengthAdjust="spacing" textLength="30.2085" x="1059.123" y="312.2935">Task</text></g><g class="message" data-entity-1="part5" data-entity-2="part4" id="msg9"><polygon fill="#000000" points="743.2944,342.4922,733.2944,346.4922,743.2944,350.4922,739.2944,346.4922" style="stroke:#000000;stroke-width:1;"/><line style="stroke:#000000;stroke-width:1;stroke-dasharray:2,2;" x1="737.2944" x2="1023.0776" y1="346.4922" y2="346.4922"/><text fill="#000000" font-family="Verdana" font-size="13" font-weight="bold" lengthAdjust="spacing" textLength="9.0454" x="749.2944" y="341.4263">9</text><text fill="#000000" font-family="Verdana" font-size="13" lengthAdjust="spacing" textLength="30.2085" x="762.3398" y="341.4263">Task</text></g><g class="message" data-entity-1="part4" data-entity-2="part3" id="msg10"><polygon fill="#000000" points="480.7397,371.625,470.7397,375.625,480.7397,379.625,476.7397,375.625" style="stroke:#000000;stroke-width:1;"/><line style="stroke:#000000;stroke-width:1;stroke-dasharray:2,2;" x1="474.7397" x2="726.2944" y1="375.625" y2="375.625"/><text fill="#000000" font-family="Verdana" font-size="13" font-weight="bold" lengthAdjust="spacing" textLength="18.0908" x="486.7397" y="370.5591">10</text><text fill="#000000" font-family="Verdana" font-size="13" lengthAdjust="spacing" textLength="161.3384" x="508.8306" y="370.5591">201 Created (JSON Task)</text></g><g class="message" data-entity-1="part3" data-entity-2="part3" id="msg11"><line style="stroke:#000000;stroke-width:1;" x1="469.7397" x2="511.7397" y1="404.7578" y2="404.7578"/><line style="stroke:#000000;stroke-width:1;" x1="511.7397" x2="511.7397" y1="404.7578" y2="417.7578"/><line style="stroke:#000000;stroke-width:1;" x1="470.7397" x2="511.7397" y1="417.7578" y2="417.7578"/><polygon fill="#000000" points="480.7397,413.7578,470.7397,417.7578,480.7397,421.7578,476.7397,417.7578" style="stroke:#000000;stroke-width:1;"/><text fill="#000000" font-family="Verdana" font-size="13" font-weight="bold" lengthAdjust="spacing" textLength="18.0908" x="476.7397" y="399.6919">11</text><text fill="#000000" font-family="Verdana" font-size="13" lengthAdjust="spacing" textLength="206.4639" x="498.8306" y="399.6919">fetchTasks() (refresco opcional)</text></g><g class="message" data-entity-1="part3" data-entity-2="part2" id="msg12"><polygon fill="#000000" points="295.2119,442.8906,285.2119,446.8906,295.2119,450.8906,291.2119,446.8906" style="stroke:#000000;stroke-width:1;"/><line style="stroke:#000000;stroke-width:1;stroke-dasharray:2,2;" x1="289.2119" x2="463.7397" y1="446.8906" y2="446.8906"/><text fill="#000000" font-family="Verdana" font-size="13" font-weight="bold" lengthAdjust="spacing" textLength="18.0908" x="301.2119" y="441.8247">12</text><text fill="#000000" font-family="Verdana" font-size="13" lengthAdjust="spacing" textLength="50.8511" x="323.3027" y="441.8247">success</text></g><g class="message" data-entity-1="part2" data-entity-2="part1" id="msg13"><polygon fill="#000000" points="50.6021,472.0234,40.6021,476.0234,50.6021,480.0234,46.6021,476.0234" style="stroke:#000000;stroke-width:1;"/><line style="stroke:#000000;stroke-width:1;stroke-dasharray:2,2;" x1="44.6021" x2="278.2119" y1="476.0234" y2="476.0234"/><text fill="#000000" font-family="Verdana" font-size="13" font-weight="bold" lengthAdjust="spacing" textLength="18.0908" x="56.6021" y="470.9575">13</text><text fill="#000000" font-family="Verdana" font-size="13" lengthAdjust="spacing" textLength="188.519" x="78.6929" y="470.9575">cierra modal y muestra &#233;xito</text></g><?plantuml-src XPDDSjf048NtSueEAwaIav-boyK2myAks11cA2-fPjJOaqWQrVmuuKWvHowMda60IAMI5QNYUw_rNhVUX1Tg2BeQJIim1jl6PajE2DJ1EbZxYCvOqQ4BHfiEsm2ZMqSOIA7_zc0hh4U07cxL0zpSR6riAtJxoUHI4Nt6VKRNYabjs-1i_IUOg9MDWLn6rUeVfecLv5wDfWCi_-DBdVM6K-rxx_cI1TG64v9tXG6tw0b6I-l3ioFvvNC6PrCX-XxWQfAJNeEsJLTJGDXPryGw_xc7PwOgJDsPLwueiIBnBEFKh3erLoJTZ4UMPtgj15FCSknhM2waWlSXrGR5lLmymjHMUtWBzqzg858hmNWIoTE0JKlVDqbPf53lG4VdEEU6r-36fXggfM1T7ibj7FL5qcxizkl5dFbIP8hfsPJPkqSvNod-KGiulEPuF3uBk3R6hixUAJOKl22ucvMYeY5vC3wcIEGGECoMlTdV09bBEDRywSD7E1nfrLUN1EMbPTzr5kmew9TyeKK9XQET8wyjs4uRss9TPlQqUn-r9k-7ThowlETas9yAbsd8EOGcVIHy74qa7_ZvryyVV8L3DKj_0m00?></g></svg>