<?plantuml 1.2026.2?><svg xmlns="http://www.w3.org/2000/svg" xmlns:xlink="http://www.w3.org/1999/xlink" contentStyleType="text/css" data-diagram-type="CLASS" height="1002px" preserveAspectRatio="none" style="width:573px;height:1002px;background:#FFFFFF;" version="1.1" viewBox="0 0 573 1002" width="573px" zoomAndPan="magnify"><defs/><g><!--cluster Capa UI (React)--><g class="cluster" data-qualified-name="Capa UI .React." data-source-line="4" id="ent0002"><path d="M130.5,11 L254.5264,11 A3.75,3.75 0 0 1 257.0264,13.5 L264.0264,33.2969 L445.5,33.2969 A2.5,2.5 0 0 1 448,35.7969 L448,298.5 A2.5,2.5 0 0 1 445.5,301 L130.5,301 A2.5,2.5 0 0 1 128,298.5 L128,13.5 A2.5,2.5 0 0 1 130.5,11" fill="#FFFFFF" style="stroke:#000000;stroke-width:1;"/><line style="stroke:#000000;stroke-width:1;" x1="128" x2="264.0264" y1="33.2969" y2="33.2969"/><text fill="#000000" font-family="Verdana" font-size="14" font-weight="bold" lengthAdjust="spacing" textLength="123.0264" x="132" y="25.9951">Capa UI (React)</text></g><!--cluster Capa API (FastAPI)--><g class="cluster" data-qualified-name="Capa API .FastAPI." data-source-line="14" id="ent0005"><path d="M13.5,350 L162.8809,350 A3.75,3.75 0 0 1 165.3809,352.5 L172.3809,372.2969 L563.5,372.2969 A2.5,2.5 0 0 1 566,374.7969 L566,787.5 A2.5,2.5 0 0 1 563.5,790 L13.5,790 A2.5,2.5 0 0 1 11,787.5 L11,352.5 A2.5,2.5 0 0 1 13.5,350" fill="#FFFFFF" style="stroke:#000000;stroke-width:1;"/><line style="stroke:#000000;stroke-width:1;" x1="11" x2="172.3809" y1="372.2969" y2="372.2969"/><text fill="#000000" font-family="Verdana" font-size="14" font-weight="bold" lengthAdjust="spacing" textLength="148.3809" x="15" y="364.9951">Capa API (FastAPI)</text></g><!--cluster Capa Datos (SQLAlchemy)--><g class="cluster" data-qualified-name="Capa Datos .SQLAlchemy." data-source-line="30" id="ent0010"><path d="M280.5,839 L486.9609,839 A3.75,3.75 0 0 1 489.4609,841.5 L496.4609,861.2969 L496.5,861.2969 A2.5,2.5 0 0 1 499,863.7969 L499,992.5 A2.5,2.5 0 0 1 496.5,995 L280.5,995 A2.5,2.5 0 0 1 278,992.5 L278,841.5 A2.5,2.5 0 0 1 280.5,839" fill="#FFFFFF" style="stroke:#000000;stroke-width:1;"/><line style="stroke:#000000;stroke-width:1;" x1="278" x2="496.4609" y1="861.2969" y2="861.2969"/><text fill="#000000" font-family="Verdana" font-size="14" font-weight="bold" lengthAdjust="spacing" textLength="205.4609" x="282" y="853.9951">Capa Datos (SQLAlchemy)</text></g><!--class CreateTaskModal--><g class="entity" data-qualified-name="Capa UI .React..CreateTaskModal" data-source-line="5" id="ent0003"><rect fill="#FFFFFF" height="88.8594" rx="2.5" ry="2.5" style="stroke:#000000;stroke-width:1;" width="228.1797" x="174" y="46"/><ellipse cx="223.6606" cy="66.1328" fill="#FFFFFF" rx="9" ry="9" style="stroke:#000000;stroke-width:1;"/><path d="M226.6294,71.7734 Q226.0513,72.0703 225.4106,72.2109 Q224.77,72.3672 224.0669,72.3672 Q221.5669,72.3672 220.2388,70.7266 Q218.9263,69.0703 218.9263,65.9453 Q218.9263,62.8203 220.2388,61.1641 Q221.5669,59.5078 224.0669,59.5078 Q224.77,59.5078 225.4106,59.6641 Q226.0669,59.8203 226.6294,60.1172 L226.6294,62.8359 Q226.0044,62.2578 225.4106,61.9922 Q224.8169,61.7109 224.1919,61.7109 Q222.8481,61.7109 222.1606,62.7891 Q221.4731,63.8516 221.4731,65.9453 Q221.4731,68.0391 222.1606,69.1172 Q222.8481,70.1797 224.1919,70.1797 Q224.8169,70.1797 225.4106,69.9141 Q226.0044,69.6328 226.6294,69.0547 L226.6294,71.7734 Z " fill="#000000"/><text fill="#000000" font-family="Verdana" font-size="12" font-style="italic" lengthAdjust="spacing" textLength="71.9883" x="265.8457" y="62.1387">&#171;boundary&#187;</text><text fill="#000000" font-family="Verdana" font-size="14" lengthAdjust="spacing" textLength="121.3584" x="241.1606" y="77.9639">CreateTaskModal</text><line style="stroke:#000000;stroke-width:1;" x1="175" x2="401.1797" y1="86.2656" y2="86.2656"/><text fill="#000000" font-family="Verdana" font-size="14" lengthAdjust="spacing" textLength="216.1797" x="180" y="103.2607">-formData: TaskCreateSchema</text><line style="stroke:#000000;stroke-width:1;" x1="175" x2="401.1797" y1="110.5625" y2="110.5625"/><text fill="#000000" font-family="Verdana" font-size="14" lengthAdjust="spacing" textLength="120.0322" x="180" y="127.5576">+handleSubmit()</text></g><!--class useTasks--><g class="entity" data-qualified-name="Capa UI .React..useTasks" data-source-line="9" id="ent0004"><rect fill="#FFFFFF" height="72.5625" rx="2.5" ry="2.5" style="stroke:#000000;stroke-width:1;" width="288.2813" x="144" y="212"/><ellipse cx="252.0874" cy="232.1328" fill="#FFFFFF" rx="9" ry="9" style="stroke:#000000;stroke-width:1;"/><path d="M255.0562,237.7734 Q254.478,238.0703 253.8374,238.2109 Q253.1968,238.3672 252.4937,238.3672 Q249.9937,238.3672 248.6655,236.7266 Q247.353,235.0703 247.353,231.9453 Q247.353,228.8203 248.6655,227.1641 Q249.9937,225.5078 252.4937,225.5078 Q253.1968,225.5078 253.8374,225.6641 Q254.4937,225.8203 255.0562,226.1172 L255.0562,228.8359 Q254.4312,228.2578 253.8374,227.9922 Q253.2437,227.7109 252.6187,227.7109 Q251.2749,227.7109 250.5874,228.7891 Q249.8999,229.8516 249.8999,231.9453 Q249.8999,234.0391 250.5874,235.1172 Q251.2749,236.1797 252.6187,236.1797 Q253.2437,236.1797 253.8374,235.9141 Q254.4312,235.6328 255.0562,235.0547 L255.0562,237.7734 Z " fill="#000000"/><text fill="#000000" font-family="Verdana" font-size="12" font-style="italic" lengthAdjust="spacing" textLength="56.6719" x="273.5547" y="228.1387">&#171;control&#187;</text><text fill="#000000" font-family="Verdana" font-size="14" lengthAdjust="spacing" textLength="64.6064" x="269.5874" y="243.9639">useTasks</text><line style="stroke:#000000;stroke-width:1;" x1="145" x2="431.2813" y1="252.2656" y2="252.2656"/><line style="stroke:#000000;stroke-width:1;" x1="145" x2="431.2813" y1="260.2656" y2="260.2656"/><text fill="#000000" font-family="Verdana" font-size="14" lengthAdjust="spacing" textLength="276.2813" x="150" y="277.2607">+createTask(data: TaskCreateSchema)</text></g><!--class TaskRouter--><g class="entity" data-qualified-name="Capa API .FastAPI..TaskRouter" data-source-line="15" id="ent0006"><rect fill="#FFFFFF" height="72.5625" rx="2.5" ry="2.5" style="stroke:#000000;stroke-width:1;" width="387.2588" x="94.5" y="385"/><ellipse cx="244.6011" cy="405.1328" fill="#FFFFFF" rx="9" ry="9" style="stroke:#000000;stroke-width:1;"/><path d="M247.5698,410.7734 Q246.9917,411.0703 246.3511,411.2109 Q245.7104,411.3672 245.0073,411.3672 Q242.5073,411.3672 241.1792,409.7266 Q239.8667,408.0703 239.8667,404.9453 Q239.8667,401.8203 241.1792,400.1641 Q242.5073,398.5078 245.0073,398.5078 Q245.7104,398.5078 246.3511,398.6641 Q247.0073,398.8203 247.5698,399.1172 L247.5698,401.8359 Q246.9448,401.2578 246.3511,400.9922 Q245.7573,400.7109 245.1323,400.7109 Q243.7886,400.7109 243.1011,401.7891 Q242.4136,402.8516 242.4136,404.9453 Q242.4136,407.0391 243.1011,408.1172 Q243.7886,409.1797 245.1323,409.1797 Q245.7573,409.1797 246.3511,408.9141 Q246.9448,408.6328 247.5698,408.0547 L247.5698,410.7734 Z " fill="#000000"/><text fill="#000000" font-family="Verdana" font-size="12" font-style="italic" lengthAdjust="spacing" textLength="71.9883" x="265.8853" y="401.1387">&#171;boundary&#187;</text><text fill="#000000" font-family="Verdana" font-size="14" lengthAdjust="spacing" textLength="79.5566" x="262.1011" y="416.9639">TaskRouter</text><line style="stroke:#000000;stroke-width:1;" x1="95.5" x2="480.7588" y1="425.2656" y2="425.2656"/><line style="stroke:#000000;stroke-width:1;" x1="95.5" x2="480.7588" y1="433.2656" y2="433.2656"/><text fill="#000000" font-family="Verdana" font-size="14" lengthAdjust="spacing" textLength="375.2588" x="100.5" y="450.2607">+create_task(task_in, current_user, db): TaskSchema</text></g><!--class TaskCreateSchema--><g class="entity" data-qualified-name="Capa API .FastAPI..TaskCreateSchema" data-source-line="18" id="ent0007"><rect fill="#FFFFFF" height="88.8594" rx="2.5" ry="2.5" style="stroke:#000000;stroke-width:1;" width="163.6455" x="27" y="535"/><ellipse cx="40" cy="555.1328" fill="#FFFFFF" rx="9" ry="9" style="stroke:#000000;stroke-width:1;"/><path d="M42.9688,560.7734 Q42.3906,561.0703 41.75,561.2109 Q41.1094,561.3672 40.4063,561.3672 Q37.9063,561.3672 36.5781,559.7266 Q35.2656,558.0703 35.2656,554.9453 Q35.2656,551.8203 36.5781,550.1641 Q37.9063,548.5078 40.4063,548.5078 Q41.1094,548.5078 41.75,548.6641 Q42.4063,548.8203 42.9688,549.1172 L42.9688,551.8359 Q42.3438,551.2578 41.75,550.9922 Q41.1563,550.7109 40.5313,550.7109 Q39.1875,550.7109 38.5,551.7891 Q37.8125,552.8516 37.8125,554.9453 Q37.8125,557.0391 38.5,558.1172 Q39.1875,559.1797 40.5313,559.1797 Q41.1563,559.1797 41.75,558.9141 Q42.3438,558.6328 42.9688,558.0547 L42.9688,560.7734 Z " fill="#000000"/><text fill="#000000" font-family="Verdana" font-size="12" font-style="italic" lengthAdjust="spacing" textLength="34.4766" x="102.5845" y="551.1387">&#171;dto&#187;</text><text fill="#000000" font-family="Verdana" font-size="14" lengthAdjust="spacing" textLength="135.6455" x="52" y="566.9639">TaskCreateSchema</text><line style="stroke:#000000;stroke-width:1;" x1="28" x2="189.6455" y1="575.2656" y2="575.2656"/><text fill="#000000" font-family="Verdana" font-size="14" lengthAdjust="spacing" textLength="66.8076" x="33" y="592.2607">+title: str</text><text fill="#000000" font-family="Verdana" font-size="14" lengthAdjust="spacing" textLength="117.2773" x="33" y="608.5576">+description: str</text><line style="stroke:#000000;stroke-width:1;" x1="28" x2="189.6455" y1="615.8594" y2="615.8594"/></g><!--class TaskService--><g class="entity" data-qualified-name="Capa API .FastAPI..TaskService" data-source-line="22" id="ent0008"><rect fill="#FFFFFF" height="72.5625" rx="2.5" ry="2.5" style="stroke:#000000;stroke-width:1;" width="323.6504" x="226" y="543"/><ellipse cx="341.9385" cy="563.1328" fill="#FFFFFF" rx="9" ry="9" style="stroke:#000000;stroke-width:1;"/><path d="M344.9072,568.7734 Q344.3291,569.0703 343.6885,569.2109 Q343.0479,569.3672 342.3447,569.3672 Q339.8447,569.3672 338.5166,567.7266 Q337.2041,566.0703 337.2041,562.9453 Q337.2041,559.8203 338.5166,558.1641 Q339.8447,556.5078 342.3447,556.5078 Q343.0479,556.5078 343.6885,556.6641 Q344.3447,556.8203 344.9072,557.1172 L344.9072,559.8359 Q344.2822,559.2578 343.6885,558.9922 Q343.0947,558.7109 342.4697,558.7109 Q341.126,558.7109 340.4385,559.7891 Q339.751,560.8516 339.751,562.9453 Q339.751,565.0391 340.4385,566.1172 Q341.126,567.1797 342.4697,567.1797 Q343.0947,567.1797 343.6885,566.9141 Q344.2822,566.6328 344.9072,566.0547 L344.9072,568.7734 Z " fill="#000000"/><text fill="#000000" font-family="Verdana" font-size="12" font-style="italic" lengthAdjust="spacing" textLength="56.6719" x="373.2393" y="559.1387">&#171;control&#187;</text><text fill="#000000" font-family="Verdana" font-size="14" lengthAdjust="spacing" textLength="84.2734" x="359.4385" y="574.9639">TaskService</text><line style="stroke:#000000;stroke-width:1;" x1="227" x2="548.6504" y1="583.2656" y2="583.2656"/><line style="stroke:#000000;stroke-width:1;" x1="227" x2="548.6504" y1="591.2656" y2="591.2656"/><text fill="#000000" font-family="Verdana" font-size="14" lengthAdjust="spacing" textLength="311.6504" x="232" y="608.2607">+create_new_task(data, owner_id, db): Task</text></g><!--class TaskRepository--><g class="entity" data-qualified-name="Capa API .FastAPI..TaskRepository" data-source-line="25" id="ent0009"><rect fill="#FFFFFF" height="72.5625" rx="2.5" ry="2.5" style="stroke:#000000;stroke-width:1;" width="178.9131" x="298.5" y="701"/><ellipse cx="330.9889" cy="721.1328" fill="#FFFFFF" rx="9" ry="9" style="stroke:#000000;stroke-width:1;"/><path d="M333.9576,726.7734 Q333.3795,727.0703 332.7389,727.2109 Q332.0982,727.3672 331.3951,727.3672 Q328.8951,727.3672 327.567,725.7266 Q326.2545,724.0703 326.2545,720.9453 Q326.2545,717.8203 327.567,716.1641 Q328.8951,714.5078 331.3951,714.5078 Q332.0982,714.5078 332.7389,714.6641 Q333.3951,714.8203 333.9576,715.1172 L333.9576,717.8359 Q333.3326,717.2578 332.7389,716.9922 Q332.1451,716.7109 331.5201,716.7109 Q330.1764,716.7109 329.4889,717.7891 Q328.8014,718.8516 328.8014,720.9453 Q328.8014,723.0391 329.4889,724.1172 Q330.1764,725.1797 331.5201,725.1797 Q332.1451,725.1797 332.7389,724.9141 Q333.3326,724.6328 333.9576,724.0547 L333.9576,726.7734 Z " fill="#000000"/><text fill="#000000" font-family="Verdana" font-size="12" font-style="italic" lengthAdjust="spacing" textLength="49.6465" x="376.2987" y="717.1387">&#171;entity&#187;</text><text fill="#000000" font-family="Verdana" font-size="14" lengthAdjust="spacing" textLength="107.6045" x="347.3197" y="732.9639">TaskRepository</text><line style="stroke:#000000;stroke-width:1;" x1="299.5" x2="476.4131" y1="741.2656" y2="741.2656"/><line style="stroke:#000000;stroke-width:1;" x1="299.5" x2="476.4131" y1="749.2656" y2="749.2656"/><text fill="#000000" font-family="Verdana" font-size="14" lengthAdjust="spacing" textLength="166.9131" x="304.5" y="766.2607">+create(task_obj): Task</text></g><!--class Task--><g class="entity" data-qualified-name="Capa Datos .SQLAlchemy..Task" data-source-line="31" id="ent0011"><rect fill="#FFFFFF" height="105.1563" rx="2.5" ry="2.5" style="stroke:#000000;stroke-width:1;" width="131.335" x="322.5" y="874"/><ellipse cx="361.5942" cy="894.1328" fill="#FFFFFF" rx="9" ry="9" style="stroke:#000000;stroke-width:1;"/><path d="M364.563,899.7734 Q363.9849,900.0703 363.3442,900.2109 Q362.7036,900.3672 362.0005,900.3672 Q359.5005,900.3672 358.1724,898.7266 Q356.8599,897.0703 356.8599,893.9453 Q356.8599,890.8203 358.1724,889.1641 Q359.5005,887.5078 362.0005,887.5078 Q362.7036,887.5078 363.3442,887.6641 Q364.0005,887.8203 364.563,888.1172 L364.563,890.8359 Q363.938,890.2578 363.3442,889.9922 Q362.7505,889.7109 362.1255,889.7109 Q360.7817,889.7109 360.0942,890.7891 Q359.4067,891.8516 359.4067,893.9453 Q359.4067,896.0391 360.0942,897.1172 Q360.7817,898.1797 362.1255,898.1797 Q362.7505,898.1797 363.3442,897.9141 Q363.938,897.6328 364.563,897.0547 L364.563,899.7734 Z " fill="#000000"/><text fill="#000000" font-family="Verdana" font-size="12" font-style="italic" lengthAdjust="spacing" textLength="49.6465" x="377.0942" y="890.1387">&#171;entity&#187;</text><text fill="#000000" font-family="Verdana" font-size="14" lengthAdjust="spacing" textLength="32.5322" x="385.6514" y="905.9639">Task</text><line style="stroke:#000000;stroke-width:1;" x1="323.5" x2="452.835" y1="914.2656" y2="914.2656"/><text fill="#000000" font-family="Verdana" font-size="14" lengthAdjust="spacing" textLength="69.0771" x="328.5" y="931.2607">+id: UUID</text><text fill="#000000" font-family="Verdana" font-size="14" lengthAdjust="spacing" textLength="66.8076" x="328.5" y="947.5576">+title: str</text><text fill="#000000" font-family="Verdana" font-size="14" lengthAdjust="spacing" textLength="119.335" x="328.5" y="963.8545">+owner_id: UUID</text><line style="stroke:#000000;stroke-width:1;" x1="323.5" x2="452.835" y1="971.1563" y2="971.1563"/></g><!--link CreateTaskModal to useTasks--><g class="link" data-entity-1="ent0003" data-entity-2="ent0004" data-link-type="dependency" data-source-line="38" id="lnk12"><path codeLine="38" d="M288,135.37 C288,159.52 288,183.11 288,205.83" fill="none" id="CreateTaskModal-to-useTasks" style="stroke:#000000;stroke-width:1;stroke-dasharray:7,7;"/><polygon fill="#000000" points="288,211.83,292,202.83,288,206.83,284,202.83,288,211.83" style="stroke:#000000;stroke-width:1;"/><text fill="#000000" font-family="Verdana" font-size="13" lengthAdjust="spacing" textLength="22.9785" x="289" y="178.0669">usa</text></g><!--link useTasks to TaskRouter--><g class="link" data-entity-1="ent0004" data-entity-2="ent0006" data-link-type="dependency" data-source-line="39" id="lnk13"><path codeLine="39" d="M288,285.35 C288,314.63 288,349.8 288,378.99" fill="none" id="useTasks-to-TaskRouter" style="stroke:#000000;stroke-width:1;stroke-dasharray:7,7;"/><polygon fill="#000000" points="288,384.99,292,375.99,288,379.99,284,375.99,288,384.99" style="stroke:#000000;stroke-width:1;"/><text fill="#000000" font-family="Verdana" font-size="13" lengthAdjust="spacing" textLength="114.5435" x="289" y="330.0669">HTTP POST /tasks</text></g><!--link TaskRouter to TaskCreateSchema--><g class="link" data-entity-1="ent0006" data-entity-2="ent0007" data-link-type="dependency" data-source-line="40" id="lnk14"><path codeLine="40" d="M246.93,458.29 C220.82,481.05 191.3533,506.728 163.6533,530.868" fill="none" id="TaskRouter-to-TaskCreateSchema" style="stroke:#000000;stroke-width:1;stroke-dasharray:7,7;"/><polygon fill="#000000" points="159.13,534.81,168.543,531.9126,162.8995,531.525,163.287,525.8814,159.13,534.81" style="stroke:#000000;stroke-width:1;"/><text fill="#000000" font-family="Verdana" font-size="13" lengthAdjust="spacing" textLength="39.1016" x="210" y="501.0669">valida</text></g><!--link TaskRouter to TaskService--><g class="link" data-entity-1="ent0006" data-entity-2="ent0008" data-link-type="dependency" data-source-line="41" id="lnk15"><path codeLine="41" d="M310.94,458.29 C327.2,483.66 345.693,512.4981 361.923,537.8281" fill="none" id="TaskRouter-to-TaskService" style="stroke:#000000;stroke-width:1;stroke-dasharray:7,7;"/><polygon fill="#000000" points="365.16,542.88,363.6725,533.1441,362.4625,538.6701,356.9366,537.4601,365.16,542.88" style="stroke:#000000;stroke-width:1;"/><text fill="#000000" font-family="Verdana" font-size="13" lengthAdjust="spacing" textLength="42.6118" x="339" y="501.0669">invoca</text></g><!--link TaskService to TaskRepository--><g class="link" data-entity-1="ent0008" data-entity-2="ent0009" data-link-type="dependency" data-source-line="42" id="lnk16"><path codeLine="42" d="M388,616.29 C388,641.66 388,669.55 388,694.88" fill="none" id="TaskService-to-TaskRepository" style="stroke:#000000;stroke-width:1;stroke-dasharray:7,7;"/><polygon fill="#000000" points="388,700.88,392,691.88,388,695.88,384,691.88,388,700.88" style="stroke:#000000;stroke-width:1;"/><text fill="#000000" font-family="Verdana" font-size="13" lengthAdjust="spacing" textLength="51.8477" x="389" y="667.0669">persiste</text></g><!--link TaskRepository to Task--><g class="link" data-entity-1="ent0009" data-entity-2="ent0011" data-link-type="dependency" data-source-line="43" id="lnk17"><path codeLine="43" d="M388,774.11 C388,802.3 388,836.06 388,867.76" fill="none" id="TaskRepository-to-Task" style="stroke:#000000;stroke-width:1;stroke-dasharray:7,7;"/><polygon fill="#000000" points="388,873.76,392,864.76,388,868.76,384,864.76,388,873.76" style="stroke:#000000;stroke-width:1;"/><text fill="#000000" font-family="Verdana" font-size="13" lengthAdjust="spacing" textLength="28.4565" x="389" y="819.0669">crea</text></g><?plantuml-src XL9BRzim3BxxLt0z9MZwE1j5WA35i00hciN9sQ0bRcNZI8P4fyY6_FT9yPmudelgOCZY9tuFwekyqfQWAf5DuZTiAdIu1LMYzpCHnqKjD5VMPFoRu3v9AbGR_4LmzOWLmdeEeoMXal4L_4aWhEDDU7I4GYlqcsUhiOI7XyBMHgFRJwV_W77Tm4_hjayec484DzSo5JJX2NGDhsXqILbTR5b6usFXq26h_P791vOWL9mjBqYkGPtKZFGWLzlpqFStMmI3Nz5BsFGinXvB6z9n7xbhYNE9pF6Jivc0gfqZ8tcGxIQWYt6Zf-FwqAFfIWraMcoFHrXAIi6Bwnngyifn9MpDkTHldP7RiQ9FeiiDlJSkOduJiE-6NCww8t-m-v8gwrcismU2u9bbEA4c75kyNJRxRnpXfLWFe-p7zraPqzWFpEGZ9jOfhDVpfyzYQxrrq4Sb_ITzUpizlxmqR34v_SPQvtsay6srMi3Y9Ll1NRJgaqwr1LzCEOKTbgnn2DZEB0KsEwiQJ7jueZv7dq95phCNIdgL5XmWSH1_0G00?></g></svg>