<?plantuml 1.2026.2?><svg xmlns="http://www.w3.org/2000/svg" xmlns:xlink="http://www.w3.org/1999/xlink" contentStyleType="text/css" data-diagram-type="SEQUENCE" height="474px" preserveAspectRatio="none" style="width:1308px;height:474px;background:#FFFFFF;" version="1.1" viewBox="0 0 1308 474" width="1308px" zoomAndPan="magnify"><defs/><g><g><title>..UI React..</title><rect fill="#FFFFFF" height="262.1953" style="stroke:#000000;stroke-width:1;" width="10" x="233.2568" y="113.4297"/></g><g><title>..Router FastAPI..</title><rect fill="#FFFFFF" height="203.9297" style="stroke:#000000;stroke-width:1;" width="10" x="412.7861" y="142.5625"/></g><g><title>..L.gica de Negocio..</title><rect fill="#FFFFFF" height="145.6641" style="stroke:#000000;stroke-width:1;" width="10" x="666.7925" y="171.6953"/></g><g><title>..Capa Datos SQLAlchemy..</title><rect fill="#FFFFFF" height="87.3984" style="stroke:#000000;stroke-width:1;" width="10" x="908.73" y="200.8281"/></g><g><title>PostgreSQL</title><rect fill="#FFFFFF" height="29.1328" style="stroke:#000000;stroke-width:1;" width="10" x="1259.0938" y="229.9609"/></g><g class="participant-lifeline" data-entity-uid="part1" data-qualified-name="Usuario" id="part1-lifeline"><g><title>Usuario</title><rect fill="#000000" fill-opacity="0.00000" height="311.3281" width="8" x="35.6021" y="82.2969"/><line style="stroke:#000000;stroke-width:1;stroke-dasharray:5,5;" x1="39" x2="39" y1="82.2969" y2="393.625"/></g></g><g class="participant-lifeline" data-entity-uid="part2" data-qualified-name="InvitacionesView" id="part2-lifeline"><g><title>..UI React..</title><rect fill="#000000" fill-opacity="0.00000" height="311.3281" width="8" x="234.2568" y="82.2969"/><line style="stroke:#000000;stroke-width:1;stroke-dasharray:5,5;" x1="237.4028" x2="237.4028" y1="82.2969" y2="393.625"/></g></g><g class="participant-lifeline" data-entity-uid="part3" data-qualified-name="InvitacionesController" id="part3-lifeline"><g><title>..Router FastAPI..</title><rect fill="#000000" fill-opacity="0.00000" height="311.3281" width="8" x="413.7861" y="82.2969"/><line style="stroke:#000000;stroke-width:1;stroke-dasharray:5,5;" x1="417.1108" x2="417.1108" y1="82.2969" y2="393.625"/></g></g><g class="participant-lifeline" data-entity-uid="part4" data-qualified-name="InvitacionesService" id="part4-lifeline"><g><title>..L.gica de Negocio..</title><rect fill="#000000" fill-opacity="0.00000" height="311.3281" width="8" x="667.7925" y="82.2969"/><line style="stroke:#000000;stroke-width:1;stroke-dasharray:5,5;" x1="670.8975" x2="670.8975" y1="82.2969" y2="393.625"/></g></g><g class="participant-lifeline" data-entity-uid="part5" data-qualified-name="InvitacionRepository" id="part5-lifeline"><g><title>..Capa Datos SQLAlchemy..</title><rect fill="#000000" fill-opacity="0.00000" height="311.3281" width="8" x="909.73" y="82.2969"/><line style="stroke:#000000;stroke-width:1;stroke-dasharray:5,5;" x1="913.2354" x2="913.2354" y1="82.2969" y2="393.625"/></g></g><g class="participant-lifeline" data-entity-uid="part6" data-qualified-name="PostgreSQL" id="part6-lifeline"><g><title>PostgreSQL</title><rect fill="#000000" fill-opacity="0.00000" height="311.3281" width="8" x="1260.0938" y="82.2969"/><line style="stroke:#000000;stroke-width:1;stroke-dasharray:5,5;" x1="1263.7173" x2="1263.7173" y1="82.2969" y2="393.625"/></g></g><g class="participant participant-head" data-entity-uid="part1" data-qualified-name="Usuario" id="part1-head"><text fill="#000000" font-family="Verdana" font-size="14" lengthAdjust="spacing" textLength="53.2041" x="10" y="78.9951">Usuario</text><ellipse cx="39.6021" cy="14" fill="#FFFFFF" rx="8" ry="8" style="stroke:#000000;stroke-width:1;"/><path d="M39.6021,22 L39.6021,49 M26.6021,30 L52.6021,30 M39.6021,49 L26.6021,64 M39.6021,49 L52.6021,64" fill="none" style="stroke:#000000;stroke-width:1;"/></g><g class="participant participant-tail" data-entity-uid="part1" data-qualified-name="Usuario" id="part1-tail"><text fill="#000000" font-family="Verdana" font-size="14" lengthAdjust="spacing" textLength="53.2041" x="10" y="405.6201">Usuario</text><ellipse cx="39.6021" cy="417.9219" fill="#FFFFFF" rx="8" ry="8" style="stroke:#000000;stroke-width:1;"/><path d="M39.6021,425.9219 L39.6021,452.9219 M26.6021,433.9219 L52.6021,433.9219 M39.6021,452.9219 L26.6021,467.9219 M39.6021,452.9219 L52.6021,467.9219" fill="none" style="stroke:#000000;stroke-width:1;"/></g><g class="participant participant-head" data-entity-uid="part2" data-qualified-name="InvitacionesView" id="part2-head"><rect fill="#FFFFFF" height="46.5938" rx="2.5" ry="2.5" style="stroke:#000000;stroke-width:1;" width="131.708" x="172.4028" y="34.7031"/><text fill="#000000" font-family="Verdana" font-size="14" font-style="italic" lengthAdjust="spacing" textLength="76.2139" x="200.1499" y="54.6982">&#171;UI React&#187;</text><text fill="#000000" font-family="Verdana" font-size="14" lengthAdjust="spacing" textLength="117.708" x="179.4028" y="70.9951">InvitacionesView</text></g><g class="participant participant-tail" data-entity-uid="part2" data-qualified-name="InvitacionesView" id="part2-tail"><rect fill="#FFFFFF" height="46.5938" rx="2.5" ry="2.5" style="stroke:#000000;stroke-width:1;" width="131.708" x="172.4028" y="392.625"/><text fill="#000000" font-family="Verdana" font-size="14" font-style="italic" lengthAdjust="spacing" textLength="76.2139" x="200.1499" y="412.6201">&#171;UI React&#187;</text><text fill="#000000" font-family="Verdana" font-size="14" lengthAdjust="spacing" textLength="117.708" x="179.4028" y="428.917">InvitacionesView</text></g><g class="participant participant-head" data-entity-uid="part3" data-qualified-name="InvitacionesController" id="part3-head"><rect fill="#FFFFFF" height="46.5938" rx="2.5" ry="2.5" style="stroke:#000000;stroke-width:1;" width="167.3506" x="334.1108" y="34.7031"/><text fill="#000000" font-family="Verdana" font-size="14" font-style="italic" lengthAdjust="spacing" textLength="120.3193" x="357.6265" y="54.6982">&#171;Router FastAPI&#187;</text><text fill="#000000" font-family="Verdana" font-size="14" lengthAdjust="spacing" textLength="153.3506" x="341.1108" y="70.9951">InvitacionesController</text></g><g class="participant participant-tail" data-entity-uid="part3" data-qualified-name="InvitacionesController" id="part3-tail"><rect fill="#FFFFFF" height="46.5938" rx="2.5" ry="2.5" style="stroke:#000000;stroke-width:1;" width="167.3506" x="334.1108" y="392.625"/><text fill="#000000" font-family="Verdana" font-size="14" font-style="italic" lengthAdjust="spacing" textLength="120.3193" x="357.6265" y="412.6201">&#171;Router FastAPI&#187;</text><text fill="#000000" font-family="Verdana" font-size="14" lengthAdjust="spacing" textLength="153.3506" x="341.1108" y="428.917">InvitacionesController</text></g><g class="participant participant-head" data-entity-uid="part4" data-qualified-name="InvitacionesService" id="part4-head"><rect fill="#FFFFFF" height="46.5938" rx="2.5" ry="2.5" style="stroke:#000000;stroke-width:1;" width="159.79" x="591.8975" y="34.7031"/><text fill="#000000" font-family="Verdana" font-size="14" font-style="italic" lengthAdjust="spacing" textLength="145.79" x="598.8975" y="54.6982">&#171;L&#243;gica de Negocio&#187;</text><text fill="#000000" font-family="Verdana" font-size="14" lengthAdjust="spacing" textLength="135.9189" x="603.833" y="70.9951">InvitacionesService</text></g><g class="participant participant-tail" data-entity-uid="part4" data-qualified-name="InvitacionesService" id="part4-tail"><rect fill="#FFFFFF" height="46.5938" rx="2.5" ry="2.5" style="stroke:#000000;stroke-width:1;" width="159.79" x="591.8975" y="392.625"/><text fill="#000000" font-family="Verdana" font-size="14" font-style="italic" lengthAdjust="spacing" textLength="145.79" x="598.8975" y="412.6201">&#171;L&#243;gica de Negocio&#187;</text><text fill="#000000" font-family="Verdana" font-size="14" lengthAdjust="spacing" textLength="135.9189" x="603.833" y="428.917">InvitacionesService</text></g><g class="participant participant-head" data-entity-uid="part5" data-qualified-name="InvitacionRepository" id="part5-head"><rect fill="#FFFFFF" height="46.5938" rx="2.5" ry="2.5" style="stroke:#000000;stroke-width:1;" width="204.9893" x="811.2354" y="34.7031"/><text fill="#000000" font-family="Verdana" font-size="14" font-style="italic" lengthAdjust="spacing" textLength="190.9893" x="818.2354" y="54.6982">&#171;Capa Datos SQLAlchemy&#187;</text><text fill="#000000" font-family="Verdana" font-size="14" lengthAdjust="spacing" textLength="143.3428" x="842.0586" y="70.9951">InvitacionRepository</text></g><g class="participant participant-tail" data-entity-uid="part5" data-qualified-name="InvitacionRepository" id="part5-tail"><rect fill="#FFFFFF" height="46.5938" rx="2.5" ry="2.5" style="stroke:#000000;stroke-width:1;" width="204.9893" x="811.2354" y="392.625"/><text fill="#000000" font-family="Verdana" font-size="14" font-style="italic" lengthAdjust="spacing" textLength="190.9893" x="818.2354" y="412.6201">&#171;Capa Datos SQLAlchemy&#187;</text><text fill="#000000" font-family="Verdana" font-size="14" lengthAdjust="spacing" textLength="143.3428" x="842.0586" y="428.917">InvitacionRepository</text></g><g class="participant participant-head" data-entity-uid="part6" data-qualified-name="PostgreSQL" id="part6-head"><text fill="#000000" font-family="Verdana" font-size="14" lengthAdjust="spacing" textLength="80.7529" x="1220.7173" y="78.9951">PostgreSQL</text><path d="M1246.0938,30 C1246.0938,20 1264.0938,20 1264.0938,20 C1264.0938,20 1282.0938,20 1282.0938,30 L1282.0938,56 C1282.0938,66 1264.0938,66 1264.0938,66 C1264.0938,66 1246.0938,66 1246.0938,56 L1246.0938,30" fill="#FFFFFF" style="stroke:#000000;stroke-width:1;"/><path d="M1246.0938,30 C1246.0938,40 1264.0938,40 1264.0938,40 C1264.0938,40 1282.0938,40 1282.0938,30" fill="none" style="stroke:#000000;stroke-width:1;"/></g><g class="participant participant-tail" data-entity-uid="part6" data-qualified-name="PostgreSQL" id="part6-tail"><text fill="#000000" font-family="Verdana" font-size="14" lengthAdjust="spacing" textLength="80.7529" x="1220.7173" y="405.6201">PostgreSQL</text><path d="M1246.0938,418.9219 C1246.0938,408.9219 1264.0938,408.9219 1264.0938,408.9219 C1264.0938,408.9219 1282.0938,408.9219 1282.0938,418.9219 L1282.0938,444.9219 C1282.0938,454.9219 1264.0938,454.9219 1264.0938,454.9219 C1264.0938,454.9219 1246.0938,454.9219 1246.0938,444.9219 L1246.0938,418.9219" fill="#FFFFFF" style="stroke:#000000;stroke-width:1;"/><path d="M1246.0938,418.9219 C1246.0938,428.9219 1264.0938,428.9219 1264.0938,428.9219 C1264.0938,428.9219 1282.0938,428.9219 1282.0938,418.9219" fill="none" style="stroke:#000000;stroke-width:1;"/></g><g><title>..UI React..</title><rect fill="#FFFFFF" height="262.1953" style="stroke:#000000;stroke-width:1;" width="10" x="233.2568" y="113.4297"/></g><g><title>..Router FastAPI..</title><rect fill="#FFFFFF" height="203.9297" style="stroke:#000000;stroke-width:1;" width="10" x="412.7861" y="142.5625"/></g><g><title>..L.gica de Negocio..</title><rect fill="#FFFFFF" height="145.6641" style="stroke:#000000;stroke-width:1;" width="10" x="666.7925" y="171.6953"/></g><g><title>..Capa Datos SQLAlchemy..</title><rect fill="#FFFFFF" height="87.3984" style="stroke:#000000;stroke-width:1;" width="10" x="908.73" y="200.8281"/></g><g><title>PostgreSQL</title><rect fill="#FFFFFF" height="29.1328" style="stroke:#000000;stroke-width:1;" width="10" x="1259.0938" y="229.9609"/></g><g class="message" data-entity-1="part1" data-entity-2="part2" id="msg1"><polygon fill="#000000" points="221.2568,109.4297,231.2568,113.4297,221.2568,117.4297,225.2568,113.4297" style="stroke:#000000;stroke-width:1;"/><line style="stroke:#000000;stroke-width:1;" x1="39.6021" x2="227.2568" y1="113.4297" y2="113.4297"/><text fill="#000000" font-family="Verdana" font-size="13" font-weight="bold" lengthAdjust="spacing" textLength="9.0454" x="46.6021" y="108.3638">1</text><text fill="#000000" font-family="Verdana" font-size="13" lengthAdjust="spacing" textLength="161.2051" x="59.6475" y="108.3638">Hace clic en Invitaciones</text></g><g class="message" data-entity-1="part2" data-entity-2="part3" id="msg2"><polygon fill="#000000" points="400.7861,138.5625,410.7861,142.5625,400.7861,146.5625,404.7861,142.5625" style="stroke:#000000;stroke-width:1;"/><line style="stroke:#000000;stroke-width:1;" x1="243.2568" x2="406.7861" y1="142.5625" y2="142.5625"/><text fill="#000000" font-family="Verdana" font-size="13" font-weight="bold" lengthAdjust="spacing" textLength="9.0454" x="250.2568" y="137.4966">2</text><text fill="#000000" font-family="Verdana" font-size="13" lengthAdjust="spacing" textLength="112.6836" x="263.3022" y="137.4966">GET /invitaciones</text></g><g class="message" data-entity-1="part3" data-entity-2="part4" id="msg3"><polygon fill="#000000" points="654.7925,167.6953,664.7925,171.6953,654.7925,175.6953,658.7925,171.6953" style="stroke:#000000;stroke-width:1;"/><line style="stroke:#000000;stroke-width:1;" x1="422.7861" x2="660.7925" y1="171.6953" y2="171.6953"/><text fill="#000000" font-family="Verdana" font-size="13" font-weight="bold" lengthAdjust="spacing" textLength="9.0454" x="429.7861" y="166.6294">3</text><text fill="#000000" font-family="Verdana" font-size="13" lengthAdjust="spacing" textLength="211.9609" x="442.8315" y="166.6294">obtener_invitaciones(usuario_id)</text></g><g class="message" data-entity-1="part4" data-entity-2="part5" id="msg4"><polygon fill="#000000" points="896.73,196.8281,906.73,200.8281,896.73,204.8281,900.73,200.8281" style="stroke:#000000;stroke-width:1;"/><line style="stroke:#000000;stroke-width:1;" x1="676.7925" x2="902.73" y1="200.8281" y2="200.8281"/><text fill="#000000" font-family="Verdana" font-size="13" font-weight="bold" lengthAdjust="spacing" textLength="9.0454" x="683.7925" y="195.7622">4</text><text fill="#000000" font-family="Verdana" font-size="13" lengthAdjust="spacing" textLength="183.4473" x="696.8379" y="195.7622">findAllByUsuario(usuario_id)</text></g><g class="message" data-entity-1="part5" data-entity-2="part6" id="msg5"><polygon fill="#000000" points="1247.0938,225.9609,1257.0938,229.9609,1247.0938,233.9609,1251.0938,229.9609" style="stroke:#000000;stroke-width:1;"/><line style="stroke:#000000;stroke-width:1;" x1="918.73" x2="1253.0938" y1="229.9609" y2="229.9609"/><text fill="#000000" font-family="Verdana" font-size="13" font-weight="bold" lengthAdjust="spacing" textLength="9.0454" x="925.73" y="224.895">5</text><text fill="#000000" font-family="Verdana" font-size="13" lengthAdjust="spacing" textLength="308.3184" x="938.7754" y="224.895">SELECT * FROM invitations WHERE user_id = ...</text></g><g class="message" data-entity-1="part6" data-entity-2="part5" id="msg6"><polygon fill="#000000" points="929.73,255.0938,919.73,259.0938,929.73,263.0938,925.73,259.0938" style="stroke:#000000;stroke-width:1;"/><line style="stroke:#000000;stroke-width:1;stroke-dasharray:2,2;" x1="923.73" x2="1263.0938" y1="259.0938" y2="259.0938"/><text fill="#000000" font-family="Verdana" font-size="13" font-weight="bold" lengthAdjust="spacing" textLength="9.0454" x="935.73" y="254.0278">6</text><text fill="#000000" font-family="Verdana" font-size="13" lengthAdjust="spacing" textLength="194.8921" x="948.7754" y="254.0278">Devuelve lista de invitaciones</text></g><g class="message" data-entity-1="part5" data-entity-2="part4" id="msg7"><polygon fill="#000000" points="687.7925,284.2266,677.7925,288.2266,687.7925,292.2266,683.7925,288.2266" style="stroke:#000000;stroke-width:1;"/><line style="stroke:#000000;stroke-width:1;stroke-dasharray:2,2;" x1="681.7925" x2="912.73" y1="288.2266" y2="288.2266"/><text fill="#000000" font-family="Verdana" font-size="13" font-weight="bold" lengthAdjust="spacing" textLength="9.0454" x="693.7925" y="283.1606">7</text><text fill="#000000" font-family="Verdana" font-size="13" lengthAdjust="spacing" textLength="194.8921" x="706.8379" y="283.1606">Devuelve lista de invitaciones</text></g><g class="message" data-entity-1="part4" data-entity-2="part3" id="msg8"><polygon fill="#000000" points="433.7861,313.3594,423.7861,317.3594,433.7861,321.3594,429.7861,317.3594" style="stroke:#000000;stroke-width:1;"/><line style="stroke:#000000;stroke-width:1;stroke-dasharray:2,2;" x1="427.7861" x2="670.7925" y1="317.3594" y2="317.3594"/><text fill="#000000" font-family="Verdana" font-size="13" font-weight="bold" lengthAdjust="spacing" textLength="9.0454" x="439.7861" y="312.2935">8</text><text fill="#000000" font-family="Verdana" font-size="13" lengthAdjust="spacing" textLength="194.8921" x="452.8315" y="312.2935">Devuelve lista de invitaciones</text></g><g class="message" data-entity-1="part3" data-entity-2="part2" id="msg9"><polygon fill="#000000" points="254.2568,342.4922,244.2568,346.4922,254.2568,350.4922,250.2568,346.4922" style="stroke:#000000;stroke-width:1;"/><line style="stroke:#000000;stroke-width:1;stroke-dasharray:2,2;" x1="248.2568" x2="416.7861" y1="346.4922" y2="346.4922"/><text fill="#000000" font-family="Verdana" font-size="13" font-weight="bold" lengthAdjust="spacing" textLength="9.0454" x="260.2568" y="341.4263">9</text><text fill="#000000" font-family="Verdana" font-size="13" lengthAdjust="spacing" textLength="104.3047" x="273.3022" y="341.4263">Respuesta JSON</text></g><g class="message" data-entity-1="part2" data-entity-2="part1" id="msg10"><polygon fill="#000000" points="50.6021,371.625,40.6021,375.625,50.6021,379.625,46.6021,375.625" style="stroke:#000000;stroke-width:1;"/><line style="stroke:#000000;stroke-width:1;stroke-dasharray:2,2;" x1="44.6021" x2="237.2568" y1="375.625" y2="375.625"/><text fill="#000000" font-family="Verdana" font-size="13" font-weight="bold" lengthAdjust="spacing" textLength="18.0908" x="56.6021" y="370.5591">10</text><text fill="#000000" font-family="Verdana" font-size="13" lengthAdjust="spacing" textLength="147.564" x="78.6929" y="370.5591">Renderiza Invitaciones</text></g><?plantuml-src dPFVJi8m5CRl-nJ7EpKHxnSaGHoAGTI1UaaEsn5FKjkbxMRmjNm4NynE81kmWV6kIVlzldxdpv5xetU2L28hWPdJAdkVaH42OwSDFDaC3MkHed4SSuhAmK3bx31chSW-Ctr0k_qqW8YyejDfVDdJoXaj9Hd_FjAPyuS-MjTz6EnHZSda79EN3B-_vXmZ90GZccj_tIYBADMM_VSNNjV35E4AdROmVXnsPUppBhmqGOSpj0GFshgv8Nyfn2ekd7LsKmPmW_udiUGOI6tS5yNY71tjgCGEPWjTAKi0r-44plaWkDI81jIMoRgA0UYP8qLcMZKvpfQffvoSr1kkzAAEkM5LgNm0hwoIhfINYrLL3_cKOb5Bz4vbhpn_70x3tWHEeH_Tty4oaVCI2oytOHH2PekW2Ln0gzKg3Ilzhk3EcdDSKPwHp0aaM_SxW1ijIgWENP-WiIz_zpXGhqfZzatQV_pgvw0wTVLh4v5DCofiRiVteoPsmr0lTyQ3rwjPy5H2XZznSmSRk0NW1m00?></g></svg>