<?plantuml 1.2026.2?><svg xmlns="http://www.w3.org/2000/svg" xmlns:xlink="http://www.w3.org/1999/xlink" contentStyleType="text/css" data-diagram-type="DESCRIPTION" height="443px" preserveAspectRatio="none" style="width:716px;height:443px;background:#FFFFFF;" version="1.1" viewBox="0 0 716 443" width="716px" zoomAndPan="magnify"><defs/><g><!--cluster editarGrupo--><g class="cluster" data-qualified-name="editarGrupo" data-source-line="4" id="ent0003"><path d="M383,6 L492.1582,6 A3.75,3.75 0 0 1 494.6582,8.5 L501.6582,28.2969 L637,28.2969 A2.5,2.5 0 0 1 639.5,30.7969 L639.5,433.5 A2.5,2.5 0 0 1 637,436 L383,436 A2.5,2.5 0 0 1 380.5,433.5 L380.5,8.5 A2.5,2.5 0 0 1 383,6" fill="none" style="stroke:#000000;stroke-width:1.5;"/><line style="stroke:#000000;stroke-width:1.5;" x1="380.5" x2="501.6582" y1="28.2969" y2="28.2969"/><text fill="#000000" font-family="sans-serif" font-size="14" font-weight="bold" lengthAdjust="spacing" textLength="108.1582" x="384.5" y="20.9951">editarGrupo()</text></g><!--entity EditarGrupoView--><g class="entity" data-qualified-name="editarGrupo.EditarGrupoView" data-source-line="5" id="ent0004"><rect fill="#629EF9" height="36.2969" rx="2.5" ry="2.5" style="stroke:#181818;stroke-width:0.5;" width="137.9063" x="396.5" y="41"/><text fill="#000000" font-family="sans-serif" font-size="14" lengthAdjust="spacing" textLength="117.9063" x="406.5" y="63.9951">EditarGrupoView</text></g><!--entity GruposController--><g class="entity" data-qualified-name="editarGrupo.GruposController" data-source-line="6" id="ent0005"><rect fill="#B5BD68" height="36.2969" rx="2.5" ry="2.5" style="stroke:#181818;stroke-width:0.5;" width="139.3965" x="397" y="174"/><text fill="#000000" font-family="sans-serif" font-size="14" lengthAdjust="spacing" textLength="119.3965" x="407" y="196.9951">GruposController</text></g><!--entity GrupoRepository--><g class="entity" data-qualified-name="editarGrupo.GrupoRepository" data-source-line="7" id="ent0006"><rect fill="#F2AC4E" height="36.2969" rx="2.5" ry="2.5" style="stroke:#181818;stroke-width:0.5;" width="138.002" x="396.5" y="287"/><text fill="#000000" font-family="sans-serif" font-size="14" lengthAdjust="spacing" textLength="118.002" x="406.5" y="309.9951">GrupoRepository</text></g><!--entity Grupo--><g class="entity" data-qualified-name="editarGrupo.Grupo" data-source-line="8" id="ent0007"><rect fill="#F2AC4E" height="36.2969" rx="2.5" ry="2.5" style="stroke:#181818;stroke-width:0.5;" width="62.9297" x="434" y="384"/><text fill="#000000" font-family="sans-serif" font-size="14" lengthAdjust="spacing" textLength="42.9297" x="444" y="406.9951">Grupo</text></g><!--entity Usuario--><g class="entity" data-qualified-name="Usuario" data-source-line="3" id="ent0002"><ellipse cx="682.6021" cy="29.5" fill="#F1F1F1" rx="8" ry="8" style="stroke:#181818;stroke-width:0.5;"/><path d="M682.6021,37.5 L682.6021,64.5 M669.6021,45.5 L695.6021,45.5 M682.6021,64.5 L669.6021,79.5 M682.6021,64.5 L695.6021,79.5" fill="none" style="stroke:#181818;stroke-width:0.5;"/><text fill="#000000" font-family="sans-serif" font-size="14" lengthAdjust="spacing" textLength="53.2041" x="656" y="93.9951">Usuario</text></g><!--entity SistemaDisponible--><g class="entity" data-qualified-name="SistemaDisponible" data-source-line="10" id="ent0008"><rect fill="#CDEBA5" height="36.2969" rx="2.5" ry="2.5" style="stroke:#181818;stroke-width:0.5;" width="159.125" x="7" y="41"/><text fill="#000000" font-family="sans-serif" font-size="14" lengthAdjust="spacing" textLength="139.125" x="17" y="63.9951">:Sistema Disponible</text></g><!--link SistemaDisponible to EditarGrupoView--><g class="link" data-entity-1="ent0008" data-entity-2="ent0004" data-link-type="dependency" data-source-line="12" id="lnk9"><path d="M166.41,59 C234.5,59 325.34,59 390.19,59" fill="none" id="SistemaDisponible-to-EditarGrupoView" style="stroke:#181818;stroke-width:1;"/><polygon fill="#181818" points="396.19,59,387.19,55,391.19,59,387.19,63,396.19,59" style="stroke:#181818;stroke-width:1;"/><text fill="#000000" font-family="sans-serif" font-size="13" lengthAdjust="spacing" textLength="143.1016" x="209.75" y="52.0669">1: editarGrupo(grupo)</text></g><!--link EditarGrupoView to SistemaDisponible--><g class="link" data-entity-1="ent0004" data-entity-2="ent0008" data-link-type="dependency" data-source-line="20" id="lnk13"><path d="M396.19,59 C331.34,59 240.5,59 172.41,59" fill="none" id="EditarGrupoView-to-SistemaDisponible" style="stroke:#181818;stroke-width:1;"/><polygon fill="#181818" points="166.41,59,175.41,63,171.41,59,175.41,55,166.41,59" style="stroke:#181818;stroke-width:1;"/><text fill="#000000" font-family="sans-serif" font-size="13" lengthAdjust="spacing" textLength="194.251" x="184.25" y="52.0669">4: sistemaDisponible(usuario)</text></g><!--link EditarGrupoView to GruposController--><g class="link" data-entity-1="ent0004" data-entity-2="ent0005" data-link-type="dependency" data-source-line="14" id="lnk10"><path d="M465.63,77.13 C465.82,102.23 466.1346,142.7602 466.3246,167.8702" fill="none" id="EditarGrupoView-to-GruposController" style="stroke:#181818;stroke-width:1;"/><polygon fill="#181818" points="466.37,173.87,470.3018,164.84,466.3322,168.8701,462.302,164.9005,466.37,173.87" style="stroke:#181818;stroke-width:1;"/><text fill="#000000" font-family="sans-serif" font-size="13" lengthAdjust="spacing" textLength="186.7354" x="466.5" y="140.0669">2: actualizarGrupo(id, datos)</text></g><!--link GruposController to GrupoRepository--><g class="link" data-entity-1="ent0005" data-entity-2="ent0006" data-link-type="dependency" data-source-line="16" id="lnk11"><path d="M466.34,210.34 C466.16,231.2 465.8919,259.9802 465.7119,280.7802" fill="none" id="GruposController-to-GrupoRepository" style="stroke:#181818;stroke-width:1;"/><polygon fill="#181818" points="465.66,286.78,469.7377,277.815,465.7033,281.7802,461.738,277.7457,465.66,286.78" style="stroke:#181818;stroke-width:1;"/><text fill="#000000" font-family="sans-serif" font-size="13" lengthAdjust="spacing" textLength="190.7598" x="466.5" y="253.0669">3: guardarCambios(id, datos)</text></g><!--link GrupoRepository to Grupo--><g class="link" data-entity-1="ent0006" data-entity-2="ent0007" data-link-type="association" data-source-line="18" id="lnk12"><path d="M465.5,323.42 C465.5,340.57 465.5,366.58 465.5,383.69" fill="none" id="GrupoRepository-Grupo" style="stroke:#181818;stroke-width:1;"/></g><?plantuml-src VL91QiCm4Bph5OjxiQ4-r4r2eqCWTPpUMzhxsX9cYMm9IQQufN-lt2Guo50T13ixE-oCv4xK6xJOWQ9U-j58C5gDKy4ODbvRU7S3MjBCO7F2Le8KvD6-sC5eG0V9JPrc2Nmp2CVAncFVAWbtcs9R7RTGpRGFafyngrxNOlC4VtrNwjvRhPIqCUrOxCjLTQQzoa2biEBu7ulzi9jEUQYUzsj8-1ivBpk40pcZUwgLJ2Ot5tX66Lj0aDjy5_lXyC1leqdRwSuOYtYGYp0Ss-HGS0Xn3wZewwf0uXu4Uks2IZm0-LLbJe738uSsF9P0Ms9NatPBZPaU92u9BNUS32vySrXnS36Q3kV_aVq2?></g></svg>