<?plantuml 1.2026.2?><svg xmlns="http://www.w3.org/2000/svg" xmlns:xlink="http://www.w3.org/1999/xlink" contentStyleType="text/css" data-diagram-type="DESCRIPTION" height="443px" preserveAspectRatio="none" style="width:716px;height:443px;background:#FFFFFF;" version="1.1" viewBox="0 0 716 443" width="716px" zoomAndPan="magnify"><defs/><g><!--cluster editarTarea--><g class="cluster" data-qualified-name="editarTarea" data-source-line="4" id="ent0003"><path d="M383,6 L489,6 A3.75,3.75 0 0 1 491.5,8.5 L498.5,28.2969 L637,28.2969 A2.5,2.5 0 0 1 639.5,30.7969 L639.5,433.5 A2.5,2.5 0 0 1 637,436 L383,436 A2.5,2.5 0 0 1 380.5,433.5 L380.5,8.5 A2.5,2.5 0 0 1 383,6" fill="none" style="stroke:#000000;stroke-width:1.5;"/><line style="stroke:#000000;stroke-width:1.5;" x1="380.5" x2="498.5" y1="28.2969" y2="28.2969"/><text fill="#000000" font-family="sans-serif" font-size="14" font-weight="bold" lengthAdjust="spacing" textLength="105" x="384.5" y="20.9951">editarTarea()</text></g><!--entity EditarTareaView--><g class="entity" data-qualified-name="editarTarea.EditarTareaView" data-source-line="5" id="ent0004"><rect fill="#629EF9" height="36.2969" rx="2.5" ry="2.5" style="stroke:#181818;stroke-width:0.5;" width="135.0557" x="397" y="41"/><text fill="#000000" font-family="sans-serif" font-size="14" lengthAdjust="spacing" textLength="115.0557" x="407" y="63.9951">EditarTareaView</text></g><!--entity TareasController--><g class="entity" data-qualified-name="editarTarea.TareasController" data-source-line="6" id="ent0005"><rect fill="#B5BD68" height="36.2969" rx="2.5" ry="2.5" style="stroke:#181818;stroke-width:0.5;" width="136.5459" x="397" y="174"/><text fill="#000000" font-family="sans-serif" font-size="14" lengthAdjust="spacing" textLength="116.5459" x="407" y="196.9951">TareasController</text></g><!--entity TareaRepository--><g class="entity" data-qualified-name="editarTarea.TareaRepository" data-source-line="7" id="ent0006"><rect fill="#F2AC4E" height="36.2969" rx="2.5" ry="2.5" style="stroke:#181818;stroke-width:0.5;" width="135.1514" x="397" y="287"/><text fill="#000000" font-family="sans-serif" font-size="14" lengthAdjust="spacing" textLength="115.1514" x="407" y="309.9951">TareaRepository</text></g><!--entity Tarea--><g class="entity" data-qualified-name="editarTarea.Tarea" data-source-line="8" id="ent0007"><rect fill="#F2AC4E" height="36.2969" rx="2.5" ry="2.5" style="stroke:#181818;stroke-width:0.5;" width="60.0791" x="434.5" y="384"/><text fill="#000000" font-family="sans-serif" font-size="14" lengthAdjust="spacing" textLength="40.0791" x="444.5" y="406.9951">Tarea</text></g><!--entity Usuario--><g class="entity" data-qualified-name="Usuario" data-source-line="3" id="ent0002"><ellipse cx="682.6021" cy="29.5" fill="#F1F1F1" rx="8" ry="8" style="stroke:#181818;stroke-width:0.5;"/><path d="M682.6021,37.5 L682.6021,64.5 M669.6021,45.5 L695.6021,45.5 M682.6021,64.5 L669.6021,79.5 M682.6021,64.5 L695.6021,79.5" fill="none" style="stroke:#181818;stroke-width:0.5;"/><text fill="#000000" font-family="sans-serif" font-size="14" lengthAdjust="spacing" textLength="53.2041" x="656" y="93.9951">Usuario</text></g><!--entity SistemaDisponible--><g class="entity" data-qualified-name="SistemaDisponible" data-source-line="10" id="ent0008"><rect fill="#CDEBA5" height="36.2969" rx="2.5" ry="2.5" style="stroke:#181818;stroke-width:0.5;" width="159.125" x="7" y="41"/><text fill="#000000" font-family="sans-serif" font-size="14" lengthAdjust="spacing" textLength="139.125" x="17" y="63.9951">:Sistema Disponible</text></g><!--link SistemaDisponible to EditarTareaView--><g class="link" data-entity-1="ent0008" data-entity-2="ent0004" data-link-type="dependency" data-source-line="12" id="lnk9"><path d="M166.2,59 C234.65,59 326.23,59 390.92,59" fill="none" id="SistemaDisponible-to-EditarTareaView" style="stroke:#181818;stroke-width:1;"/><polygon fill="#181818" points="396.92,59,387.92,55,391.92,59,387.92,63,396.92,59" style="stroke:#181818;stroke-width:1;"/><text fill="#000000" font-family="sans-serif" font-size="13" lengthAdjust="spacing" textLength="136.7856" x="213.5" y="52.0669">1: editarTarea(tarea)</text></g><!--link EditarTareaView to SistemaDisponible--><g class="link" data-entity-1="ent0004" data-entity-2="ent0008" data-link-type="dependency" data-source-line="20" id="lnk13"><path d="M396.92,59 C332.23,59 240.65,59 172.2,59" fill="none" id="EditarTareaView-to-SistemaDisponible" style="stroke:#181818;stroke-width:1;"/><polygon fill="#181818" points="166.2,59,175.2,63,171.2,59,175.2,55,166.2,59" style="stroke:#181818;stroke-width:1;"/><text fill="#000000" font-family="sans-serif" font-size="13" lengthAdjust="spacing" textLength="194.251" x="184.5" y="52.0669">4: sistemaDisponible(usuario)</text></g><!--link EditarTareaView to TareasController--><g class="link" data-entity-1="ent0004" data-entity-2="ent0005" data-link-type="dependency" data-source-line="14" id="lnk10"><path d="M464.63,77.13 C464.82,102.23 465.1346,142.7602 465.3246,167.8702" fill="none" id="EditarTareaView-to-TareasController" style="stroke:#181818;stroke-width:1;"/><polygon fill="#181818" points="465.37,173.87,469.3018,164.84,465.3322,168.8701,461.302,164.9005,465.37,173.87" style="stroke:#181818;stroke-width:1;"/><text fill="#000000" font-family="sans-serif" font-size="13" lengthAdjust="spacing" textLength="184.0884" x="465.5" y="140.0669">2: actualizarTarea(id, datos)</text></g><!--link TareasController to TareaRepository--><g class="link" data-entity-1="ent0005" data-entity-2="ent0006" data-link-type="dependency" data-source-line="16" id="lnk11"><path d="M465.34,210.34 C465.16,231.2 464.8919,259.9802 464.7119,280.7802" fill="none" id="TareasController-to-TareaRepository" style="stroke:#181818;stroke-width:1;"/><polygon fill="#181818" points="464.66,286.78,468.7377,277.815,464.7033,281.7802,460.738,277.7457,464.66,286.78" style="stroke:#181818;stroke-width:1;"/><text fill="#000000" font-family="sans-serif" font-size="13" lengthAdjust="spacing" textLength="190.7598" x="465.5" y="253.0669">3: guardarCambios(id, datos)</text></g><!--link TareaRepository to Tarea--><g class="link" data-entity-1="ent0006" data-entity-2="ent0007" data-link-type="association" data-source-line="18" id="lnk12"><path d="M464.5,323.42 C464.5,340.57 464.5,366.58 464.5,383.69" fill="none" id="TareaRepository-Tarea" style="stroke:#181818;stroke-width:1;"/></g><?plantuml-src VLBBQiCm4BphAnRtOaDzg9k4HeT0wZWVqDTzRGcpHBQ495FSqd-lt2Guo50T13ixE-oCv4xK6xJOWQ9U-j58C5gDKy4ODbvRU7S3MjBCO7F2Le8KvD6-ePK8w22vgTCiWMy6uLZPUEnR9U5kKsohunQgcVP1yZDcrUjQR9xWh-zAtNkhbP8sfXsBVRcgphGNQRIZiEBu7ulzi9jEUQYUzsj8-2ivBpk40pcZUwgLJ2Ot5tX66Lj0aDjy5_lXyC1leqdzT6UCHJp8HHYERN8eE8Iu1rJqTLKWSGy2lNP19Hw0_Aeofy3XaKCR7akWBR6hIRkbnamF4fU4bZjE1XU-EQmuk1XDX_F_o7u1?></g></svg>