<?plantuml 1.2026.2?><svg xmlns="http://www.w3.org/2000/svg" xmlns:xlink="http://www.w3.org/1999/xlink" contentStyleType="text/css" data-diagram-type="DESCRIPTION" height="443px" preserveAspectRatio="none" style="width:789px;height:443px;background:#FFFFFF;" version="1.1" viewBox="0 0 789 443" width="789px" zoomAndPan="magnify"><defs/><g><!--cluster eliminarGrupo--><g class="cluster" data-qualified-name="eliminarGrupo" data-source-line="4" id="ent0003"><path d="M337,6 L463.5967,6 A3.75,3.75 0 0 1 466.0967,8.5 L473.0967,28.2969 L710,28.2969 A2.5,2.5 0 0 1 712.5,30.7969 L712.5,433.5 A2.5,2.5 0 0 1 710,436 L337,436 A2.5,2.5 0 0 1 334.5,433.5 L334.5,8.5 A2.5,2.5 0 0 1 337,6" fill="none" style="stroke:#000000;stroke-width:1.5;"/><line style="stroke:#000000;stroke-width:1.5;" x1="334.5" x2="473.0967" y1="28.2969" y2="28.2969"/><text fill="#000000" font-family="sans-serif" font-size="14" font-weight="bold" lengthAdjust="spacing" textLength="125.5967" x="338.5" y="20.9951">eliminarGrupo()</text></g><!--entity ListarGruposView--><g class="entity" data-qualified-name="eliminarGrupo.ListarGruposView" data-source-line="5" id="ent0004"><rect fill="#629EF9" height="36.2969" rx="2.5" ry="2.5" style="stroke:#181818;stroke-width:0.5;" width="142.5615" x="397" y="41"/><text fill="#000000" font-family="sans-serif" font-size="14" lengthAdjust="spacing" textLength="122.5615" x="407" y="63.9951">ListarGruposView</text></g><!--entity GruposController--><g class="entity" data-qualified-name="eliminarGrupo.GruposController" data-source-line="6" id="ent0005"><rect fill="#B5BD68" height="36.2969" rx="2.5" ry="2.5" style="stroke:#181818;stroke-width:0.5;" width="139.3965" x="399" y="174"/><text fill="#000000" font-family="sans-serif" font-size="14" lengthAdjust="spacing" textLength="119.3965" x="409" y="196.9951">GruposController</text></g><!--entity GrupoRepository--><g class="entity" data-qualified-name="eliminarGrupo.GrupoRepository" data-source-line="7" id="ent0006"><rect fill="#F2AC4E" height="36.2969" rx="2.5" ry="2.5" style="stroke:#181818;stroke-width:0.5;" width="138.002" x="420.5" y="287"/><text fill="#000000" font-family="sans-serif" font-size="14" lengthAdjust="spacing" textLength="118.002" x="430.5" y="309.9951">GrupoRepository</text></g><!--entity Grupo--><g class="entity" data-qualified-name="eliminarGrupo.Grupo" data-source-line="8" id="ent0007"><rect fill="#F2AC4E" height="36.2969" rx="2.5" ry="2.5" style="stroke:#181818;stroke-width:0.5;" width="62.9297" x="351" y="384"/><text fill="#000000" font-family="sans-serif" font-size="14" lengthAdjust="spacing" textLength="42.9297" x="361" y="406.9951">Grupo</text></g><!--entity MiembroGrupo--><g class="entity" data-qualified-name="eliminarGrupo.MiembroGrupo" data-source-line="9" id="ent0008"><rect fill="#F2AC4E" height="36.2969" rx="2.5" ry="2.5" style="stroke:#181818;stroke-width:0.5;" width="124.3574" x="449.5" y="384"/><text fill="#000000" font-family="sans-serif" font-size="14" lengthAdjust="spacing" textLength="104.3574" x="459.5" y="406.9951">MiembroGrupo</text></g><!--entity Invitacion--><g class="entity" data-qualified-name="eliminarGrupo.Invitacion" data-source-line="10" id="ent0009"><rect fill="#F2AC4E" height="36.2969" rx="2.5" ry="2.5" style="stroke:#181818;stroke-width:0.5;" width="88.2705" x="608.5" y="384"/><text fill="#000000" font-family="sans-serif" font-size="14" lengthAdjust="spacing" textLength="68.2705" x="618.5" y="406.9951">Invitacion</text></g><!--entity Usuario--><g class="entity" data-qualified-name="Usuario" data-source-line="3" id="ent0002"><ellipse cx="755.6021" cy="29.5" fill="#F1F1F1" rx="8" ry="8" style="stroke:#181818;stroke-width:0.5;"/><path d="M755.6021,37.5 L755.6021,64.5 M742.6021,45.5 L768.6021,45.5 M755.6021,64.5 L742.6021,79.5 M755.6021,64.5 L768.6021,79.5" fill="none" style="stroke:#181818;stroke-width:0.5;"/><text fill="#000000" font-family="sans-serif" font-size="14" lengthAdjust="spacing" textLength="53.2041" x="729" y="93.9951">Usuario</text></g><!--entity SistemaDisponible--><g class="entity" data-qualified-name="SistemaDisponible" data-source-line="12" id="ent0010"><rect fill="#CDEBA5" height="36.2969" rx="2.5" ry="2.5" style="stroke:#181818;stroke-width:0.5;" width="159.125" x="7" y="41"/><text fill="#000000" font-family="sans-serif" font-size="14" lengthAdjust="spacing" textLength="139.125" x="17" y="63.9951">:Sistema Disponible</text></g><!--link SistemaDisponible to ListarGruposView--><g class="link" data-entity-1="ent0010" data-entity-2="ent0004" data-link-type="dependency" data-source-line="14" id="lnk11"><path d="M166.11,59 C234.12,59 325.08,59 390.72,59" fill="none" id="SistemaDisponible-to-ListarGruposView" style="stroke:#181818;stroke-width:1;"/><polygon fill="#181818" points="396.72,59,387.72,55,391.72,59,387.72,63,396.72,59" style="stroke:#181818;stroke-width:1;"/><text fill="#000000" font-family="sans-serif" font-size="13" lengthAdjust="spacing" textLength="157.8789" x="203" y="52.0669">1: eliminarGrupo(grupo)</text></g><!--link ListarGruposView to SistemaDisponible--><g class="link" data-entity-1="ent0004" data-entity-2="ent0010" data-link-type="dependency" data-source-line="24" id="lnk17"><path d="M396.72,59 C331.08,59 240.12,59 172.11,59" fill="none" id="ListarGruposView-to-SistemaDisponible" style="stroke:#181818;stroke-width:1;"/><polygon fill="#181818" points="166.11,59,175.11,63,171.11,59,175.11,55,166.11,59" style="stroke:#181818;stroke-width:1;"/><text fill="#000000" font-family="sans-serif" font-size="13" lengthAdjust="spacing" textLength="194.251" x="184.5" y="52.0669">4: sistemaDisponible(usuario)</text></g><!--link ListarGruposView to GruposController--><g class="link" data-entity-1="ent0004" data-entity-2="ent0005" data-link-type="dependency" data-source-line="16" id="lnk12"><path d="M468.5,77.13 C468.5,102.23 468.5,142.76 468.5,167.87" fill="none" id="ListarGruposView-to-GruposController" style="stroke:#181818;stroke-width:1;"/><polygon fill="#181818" points="468.5,173.87,472.5,164.87,468.5,168.87,464.5,164.87,468.5,173.87" style="stroke:#181818;stroke-width:1;"/><text fill="#000000" font-family="sans-serif" font-size="13" lengthAdjust="spacing" textLength="210.3042" x="469.5" y="140.0669">2: procesarEliminacion(idGrupo)</text></g><!--link GruposController to GrupoRepository--><g class="link" data-entity-1="ent0005" data-entity-2="ent0006" data-link-type="dependency" data-source-line="18" id="lnk13"><path d="M471.78,210.34 C475.73,231.2 481.1961,260.0843 485.1261,280.8843" fill="none" id="GruposController-to-GrupoRepository" style="stroke:#181818;stroke-width:1;"/><polygon fill="#181818" points="486.24,286.78,488.4995,277.1938,485.3117,281.8669,480.6386,278.6791,486.24,286.78" style="stroke:#181818;stroke-width:1;"/><text fill="#000000" font-family="sans-serif" font-size="13" lengthAdjust="spacing" textLength="226.7129" x="480.5" y="253.0669">3: eliminarGrupoCascada(idGrupo)</text></g><!--link GrupoRepository to Grupo--><g class="link" data-entity-1="ent0006" data-entity-2="ent0007" data-link-type="association" data-source-line="20" id="lnk14"><path d="M469.87,323.42 C450.57,340.57 421.26,366.58 402,383.69" fill="none" id="GrupoRepository-Grupo" style="stroke:#181818;stroke-width:1;"/></g><!--link GrupoRepository to MiembroGrupo--><g class="link" data-entity-1="ent0006" data-entity-2="ent0008" data-link-type="association" data-source-line="21" id="lnk15"><path d="M493.54,323.42 C497.5,340.57 503.53,366.58 507.49,383.69" fill="none" id="GrupoRepository-MiembroGrupo" style="stroke:#181818;stroke-width:1;"/></g><!--link GrupoRepository to Invitacion--><g class="link" data-entity-1="ent0006" data-entity-2="ent0009" data-link-type="association" data-source-line="22" id="lnk16"><path d="M519.02,323.2 C548.56,340.42 593.74,366.75 623.2,383.92" fill="none" id="GrupoRepository-Invitacion" style="stroke:#181818;stroke-width:1;"/></g><?plantuml-src VPB1IiD048Rl-nH3lAI77AnjiNiGQfeMGI-AtYV9K8PkTfVTL2dYkvkGIDfDRGw1_FFjpyv7_9wrHOSLADPK7os1DUhOVWY1HMqSlFi3EZR2Oh777G4fhbYZsxg3DO0UehCadaJmBQ1v71KrwfqYk5bCbzbc2S_iwnxp7qnV8PRFyt9n3nsG6bqxenIv4DjCL-aiwx1NQb1kxdcyHlqpUs6gScUk8K_wasiis6Zn8qx6wJfxNCqXac_DJbGXhDbRepbN5BLI-dX8XHX5aBZaOIH5mgqybnplslT4Y125f6mAGbqIfXAiCmLvT5bNr2uGSxdjYy8ZaFpr33ubt0NtID4NM6BOCnnfQdhV5mPdiY_CJqnVMBGrDH8eOIR1XsbywFxOoIy0?></g></svg>