<?plantuml 1.2026.2?><svg xmlns="http://www.w3.org/2000/svg" xmlns:xlink="http://www.w3.org/1999/xlink" contentStyleType="text/css" data-diagram-type="DESCRIPTION" height="443px" preserveAspectRatio="none" style="width:733px;height:443px;background:#FFFFFF;" version="1.1" viewBox="0 0 733 443" width="733px" zoomAndPan="magnify"><defs/><g><!--cluster eliminarTarea--><g class="cluster" data-qualified-name="eliminarTarea" data-source-line="4" id="ent0003"><path d="M383,6 L506.4385,6 A3.75,3.75 0 0 1 508.9385,8.5 L515.9385,28.2969 L654,28.2969 A2.5,2.5 0 0 1 656.5,30.7969 L656.5,433.5 A2.5,2.5 0 0 1 654,436 L383,436 A2.5,2.5 0 0 1 380.5,433.5 L380.5,8.5 A2.5,2.5 0 0 1 383,6" fill="none" style="stroke:#000000;stroke-width:1.5;"/><line style="stroke:#000000;stroke-width:1.5;" x1="380.5" x2="515.9385" y1="28.2969" y2="28.2969"/><text fill="#000000" font-family="sans-serif" font-size="14" font-weight="bold" lengthAdjust="spacing" textLength="122.4385" x="384.5" y="20.9951">eliminarTarea()</text></g><!--entity ListarTareasView--><g class="entity" data-qualified-name="eliminarTarea.ListarTareasView" data-source-line="5" id="ent0004"><rect fill="#629EF9" height="36.2969" rx="2.5" ry="2.5" style="stroke:#181818;stroke-width:0.5;" width="139.7109" x="396.5" y="41"/><text fill="#000000" font-family="sans-serif" font-size="14" lengthAdjust="spacing" textLength="119.7109" x="406.5" y="63.9951">ListarTareasView</text></g><!--entity TareasController--><g class="entity" data-qualified-name="eliminarTarea.TareasController" data-source-line="6" id="ent0005"><rect fill="#B5BD68" height="36.2969" rx="2.5" ry="2.5" style="stroke:#181818;stroke-width:0.5;" width="136.5459" x="397" y="174"/><text fill="#000000" font-family="sans-serif" font-size="14" lengthAdjust="spacing" textLength="116.5459" x="407" y="196.9951">TareasController</text></g><!--entity TareaRepository--><g class="entity" data-qualified-name="eliminarTarea.TareaRepository" data-source-line="7" id="ent0006"><rect fill="#F2AC4E" height="36.2969" rx="2.5" ry="2.5" style="stroke:#181818;stroke-width:0.5;" width="135.1514" x="398" y="287"/><text fill="#000000" font-family="sans-serif" font-size="14" lengthAdjust="spacing" textLength="115.1514" x="408" y="309.9951">TareaRepository</text></g><!--entity Tarea--><g class="entity" data-qualified-name="eliminarTarea.Tarea" data-source-line="8" id="ent0007"><rect fill="#F2AC4E" height="36.2969" rx="2.5" ry="2.5" style="stroke:#181818;stroke-width:0.5;" width="60.0791" x="435.5" y="384"/><text fill="#000000" font-family="sans-serif" font-size="14" lengthAdjust="spacing" textLength="40.0791" x="445.5" y="406.9951">Tarea</text></g><!--entity Usuario--><g class="entity" data-qualified-name="Usuario" data-source-line="3" id="ent0002"><ellipse cx="699.6021" cy="29.5" fill="#F1F1F1" rx="8" ry="8" style="stroke:#181818;stroke-width:0.5;"/><path d="M699.6021,37.5 L699.6021,64.5 M686.6021,45.5 L712.6021,45.5 M699.6021,64.5 L686.6021,79.5 M699.6021,64.5 L712.6021,79.5" fill="none" style="stroke:#181818;stroke-width:0.5;"/><text fill="#000000" font-family="sans-serif" font-size="14" lengthAdjust="spacing" textLength="53.2041" x="673" y="93.9951">Usuario</text></g><!--entity SistemaDisponible--><g class="entity" data-qualified-name="SistemaDisponible" data-source-line="10" id="ent0008"><rect fill="#CDEBA5" height="36.2969" rx="2.5" ry="2.5" style="stroke:#181818;stroke-width:0.5;" width="159.125" x="7" y="41"/><text fill="#000000" font-family="sans-serif" font-size="14" lengthAdjust="spacing" textLength="139.125" x="17" y="63.9951">:Sistema Disponible</text></g><!--link SistemaDisponible to ListarTareasView--><g class="link" data-entity-1="ent0008" data-entity-2="ent0004" data-link-type="dependency" data-source-line="12" id="lnk9"><path d="M166.16,59 C234.17,59 325.05,59 390.21,59" fill="none" id="SistemaDisponible-to-ListarTareasView" style="stroke:#181818;stroke-width:1;"/><polygon fill="#181818" points="396.21,59,387.21,55,391.21,59,387.21,63,396.21,59" style="stroke:#181818;stroke-width:1;"/><text fill="#000000" font-family="sans-serif" font-size="13" lengthAdjust="spacing" textLength="151.563" x="205.75" y="52.0669">1: eliminarTarea(tarea)</text></g><!--link ListarTareasView to SistemaDisponible--><g class="link" data-entity-1="ent0004" data-entity-2="ent0008" data-link-type="dependency" data-source-line="20" id="lnk13"><path d="M396.21,59 C331.05,59 240.17,59 172.16,59" fill="none" id="ListarTareasView-to-SistemaDisponible" style="stroke:#181818;stroke-width:1;"/><polygon fill="#181818" points="166.16,59,175.16,63,171.16,59,175.16,55,166.16,59" style="stroke:#181818;stroke-width:1;"/><text fill="#000000" font-family="sans-serif" font-size="13" lengthAdjust="spacing" textLength="194.251" x="184.25" y="52.0669">4: sistemaDisponible(usuario)</text></g><!--link ListarTareasView to TareasController--><g class="link" data-entity-1="ent0004" data-entity-2="ent0005" data-link-type="dependency" data-source-line="14" id="lnk10"><path d="M466.37,77.13 C466.18,102.23 465.8654,142.7602 465.6754,167.8702" fill="none" id="ListarTareasView-to-TareasController" style="stroke:#181818;stroke-width:1;"/><polygon fill="#181818" points="465.63,173.87,469.698,164.9005,465.6678,168.8701,461.6982,164.84,465.63,173.87" style="stroke:#181818;stroke-width:1;"/><text fill="#000000" font-family="sans-serif" font-size="13" lengthAdjust="spacing" textLength="207.6572" x="466.5" y="140.0669">2: procesarEliminacion(idTarea)</text></g><!--link TareasController to TareaRepository--><g class="link" data-entity-1="ent0005" data-entity-2="ent0006" data-link-type="dependency" data-source-line="16" id="lnk11"><path d="M465.5,210.34 C465.5,231.2 465.5,259.98 465.5,280.78" fill="none" id="TareasController-to-TareaRepository" style="stroke:#181818;stroke-width:1;"/><polygon fill="#181818" points="465.5,286.78,469.5,277.78,465.5,281.78,461.5,277.78,465.5,286.78" style="stroke:#181818;stroke-width:1;"/><text fill="#000000" font-family="sans-serif" font-size="13" lengthAdjust="spacing" textLength="166.2705" x="466.5" y="253.0669">3: eliminarTarea(idTarea)</text></g><!--link TareaRepository to Tarea--><g class="link" data-entity-1="ent0006" data-entity-2="ent0007" data-link-type="association" data-source-line="18" id="lnk12"><path d="M465.5,323.42 C465.5,340.57 465.5,366.58 465.5,383.69" fill="none" id="TareaRepository-Tarea" style="stroke:#181818;stroke-width:1;"/></g><?plantuml-src VP8nQyCm48Lt_Oh3NUp1GzqaD1e2gUDCdTgq-za-mX5P4f93CQN_lJPsSIENQX3ewTFZlKF-mjgYmmOKQsexIs2DweQ345Yrni6Rlw9Z8onM5pmJaEA6DReJEa903z6D4YSHV0hebwEgHNrM17URR5iSj_3Clfqm_yxq4MBbkgmtZp02kT6jCqgH2x5ZjizNnOYza3MU-vpTVvJu4hzkyaFnj5z395_xFDGW7DXRexbK50s59dbMXLX8aBfqjoWauLxU3YXkXpqH8aGXhNk3iAg4J89rfYAFhXYDAZOwvleq6OLF8FtncMSXuI7C4HZCRFz-6j8V6OUIY-uILX9ygCRNyQCatm00?></g></svg>