<?plantuml 1.2026.2?><svg xmlns="http://www.w3.org/2000/svg" xmlns:xlink="http://www.w3.org/1999/xlink" contentStyleType="text/css" data-diagram-type="DESCRIPTION" height="443px" preserveAspectRatio="none" style="width:1105px;height:443px;background:#FFFFFF;" version="1.1" viewBox="0 0 1105 443" width="1105px" zoomAndPan="magnify"><defs/><g><!--cluster invitarUsuario--><g class="cluster" data-qualified-name="invitarUsuario" data-source-line="4" id="ent0003"><path d="M184,6 L309.9678,6 A3.75,3.75 0 0 1 312.4678,8.5 L319.4678,28.2969 L1026,28.2969 A2.5,2.5 0 0 1 1028.5,30.7969 L1028.5,433.5 A2.5,2.5 0 0 1 1026,436 L184,436 A2.5,2.5 0 0 1 181.5,433.5 L181.5,8.5 A2.5,2.5 0 0 1 184,6" fill="none" style="stroke:#000000;stroke-width:1.5;"/><line style="stroke:#000000;stroke-width:1.5;" x1="181.5" x2="319.4678" y1="28.2969" y2="28.2969"/><text fill="#000000" font-family="sans-serif" font-size="14" font-weight="bold" lengthAdjust="spacing" textLength="124.9678" x="185.5" y="20.9951">invitarUsuario()</text></g><!--entity EnviarInvitacionView--><g class="entity" data-qualified-name="invitarUsuario.EnviarInvitacionView" data-source-line="5" id="ent0004"><rect fill="#629EF9" height="36.2969" rx="2.5" ry="2.5" style="stroke:#181818;stroke-width:0.5;" width="166.0293" x="409.5" y="41"/><text fill="#000000" font-family="sans-serif" font-size="14" lengthAdjust="spacing" textLength="146.0293" x="419.5" y="63.9951">EnviarInvitacionView</text></g><!--entity InvitacionesController--><g class="entity" data-qualified-name="invitarUsuario.InvitacionesController" data-source-line="6" id="ent0005"><rect fill="#B5BD68" height="36.2969" rx="2.5" ry="2.5" style="stroke:#181818;stroke-width:0.5;" width="173.3506" x="415" y="174"/><text fill="#000000" font-family="sans-serif" font-size="14" lengthAdjust="spacing" textLength="153.3506" x="425" y="196.9951">InvitacionesController</text></g><!--entity InvitacionRepository--><g class="entity" data-qualified-name="invitarUsuario.InvitacionRepository" data-source-line="7" id="ent0006"><rect fill="#F2AC4E" height="36.2969" rx="2.5" ry="2.5" style="stroke:#181818;stroke-width:0.5;" width="163.3428" x="198" y="287"/><text fill="#000000" font-family="sans-serif" font-size="14" lengthAdjust="spacing" textLength="143.3428" x="208" y="309.9951">InvitacionRepository</text></g><!--entity UsuarioRepository--><g class="entity" data-qualified-name="invitarUsuario.UsuarioRepository" data-source-line="8" id="ent0007"><rect fill="#F2AC4E" height="36.2969" rx="2.5" ry="2.5" style="stroke:#181818;stroke-width:0.5;" width="148.2764" x="431.5" y="287"/><text fill="#000000" font-family="sans-serif" font-size="14" lengthAdjust="spacing" textLength="128.2764" x="441.5" y="309.9951">UsuarioRepository</text></g><!--entity MiembroRepository--><g class="entity" data-qualified-name="invitarUsuario.MiembroRepository" data-source-line="9" id="ent0008"><rect fill="#F2AC4E" height="36.2969" rx="2.5" ry="2.5" style="stroke:#181818;stroke-width:0.5;" width="156.5" x="667.5" y="287"/><text fill="#000000" font-family="sans-serif" font-size="14" lengthAdjust="spacing" textLength="136.5" x="677.5" y="309.9951">MiembroRepository</text></g><!--entity Invitacion--><g class="entity" data-qualified-name="invitarUsuario.Invitacion" data-source-line="10" id="ent0009"><rect fill="#F2AC4E" height="36.2969" rx="2.5" ry="2.5" style="stroke:#181818;stroke-width:0.5;" width="88.2705" x="235.5" y="384"/><text fill="#000000" font-family="sans-serif" font-size="14" lengthAdjust="spacing" textLength="68.2705" x="245.5" y="406.9951">Invitacion</text></g><!--entity UserEnt--><g class="entity" data-qualified-name="invitarUsuario.UserEnt" data-source-line="11" id="ent0010"><rect fill="#F2AC4E" height="36.2969" rx="2.5" ry="2.5" style="stroke:#181818;stroke-width:0.5;" width="73.2041" x="469" y="384"/><text fill="#000000" font-family="sans-serif" font-size="14" lengthAdjust="spacing" textLength="53.2041" x="479" y="406.9951">Usuario</text></g><!--entity MiembroGrupo--><g class="entity" data-qualified-name="invitarUsuario.MiembroGrupo" data-source-line="12" id="ent0011"><rect fill="#F2AC4E" height="36.2969" rx="2.5" ry="2.5" style="stroke:#181818;stroke-width:0.5;" width="124.3574" x="683.5" y="384"/><text fill="#000000" font-family="sans-serif" font-size="14" lengthAdjust="spacing" textLength="104.3574" x="693.5" y="406.9951">MiembroGrupo</text></g><!--entity Usuario--><g class="entity" data-qualified-name="Usuario" data-source-line="3" id="ent0002"><ellipse cx="1071.6021" cy="29.5" fill="#F1F1F1" rx="8" ry="8" style="stroke:#181818;stroke-width:0.5;"/><path d="M1071.6021,37.5 L1071.6021,64.5 M1058.6021,45.5 L1084.6021,45.5 M1071.6021,64.5 L1058.6021,79.5 M1071.6021,64.5 L1084.6021,79.5" fill="none" style="stroke:#181818;stroke-width:0.5;"/><text fill="#000000" font-family="sans-serif" font-size="14" lengthAdjust="spacing" textLength="53.2041" x="1045" y="93.9951">Usuario</text></g><!--entity SistemaDisponible--><g class="entity" data-qualified-name="SistemaDisponible" data-source-line="14" id="ent0012"><rect fill="#CDEBA5" height="36.2969" rx="2.5" ry="2.5" style="stroke:#181818;stroke-width:0.5;" width="159.125" x="7" y="41"/><text fill="#000000" font-family="sans-serif" font-size="14" lengthAdjust="spacing" textLength="139.125" x="17" y="63.9951">:Sistema Disponible</text></g><!--link SistemaDisponible to EnviarInvitacionView--><g class="link" data-entity-1="ent0012" data-entity-2="ent0004" data-link-type="dependency" data-source-line="16" id="lnk13"><path d="M166.23,59 C236.43,59 332.29,59 403.47,59" fill="none" id="SistemaDisponible-to-EnviarInvitacionView" style="stroke:#181818;stroke-width:1;"/><polygon fill="#181818" points="409.47,59,400.47,55,404.47,59,400.47,63,409.47,59" style="stroke:#181818;stroke-width:1;"/><text fill="#000000" font-family="sans-serif" font-size="13" lengthAdjust="spacing" textLength="155.9365" x="210.25" y="52.0669">1: invitarUsuario(grupo)</text></g><!--link EnviarInvitacionView to SistemaDisponible--><g class="link" data-entity-1="ent0004" data-entity-2="ent0012" data-link-type="dependency" data-source-line="28" id="lnk21"><path d="M409.47,59 C338.29,59 242.43,59 172.23,59" fill="none" id="EnviarInvitacionView-to-SistemaDisponible" style="stroke:#181818;stroke-width:1;"/><polygon fill="#181818" points="166.23,59,175.23,63,171.23,59,175.23,55,166.23,59" style="stroke:#181818;stroke-width:1;"/><text fill="#000000" font-family="sans-serif" font-size="13" lengthAdjust="spacing" textLength="194.251" x="190.75" y="52.0669">6: sistemaDisponible(usuario)</text></g><!--link EnviarInvitacionView to InvitacionesController--><g class="link" data-entity-1="ent0004" data-entity-2="ent0005" data-link-type="dependency" data-source-line="18" id="lnk14"><path d="M493.68,77.13 C495.4,102.23 498.19,142.774 499.91,167.884" fill="none" id="EnviarInvitacionView-to-InvitacionesController" style="stroke:#181818;stroke-width:1;"/><polygon fill="#181818" points="500.32,173.87,503.6956,164.6177,499.9783,168.8817,495.7143,165.1644,500.32,173.87" style="stroke:#181818;stroke-width:1;"/><text fill="#000000" font-family="sans-serif" font-size="13" lengthAdjust="spacing" textLength="238.748" x="498.5" y="140.0669">2: enviarInvitacion(grupo, idUsuario)</text></g><!--link InvitacionesController to UsuarioRepository--><g class="link" data-entity-1="ent0005" data-entity-2="ent0007" data-link-type="dependency" data-source-line="20" id="lnk15"><path d="M501.77,210.15 C502.06,229.11 502.5,257 502.5,257 C502.5,257 503.1563,267.3623 504.0163,280.7823" fill="none" id="InvitacionesController-to-UsuarioRepository" style="stroke:#181818;stroke-width:1;"/><polygon fill="#181818" points="504.4,286.77,507.8162,277.5326,504.0802,281.7802,499.8326,278.0442,504.4,286.77" style="stroke:#181818;stroke-width:1;"/><text fill="#000000" font-family="sans-serif" font-size="13" lengthAdjust="spacing" textLength="198.9927" x="503.5" y="253.0669">3: validarExistencia(idUsuario)</text></g><!--link InvitacionesController to MiembroRepository--><g class="link" data-entity-1="ent0005" data-entity-2="ent0008" data-link-type="dependency" data-source-line="21" id="lnk16"><path d="M575.8,210.03 C634.47,223.49 706.5,240 706.5,240 C706.5,240 720.3785,262.7659 731.9285,281.7259" fill="none" id="InvitacionesController-to-MiembroRepository" style="stroke:#181818;stroke-width:1;"/><polygon fill="#181818" points="735.05,286.85,733.7838,277.0829,732.4488,282.5799,726.9517,281.2448,735.05,286.85" style="stroke:#181818;stroke-width:1;"/><text fill="#000000" font-family="sans-serif" font-size="13" lengthAdjust="spacing" textLength="265.2749" x="716.5" y="253.0669">4: verificarPertenencia(grupo, idUsuario)</text></g><!--link InvitacionesController to InvitacionRepository--><g class="link" data-entity-1="ent0005" data-entity-2="ent0006" data-link-type="dependency" data-source-line="22" id="lnk17"><path d="M414.83,209.9 C345.74,223.38 260.5,240 260.5,240 C260.5,240 260.5,257 260.5,257 C260.5,257 264.8631,267.7866 270.2831,281.2066" fill="none" id="InvitacionesController-to-InvitacionRepository" style="stroke:#181818;stroke-width:1;"/><polygon fill="#181818" points="272.53,286.77,272.8686,276.927,270.6576,282.1338,265.4507,279.9229,272.53,286.77" style="stroke:#181818;stroke-width:1;"/><text fill="#000000" font-family="sans-serif" font-size="13" lengthAdjust="spacing" textLength="231.6958" x="261.5" y="253.0669">5: crearInvitacion(grupo, idUsuario)</text></g><!--link UsuarioRepository to UserEnt--><g class="link" data-entity-1="ent0007" data-entity-2="ent0010" data-link-type="association" data-source-line="24" id="lnk18"><path d="M505.5,323.42 C505.5,340.57 505.5,366.58 505.5,383.69" fill="none" id="UsuarioRepository-UserEnt" style="stroke:#181818;stroke-width:1;"/></g><!--link MiembroRepository to MiembroGrupo--><g class="link" data-entity-1="ent0008" data-entity-2="ent0011" data-link-type="association" data-source-line="25" id="lnk19"><path d="M745.5,323.42 C745.5,340.57 745.5,366.58 745.5,383.69" fill="none" id="MiembroRepository-MiembroGrupo" style="stroke:#181818;stroke-width:1;"/></g><!--link InvitacionRepository to Invitacion--><g class="link" data-entity-1="ent0006" data-entity-2="ent0009" data-link-type="association" data-source-line="26" id="lnk20"><path d="M279.5,323.42 C279.5,340.57 279.5,366.58 279.5,383.69" fill="none" id="InvitacionRepository-Invitacion" style="stroke:#181818;stroke-width:1;"/></g><?plantuml-src XP91Jy9048Nl-oiczL8IUn21o1vC48hnO68qUD-MaKmekyriGOdnlxihZPIsbDxw-lQRjvrdrwHpnMe36MaizZb2RhAzVn52fOLXMDYjOZ8YL-bQhH18xwXGNCgWB0IdKjWBu5k0UnZJGkbLXd0rwe_Z-HXYvrJyzETFoUXtmi-wDHacoz4T74refqONRB8CkMwUzoVJGLmnls9kBBdW-pFMCkL5tpFX9k7BlkFexe7-JoqiSgoBxecFlCsD-14LmtGMFqo64CWtiWLk5Cp8vaPJac7WkQLyL8LeI11nTD-w00atihRMSEL3z8HeyqEqTAJs_KZeIy3QeGFj6cXPuXsu_JX4ZjpOa8HR2JkLqL9n_EKlfbDIOGNNGMliKSB0qP3fWrB5ByWETm0sOtPmsoedOIWXPRnq-SOD7V6_78t0_kD9Dzf6UrEbYcSMvolGQ8Q4aGHRLyDj6VSN?></g></svg>