<?plantuml 1.2026.2?><svg xmlns="http://www.w3.org/2000/svg" xmlns:xlink="http://www.w3.org/1999/xlink" contentStyleType="text/css" data-diagram-type="DESCRIPTION" height="443px" preserveAspectRatio="none" style="width:1162px;height:443px;background:#FFFFFF;" version="1.1" viewBox="0 0 1162 443" width="1162px" zoomAndPan="magnify"><defs/><g><!--cluster editarInvitacion--><g class="cluster" data-qualified-name="editarInvitacion" data-source-line="4" id="ent0003"><path d="M368,6 L507.0791,6 A3.75,3.75 0 0 1 509.5791,8.5 L516.5791,28.2969 L1083,28.2969 A2.5,2.5 0 0 1 1085.5,30.7969 L1085.5,433.5 A2.5,2.5 0 0 1 1083,436 L368,436 A2.5,2.5 0 0 1 365.5,433.5 L365.5,8.5 A2.5,2.5 0 0 1 368,6" fill="none" style="stroke:#000000;stroke-width:1.5;"/><line style="stroke:#000000;stroke-width:1.5;" x1="365.5" x2="516.5791" y1="28.2969" y2="28.2969"/><text fill="#000000" font-family="sans-serif" font-size="14" font-weight="bold" lengthAdjust="spacing" textLength="138.0791" x="369.5" y="20.9951">editarInvitacion()</text></g><!--entity ListarInvitacionesView--><g class="entity" data-qualified-name="editarInvitacion.ListarInvitacionesView" data-source-line="5" id="ent0004"><rect fill="#629EF9" height="36.2969" rx="2.5" ry="2.5" style="stroke:#181818;stroke-width:0.5;" width="176.5156" x="485" y="41"/><text fill="#000000" font-family="sans-serif" font-size="14" lengthAdjust="spacing" textLength="156.5156" x="495" y="63.9951">ListarInvitacionesView</text></g><!--entity InvitacionesController--><g class="entity" data-qualified-name="editarInvitacion.InvitacionesController" data-source-line="6" id="ent0005"><rect fill="#B5BD68" height="36.2969" rx="2.5" ry="2.5" style="stroke:#181818;stroke-width:0.5;" width="173.3506" x="487" y="174"/><text fill="#000000" font-family="sans-serif" font-size="14" lengthAdjust="spacing" textLength="153.3506" x="497" y="196.9951">InvitacionesController</text></g><!--entity InvitacionRepository--><g class="entity" data-qualified-name="editarInvitacion.InvitacionRepository" data-source-line="7" id="ent0006"><rect fill="#F2AC4E" height="36.2969" rx="2.5" ry="2.5" style="stroke:#181818;stroke-width:0.5;" width="163.3428" x="382" y="287"/><text fill="#000000" font-family="sans-serif" font-size="14" lengthAdjust="spacing" textLength="143.3428" x="392" y="309.9951">InvitacionRepository</text></g><!--entity MiembroRepository--><g class="entity" data-qualified-name="editarInvitacion.MiembroRepository" data-source-line="8" id="ent0007"><rect fill="#F2AC4E" height="36.2969" rx="2.5" ry="2.5" style="stroke:#181818;stroke-width:0.5;" width="156.5" x="599.5" y="287"/><text fill="#000000" font-family="sans-serif" font-size="14" lengthAdjust="spacing" textLength="136.5" x="609.5" y="309.9951">MiembroRepository</text></g><!--entity Invitacion--><g class="entity" data-qualified-name="editarInvitacion.Invitacion" data-source-line="9" id="ent0008"><rect fill="#F2AC4E" height="36.2969" rx="2.5" ry="2.5" style="stroke:#181818;stroke-width:0.5;" width="88.2705" x="419.5" y="384"/><text fill="#000000" font-family="sans-serif" font-size="14" lengthAdjust="spacing" textLength="68.2705" x="429.5" y="406.9951">Invitacion</text></g><!--entity MiembroGrupo--><g class="entity" data-qualified-name="editarInvitacion.MiembroGrupo" data-source-line="10" id="ent0009"><rect fill="#F2AC4E" height="36.2969" rx="2.5" ry="2.5" style="stroke:#181818;stroke-width:0.5;" width="124.3574" x="615.5" y="384"/><text fill="#000000" font-family="sans-serif" font-size="14" lengthAdjust="spacing" textLength="104.3574" x="625.5" y="406.9951">MiembroGrupo</text></g><!--entity Usuario--><g class="entity" data-qualified-name="Usuario" data-source-line="3" id="ent0002"><ellipse cx="1128.6021" cy="29.5" fill="#F1F1F1" rx="8" ry="8" style="stroke:#181818;stroke-width:0.5;"/><path d="M1128.6021,37.5 L1128.6021,64.5 M1115.6021,45.5 L1141.6021,45.5 M1128.6021,64.5 L1115.6021,79.5 M1128.6021,64.5 L1141.6021,79.5" fill="none" style="stroke:#181818;stroke-width:0.5;"/><text fill="#000000" font-family="sans-serif" font-size="14" lengthAdjust="spacing" textLength="53.2041" x="1102" y="93.9951">Usuario</text></g><!--entity SistemaDisponible--><g class="entity" data-qualified-name="SistemaDisponible" data-source-line="12" id="ent0010"><rect fill="#CDEBA5" height="36.2969" rx="2.5" ry="2.5" style="stroke:#181818;stroke-width:0.5;" width="159.125" x="7" y="41"/><text fill="#000000" font-family="sans-serif" font-size="14" lengthAdjust="spacing" textLength="139.125" x="17" y="63.9951">:Sistema Disponible</text></g><!--link SistemaDisponible to ListarInvitacionesView--><g class="link" data-entity-1="ent0010" data-entity-2="ent0004" data-link-type="dependency" data-source-line="14" id="lnk11"><path d="M166.1,59 C253.61,59 387.84,59 478.82,59" fill="none" id="SistemaDisponible-to-ListarInvitacionesView" style="stroke:#181818;stroke-width:1;"/><polygon fill="#181818" points="484.82,59,475.82,55,479.82,59,475.82,63,484.82,59" style="stroke:#181818;stroke-width:1;"/><text fill="#000000" font-family="sans-serif" font-size="13" lengthAdjust="spacing" textLength="282.9785" x="184.5" y="52.0669">1: procesarInvitacion(invitacion, respuesta)</text></g><!--link ListarInvitacionesView to SistemaDisponible--><g class="link" data-entity-1="ent0004" data-entity-2="ent0010" data-link-type="dependency" data-source-line="25" id="lnk17"><path d="M484.82,59 C393.84,59 259.61,59 172.1,59" fill="none" id="ListarInvitacionesView-to-SistemaDisponible" style="stroke:#181818;stroke-width:1;"/><polygon fill="#181818" points="166.1,59,175.1,63,171.1,59,175.1,55,166.1,59" style="stroke:#181818;stroke-width:1;"/><text fill="#000000" font-family="sans-serif" font-size="13" lengthAdjust="spacing" textLength="194.251" x="228.5" y="52.0669">5: sistemaDisponible(usuario)</text></g><!--link ListarInvitacionesView to InvitacionesController--><g class="link" data-entity-1="ent0004" data-entity-2="ent0005" data-link-type="dependency" data-source-line="16" id="lnk12"><path d="M573.5,77.13 C573.5,102.23 573.5,142.76 573.5,167.87" fill="none" id="ListarInvitacionesView-to-InvitacionesController" style="stroke:#181818;stroke-width:1;"/><polygon fill="#181818" points="573.5,173.87,577.5,164.87,573.5,168.87,569.5,164.87,573.5,173.87" style="stroke:#181818;stroke-width:1;"/><text fill="#000000" font-family="sans-serif" font-size="13" lengthAdjust="spacing" textLength="227.6079" x="574.5" y="140.0669">2: resolverInvitacion(id, respuesta)</text></g><!--link InvitacionesController to InvitacionRepository--><g class="link" data-entity-1="ent0005" data-entity-2="ent0006" data-link-type="dependency" data-source-line="18" id="lnk13"><path d="M513.83,210.1 C466.94,223.54 409.5,240 409.5,240 C409.5,240 409.5,257 409.5,257 C409.5,257 423.7653,269.4096 439.1753,282.8296" fill="none" id="InvitacionesController-to-InvitacionRepository" style="stroke:#181818;stroke-width:1;"/><polygon fill="#181818" points="443.7,286.77,439.5399,277.8429,439.9294,283.4863,434.286,283.8759,443.7,286.77" style="stroke:#181818;stroke-width:1;"/><text fill="#000000" font-family="sans-serif" font-size="13" lengthAdjust="spacing" textLength="219.5273" x="410.5" y="253.0669">3: actualizarEstado(id, respuesta)</text></g><!--link InvitacionesController to MiembroRepository--><g class="link" data-entity-1="ent0005" data-entity-2="ent0007" data-link-type="dependency" data-source-line="20" id="lnk14"><path d="M597.33,210.23 C615.89,223.65 638.5,240 638.5,240 C638.5,240 652.3785,262.7659 663.9285,281.7259" fill="none" id="InvitacionesController-to-MiembroRepository" style="stroke:#181818;stroke-width:1;"/><polygon fill="#181818" points="667.05,286.85,665.7838,277.0829,664.4488,282.5799,658.9517,281.2448,667.05,286.85" style="stroke:#181818;stroke-width:1;"/><text fill="#000000" font-family="sans-serif" font-size="13" lengthAdjust="spacing" textLength="390.73" x="648.5" y="253.0669">4 [respuesta == ACEPTADA]: crearMiembro(grupo, usuario)</text></g><!--link MiembroRepository to MiembroGrupo--><g class="link" data-entity-1="ent0007" data-entity-2="ent0009" data-link-type="association" data-source-line="21" id="lnk15"><path d="M677.5,323.42 C677.5,340.57 677.5,366.58 677.5,383.69" fill="none" id="MiembroRepository-MiembroGrupo" style="stroke:#181818;stroke-width:1;"/></g><!--link InvitacionRepository to Invitacion--><g class="link" data-entity-1="ent0006" data-entity-2="ent0008" data-link-type="association" data-source-line="23" id="lnk16"><path d="M463.5,323.42 C463.5,340.57 463.5,366.58 463.5,383.69" fill="none" id="InvitacionRepository-Invitacion" style="stroke:#181818;stroke-width:1;"/></g><?plantuml-src bL9DIyD04BtlhnZYfONcO6sBNQWGqrG41V7h8XusoL2MRhFBR5AfudztWxNDLnNtaitZpPlPzyQkP6O4YJKecM6-DGX6gstvmvX8SatmP0j1KZCZafLO8c0gSq7NsSPz4gap41Qy9jZhU_31m1t291VPKY6SJ8RJQ3656sbhNBJF4j-Qv7WSfvDpgD92dUMabK9gaXV381n55V8z6csb6tzxX7ehSHsJ_fDtaFnTw8eAezadgn32UNGPZC7Z3-x1k1OmbzReJCOAlTAq7Nn06Mj1u9D_SSGn3gSS3Ea4RSrwkRyEtBpM5EYg-unrgu2VkWxTDdCOyb92gmtMEgHrvUvgy6l21wivd75morK89Ty5HKuarVyHRON7OGGl-sAOpI08exl7O1wySaW81UrAUiiofm4KtqlTPoqfrw2UAUjwGicghCPHRylqMg5o67EmJRJtCzCN?></g></svg>