<?plantuml 1.2026.2?><svg xmlns="http://www.w3.org/2000/svg" xmlns:xlink="http://www.w3.org/1999/xlink" contentStyleType="text/css" data-diagram-type="DESCRIPTION" height="132px" preserveAspectRatio="none" style="width:1633px;height:132px;background:#FFFFFF;" version="1.1" viewBox="0 0 1633 132" width="1633px" zoomAndPan="magnify"><defs/><g><!--entity Usuario--><g class="entity" data-qualified-name="Usuario" data-source-line="4" id="ent0002"><ellipse cx="32.6021" cy="50.5" fill="#F1F1F1" rx="8" ry="8" style="stroke:#181818;stroke-width:0.5;"/><path d="M32.6021,58.5 L32.6021,85.5 M19.6021,66.5 L45.6021,66.5 M32.6021,85.5 L19.6021,100.5 M32.6021,85.5 L45.6021,100.5" fill="none" style="stroke:#181818;stroke-width:0.5;"/><text fill="#000000" font-family="sans-serif" font-size="14" lengthAdjust="spacing" textLength="53.2041" x="6" y="114.9951">Usuario</text></g><!--entity EditarInvitacionView--><g class="entity" data-qualified-name="EditarInvitacionView" data-source-line="5" id="ent0003"><path d="M418.1235,60 L418.1235,84 M418.1235,72 L435.1235,72" fill="none" style="stroke:#181818;stroke-width:0.5;"/><ellipse cx="447.1235" cy="72" fill="#F1F1F1" rx="12" ry="12" style="stroke:#181818;stroke-width:0.5;"/><text fill="#000000" font-family="sans-serif" font-size="14" lengthAdjust="spacing" textLength="143.2471" x="367" y="100.9951">EditarInvitacionView</text></g><!--entity InvitacionesController--><g class="entity" data-qualified-name="InvitacionesController" data-source-line="6" id="ent0004"><ellipse cx="946.1753" cy="23" fill="#F1F1F1" rx="12" ry="12" style="stroke:#181818;stroke-width:0.5;"/><polygon fill="#181818" points="942.1753,11,948.1753,6,946.1753,11,948.1753,16,942.1753,11" style="stroke:#181818;stroke-width:1;"/><text fill="#000000" font-family="sans-serif" font-size="14" lengthAdjust="spacing" textLength="153.3506" x="869.5" y="51.9951">InvitacionesController</text></g><!--entity InvitacionRepository--><g class="entity" data-qualified-name="InvitacionRepository" data-source-line="7" id="ent0005"><ellipse cx="1425.6714" cy="23" fill="#F1F1F1" rx="12" ry="12" style="stroke:#181818;stroke-width:0.5;"/><line style="stroke:#181818;stroke-width:0.5;" x1="1413.6714" x2="1437.6714" y1="37" y2="37"/><text fill="#000000" font-family="sans-serif" font-size="14" lengthAdjust="spacing" textLength="143.3428" x="1354" y="51.9951">InvitacionRepository</text></g><!--entity EntidadInvitacion--><g class="entity" data-qualified-name="EntidadInvitacion" data-source-line="8" id="ent0006"><ellipse cx="1592.1353" cy="23" fill="#F1F1F1" rx="12" ry="12" style="stroke:#181818;stroke-width:0.5;"/><line style="stroke:#181818;stroke-width:0.5;" x1="1580.1353" x2="1604.1353" y1="37" y2="37"/><text fill="#000000" font-family="sans-serif" font-size="14" lengthAdjust="spacing" textLength="68.2705" x="1558" y="51.9951">Invitacion</text></g><!--entity InvitacionesAbierto--><g class="entity" data-qualified-name="InvitacionesAbierto" data-source-line="9" id="ent0007"><rect fill="#C5E0B4" height="36.2969" rx="2.5" ry="2.5" style="stroke:#181818;stroke-width:0.5;" width="164.1221" x="864" y="90"/><text fill="#000000" font-family="sans-serif" font-size="14" lengthAdjust="spacing" textLength="144.1221" x="874" y="112.9951">:Invitaciones Abierto</text></g><!--link Usuario to EditarInvitacionView--><g class="link" data-entity-1="ent0002" data-entity-2="ent0003" data-link-type="dependency" data-source-line="11" id="lnk8"><path d="M59.08,80 C119.96,80 269.22,80 360.84,80" fill="none" id="Usuario-to-EditarInvitacionView" style="stroke:#181818;stroke-width:1;"/><polygon fill="#181818" points="366.84,80,357.84,76,361.84,80,357.84,84,366.84,80" style="stroke:#181818;stroke-width:1;"/><text fill="#000000" font-family="sans-serif" font-size="13" lengthAdjust="spacing" textLength="246.9683" x="90" y="76.0669">1: editarInvitacion(datosActualizados)</text></g><!--link EditarInvitacionView to InvitacionesController--><g class="link" data-entity-1="ent0003" data-entity-2="ent0004" data-link-type="dependency" data-source-line="12" id="lnk9"><path d="M510.05,73.16 C604.67,63.99 766.028,48.3487 863.238,38.9287" fill="none" id="EditarInvitacionView-to-InvitacionesController" style="stroke:#181818;stroke-width:1;"/><polygon fill="#181818" points="869.21,38.35,859.8662,35.2367,864.2333,38.8323,860.6378,43.1994,869.21,38.35" style="stroke:#181818;stroke-width:1;"/><text fill="#000000" font-family="sans-serif" font-size="13" lengthAdjust="spacing" textLength="292.6016" x="541" y="38.0669">2: actualizarInvitacion(id, datosActualizados)</text></g><!--link InvitacionesController to InvitacionRepository--><g class="link" data-entity-1="ent0004" data-entity-2="ent0005" data-link-type="dependency" data-source-line="13" id="lnk10"><path d="M1022.66,31 C1113.65,31 1259.17,31 1347.86,31" fill="none" id="InvitacionesController-to-InvitacionRepository" style="stroke:#181818;stroke-width:1;"/><polygon fill="#181818" points="1353.86,31,1344.86,27,1348.86,31,1344.86,35,1353.86,31" style="stroke:#181818;stroke-width:1;"/><text fill="#000000" font-family="sans-serif" font-size="13" lengthAdjust="spacing" textLength="264.3608" x="1059" y="27.0669">3: modificarDatos(id, datosActualizados)</text></g><!--link InvitacionRepository to EntidadInvitacion--><g class="link" data-entity-1="ent0005" data-entity-2="ent0006" data-link-type="association" data-source-line="14" id="lnk11"><path d="M1497.22,31 C1518.29,31 1540.39,31 1557.85,31" fill="none" id="InvitacionRepository-EntidadInvitacion" style="stroke:#181818;stroke-width:1;"/></g><!--link EditarInvitacionView to InvitacionesAbierto--><g class="link" data-entity-1="ent0003" data-entity-2="ent0007" data-link-type="dependency" data-source-line="15" id="lnk12"><path d="M510.12,94.76 C526.88,98.26 540,101 540,101 C540,101 739.2609,104.4465 857.5309,106.4865" fill="none" id="EditarInvitacionView-to-InvitacionesAbierto" style="stroke:#181818;stroke-width:1;"/><polygon fill="#181818" points="863.53,106.59,854.6003,102.4354,858.5307,106.5038,854.4624,110.4342,863.53,106.59" style="stroke:#181818;stroke-width:1;"/><text fill="#000000" font-family="sans-serif" font-size="13" lengthAdjust="spacing" textLength="129.6128" x="622.5" y="97.0669">4: actualizaEstado()</text></g><?plantuml-src ZP3DJiCm48JlVefLkBGIaVWf5n-GIic1AnBSjxRRhd2zaRq1XQV7WKOnA0XEbcUyttWslL1eCU8HF0KdVUkWPTyF5-NTJa0O8kqF0fQYCq8Sb48Z7E4fTHY9rPQxO37sq5WIZ0_XDHycFtmczwOC1udiOP9TsdnftaNbWf3qXVleMawK-VteLPDP0IPeicpHJgeQFePXxnrKkio1zPPS5FuSAusJ3cURc-RYRgNKgGlKzUri3T1mgS7zS1OMXTFQI8UUtj5oMghPwG4xlu0CljA08wA4aps7cO1VEDyZfYtcW6iDHxQq8uFnVW3-ZIxcwtfcu_zgEMvPmwges2J9QOlb1m00?></g></svg>