<?plantuml 1.2026.2?><svg xmlns="http://www.w3.org/2000/svg" xmlns:xlink="http://www.w3.org/1999/xlink" contentStyleType="text/css" data-diagram-type="DESCRIPTION" height="443px" preserveAspectRatio="none" style="width:862px;height:443px;background:#FFFFFF;" version="1.1" viewBox="0 0 862 443" width="862px" zoomAndPan="magnify"><defs/><g><!--cluster validarConflicto--><g class="cluster" data-qualified-name="validarConflicto" data-source-line="4" id="ent0003"><path d="M420,6 L558.498,6 A3.75,3.75 0 0 1 560.998,8.5 L567.998,28.2969 L783,28.2969 A2.5,2.5 0 0 1 785.5,30.7969 L785.5,433.5 A2.5,2.5 0 0 1 783,436 L420,436 A2.5,2.5 0 0 1 417.5,433.5 L417.5,8.5 A2.5,2.5 0 0 1 420,6" fill="none" style="stroke:#000000;stroke-width:1.5;"/><line style="stroke:#000000;stroke-width:1.5;" x1="417.5" x2="567.998" y1="28.2969" y2="28.2969"/><text fill="#000000" font-family="sans-serif" font-size="14" font-weight="bold" lengthAdjust="spacing" textLength="137.498" x="421.5" y="20.9951">validarConflicto()</text></g><!--entity DetalleTareaView--><g class="entity" data-qualified-name="validarConflicto.DetalleTareaView" data-source-line="5" id="ent0004"><rect fill="#629EF9" height="36.2969" rx="2.5" ry="2.5" style="stroke:#181818;stroke-width:0.5;" width="143.4639" x="434" y="41"/><text fill="#000000" font-family="sans-serif" font-size="14" lengthAdjust="spacing" textLength="123.4639" x="444" y="63.9951">DetalleTareaView</text></g><!--entity TareasController--><g class="entity" data-qualified-name="validarConflicto.TareasController" data-source-line="6" id="ent0005"><rect fill="#B5BD68" height="36.2969" rx="2.5" ry="2.5" style="stroke:#181818;stroke-width:0.5;" width="136.5459" x="434" y="174"/><text fill="#000000" font-family="sans-serif" font-size="14" lengthAdjust="spacing" textLength="116.5459" x="444" y="196.9951">TareasController</text></g><!--entity TareaRepository--><g class="entity" data-qualified-name="validarConflicto.TareaRepository" data-source-line="7" id="ent0006"><rect fill="#F2AC4E" height="36.2969" rx="2.5" ry="2.5" style="stroke:#181818;stroke-width:0.5;" width="135.1514" x="434" y="287"/><text fill="#000000" font-family="sans-serif" font-size="14" lengthAdjust="spacing" textLength="115.1514" x="444" y="309.9951">TareaRepository</text></g><!--entity Tarea--><g class="entity" data-qualified-name="validarConflicto.Tarea" data-source-line="8" id="ent0007"><rect fill="#F2AC4E" height="36.2969" rx="2.5" ry="2.5" style="stroke:#181818;stroke-width:0.5;" width="60.0791" x="471.5" y="384"/><text fill="#000000" font-family="sans-serif" font-size="14" lengthAdjust="spacing" textLength="40.0791" x="481.5" y="406.9951">Tarea</text></g><!--entity Usuario--><g class="entity" data-qualified-name="Usuario" data-source-line="3" id="ent0002"><ellipse cx="828.6021" cy="29.5" fill="#F1F1F1" rx="8" ry="8" style="stroke:#181818;stroke-width:0.5;"/><path d="M828.6021,37.5 L828.6021,64.5 M815.6021,45.5 L841.6021,45.5 M828.6021,64.5 L815.6021,79.5 M828.6021,64.5 L841.6021,79.5" fill="none" style="stroke:#181818;stroke-width:0.5;"/><text fill="#000000" font-family="sans-serif" font-size="14" lengthAdjust="spacing" textLength="53.2041" x="802" y="93.9951">Usuario</text></g><!--entity SistemaDisponible--><g class="entity" data-qualified-name="SistemaDisponible" data-source-line="10" id="ent0008"><rect fill="#CDEBA5" height="36.2969" rx="2.5" ry="2.5" style="stroke:#181818;stroke-width:0.5;" width="159.125" x="7" y="41"/><text fill="#000000" font-family="sans-serif" font-size="14" lengthAdjust="spacing" textLength="139.125" x="17" y="63.9951">:Sistema Disponible</text></g><!--link SistemaDisponible to DetalleTareaView--><g class="link" data-entity-1="ent0008" data-entity-2="ent0004" data-link-type="dependency" data-source-line="12" id="lnk9"><path d="M166.3,59 C243.46,59 353.34,59 427.69,59" fill="none" id="SistemaDisponible-to-DetalleTareaView" style="stroke:#181818;stroke-width:1;"/><polygon fill="#181818" points="433.69,59,424.69,55,428.69,59,424.69,63,433.69,59" style="stroke:#181818;stroke-width:1;"/><text fill="#000000" font-family="sans-serif" font-size="13" lengthAdjust="spacing" textLength="231.8672" x="184.5" y="52.0669">1: validarHorario(datosTemporales)</text></g><!--link DetalleTareaView to SistemaDisponible--><g class="link" data-entity-1="ent0004" data-entity-2="ent0008" data-link-type="dependency" data-source-line="20" id="lnk13"><path d="M433.69,59 C359.34,59 249.46,59 172.3,59" fill="none" id="DetalleTareaView-to-SistemaDisponible" style="stroke:#181818;stroke-width:1;"/><polygon fill="#181818" points="166.3,59,175.3,63,171.3,59,175.3,55,166.3,59" style="stroke:#181818;stroke-width:1;"/><text fill="#000000" font-family="sans-serif" font-size="13" lengthAdjust="spacing" textLength="194.251" x="203" y="52.0669">4: sistemaDisponible(usuario)</text></g><!--link DetalleTareaView to TareasController--><g class="link" data-entity-1="ent0004" data-entity-2="ent0005" data-link-type="dependency" data-source-line="14" id="lnk10"><path d="M505.11,77.13 C504.53,102.23 503.6086,142.7616 503.0286,167.8716" fill="none" id="DetalleTareaView-to-TareasController" style="stroke:#181818;stroke-width:1;"/><polygon fill="#181818" points="502.89,173.87,507.0968,164.9648,503.0055,168.8713,499.0989,164.78,502.89,173.87" style="stroke:#181818;stroke-width:1;"/><text fill="#000000" font-family="sans-serif" font-size="13" lengthAdjust="spacing" textLength="276.9355" x="504.5" y="140.0669">2: verificarConflictos(id, datosTemporales)</text></g><!--link TareasController to TareaRepository--><g class="link" data-entity-1="ent0005" data-entity-2="ent0006" data-link-type="dependency" data-source-line="16" id="lnk11"><path d="M502.34,210.34 C502.16,231.2 501.8919,259.9802 501.7119,280.7802" fill="none" id="TareasController-to-TareaRepository" style="stroke:#181818;stroke-width:1;"/><polygon fill="#181818" points="501.66,286.78,505.7377,277.815,501.7033,281.7802,497.738,277.7457,501.66,286.78" style="stroke:#181818;stroke-width:1;"/><text fill="#000000" font-family="sans-serif" font-size="13" lengthAdjust="spacing" textLength="299.6602" x="502.5" y="253.0669">3: buscarSolapamientos(id, datosTemporales)</text></g><!--link TareaRepository to Tarea--><g class="link" data-entity-1="ent0006" data-entity-2="ent0007" data-link-type="association" data-source-line="18" id="lnk12"><path d="M501.5,323.42 C501.5,340.57 501.5,366.58 501.5,383.69" fill="none" id="TareaRepository-Tarea" style="stroke:#181818;stroke-width:1;"/></g><?plantuml-src XPBDJiCm48JlVefLk2GIEL3QYlg0LFeZphHmtoJRQbKdjcm7527U7OUsQkKWyCspivyy8xi3DmOjrg2u8TyP0gDLrr-4mD9h2w-kHSjQ62mFk2TuHyKLseLkTeg30z114ejfbi2dW70ibHwRlIAucOvcg_KCbkHHATgY9NnZ-eXjnQIefW_mCtU1wAqETXlRrgFvOhmwsbx8QCVXjTrVBl4bhYQBvUffFe54RjXvgX6Mx8nkk52Kz9bEyaKLOY11RlF7GI09T_9SqxEsVNjfXLwxBTKct1MvJ8Xu2_8giEBK4aQ1HPPtN5xrwrAkRc48ZTSXFpCl5Kcubr2qBl0sMg71cgdv1tdP3iHJcxyawDiOb2HXBC75QjeU_rNs3G00?></g></svg>