<?plantuml 1.2026.2?><svg xmlns="http://www.w3.org/2000/svg" xmlns:xlink="http://www.w3.org/1999/xlink" contentStyleType="text/css" data-diagram-type="SEQUENCE" height="517px" preserveAspectRatio="none" style="width:1257px;height:517px;background:#FFFFFF;" version="1.1" viewBox="0 0 1257 517" width="1257px" zoomAndPan="magnify"><defs/><g><g><title>..UI React..</title><rect fill="#FFFFFF" height="304.3281" style="stroke:#000000;stroke-width:1;" width="10" x="288.0308" y="113.4297"/></g><g><title>..Router FastAPI..</title><rect fill="#FFFFFF" height="246.0625" style="stroke:#000000;stroke-width:1;" width="10" x="497.4575" y="142.5625"/></g><g><title>..L.gica de Negocio..</title><rect fill="#FFFFFF" height="187.7969" style="stroke:#000000;stroke-width:1;" width="10" x="692.0923" y="171.6953"/></g><g><title>..Capa Datos SQLAlchemy..</title><rect fill="#FFFFFF" height="87.3984" style="stroke:#000000;stroke-width:1;" width="10" x="908.2476" y="242.9609"/></g><g><title>PostgreSQL</title><rect fill="#FFFFFF" height="29.1328" style="stroke:#000000;stroke-width:1;" width="10" x="1208.1855" y="272.0938"/></g><g class="participant-lifeline" data-entity-uid="part1" data-qualified-name="Usuario" id="part1-lifeline"><g><title>Usuario</title><rect fill="#000000" fill-opacity="0.00000" height="353.4609" width="8" x="35.6021" y="82.2969"/><line style="stroke:#000000;stroke-width:1;stroke-dasharray:5,5;" x1="39" x2="39" y1="82.2969" y2="435.7578"/></g></g><g class="participant-lifeline" data-entity-uid="part2" data-qualified-name="ListarTareasView" id="part2-lifeline"><g><title>..UI React..</title><rect fill="#000000" fill-opacity="0.00000" height="353.4609" width="8" x="289.0308" y="82.2969"/><line style="stroke:#000000;stroke-width:1;stroke-dasharray:5,5;" x1="292.1753" x2="292.1753" y1="82.2969" y2="435.7578"/></g></g><g class="participant-lifeline" data-entity-uid="part3" data-qualified-name="TareasController" id="part3-lifeline"><g><title>..Router FastAPI..</title><rect fill="#000000" fill-opacity="0.00000" height="353.4609" width="8" x="498.4575" y="82.2969"/><line style="stroke:#000000;stroke-width:1;stroke-dasharray:5,5;" x1="502.2979" x2="502.2979" y1="82.2969" y2="435.7578"/></g></g><g class="participant-lifeline" data-entity-uid="part4" data-qualified-name="TareasService" id="part4-lifeline"><g><title>..L.gica de Negocio..</title><rect fill="#000000" fill-opacity="0.00000" height="353.4609" width="8" x="693.0923" y="82.2969"/><line style="stroke:#000000;stroke-width:1;stroke-dasharray:5,5;" x1="696.1973" x2="696.1973" y1="82.2969" y2="435.7578"/></g></g><g class="participant-lifeline" data-entity-uid="part5" data-qualified-name="TareaRepository" id="part5-lifeline"><g><title>..Capa Datos SQLAlchemy..</title><rect fill="#000000" fill-opacity="0.00000" height="353.4609" width="8" x="909.2476" y="82.2969"/><line style="stroke:#000000;stroke-width:1;stroke-dasharray:5,5;" x1="912.7529" x2="912.7529" y1="82.2969" y2="435.7578"/></g></g><g class="participant-lifeline" data-entity-uid="part6" data-qualified-name="PostgreSQL" id="part6-lifeline"><g><title>PostgreSQL</title><rect fill="#000000" fill-opacity="0.00000" height="353.4609" width="8" x="1209.1855" y="82.2969"/><line style="stroke:#000000;stroke-width:1;stroke-dasharray:5,5;" x1="1212.8091" x2="1212.8091" y1="82.2969" y2="435.7578"/></g></g><g class="participant participant-head" data-entity-uid="part1" data-qualified-name="Usuario" id="part1-head"><text fill="#000000" font-family="Verdana" font-size="14" lengthAdjust="spacing" textLength="53.2041" x="10" y="78.9951">Usuario</text><ellipse cx="39.6021" cy="14" fill="#FFFFFF" rx="8" ry="8" style="stroke:#000000;stroke-width:1;"/><path d="M39.6021,22 L39.6021,49 M26.6021,30 L52.6021,30 M39.6021,49 L26.6021,64 M39.6021,49 L52.6021,64" fill="none" style="stroke:#000000;stroke-width:1;"/></g><g class="participant participant-tail" data-entity-uid="part1" data-qualified-name="Usuario" id="part1-tail"><text fill="#000000" font-family="Verdana" font-size="14" lengthAdjust="spacing" textLength="53.2041" x="10" y="447.7529">Usuario</text><ellipse cx="39.6021" cy="460.0547" fill="#FFFFFF" rx="8" ry="8" style="stroke:#000000;stroke-width:1;"/><path d="M39.6021,468.0547 L39.6021,495.0547 M26.6021,476.0547 L52.6021,476.0547 M39.6021,495.0547 L26.6021,510.0547 M39.6021,495.0547 L52.6021,510.0547" fill="none" style="stroke:#000000;stroke-width:1;"/></g><g class="participant participant-head" data-entity-uid="part2" data-qualified-name="ListarTareasView" id="part2-head"><rect fill="#FFFFFF" height="46.5938" rx="2.5" ry="2.5" style="stroke:#000000;stroke-width:1;" width="133.7109" x="226.1753" y="34.7031"/><text fill="#000000" font-family="Verdana" font-size="14" font-style="italic" lengthAdjust="spacing" textLength="76.2139" x="254.9238" y="54.6982">&#171;UI React&#187;</text><text fill="#000000" font-family="Verdana" font-size="14" lengthAdjust="spacing" textLength="119.7109" x="233.1753" y="70.9951">ListarTareasView</text></g><g class="participant participant-tail" data-entity-uid="part2" data-qualified-name="ListarTareasView" id="part2-tail"><rect fill="#FFFFFF" height="46.5938" rx="2.5" ry="2.5" style="stroke:#000000;stroke-width:1;" width="133.7109" x="226.1753" y="434.7578"/><text fill="#000000" font-family="Verdana" font-size="14" font-style="italic" lengthAdjust="spacing" textLength="76.2139" x="254.9238" y="454.7529">&#171;UI React&#187;</text><text fill="#000000" font-family="Verdana" font-size="14" lengthAdjust="spacing" textLength="119.7109" x="233.1753" y="471.0498">ListarTareasView</text></g><g class="participant participant-head" data-entity-uid="part3" data-qualified-name="TareasController" id="part3-head"><rect fill="#FFFFFF" height="46.5938" rx="2.5" ry="2.5" style="stroke:#000000;stroke-width:1;" width="134.3193" x="435.2979" y="34.7031"/><text fill="#000000" font-family="Verdana" font-size="14" font-style="italic" lengthAdjust="spacing" textLength="120.3193" x="442.2979" y="54.6982">&#171;Router FastAPI&#187;</text><text fill="#000000" font-family="Verdana" font-size="14" lengthAdjust="spacing" textLength="116.5459" x="444.1846" y="70.9951">TareasController</text></g><g class="participant participant-tail" data-entity-uid="part3" data-qualified-name="TareasController" id="part3-tail"><rect fill="#FFFFFF" height="46.5938" rx="2.5" ry="2.5" style="stroke:#000000;stroke-width:1;" width="134.3193" x="435.2979" y="434.7578"/><text fill="#000000" font-family="Verdana" font-size="14" font-style="italic" lengthAdjust="spacing" textLength="120.3193" x="442.2979" y="454.7529">&#171;Router FastAPI&#187;</text><text fill="#000000" font-family="Verdana" font-size="14" lengthAdjust="spacing" textLength="116.5459" x="444.1846" y="471.0498">TareasController</text></g><g class="participant participant-head" data-entity-uid="part4" data-qualified-name="TareasService" id="part4-head"><rect fill="#FFFFFF" height="46.5938" rx="2.5" ry="2.5" style="stroke:#000000;stroke-width:1;" width="159.79" x="617.1973" y="34.7031"/><text fill="#000000" font-family="Verdana" font-size="14" font-style="italic" lengthAdjust="spacing" textLength="145.79" x="624.1973" y="54.6982">&#171;L&#243;gica de Negocio&#187;</text><text fill="#000000" font-family="Verdana" font-size="14" lengthAdjust="spacing" textLength="99.1143" x="647.5352" y="70.9951">TareasService</text></g><g class="participant participant-tail" data-entity-uid="part4" data-qualified-name="TareasService" id="part4-tail"><rect fill="#FFFFFF" height="46.5938" rx="2.5" ry="2.5" style="stroke:#000000;stroke-width:1;" width="159.79" x="617.1973" y="434.7578"/><text fill="#000000" font-family="Verdana" font-size="14" font-style="italic" lengthAdjust="spacing" textLength="145.79" x="624.1973" y="454.7529">&#171;L&#243;gica de Negocio&#187;</text><text fill="#000000" font-family="Verdana" font-size="14" lengthAdjust="spacing" textLength="99.1143" x="647.5352" y="471.0498">TareasService</text></g><g class="participant participant-head" data-entity-uid="part5" data-qualified-name="TareaRepository" id="part5-head"><rect fill="#FFFFFF" height="46.5938" rx="2.5" ry="2.5" style="stroke:#000000;stroke-width:1;" width="204.9893" x="810.7529" y="34.7031"/><text fill="#000000" font-family="Verdana" font-size="14" font-style="italic" lengthAdjust="spacing" textLength="190.9893" x="817.7529" y="54.6982">&#171;Capa Datos SQLAlchemy&#187;</text><text fill="#000000" font-family="Verdana" font-size="14" lengthAdjust="spacing" textLength="115.1514" x="855.6719" y="70.9951">TareaRepository</text></g><g class="participant participant-tail" data-entity-uid="part5" data-qualified-name="TareaRepository" id="part5-tail"><rect fill="#FFFFFF" height="46.5938" rx="2.5" ry="2.5" style="stroke:#000000;stroke-width:1;" width="204.9893" x="810.7529" y="434.7578"/><text fill="#000000" font-family="Verdana" font-size="14" font-style="italic" lengthAdjust="spacing" textLength="190.9893" x="817.7529" y="454.7529">&#171;Capa Datos SQLAlchemy&#187;</text><text fill="#000000" font-family="Verdana" font-size="14" lengthAdjust="spacing" textLength="115.1514" x="855.6719" y="471.0498">TareaRepository</text></g><g class="participant participant-head" data-entity-uid="part6" data-qualified-name="PostgreSQL" id="part6-head"><text fill="#000000" font-family="Verdana" font-size="14" lengthAdjust="spacing" textLength="80.7529" x="1169.8091" y="78.9951">PostgreSQL</text><path d="M1195.1855,30 C1195.1855,20 1213.1855,20 1213.1855,20 C1213.1855,20 1231.1855,20 1231.1855,30 L1231.1855,56 C1231.1855,66 1213.1855,66 1213.1855,66 C1213.1855,66 1195.1855,66 1195.1855,56 L1195.1855,30" fill="#FFFFFF" style="stroke:#000000;stroke-width:1;"/><path d="M1195.1855,30 C1195.1855,40 1213.1855,40 1213.1855,40 C1213.1855,40 1231.1855,40 1231.1855,30" fill="none" style="stroke:#000000;stroke-width:1;"/></g><g class="participant participant-tail" data-entity-uid="part6" data-qualified-name="PostgreSQL" id="part6-tail"><text fill="#000000" font-family="Verdana" font-size="14" lengthAdjust="spacing" textLength="80.7529" x="1169.8091" y="447.7529">PostgreSQL</text><path d="M1195.1855,461.0547 C1195.1855,451.0547 1213.1855,451.0547 1213.1855,451.0547 C1213.1855,451.0547 1231.1855,451.0547 1231.1855,461.0547 L1231.1855,487.0547 C1231.1855,497.0547 1213.1855,497.0547 1213.1855,497.0547 C1213.1855,497.0547 1195.1855,497.0547 1195.1855,487.0547 L1195.1855,461.0547" fill="#FFFFFF" style="stroke:#000000;stroke-width:1;"/><path d="M1195.1855,461.0547 C1195.1855,471.0547 1213.1855,471.0547 1213.1855,471.0547 C1213.1855,471.0547 1231.1855,471.0547 1231.1855,461.0547" fill="none" style="stroke:#000000;stroke-width:1;"/></g><g><title>..UI React..</title><rect fill="#FFFFFF" height="304.3281" style="stroke:#000000;stroke-width:1;" width="10" x="288.0308" y="113.4297"/></g><g><title>..Router FastAPI..</title><rect fill="#FFFFFF" height="246.0625" style="stroke:#000000;stroke-width:1;" width="10" x="497.4575" y="142.5625"/></g><g><title>..L.gica de Negocio..</title><rect fill="#FFFFFF" height="187.7969" style="stroke:#000000;stroke-width:1;" width="10" x="692.0923" y="171.6953"/></g><g><title>..Capa Datos SQLAlchemy..</title><rect fill="#FFFFFF" height="87.3984" style="stroke:#000000;stroke-width:1;" width="10" x="908.2476" y="242.9609"/></g><g><title>PostgreSQL</title><rect fill="#FFFFFF" height="29.1328" style="stroke:#000000;stroke-width:1;" width="10" x="1208.1855" y="272.0938"/></g><g class="message" data-entity-1="part1" data-entity-2="part2" id="msg1"><polygon fill="#000000" points="276.0308,109.4297,286.0308,113.4297,276.0308,117.4297,280.0308,113.4297" style="stroke:#000000;stroke-width:1;"/><line style="stroke:#000000;stroke-width:1;" x1="39.6021" x2="282.0308" y1="113.4297" y2="113.4297"/><text fill="#000000" font-family="Verdana" font-size="13" font-weight="bold" lengthAdjust="spacing" textLength="9.0454" x="46.6021" y="108.3638">1</text><text fill="#000000" font-family="Verdana" font-size="13" lengthAdjust="spacing" textLength="160.7417" x="59.6475" y="108.3638">Hace clic en el checkbox</text></g><g class="message" data-entity-1="part2" data-entity-2="part3" id="msg2"><polygon fill="#000000" points="485.4575,138.5625,495.4575,142.5625,485.4575,146.5625,489.4575,142.5625" style="stroke:#000000;stroke-width:1;"/><line style="stroke:#000000;stroke-width:1;" x1="298.0308" x2="491.4575" y1="142.5625" y2="142.5625"/><text fill="#000000" font-family="Verdana" font-size="13" font-weight="bold" lengthAdjust="spacing" textLength="9.0454" x="305.0308" y="137.4966">2</text><text fill="#000000" font-family="Verdana" font-size="13" lengthAdjust="spacing" textLength="167.3813" x="318.0762" y="137.4966">PATCH /tasks/{id}/estado</text></g><g class="message" data-entity-1="part3" data-entity-2="part4" id="msg3"><polygon fill="#000000" points="680.0923,167.6953,690.0923,171.6953,680.0923,175.6953,684.0923,171.6953" style="stroke:#000000;stroke-width:1;"/><line style="stroke:#000000;stroke-width:1;" x1="507.4575" x2="686.0923" y1="171.6953" y2="171.6953"/><text fill="#000000" font-family="Verdana" font-size="13" font-weight="bold" lengthAdjust="spacing" textLength="9.0454" x="514.4575" y="166.6294">3</text><text fill="#000000" font-family="Verdana" font-size="13" lengthAdjust="spacing" textLength="151.8486" x="527.5029" y="166.6294">marcar_completada(id)</text></g><g class="message" data-entity-1="part4" data-entity-2="part4" id="msg4"><line style="stroke:#000000;stroke-width:1;" x1="702.0923" x2="744.0923" y1="200.8281" y2="200.8281"/><line style="stroke:#000000;stroke-width:1;" x1="744.0923" x2="744.0923" y1="200.8281" y2="213.8281"/><line style="stroke:#000000;stroke-width:1;" x1="703.0923" x2="744.0923" y1="213.8281" y2="213.8281"/><polygon fill="#000000" points="713.0923,209.8281,703.0923,213.8281,713.0923,217.8281,709.0923,213.8281" style="stroke:#000000;stroke-width:1;"/><text fill="#000000" font-family="Verdana" font-size="13" font-weight="bold" lengthAdjust="spacing" textLength="9.0454" x="709.0923" y="195.7622">4</text><text fill="#000000" font-family="Verdana" font-size="13" lengthAdjust="spacing" textLength="144.0093" x="722.1377" y="195.7622">Verifica dependencias</text></g><g class="message" data-entity-1="part4" data-entity-2="part5" id="msg5"><polygon fill="#000000" points="896.2476,238.9609,906.2476,242.9609,896.2476,246.9609,900.2476,242.9609" style="stroke:#000000;stroke-width:1;"/><line style="stroke:#000000;stroke-width:1;" x1="702.0923" x2="902.2476" y1="242.9609" y2="242.9609"/><text fill="#000000" font-family="Verdana" font-size="13" font-weight="bold" lengthAdjust="spacing" textLength="9.0454" x="709.0923" y="237.895">5</text><text fill="#000000" font-family="Verdana" font-size="13" lengthAdjust="spacing" textLength="174.1099" x="722.1377" y="237.895">actualizar_estado(id, True)</text></g><g class="message" data-entity-1="part5" data-entity-2="part6" id="msg6"><polygon fill="#000000" points="1196.1855,268.0938,1206.1855,272.0938,1196.1855,276.0938,1200.1855,272.0938" style="stroke:#000000;stroke-width:1;"/><line style="stroke:#000000;stroke-width:1;" x1="918.2476" x2="1202.1855" y1="272.0938" y2="272.0938"/><text fill="#000000" font-family="Verdana" font-size="13" font-weight="bold" lengthAdjust="spacing" textLength="9.0454" x="925.2476" y="267.0278">6</text><text fill="#000000" font-family="Verdana" font-size="13" lengthAdjust="spacing" textLength="257.8926" x="938.293" y="267.0278">UPDATE tasks SET is_completed = True</text></g><g class="message" data-entity-1="part6" data-entity-2="part5" id="msg7"><polygon fill="#000000" points="929.2476,297.2266,919.2476,301.2266,929.2476,305.2266,925.2476,301.2266" style="stroke:#000000;stroke-width:1;"/><line style="stroke:#000000;stroke-width:1;stroke-dasharray:2,2;" x1="923.2476" x2="1212.1855" y1="301.2266" y2="301.2266"/><text fill="#000000" font-family="Verdana" font-size="13" font-weight="bold" lengthAdjust="spacing" textLength="9.0454" x="935.2476" y="296.1606">7</text><text fill="#000000" font-family="Verdana" font-size="13" lengthAdjust="spacing" textLength="163.9219" x="948.293" y="296.1606">Devuelve fila actualizada</text></g><g class="message" data-entity-1="part5" data-entity-2="part4" id="msg8"><polygon fill="#000000" points="713.0923,326.3594,703.0923,330.3594,713.0923,334.3594,709.0923,330.3594" style="stroke:#000000;stroke-width:1;"/><line style="stroke:#000000;stroke-width:1;stroke-dasharray:2,2;" x1="707.0923" x2="912.2476" y1="330.3594" y2="330.3594"/><text fill="#000000" font-family="Verdana" font-size="13" font-weight="bold" lengthAdjust="spacing" textLength="9.0454" x="719.0923" y="325.2935">8</text><text fill="#000000" font-family="Verdana" font-size="13" lengthAdjust="spacing" textLength="147.5894" x="732.1377" y="325.2935">Devuelve objeto Tarea</text></g><g class="message" data-entity-1="part4" data-entity-2="part3" id="msg9"><polygon fill="#000000" points="518.4575,355.4922,508.4575,359.4922,518.4575,363.4922,514.4575,359.4922" style="stroke:#000000;stroke-width:1;"/><line style="stroke:#000000;stroke-width:1;stroke-dasharray:2,2;" x1="512.4575" x2="696.0923" y1="359.4922" y2="359.4922"/><text fill="#000000" font-family="Verdana" font-size="13" font-weight="bold" lengthAdjust="spacing" textLength="9.0454" x="524.4575" y="354.4263">9</text><text fill="#000000" font-family="Verdana" font-size="13" lengthAdjust="spacing" textLength="147.5894" x="537.5029" y="354.4263">Devuelve objeto Tarea</text></g><g class="message" data-entity-1="part3" data-entity-2="part2" id="msg10"><polygon fill="#000000" points="309.0308,384.625,299.0308,388.625,309.0308,392.625,305.0308,388.625" style="stroke:#000000;stroke-width:1;"/><line style="stroke:#000000;stroke-width:1;stroke-dasharray:2,2;" x1="303.0308" x2="501.4575" y1="388.625" y2="388.625"/><text fill="#000000" font-family="Verdana" font-size="13" font-weight="bold" lengthAdjust="spacing" textLength="18.0908" x="315.0308" y="383.5591">10</text><text fill="#000000" font-family="Verdana" font-size="13" lengthAdjust="spacing" textLength="104.3047" x="337.1216" y="383.5591">Respuesta JSON</text></g><g class="message" data-entity-1="part2" data-entity-2="part1" id="msg11"><polygon fill="#000000" points="50.6021,413.7578,40.6021,417.7578,50.6021,421.7578,46.6021,417.7578" style="stroke:#000000;stroke-width:1;"/><line style="stroke:#000000;stroke-width:1;stroke-dasharray:2,2;" x1="44.6021" x2="292.0308" y1="417.7578" y2="417.7578"/><text fill="#000000" font-family="Verdana" font-size="13" font-weight="bold" lengthAdjust="spacing" textLength="18.0908" x="56.6021" y="412.6919">11</text><text fill="#000000" font-family="Verdana" font-size="13" lengthAdjust="spacing" textLength="202.3379" x="78.6929" y="412.6919">Actualiza estado reactivo de UI</text></g><?plantuml-src ZPF1JXin48RlVehXHgMYt5SqqYe14HH1ccoueeazf0FEUcLxqzAgJzL7w8jrmX9ssJLIRvOy_-T__XcVn6-q8wWiSgcmZgwiTnloIg6EpiCwrEZPgGfzPCqLbX7c72Bw0ZrXk6Fw3kVdwnaiIHJZyRlAfcRYokYTjUIbSkdgA8TB335Vp9BrA_9xrYJ5yxz_jgmH3C4DRPrcbn8igNA1nUspI2PO8KmnkW2hh_FSQcdlMLG68sum42nSY5jFSgdKQtTmDXusbS4LYWbjMGELG1O4fPysxiSX6jvZf8583IX27eIGmI8l9bSmYXYUmkWNczyZ4frnBRalKWFA6_aOLmOxz1hzlNQxofBmy9JDfpxpjLoz5oTeT-JveKc_ej9GgHd31xBE23AG1skq_5EiD6s9ZSzG-9hwPbgPwcE4t4vAeEl5D2yku2KoM5qKmE7OA1duye9lwPqXToXdIRjJsjTazmGFRB4rRr0PIW47JXFPlJ7Tvf6YQ-wxl6JxRQpfjVa_Qc_2tPL9x_cIGbKV9WNNgzkR8Q-pXSFz5kJn5sMG7yE3Pl3W6vOx_E3rh8lka_u1?></g></svg>