<?plantuml 1.2026.2?><svg xmlns="http://www.w3.org/2000/svg" xmlns:xlink="http://www.w3.org/1999/xlink" contentStyleType="text/css" data-diagram-type="DESCRIPTION" height="443px" preserveAspectRatio="none" style="width:769px;height:443px;background:#FFFFFF;" version="1.1" viewBox="0 0 769 443" width="769px" zoomAndPan="magnify"><defs/><g><!--cluster abrirGrupos--><g class="cluster" data-qualified-name="abrirGrupos" data-source-line="4" id="ent0003"><path d="M383,6 L491.208,6 A3.75,3.75 0 0 1 493.708,8.5 L500.708,28.2969 L690,28.2969 A2.5,2.5 0 0 1 692.5,30.7969 L692.5,433.5 A2.5,2.5 0 0 1 690,436 L383,436 A2.5,2.5 0 0 1 380.5,433.5 L380.5,8.5 A2.5,2.5 0 0 1 383,6" fill="none" style="stroke:#000000;stroke-width:1.5;"/><line style="stroke:#000000;stroke-width:1.5;" x1="380.5" x2="500.708" y1="28.2969" y2="28.2969"/><text fill="#000000" font-family="sans-serif" font-size="14" font-weight="bold" lengthAdjust="spacing" textLength="107.208" x="384.5" y="20.9951">abrirGrupos()</text></g><!--entity ListarGruposView--><g class="entity" data-qualified-name="abrirGrupos.ListarGruposView" data-source-line="5" id="ent0004"><rect fill="#629EF9" height="36.2969" rx="2.5" ry="2.5" style="stroke:#181818;stroke-width:0.5;" width="142.5615" x="397" y="41"/><text fill="#000000" font-family="sans-serif" font-size="14" lengthAdjust="spacing" textLength="122.5615" x="407" y="63.9951">ListarGruposView</text></g><!--entity GruposController--><g class="entity" data-qualified-name="abrirGrupos.GruposController" data-source-line="6" id="ent0005"><rect fill="#B5BD68" height="36.2969" rx="2.5" ry="2.5" style="stroke:#181818;stroke-width:0.5;" width="139.3965" x="398" y="174"/><text fill="#000000" font-family="sans-serif" font-size="14" lengthAdjust="spacing" textLength="119.3965" x="408" y="196.9951">GruposController</text></g><!--entity GrupoRepository--><g class="entity" data-qualified-name="abrirGrupos.GrupoRepository" data-source-line="7" id="ent0006"><rect fill="#F2AC4E" height="36.2969" rx="2.5" ry="2.5" style="stroke:#181818;stroke-width:0.5;" width="138.002" x="396.5" y="287"/><text fill="#000000" font-family="sans-serif" font-size="14" lengthAdjust="spacing" textLength="118.002" x="406.5" y="309.9951">GrupoRepository</text></g><!--entity Grupo--><g class="entity" data-qualified-name="abrirGrupos.Grupo" data-source-line="8" id="ent0007"><rect fill="#F2AC4E" height="36.2969" rx="2.5" ry="2.5" style="stroke:#181818;stroke-width:0.5;" width="62.9297" x="434" y="384"/><text fill="#000000" font-family="sans-serif" font-size="14" lengthAdjust="spacing" textLength="42.9297" x="444" y="406.9951">Grupo</text></g><!--entity Usuario--><g class="entity" data-qualified-name="Usuario" data-source-line="3" id="ent0002"><ellipse cx="735.6021" cy="29.5" fill="#F1F1F1" rx="8" ry="8" style="stroke:#181818;stroke-width:0.5;"/><path d="M735.6021,37.5 L735.6021,64.5 M722.6021,45.5 L748.6021,45.5 M735.6021,64.5 L722.6021,79.5 M735.6021,64.5 L748.6021,79.5" fill="none" style="stroke:#181818;stroke-width:0.5;"/><text fill="#000000" font-family="sans-serif" font-size="14" lengthAdjust="spacing" textLength="53.2041" x="709" y="93.9951">Usuario</text></g><!--entity SistemaDisponible--><g class="entity" data-qualified-name="SistemaDisponible" data-source-line="10" id="ent0008"><rect fill="#CDEBA5" height="36.2969" rx="2.5" ry="2.5" style="stroke:#181818;stroke-width:0.5;" width="159.125" x="7" y="41"/><text fill="#000000" font-family="sans-serif" font-size="14" lengthAdjust="spacing" textLength="139.125" x="17" y="63.9951">:Sistema Disponible</text></g><!--link SistemaDisponible to ListarGruposView--><g class="link" data-entity-1="ent0008" data-entity-2="ent0004" data-link-type="dependency" data-source-line="12" id="lnk9"><path d="M166.11,59 C234.12,59 325.08,59 390.72,59" fill="none" id="SistemaDisponible-to-ListarGruposView" style="stroke:#181818;stroke-width:1;"/><polygon fill="#181818" points="396.72,59,387.72,55,391.72,59,387.72,63,396.72,59" style="stroke:#181818;stroke-width:1;"/><text fill="#000000" font-family="sans-serif" font-size="13" lengthAdjust="spacing" textLength="104.0825" x="229.5" y="52.0669">1: abrirGrupos()</text></g><!--link ListarGruposView to SistemaDisponible--><g class="link" data-entity-1="ent0004" data-entity-2="ent0008" data-link-type="dependency" data-source-line="20" id="lnk13"><path d="M396.72,59 C331.08,59 240.12,59 172.11,59" fill="none" id="ListarGruposView-to-SistemaDisponible" style="stroke:#181818;stroke-width:1;"/><polygon fill="#181818" points="166.11,59,175.11,63,171.11,59,175.11,55,166.11,59" style="stroke:#181818;stroke-width:1;"/><text fill="#000000" font-family="sans-serif" font-size="13" lengthAdjust="spacing" textLength="194.251" x="184.5" y="52.0669">4: sistemaDisponible(usuario)</text></g><!--link ListarGruposView to GruposController--><g class="link" data-entity-1="ent0004" data-entity-2="ent0005" data-link-type="dependency" data-source-line="14" id="lnk10"><path d="M468.37,77.13 C468.18,102.23 467.8654,142.7602 467.6754,167.8702" fill="none" id="ListarGruposView-to-GruposController" style="stroke:#181818;stroke-width:1;"/><polygon fill="#181818" points="467.63,173.87,471.698,164.9005,467.6678,168.8701,463.6982,164.84,467.63,173.87" style="stroke:#181818;stroke-width:1;"/><text fill="#000000" font-family="sans-serif" font-size="13" lengthAdjust="spacing" textLength="154.0957" x="468.5" y="140.0669">2: listarGrupos(usuario)</text></g><!--link GruposController to GrupoRepository--><g class="link" data-entity-1="ent0005" data-entity-2="ent0006" data-link-type="dependency" data-source-line="16" id="lnk11"><path d="M467.19,210.34 C466.81,231.2 466.2996,259.981 465.9196,280.781" fill="none" id="GruposController-to-GrupoRepository" style="stroke:#181818;stroke-width:1;"/><polygon fill="#181818" points="465.81,286.78,469.9737,277.8546,465.9013,281.7808,461.9751,277.7084,465.81,286.78" style="stroke:#181818;stroke-width:1;"/><text fill="#000000" font-family="sans-serif" font-size="13" lengthAdjust="spacing" textLength="243.1152" x="467.5" y="253.0669">3: obtenerGruposPorUsuario(usuario)</text></g><!--link GrupoRepository to Grupo--><g class="link" data-entity-1="ent0006" data-entity-2="ent0007" data-link-type="association" data-source-line="18" id="lnk12"><path d="M465.5,323.42 C465.5,340.57 465.5,366.58 465.5,383.69" fill="none" id="GrupoRepository-Grupo" style="stroke:#181818;stroke-width:1;"/></g><?plantuml-src VP4nJyCm48Lt_ugdi9GX0w6jg0UaagOi30W4kvEUAgkkRTcEK8JuxpXA8CMjy7RdxvxlFVk3r5OuSOIIca9d2TQehYyO4qqm3c--5KuQPaLp47k2g9rqZwwrnaDuP2Vrx3h39qCyZfeWz5uHhfR5gjgky2Hz42FtBkaZnUf5lLlUOG1AeuCpIf5BiMsnBkVLWBrGH6NSiVkFOb_ivARSL0_h1JB-6lUXey16Uckqh1LblPsnFNKPEsiXT_dzcI6E6uu_OJ2MCiXtSJBro57mcF-4pjeXywYGiiX_12Rt7BSSfWwaQHHuDcxyjbHgcefAOq0NrkmDdldcc7FujFlxmZS0?></g></svg>