<?plantuml 1.2026.2?><svg xmlns="http://www.w3.org/2000/svg" xmlns:xlink="http://www.w3.org/1999/xlink" contentStyleType="text/css" data-diagram-type="DESCRIPTION" height="169px" preserveAspectRatio="none" style="width:1264px;height:169px;background:#FFFFFF;" version="1.1" viewBox="0 0 1264 169" width="1264px" zoomAndPan="magnify"><defs/><g><!--entity Usuario--><g class="entity" data-qualified-name="Usuario" data-source-line="4" id="ent0002"><ellipse cx="32.6021" cy="87.5" fill="#F1F1F1" rx="8" ry="8" style="stroke:#181818;stroke-width:0.5;"/><path d="M32.6021,95.5 L32.6021,122.5 M19.6021,103.5 L45.6021,103.5 M32.6021,122.5 L19.6021,137.5 M32.6021,122.5 L45.6021,137.5" fill="none" style="stroke:#181818;stroke-width:0.5;"/><text fill="#000000" font-family="sans-serif" font-size="14" lengthAdjust="spacing" textLength="53.2041" x="6" y="151.9951">Usuario</text></g><!--entity ListarTareasView--><g class="entity" data-qualified-name="ListarTareasView" data-source-line="5" id="ent0003"><path d="M261.3555,97 L261.3555,121 M261.3555,109 L278.3555,109" fill="none" style="stroke:#181818;stroke-width:0.5;"/><ellipse cx="290.3555" cy="109" fill="#F1F1F1" rx="12" ry="12" style="stroke:#181818;stroke-width:0.5;"/><text fill="#000000" font-family="sans-serif" font-size="14" lengthAdjust="spacing" textLength="119.7109" x="222" y="137.9951">ListarTareasView</text></g><!--entity TareasController--><g class="entity" data-qualified-name="TareasController" data-source-line="6" id="ent0004"><ellipse cx="677.2729" cy="60" fill="#F1F1F1" rx="12" ry="12" style="stroke:#181818;stroke-width:0.5;"/><polygon fill="#181818" points="673.2729,48,679.2729,43,677.2729,48,679.2729,53,673.2729,48" style="stroke:#181818;stroke-width:1;"/><text fill="#000000" font-family="sans-serif" font-size="14" lengthAdjust="spacing" textLength="116.5459" x="619" y="88.9951">TareasController</text></g><!--entity TareaRepository--><g class="entity" data-qualified-name="TareaRepository" data-source-line="7" id="ent0005"><ellipse cx="1096.5757" cy="60" fill="#F1F1F1" rx="12" ry="12" style="stroke:#181818;stroke-width:0.5;"/><line style="stroke:#181818;stroke-width:0.5;" x1="1084.5757" x2="1108.5757" y1="74" y2="74"/><text fill="#000000" font-family="sans-serif" font-size="14" lengthAdjust="spacing" textLength="115.1514" x="1039" y="88.9951">TareaRepository</text></g><!--entity Tarea--><g class="entity" data-qualified-name="Tarea" data-source-line="8" id="ent0006"><ellipse cx="1236.5396" cy="18" fill="#F1F1F1" rx="12" ry="12" style="stroke:#181818;stroke-width:0.5;"/><line style="stroke:#181818;stroke-width:0.5;" x1="1224.5396" x2="1248.5396" y1="32" y2="32"/><text fill="#000000" font-family="sans-serif" font-size="14" lengthAdjust="spacing" textLength="40.0791" x="1216.5" y="46.9951">Tarea</text></g><!--entity Grupo--><g class="entity" data-qualified-name="Grupo" data-source-line="9" id="ent0007"><ellipse cx="1236.4648" cy="101" fill="#F1F1F1" rx="12" ry="12" style="stroke:#181818;stroke-width:0.5;"/><line style="stroke:#181818;stroke-width:0.5;" x1="1224.4648" x2="1248.4648" y1="115" y2="115"/><text fill="#000000" font-family="sans-serif" font-size="14" lengthAdjust="spacing" textLength="42.9297" x="1215" y="129.9951">Grupo</text></g><!--entity SistemaDisponible--><g class="entity" data-qualified-name="SistemaDisponible" data-source-line="10" id="ent0008"><rect fill="#C5E0B4" height="36.2969" rx="2.5" ry="2.5" style="stroke:#181818;stroke-width:0.5;" width="159.125" x="598" y="127"/><text fill="#000000" font-family="sans-serif" font-size="14" lengthAdjust="spacing" textLength="139.125" x="608" y="149.9951">:Sistema Disponible</text></g><!--link Usuario to ListarTareasView--><g class="link" data-entity-1="ent0002" data-entity-2="ent0003" data-link-type="dependency" data-source-line="12" id="lnk9"><path d="M59.05,117 C97.22,117 164.16,117 216,117" fill="none" id="Usuario-to-ListarTareasView" style="stroke:#181818;stroke-width:1;"/><polygon fill="#181818" points="222,117,213,113,217,117,213,121,222,117" style="stroke:#181818;stroke-width:1;"/><text fill="#000000" font-family="sans-serif" font-size="13" lengthAdjust="spacing" textLength="101.4355" x="90" y="113.0669">1: abrirTareas()</text></g><!--link ListarTareasView to TareasController--><g class="link" data-entity-1="ent0003" data-entity-2="ent0004" data-link-type="dependency" data-source-line="13" id="lnk10"><path d="M342.34,109.61 C417.16,100.29 538.986,85.1212 612.966,75.9112" fill="none" id="ListarTareasView-to-TareasController" style="stroke:#181818;stroke-width:1;"/><polygon fill="#181818" points="618.92,75.17,609.4948,72.3125,613.9583,75.7877,610.4831,80.2512,618.92,75.17" style="stroke:#181818;stroke-width:1;"/><text fill="#000000" font-family="sans-serif" font-size="13" lengthAdjust="spacing" textLength="141.3623" x="399.5" y="78.0669">2: listarTareas(grupo)</text></g><!--link TareasController to TareaRepository--><g class="link" data-entity-1="ent0004" data-entity-2="ent0005" data-link-type="dependency" data-source-line="14" id="lnk11"><path d="M736.04,68 C815.92,68 953.5,68 1032.88,68" fill="none" id="TareasController-to-TareaRepository" style="stroke:#181818;stroke-width:1;"/><polygon fill="#181818" points="1038.88,68,1029.88,64,1033.88,68,1029.88,72,1038.88,68" style="stroke:#181818;stroke-width:1;"/><text fill="#000000" font-family="sans-serif" font-size="13" lengthAdjust="spacing" textLength="220.8413" x="788" y="64.0669">3: obtenerTareasPorGrupo(grupo)</text></g><!--link TareaRepository to Tarea--><g class="link" data-entity-1="ent0005" data-entity-2="ent0006" data-link-type="association" data-source-line="15" id="lnk12"><path d="M1154.03,50.8 C1176.21,44.04 1200.17,36.75 1216.32,31.84" fill="none" id="TareaRepository-Tarea" style="stroke:#181818;stroke-width:1;"/></g><!--link TareaRepository to Grupo--><g class="link" data-entity-1="ent0005" data-entity-2="ent0007" data-link-type="association" data-source-line="16" id="lnk13"><path d="M1154.03,84.79 C1175.47,91.16 1198.56,98.03 1214.67,102.81" fill="none" id="TareaRepository-Grupo" style="stroke:#181818;stroke-width:1;"/></g><!--link ListarTareasView to SistemaDisponible--><g class="link" data-entity-1="ent0003" data-entity-2="ent0008" data-link-type="dependency" data-source-line="17" id="lnk14"><path d="M342.36,131.01 C358.69,134.86 372,138 372,138 C372,138 501.4716,140.9717 591.6916,143.0517" fill="none" id="ListarTareasView-to-SistemaDisponible" style="stroke:#181818;stroke-width:1;"/><polygon fill="#181818" points="597.69,143.19,588.7846,138.9836,592.6913,143.0748,588.6002,146.9815,597.69,143.19" style="stroke:#181818;stroke-width:1;"/><text fill="#000000" font-family="sans-serif" font-size="13" lengthAdjust="spacing" textLength="194.251" x="373" y="134.0669">4: sistemaDisponible(usuario)</text></g><?plantuml-src RP0zJyD038Rt-nLMMP8X4XzbkO61WbWO45-xaxh1ude--Iv2-VSaN22qwUZ7VktNR_na7r1n3uuzfJuG177zM1X7kmH9GBdzIB1bfIQnU6EmIQBm5ZjK5bDBvxUeFJnoJAYlg8JndUdBDEAJYeECDhbof8PyujHd_an18WyB-mFyMpne5yICfz6tZc1bNuOpj4UuunZ4S-re1HXXmZE5iytr_VdjsfZ9ALJLpS8aMBYmWBNo18lIB6P6uV4JW_3I3gdDeqKxUYtDOl9FFlywgAyiI9t8qoH_4lrvzc3DFqLLJScSQEIKJlfUvc9XRI4UuwBBAPNV?></g></svg>