<?plantuml 1.2026.2?><svg xmlns="http://www.w3.org/2000/svg" xmlns:xlink="http://www.w3.org/1999/xlink" contentStyleType="text/css" data-diagram-type="DESCRIPTION" height="443px" preserveAspectRatio="none" style="width:746px;height:443px;background:#FFFFFF;" version="1.1" viewBox="0 0 746 443" width="746px" zoomAndPan="magnify"><defs/><g><!--cluster abrirTareas--><g class="cluster" data-qualified-name="abrirTareas" data-source-line="4" id="ent0003"><path d="M383,6 L488.0498,6 A3.75,3.75 0 0 1 490.5498,8.5 L497.5498,28.2969 L667,28.2969 A2.5,2.5 0 0 1 669.5,30.7969 L669.5,433.5 A2.5,2.5 0 0 1 667,436 L383,436 A2.5,2.5 0 0 1 380.5,433.5 L380.5,8.5 A2.5,2.5 0 0 1 383,6" fill="none" style="stroke:#000000;stroke-width:1.5;"/><line style="stroke:#000000;stroke-width:1.5;" x1="380.5" x2="497.5498" y1="28.2969" y2="28.2969"/><text fill="#000000" font-family="sans-serif" font-size="14" font-weight="bold" lengthAdjust="spacing" textLength="104.0498" x="384.5" y="20.9951">abrirTareas()</text></g><!--entity ListarTareasView--><g class="entity" data-qualified-name="abrirTareas.ListarTareasView" data-source-line="5" id="ent0004"><rect fill="#629EF9" height="36.2969" rx="2.5" ry="2.5" style="stroke:#181818;stroke-width:0.5;" width="139.7109" x="396.5" y="41"/><text fill="#000000" font-family="sans-serif" font-size="14" lengthAdjust="spacing" textLength="119.7109" x="406.5" y="63.9951">ListarTareasView</text></g><!--entity TareasController--><g class="entity" data-qualified-name="abrirTareas.TareasController" data-source-line="6" id="ent0005"><rect fill="#B5BD68" height="36.2969" rx="2.5" ry="2.5" style="stroke:#181818;stroke-width:0.5;" width="136.5459" x="397" y="174"/><text fill="#000000" font-family="sans-serif" font-size="14" lengthAdjust="spacing" textLength="116.5459" x="407" y="196.9951">TareasController</text></g><!--entity TareaRepository--><g class="entity" data-qualified-name="abrirTareas.TareaRepository" data-source-line="7" id="ent0006"><rect fill="#F2AC4E" height="36.2969" rx="2.5" ry="2.5" style="stroke:#181818;stroke-width:0.5;" width="135.1514" x="397" y="287"/><text fill="#000000" font-family="sans-serif" font-size="14" lengthAdjust="spacing" textLength="115.1514" x="407" y="309.9951">TareaRepository</text></g><!--entity Tarea--><g class="entity" data-qualified-name="abrirTareas.Tarea" data-source-line="8" id="ent0007"><rect fill="#F2AC4E" height="36.2969" rx="2.5" ry="2.5" style="stroke:#181818;stroke-width:0.5;" width="60.0791" x="411.5" y="384"/><text fill="#000000" font-family="sans-serif" font-size="14" lengthAdjust="spacing" textLength="40.0791" x="421.5" y="406.9951">Tarea</text></g><!--entity Grupo--><g class="entity" data-qualified-name="abrirTareas.Grupo" data-source-line="9" id="ent0008"><rect fill="#F2AC4E" height="36.2969" rx="2.5" ry="2.5" style="stroke:#181818;stroke-width:0.5;" width="62.9297" x="507" y="384"/><text fill="#000000" font-family="sans-serif" font-size="14" lengthAdjust="spacing" textLength="42.9297" x="517" y="406.9951">Grupo</text></g><!--entity Usuario--><g class="entity" data-qualified-name="Usuario" data-source-line="3" id="ent0002"><ellipse cx="712.6021" cy="29.5" fill="#F1F1F1" rx="8" ry="8" style="stroke:#181818;stroke-width:0.5;"/><path d="M712.6021,37.5 L712.6021,64.5 M699.6021,45.5 L725.6021,45.5 M712.6021,64.5 L699.6021,79.5 M712.6021,64.5 L725.6021,79.5" fill="none" style="stroke:#181818;stroke-width:0.5;"/><text fill="#000000" font-family="sans-serif" font-size="14" lengthAdjust="spacing" textLength="53.2041" x="686" y="93.9951">Usuario</text></g><!--entity SistemaDisponible--><g class="entity" data-qualified-name="SistemaDisponible" data-source-line="11" id="ent0009"><rect fill="#CDEBA5" height="36.2969" rx="2.5" ry="2.5" style="stroke:#181818;stroke-width:0.5;" width="159.125" x="7" y="41"/><text fill="#000000" font-family="sans-serif" font-size="14" lengthAdjust="spacing" textLength="139.125" x="17" y="63.9951">:Sistema Disponible</text></g><!--link SistemaDisponible to ListarTareasView--><g class="link" data-entity-1="ent0009" data-entity-2="ent0004" data-link-type="dependency" data-source-line="13" id="lnk10"><path d="M166.16,59 C234.17,59 325.05,59 390.21,59" fill="none" id="SistemaDisponible-to-ListarTareasView" style="stroke:#181818;stroke-width:1;"/><polygon fill="#181818" points="396.21,59,387.21,55,391.21,59,387.21,63,396.21,59" style="stroke:#181818;stroke-width:1;"/><text fill="#000000" font-family="sans-serif" font-size="13" lengthAdjust="spacing" textLength="101.4355" x="230.75" y="52.0669">1: abrirTareas()</text></g><!--link ListarTareasView to SistemaDisponible--><g class="link" data-entity-1="ent0004" data-entity-2="ent0009" data-link-type="dependency" data-source-line="22" id="lnk15"><path d="M396.21,59 C331.05,59 240.17,59 172.16,59" fill="none" id="ListarTareasView-to-SistemaDisponible" style="stroke:#181818;stroke-width:1;"/><polygon fill="#181818" points="166.16,59,175.16,63,171.16,59,175.16,55,166.16,59" style="stroke:#181818;stroke-width:1;"/><text fill="#000000" font-family="sans-serif" font-size="13" lengthAdjust="spacing" textLength="194.251" x="184.25" y="52.0669">4: sistemaDisponible(usuario)</text></g><!--link ListarTareasView to TareasController--><g class="link" data-entity-1="ent0004" data-entity-2="ent0005" data-link-type="dependency" data-source-line="15" id="lnk11"><path d="M466.37,77.13 C466.18,102.23 465.8654,142.7602 465.6754,167.8702" fill="none" id="ListarTareasView-to-TareasController" style="stroke:#181818;stroke-width:1;"/><polygon fill="#181818" points="465.63,173.87,469.698,164.9005,465.6678,168.8701,461.6982,164.84,465.63,173.87" style="stroke:#181818;stroke-width:1;"/><text fill="#000000" font-family="sans-serif" font-size="13" lengthAdjust="spacing" textLength="141.3623" x="466.5" y="140.0669">2: listarTareas(grupo)</text></g><!--link TareasController to TareaRepository--><g class="link" data-entity-1="ent0005" data-entity-2="ent0006" data-link-type="dependency" data-source-line="17" id="lnk12"><path d="M465.34,210.34 C465.16,231.2 464.8919,259.9802 464.7119,280.7802" fill="none" id="TareasController-to-TareaRepository" style="stroke:#181818;stroke-width:1;"/><polygon fill="#181818" points="464.66,286.78,468.7377,277.815,464.7033,281.7802,460.738,277.7457,464.66,286.78" style="stroke:#181818;stroke-width:1;"/><text fill="#000000" font-family="sans-serif" font-size="13" lengthAdjust="spacing" textLength="220.8413" x="465.5" y="253.0669">3: obtenerTareasPorGrupo(grupo)</text></g><!--link TareaRepository to Tarea--><g class="link" data-entity-1="ent0006" data-entity-2="ent0007" data-link-type="association" data-source-line="19" id="lnk13"><path d="M460.28,323.42 C456.13,340.57 449.83,366.58 445.69,383.69" fill="none" id="TareaRepository-Tarea" style="stroke:#181818;stroke-width:1;"/></g><!--link TareaRepository to Grupo--><g class="link" data-entity-1="ent0006" data-entity-2="ent0008" data-link-type="association" data-source-line="20" id="lnk14"><path d="M478.07,323.42 C491.42,340.57 511.69,366.58 525.01,383.69" fill="none" id="TareaRepository-Grupo" style="stroke:#181818;stroke-width:1;"/></g><?plantuml-src VP8_RyCW4CLtFiN9NPp1GzqaQXWgfOxJfKFLV_lPELae110GLLRLxrvSktA2qo8MxduFtNlWza8Pj7W0AHJvrX0OBTlkm1ZMNbjuSqUqGZE3zHuR0goiiAze2Hs4dPoSqra2dmp2ibHxL8qak5hcgtAxWaVXF0xSkw2F6AiMrMvv2prGQEMjbf9iZ6tpTJ4lU-oPZ7OYpDZ-H_tHUx17ezaNE-aKc_9-lO24luHPwO2m4Sve9If9IMTrA8zLnYObo6nsDp7BuPh3ML2CnGnakw2C_NF8UNYR4KsRRl2WZqd8VkLZBXnkEEZAaw91_gJjZ_FpQqP5k6M8xKAZp-p2v9tdIHGSvXnSN4sF_N-QVGC0?></g></svg>