<?plantuml 1.2026.2?><svg xmlns="http://www.w3.org/2000/svg" xmlns:xlink="http://www.w3.org/1999/xlink" contentStyleType="text/css" data-diagram-type="CLASS" height="1127px" preserveAspectRatio="none" style="width:611px;height:1127px;background:#FFFFFF;" version="1.1" viewBox="0 0 611 1127" width="611px" zoomAndPan="magnify"><defs/><g><rect fill="#FFFFCC" height="26.6406" rx="2.5" ry="2.5" style="stroke:#FFDD88;stroke-width:3;" width="600" x="5" y="5"/><text fill="#000000" font-family="monospace" font-size="10" lengthAdjust="spacing" textLength="355.21" x="10" y="20">Please&#160;use&#160;'!option&#160;handwritten&#160;true'&#160;to&#160;enable&#160;handwritten</text><!--cluster Capa UI (React)--><g class="cluster" data-qualified-name="Capa UI .React." data-source-line="6" id="ent0002"><path d="M13.5,47.6406 L137.5264,47.6406 A3.75,3.75 0 0 1 140.0264,50.1406 L147.0264,69.9375 L180.5,69.9375 A2.5,2.5 0 0 1 183,72.4375 L183,562.1406 A2.5,2.5 0 0 1 180.5,564.6406 L13.5,564.6406 A2.5,2.5 0 0 1 11,562.1406 L11,50.1406 A2.5,2.5 0 0 1 13.5,47.6406" fill="#FFFFFF" style="stroke:#000000;stroke-width:1;"/><line style="stroke:#000000;stroke-width:1;" x1="11" x2="147.0264" y1="69.9375" y2="69.9375"/><text fill="#000000" font-family="Verdana" font-size="14" font-weight="bold" lengthAdjust="spacing" textLength="123.0264" x="15" y="62.6357">Capa UI (React)</text></g><!--cluster Capa API (FastAPI)--><g class="cluster" data-qualified-name="Capa API .FastAPI." data-source-line="23" id="ent0006"><path d="M209.5,432.6406 L358.8809,432.6406 A3.75,3.75 0 0 1 361.3809,435.1406 L368.3809,454.9375 L586.5,454.9375 A2.5,2.5 0 0 1 589,457.4375 L589,880.1406 A2.5,2.5 0 0 1 586.5,882.6406 L209.5,882.6406 A2.5,2.5 0 0 1 207,880.1406 L207,435.1406 A2.5,2.5 0 0 1 209.5,432.6406" fill="#FFFFFF" style="stroke:#000000;stroke-width:1;"/><line style="stroke:#000000;stroke-width:1;" x1="207" x2="368.3809" y1="454.9375" y2="454.9375"/><text fill="#000000" font-family="Verdana" font-size="14" font-weight="bold" lengthAdjust="spacing" textLength="148.3809" x="211" y="447.6357">Capa API (FastAPI)</text></g><!--cluster Capa Datos (SQLAlchemy)--><g class="cluster" data-qualified-name="Capa Datos .SQLAlchemy." data-source-line="36" id="ent0010"><path d="M290.5,931.6406 L496.9609,931.6406 A3.75,3.75 0 0 1 499.4609,934.1406 L506.4609,953.9375 L506.5,953.9375 A2.5,2.5 0 0 1 509,956.4375 L509,1118.1406 A2.5,2.5 0 0 1 506.5,1120.6406 L290.5,1120.6406 A2.5,2.5 0 0 1 288,1118.1406 L288,934.1406 A2.5,2.5 0 0 1 290.5,931.6406" fill="#FFFFFF" style="stroke:#000000;stroke-width:1;"/><line style="stroke:#000000;stroke-width:1;" x1="288" x2="506.4609" y1="953.9375" y2="953.9375"/><text fill="#000000" font-family="Verdana" font-size="14" font-weight="bold" lengthAdjust="spacing" textLength="205.4609" x="292" y="946.6357">Capa Datos (SQLAlchemy)</text></g><!--class DashboardPage--><g class="entity" data-qualified-name="Capa UI .React..DashboardPage" data-source-line="7" id="ent0003"><rect fill="#FFFFFF" height="88.8594" rx="2.5" ry="2.5" style="stroke:#000000;stroke-width:1;" width="138.7217" x="27.5" y="82.6406"/><ellipse cx="40.5" cy="102.7734" fill="#FFFFFF" rx="9" ry="9" style="stroke:#000000;stroke-width:1;"/><path d="M43.4688,108.4141 Q42.8906,108.7109 42.25,108.8516 Q41.6094,109.0078 40.9063,109.0078 Q38.4063,109.0078 37.0781,107.3672 Q35.7656,105.7109 35.7656,102.5859 Q35.7656,99.4609 37.0781,97.8047 Q38.4063,96.1484 40.9063,96.1484 Q41.6094,96.1484 42.25,96.3047 Q42.9063,96.4609 43.4688,96.7578 L43.4688,99.4766 Q42.8438,98.8984 42.25,98.6328 Q41.6563,98.3516 41.0313,98.3516 Q39.6875,98.3516 39,99.4297 Q38.3125,100.4922 38.3125,102.5859 Q38.3125,104.6797 39,105.7578 Q39.6875,106.8203 41.0313,106.8203 Q41.6563,106.8203 42.25,106.5547 Q42.8438,106.2734 43.4688,105.6953 L43.4688,108.4141 Z " fill="#000000"/><text fill="#000000" font-family="Verdana" font-size="12" font-style="italic" lengthAdjust="spacing" textLength="71.9883" x="71.8667" y="98.7793">&#171;boundary&#187;</text><text fill="#000000" font-family="Verdana" font-size="14" lengthAdjust="spacing" textLength="110.7217" x="52.5" y="114.6045">DashboardPage</text><line style="stroke:#000000;stroke-width:1;" x1="28.5" x2="165.2217" y1="122.9063" y2="122.9063"/><line style="stroke:#000000;stroke-width:1;" x1="28.5" x2="165.2217" y1="130.9063" y2="130.9063"/><text fill="#000000" font-family="Verdana" font-size="14" lengthAdjust="spacing" textLength="87.9375" x="33.5" y="147.9014">+useEffect()</text><text fill="#000000" font-family="Verdana" font-size="14" lengthAdjust="spacing" textLength="69.1523" x="33.5" y="164.1982">+render()</text></g><!--class TaskList--><g class="entity" data-qualified-name="Capa UI .React..TaskList" data-source-line="11" id="ent0004"><rect fill="#FFFFFF" height="88.8594" rx="2.5" ry="2.5" style="stroke:#000000;stroke-width:1;" width="106.4385" x="27" y="459.6406"/><ellipse cx="44.7026" cy="479.7734" fill="#FFFFFF" rx="9" ry="9" style="stroke:#000000;stroke-width:1;"/><path d="M47.6713,485.4141 Q47.0932,485.7109 46.4526,485.8516 Q45.812,486.0078 45.1088,486.0078 Q42.6088,486.0078 41.2807,484.3672 Q39.9682,482.7109 39.9682,479.5859 Q39.9682,476.4609 41.2807,474.8047 Q42.6088,473.1484 45.1088,473.1484 Q45.812,473.1484 46.4526,473.3047 Q47.1088,473.4609 47.6713,473.7578 L47.6713,476.4766 Q47.0463,475.8984 46.4526,475.6328 Q45.8588,475.3516 45.2338,475.3516 Q43.8901,475.3516 43.2026,476.4297 Q42.5151,477.4922 42.5151,479.5859 Q42.5151,481.6797 43.2026,482.7578 Q43.8901,483.8203 45.2338,483.8203 Q45.8588,483.8203 46.4526,483.5547 Q47.0463,483.2734 47.6713,482.6953 L47.6713,485.4141 Z " fill="#000000"/><text fill="#000000" font-family="Verdana" font-size="12" font-style="italic" lengthAdjust="spacing" textLength="71.9883" x="55.7476" y="475.7793">&#171;boundary&#187;</text><text fill="#000000" font-family="Verdana" font-size="14" lengthAdjust="spacing" textLength="57.0049" x="63.2393" y="491.6045">TaskList</text><line style="stroke:#000000;stroke-width:1;" x1="28" x2="132.4385" y1="499.9063" y2="499.9063"/><text fill="#000000" font-family="Verdana" font-size="14" lengthAdjust="spacing" textLength="94.4385" x="33" y="516.9014">-tasks: Task[]</text><line style="stroke:#000000;stroke-width:1;" x1="28" x2="132.4385" y1="524.2031" y2="524.2031"/><text fill="#000000" font-family="Verdana" font-size="14" lengthAdjust="spacing" textLength="69.1523" x="33" y="541.1982">+render()</text></g><!--class useTasks--><g class="entity" data-qualified-name="Capa UI .React..useTasks" data-source-line="15" id="ent0005"><rect fill="#FFFFFF" height="121.4531" rx="2.5" ry="2.5" style="stroke:#000000;stroke-width:1;" width="140.4404" x="27" y="248.6406"/><ellipse cx="61.5253" cy="268.7734" fill="#FFFFFF" rx="9" ry="9" style="stroke:#000000;stroke-width:1;"/><path d="M64.494,274.4141 Q63.9159,274.7109 63.2753,274.8516 Q62.6347,275.0078 61.9315,275.0078 Q59.4315,275.0078 58.1034,273.3672 Q56.7909,271.7109 56.7909,268.5859 Q56.7909,265.4609 58.1034,263.8047 Q59.4315,262.1484 61.9315,262.1484 Q62.6347,262.1484 63.2753,262.3047 Q63.9315,262.4609 64.494,262.7578 L64.494,265.4766 Q63.869,264.8984 63.2753,264.6328 Q62.6815,264.3516 62.0565,264.3516 Q60.7128,264.3516 60.0253,265.4297 Q59.3378,266.4922 59.3378,268.5859 Q59.3378,270.6797 60.0253,271.7578 Q60.7128,272.8203 62.0565,272.8203 Q62.6815,272.8203 63.2753,272.5547 Q63.869,272.2734 64.494,271.6953 L64.494,274.4141 Z " fill="#000000"/><text fill="#000000" font-family="Verdana" font-size="12" font-style="italic" lengthAdjust="spacing" textLength="56.6719" x="82.276" y="264.7793">&#171;control&#187;</text><text fill="#000000" font-family="Verdana" font-size="14" lengthAdjust="spacing" textLength="64.6064" x="78.3087" y="280.6045">useTasks</text><line style="stroke:#000000;stroke-width:1;" x1="28" x2="166.4404" y1="288.9063" y2="288.9063"/><text fill="#000000" font-family="Verdana" font-size="14" lengthAdjust="spacing" textLength="101.1172" x="33" y="305.9014">+tasks: Task[]</text><text fill="#000000" font-family="Verdana" font-size="14" lengthAdjust="spacing" textLength="128.4404" x="33" y="322.1982">+loading: boolean</text><text fill="#000000" font-family="Verdana" font-size="14" lengthAdjust="spacing" textLength="95.5322" x="33" y="338.4951">+error: string</text><line style="stroke:#000000;stroke-width:1;" x1="28" x2="166.4404" y1="345.7969" y2="345.7969"/><text fill="#000000" font-family="Verdana" font-size="14" lengthAdjust="spacing" textLength="98.082" x="33" y="362.792">+fetchTasks()</text></g><!--class TaskRouter--><g class="entity" data-qualified-name="Capa API .FastAPI..TaskRouter" data-source-line="24" id="ent0007"><rect fill="#FFFFFF" height="72.5625" rx="2.5" ry="2.5" style="stroke:#000000;stroke-width:1;" width="350.0576" x="223" y="467.6406"/><ellipse cx="354.5005" cy="487.7734" fill="#FFFFFF" rx="9" ry="9" style="stroke:#000000;stroke-width:1;"/><path d="M357.4692,493.4141 Q356.8911,493.7109 356.2505,493.8516 Q355.6099,494.0078 354.9067,494.0078 Q352.4067,494.0078 351.0786,492.3672 Q349.7661,490.7109 349.7661,487.5859 Q349.7661,484.4609 351.0786,482.8047 Q352.4067,481.1484 354.9067,481.1484 Q355.6099,481.1484 356.2505,481.3047 Q356.9067,481.4609 357.4692,481.7578 L357.4692,484.4766 Q356.8442,483.8984 356.2505,483.6328 Q355.6567,483.3516 355.0317,483.3516 Q353.688,483.3516 353.0005,484.4297 Q352.313,485.4922 352.313,487.5859 Q352.313,489.6797 353.0005,490.7578 Q353.688,491.8203 355.0317,491.8203 Q355.6567,491.8203 356.2505,491.5547 Q356.8442,491.2734 357.4692,490.6953 L357.4692,493.4141 Z " fill="#000000"/><text fill="#000000" font-family="Verdana" font-size="12" font-style="italic" lengthAdjust="spacing" textLength="71.9883" x="375.7847" y="483.7793">&#171;boundary&#187;</text><text fill="#000000" font-family="Verdana" font-size="14" lengthAdjust="spacing" textLength="79.5566" x="372.0005" y="499.6045">TaskRouter</text><line style="stroke:#000000;stroke-width:1;" x1="224" x2="572.0576" y1="507.9063" y2="507.9063"/><line style="stroke:#000000;stroke-width:1;" x1="224" x2="572.0576" y1="515.9063" y2="515.9063"/><text fill="#000000" font-family="Verdana" font-size="14" lengthAdjust="spacing" textLength="338.0576" x="229" y="532.9014">+get_tasks(current_user, db): List[TaskSchema]</text></g><!--class TaskService--><g class="entity" data-qualified-name="Capa API .FastAPI..TaskService" data-source-line="27" id="ent0008"><rect fill="#FFFFFF" height="72.5625" rx="2.5" ry="2.5" style="stroke:#000000;stroke-width:1;" width="328.75" x="233.5" y="627.6406"/><ellipse cx="351.9883" cy="647.7734" fill="#FFFFFF" rx="9" ry="9" style="stroke:#000000;stroke-width:1;"/><path d="M354.957,653.4141 Q354.3789,653.7109 353.7383,653.8516 Q353.0977,654.0078 352.3945,654.0078 Q349.8945,654.0078 348.5664,652.3672 Q347.2539,650.7109 347.2539,647.5859 Q347.2539,644.4609 348.5664,642.8047 Q349.8945,641.1484 352.3945,641.1484 Q353.0977,641.1484 353.7383,641.3047 Q354.3945,641.4609 354.957,641.7578 L354.957,644.4766 Q354.332,643.8984 353.7383,643.6328 Q353.1445,643.3516 352.5195,643.3516 Q351.1758,643.3516 350.4883,644.4297 Q349.8008,645.4922 349.8008,647.5859 Q349.8008,649.6797 350.4883,650.7578 Q351.1758,651.8203 352.5195,651.8203 Q353.1445,651.8203 353.7383,651.5547 Q354.332,651.2734 354.957,650.6953 L354.957,653.4141 Z " fill="#000000"/><text fill="#000000" font-family="Verdana" font-size="12" font-style="italic" lengthAdjust="spacing" textLength="56.6719" x="383.2891" y="643.7793">&#171;control&#187;</text><text fill="#000000" font-family="Verdana" font-size="14" lengthAdjust="spacing" textLength="84.2734" x="369.4883" y="659.6045">TaskService</text><line style="stroke:#000000;stroke-width:1;" x1="234.5" x2="561.25" y1="667.9063" y2="667.9063"/><line style="stroke:#000000;stroke-width:1;" x1="234.5" x2="561.25" y1="675.9063" y2="675.9063"/><text fill="#000000" font-family="Verdana" font-size="14" lengthAdjust="spacing" textLength="316.75" x="239.5" y="692.9014">+get_user_tasks(user_id, role, db): List[Task]</text></g><!--class TaskRepository--><g class="entity" data-qualified-name="Capa API .FastAPI..TaskRepository" data-source-line="30" id="ent0009"><rect fill="#FFFFFF" height="88.8594" rx="2.5" ry="2.5" style="stroke:#000000;stroke-width:1;" width="270.1182" x="263" y="777.6406"/><ellipse cx="340.5068" cy="797.7734" fill="#FFFFFF" rx="9" ry="9" style="stroke:#000000;stroke-width:1;"/><path d="M343.4756,803.4141 Q342.8975,803.7109 342.2568,803.8516 Q341.6162,804.0078 340.9131,804.0078 Q338.4131,804.0078 337.085,802.3672 Q335.7725,800.7109 335.7725,797.5859 Q335.7725,794.4609 337.085,792.8047 Q338.4131,791.1484 340.9131,791.1484 Q341.6162,791.1484 342.2568,791.3047 Q342.9131,791.4609 343.4756,791.7578 L343.4756,794.4766 Q342.8506,793.8984 342.2568,793.6328 Q341.6631,793.3516 341.0381,793.3516 Q339.6943,793.3516 339.0068,794.4297 Q338.3193,795.4922 338.3193,797.5859 Q338.3193,799.6797 339.0068,800.7578 Q339.6943,801.8203 341.0381,801.8203 Q341.6631,801.8203 342.2568,801.5547 Q342.8506,801.2734 343.4756,800.6953 L343.4756,803.4141 Z " fill="#000000"/><text fill="#000000" font-family="Verdana" font-size="12" font-style="italic" lengthAdjust="spacing" textLength="49.6465" x="386.9858" y="793.7793">&#171;entity&#187;</text><text fill="#000000" font-family="Verdana" font-size="14" lengthAdjust="spacing" textLength="107.6045" x="358.0068" y="809.6045">TaskRepository</text><line style="stroke:#000000;stroke-width:1;" x1="264" x2="532.1182" y1="817.9063" y2="817.9063"/><line style="stroke:#000000;stroke-width:1;" x1="264" x2="532.1182" y1="825.9063" y2="825.9063"/><text fill="#000000" font-family="Verdana" font-size="14" lengthAdjust="spacing" textLength="258.1182" x="269" y="842.9014">+get_all_by_user(user_id): List[Task]</text><text fill="#000000" font-family="Verdana" font-size="14" lengthAdjust="spacing" textLength="146.0977" x="269" y="859.1982">+get_all(): List[Task]</text></g><!--class Task--><g class="entity" data-qualified-name="Capa Datos .SQLAlchemy..Task" data-source-line="37" id="ent0011"><rect fill="#FFFFFF" height="137.75" rx="2.5" ry="2.5" style="stroke:#000000;stroke-width:1;" width="153.0596" x="321.5" y="966.6406"/><ellipse cx="371.4565" cy="986.7734" fill="#FFFFFF" rx="9" ry="9" style="stroke:#000000;stroke-width:1;"/><path d="M374.4253,992.4141 Q373.8472,992.7109 373.2065,992.8516 Q372.5659,993.0078 371.8628,993.0078 Q369.3628,993.0078 368.0347,991.3672 Q366.7222,989.7109 366.7222,986.5859 Q366.7222,983.4609 368.0347,981.8047 Q369.3628,980.1484 371.8628,980.1484 Q372.5659,980.1484 373.2065,980.3047 Q373.8628,980.4609 374.4253,980.7578 L374.4253,983.4766 Q373.8003,982.8984 373.2065,982.6328 Q372.6128,982.3516 371.9878,982.3516 Q370.644,982.3516 369.9565,983.4297 Q369.269,984.4922 369.269,986.5859 Q369.269,988.6797 369.9565,989.7578 Q370.644,990.8203 371.9878,990.8203 Q372.6128,990.8203 373.2065,990.5547 Q373.8003,990.2734 374.4253,989.6953 L374.4253,992.4141 Z " fill="#000000"/><text fill="#000000" font-family="Verdana" font-size="12" font-style="italic" lengthAdjust="spacing" textLength="49.6465" x="386.9565" y="982.7793">&#171;entity&#187;</text><text fill="#000000" font-family="Verdana" font-size="14" lengthAdjust="spacing" textLength="32.5322" x="395.5137" y="998.6045">Task</text><line style="stroke:#000000;stroke-width:1;" x1="322.5" x2="473.5596" y1="1006.9063" y2="1006.9063"/><text fill="#000000" font-family="Verdana" font-size="14" lengthAdjust="spacing" textLength="69.0771" x="327.5" y="1023.9014">+id: UUID</text><text fill="#000000" font-family="Verdana" font-size="14" lengthAdjust="spacing" textLength="66.8076" x="327.5" y="1040.1982">+title: str</text><text fill="#000000" font-family="Verdana" font-size="14" lengthAdjust="spacing" textLength="117.2773" x="327.5" y="1056.4951">+description: str</text><text fill="#000000" font-family="Verdana" font-size="14" lengthAdjust="spacing" textLength="141.0596" x="327.5" y="1072.792">+status: TaskStatus</text><text fill="#000000" font-family="Verdana" font-size="14" lengthAdjust="spacing" textLength="119.335" x="327.5" y="1089.0889">+owner_id: UUID</text><line style="stroke:#000000;stroke-width:1;" x1="322.5" x2="473.5596" y1="1096.3906" y2="1096.3906"/></g><!--link DashboardPage to useTasks--><g class="link" data-entity-1="ent0003" data-entity-2="ent0005" data-link-type="dependency" data-source-line="46" id="lnk12"><path codeLine="46" d="M97,171.7106 C97,194.7106 97,217.2706 97,242.3106" fill="none" id="DashboardPage-to-useTasks" style="stroke:#000000;stroke-width:1;stroke-dasharray:7,7;"/><polygon fill="#000000" points="97,248.3106,101,239.3106,97,243.3106,93,239.3106,97,248.3106" style="stroke:#000000;stroke-width:1;"/><text fill="#000000" font-family="Verdana" font-size="13" lengthAdjust="spacing" textLength="59.0142" x="98" y="214.7075">consume</text></g><!--link useTasks to TaskList--><g class="link" data-entity-1="ent0005" data-entity-2="ent0004" data-link-type="dependency" data-source-line="47" id="lnk13"><path codeLine="47" d="M91.74,369.8806 C89.18,398.8906 86.6955,427.1237 84.3655,453.6237" fill="none" id="useTasks-to-TaskList" style="stroke:#000000;stroke-width:1;stroke-dasharray:7,7;"/><polygon fill="#000000" points="83.84,459.6006,88.6129,450.9856,84.2779,454.6198,80.6437,450.2849,83.84,459.6006" style="stroke:#000000;stroke-width:1;"/><text fill="#000000" font-family="Verdana" font-size="13" lengthAdjust="spacing" textLength="85.4141" x="91" y="412.7075">provee datos</text></g><!--link useTasks to TaskRouter--><g class="link" data-entity-1="ent0005" data-entity-2="ent0007" data-link-type="dependency" data-source-line="48" id="lnk14"><path codeLine="48" d="M167.19,355.1506 C220.52,389.3406 287.8292,432.5019 337.2192,464.1719" fill="none" id="useTasks-to-TaskRouter" style="stroke:#000000;stroke-width:1;stroke-dasharray:7,7;"/><polygon fill="#000000" points="342.27,467.4106,336.8529,459.1854,338.061,464.7117,332.5346,465.9198,342.27,467.4106" style="stroke:#000000;stroke-width:1;"/><text fill="#000000" font-family="Verdana" font-size="13" lengthAdjust="spacing" textLength="106.5073" x="257" y="412.7075">HTTP GET /tasks</text></g><!--link TaskRouter to TaskService--><g class="link" data-entity-1="ent0007" data-entity-2="ent0008" data-link-type="dependency" data-source-line="49" id="lnk15"><path codeLine="49" d="M398,540.9906 C398,566.8506 398,595.6006 398,621.4306" fill="none" id="TaskRouter-to-TaskService" style="stroke:#000000;stroke-width:1;stroke-dasharray:7,7;"/><polygon fill="#000000" points="398,627.4306,402,618.4306,398,622.4306,394,618.4306,398,627.4306" style="stroke:#000000;stroke-width:1;"/><text fill="#000000" font-family="Verdana" font-size="13" lengthAdjust="spacing" textLength="42.6118" x="399" y="593.7075">invoca</text></g><!--link TaskService to TaskRepository--><g class="link" data-entity-1="ent0008" data-entity-2="ent0009" data-link-type="dependency" data-source-line="50" id="lnk16"><path codeLine="50" d="M398,700.9306 C398,723.6906 398,747.3106 398,771.4506" fill="none" id="TaskService-to-TaskRepository" style="stroke:#000000;stroke-width:1;stroke-dasharray:7,7;"/><polygon fill="#000000" points="398,777.4506,402,768.4506,398,772.4506,394,768.4506,398,777.4506" style="stroke:#000000;stroke-width:1;"/><text fill="#000000" font-family="Verdana" font-size="13" lengthAdjust="spacing" textLength="55.0278" x="399" y="743.7075">consulta</text></g><!--link TaskRepository to Task--><g class="link" data-entity-1="ent0009" data-entity-2="ent0011" data-link-type="dependency" data-source-line="51" id="lnk17"><path codeLine="51" d="M398,866.7106 C398,895.4906 398,927.8006 398,960.5606" fill="none" id="TaskRepository-to-Task" style="stroke:#000000;stroke-width:1;stroke-dasharray:7,7;"/><polygon fill="#000000" points="398,966.5606,402,957.5606,398,961.5606,394,957.5606,398,966.5606" style="stroke:#000000;stroke-width:1;"/><text fill="#000000" font-family="Verdana" font-size="13" lengthAdjust="spacing" textLength="58.2905" x="399" y="911.7075">recupera</text></g><?plantuml-src ZLDDRnen4BtlhvZc16gQzhoAa518KgGSA1-dA4AptW4iZBqQpu9ebVzUUxiGXm-fFbapp-_Dl1b_aHLj22g3scP-hMs5Z1ieKAsNx6fRFZZZ67OhBPJaLsZB7MiHih10uzESCkXzNuHrKGiDbRCJ_PlWHvPLWHMN13SFM27CXj0P4ohfti2V3C9fNi80_QfmoEKeOk_lYrW6yhxNQs7nV8NQq-DYGKewtIJAP4lYDlIUi4xHhr-qbsk4tq02mkSDyFNjVoX31H7i0sLeKjYPanAlCHg7fRRB70hd3A5DKiJiE0SVtBFB9BuWKQj6xLZ8-wcX_L5mz0czXCk9f_7bs8Lny7L3boJpfkAEgZaqBVFG8Dz2MNHpYDQzHfQ92Wk3RnVzdH1ljQAhVaI5oDdAD5TTta90qgdEPOKnLSvhSRmF8g54BPUwG6FcnRwHEeYSKt-2Tov9dnayG74UEfDVBtqJRTXVSFbQNRhCOJOR3jBrq6AecNKIBCahrfLePqzJNb3gTfycpJr9kfrj6arKcWu-_wQxkzx7skOGnkJh3MN7KCmVVqeE5Rij4PInxtDGkr0v_9nEH_3yE8NlpM2p97d07bOZ1sstJc6M1e-47zDjQpFo3vba3k00OL9rHOn_0G00?></g></svg>