<?plantuml 1.2026.2?><svg xmlns="http://www.w3.org/2000/svg" xmlns:xlink="http://www.w3.org/1999/xlink" contentStyleType="text/css" data-diagram-type="ACTIVITY" height="1078px" preserveAspectRatio="none" style="width:436px;height:1078px;background:#FFFFFF;" version="1.1" viewBox="0 0 436 1078" width="436px" zoomAndPan="magnify"><title>Algoritmo de Detecci&#243;n de Circularidad (DFS)</title><defs/><g><g class="title" data-source-line="1"><text fill="#000000" font-family="sans-serif" font-size="14" font-weight="bold" lengthAdjust="spacing" textLength="359.3105" x="37.1406" y="32.9951">Algoritmo de Detecci&#243;n de Circularidad (DFS)</text></g><ellipse cx="210.2959" cy="57.2969" fill="#222222" rx="10" ry="10" style="stroke:#222222;stroke-width:1;"/><rect fill="#F1F1F1" height="33.9688" rx="12.5" ry="12.5" style="stroke:#181818;stroke-width:0.5;" width="328.7129" x="45.9395" y="87.2969"/><text fill="#000000" font-family="sans-serif" font-size="12" lengthAdjust="spacing" textLength="308.7129" x="55.9395" y="108.4355">Recibir Tarea A (Predecesora) y Tarea B (Sucesora)</text><rect fill="#F1F1F1" height="33.9688" rx="12.5" ry="12.5" style="stroke:#181818;stroke-width:0.5;" width="167.2695" x="126.6611" y="189.668"/><text fill="#000000" font-family="sans-serif" font-size="12" lengthAdjust="spacing" textLength="147.2695" x="136.6611" y="210.8066">Error: Auto-dependencia</text><ellipse cx="210.2959" cy="263.1523" fill="none" rx="11" ry="11" style="stroke:#222222;stroke-width:1;"/><ellipse cx="210.2959" cy="263.1523" fill="#222222" rx="6" ry="6" style="stroke:#222222;stroke-width:1;"/><polygon fill="#F1F1F1" points="149.2212,141.2656,271.3706,141.2656,283.3706,153.2656,271.3706,165.2656,149.2212,165.2656,137.2212,153.2656,149.2212,141.2656" style="stroke:#181818;stroke-width:0.5;"/><text fill="#000000" font-family="sans-serif" font-size="11" lengthAdjust="spacing" textLength="8.7871" x="214.2959" y="175.4761">si</text><text fill="#000000" font-family="sans-serif" font-size="11" lengthAdjust="spacing" textLength="122.1494" x="149.2212" y="157.0737">&#191;Tarea A == Tarea B?</text><rect fill="#F1F1F1" height="33.9688" rx="12.5" ry="12.5" style="stroke:#181818;stroke-width:0.5;" width="335.791" x="42.4004" y="316.1523"/><text fill="#000000" font-family="sans-serif" font-size="12" lengthAdjust="spacing" textLength="315.791" x="52.4004" y="337.291">Inicializar 'visitados' (set) y 'pila' (stack con Tarea A)</text><rect fill="#F1F1F1" height="33.9688" rx="12.5" ry="12.5" style="stroke:#181818;stroke-width:0.5;" width="202.2559" x="109.168" y="425.8315"/><text fill="#000000" font-family="sans-serif" font-size="12" lengthAdjust="spacing" textLength="182.2559" x="119.168" y="446.9702">Extraer 'NodoActual' de la pila</text><rect fill="#F1F1F1" height="33.9688" rx="12.5" ry="12.5" style="stroke:#181818;stroke-width:0.5;" width="296.0938" x="62.249" y="528.2026"/><text fill="#000000" font-family="sans-serif" font-size="12" lengthAdjust="spacing" textLength="276.0938" x="72.249" y="549.3413">Bucle Detectado: Tarea B ya es ancestro de A</text><rect fill="#F1F1F1" height="33.9688" rx="12.5" ry="12.5" style="stroke:#181818;stroke-width:0.5;" width="215.7734" x="102.4092" y="582.1714"/><text fill="#000000" font-family="sans-serif" font-size="12" lengthAdjust="spacing" textLength="195.7734" x="112.4092" y="603.3101">Lanzar CircularDependencyError</text><ellipse cx="210.2959" cy="647.1401" fill="none" rx="11" ry="11" style="stroke:#222222;stroke-width:1;"/><ellipse cx="210.2959" cy="647.1401" fill="#222222" rx="6" ry="6" style="stroke:#222222;stroke-width:1;"/><polygon fill="#F1F1F1" points="138.8147,479.8003,281.7771,479.8003,293.7771,491.8003,281.7771,503.8003,138.8147,503.8003,126.8147,491.8003,138.8147,479.8003" style="stroke:#181818;stroke-width:0.5;"/><text fill="#000000" font-family="sans-serif" font-size="11" lengthAdjust="spacing" textLength="8.7871" x="214.2959" y="514.0107">si</text><text fill="#000000" font-family="sans-serif" font-size="11" lengthAdjust="spacing" textLength="142.9624" x="138.8147" y="495.6084">&#191;NodoActual == Tarea B?</text><rect fill="#F1F1F1" height="33.9688" rx="12.5" ry="12.5" style="stroke:#181818;stroke-width:0.5;" width="200.2227" x="110.1846" y="748.5425"/><text fill="#000000" font-family="sans-serif" font-size="12" lengthAdjust="spacing" textLength="180.2227" x="120.1846" y="769.6812">A&#241;adir NodoActual a visitados</text><rect fill="#F1F1F1" height="33.9688" rx="12.5" ry="12.5" style="stroke:#181818;stroke-width:0.5;" width="344.5918" x="38" y="817.5112"/><text fill="#000000" font-family="sans-serif" font-size="12" lengthAdjust="spacing" textLength="324.5918" x="48" y="838.6499">A&#241;adir todos los predecesores de NodoActual a la pila</text><polygon fill="#F1F1F1" points="138.0037,700.1401,282.5881,700.1401,294.5881,712.1401,282.5881,724.1401,138.0037,724.1401,126.0037,712.1401,138.0037,700.1401" style="stroke:#181818;stroke-width:0.5;"/><text fill="#000000" font-family="sans-serif" font-size="11" lengthAdjust="spacing" textLength="13.7017" x="214.2959" y="734.3506">no</text><text fill="#000000" font-family="sans-serif" font-size="11" lengthAdjust="spacing" textLength="144.5845" x="138.0037" y="715.9482">&#191;NodoActual en visitados?</text><polygon fill="#F1F1F1" points="210.2959,871.48,222.2959,883.48,210.2959,895.48,198.2959,883.48,210.2959,871.48" style="stroke:#181818;stroke-width:0.5;"/><polygon fill="#F1F1F1" points="178.4185,370.1211,242.1733,370.1211,254.1733,382.1211,242.1733,394.1211,178.4185,394.1211,166.4185,382.1211,178.4185,370.1211" style="stroke:#181818;stroke-width:0.5;"/><text fill="#000000" font-family="sans-serif" font-size="11" lengthAdjust="spacing" textLength="13.7017" x="214.2959" y="404.3315">no</text><text fill="#000000" font-family="sans-serif" font-size="11" lengthAdjust="spacing" textLength="63.7549" x="178.4185" y="385.9292">&#191;Pila vac&#237;a?</text><rect fill="#F1F1F1" height="33.9688" rx="12.5" ry="12.5" style="stroke:#181818;stroke-width:0.5;" width="134.334" x="143.1289" y="937.48"/><text fill="#000000" font-family="sans-serif" font-size="12" lengthAdjust="spacing" textLength="114.334" x="153.1289" y="958.6187">No se detect&#243; ciclo</text><rect fill="#F1F1F1" height="33.9688" rx="12.5" ry="12.5" style="stroke:#181818;stroke-width:0.5;" width="193.0215" x="113.7852" y="991.4487"/><text fill="#000000" font-family="sans-serif" font-size="12" lengthAdjust="spacing" textLength="173.0215" x="123.7852" y="1012.5874">Permitir creaci&#243;n de relaci&#243;n</text><ellipse cx="210.2959" cy="1056.4175" fill="none" rx="11" ry="11" style="stroke:#222222;stroke-width:1;"/><ellipse cx="210.2959" cy="1056.4175" fill="#222222" rx="6" ry="6" style="stroke:#222222;stroke-width:1;"/><line style="stroke:#181818;stroke-width:1;" x1="210.2959" x2="210.2959" y1="67.2969" y2="87.2969"/><polygon fill="#181818" points="206.2959,77.2969,210.2959,87.2969,214.2959,77.2969,210.2959,81.2969" style="stroke:#181818;stroke-width:1;"/><line style="stroke:#181818;stroke-width:1;" x1="210.2959" x2="210.2959" y1="223.6367" y2="252.1523"/><polygon fill="#181818" points="206.2959,242.1523,210.2959,252.1523,214.2959,242.1523,210.2959,246.1523" style="stroke:#181818;stroke-width:1;"/><line style="stroke:#181818;stroke-width:1;" x1="210.2959" x2="210.2959" y1="165.2656" y2="189.668"/><polygon fill="#181818" points="206.2959,179.668,210.2959,189.668,214.2959,179.668,210.2959,183.668" style="stroke:#181818;stroke-width:1;"/><line style="stroke:#181818;stroke-width:1;" x1="283.3706" x2="303.9307" y1="153.2656" y2="153.2656"/><polygon fill="#181818" points="299.9307,222.1523,303.9307,232.1523,307.9307,222.1523,303.9307,226.1523" style="stroke:#181818;stroke-width:1;"/><line style="stroke:#181818;stroke-width:1;" x1="303.9307" x2="303.9307" y1="153.2656" y2="296.1523"/><line style="stroke:#181818;stroke-width:1;" x1="303.9307" x2="210.2959" y1="296.1523" y2="296.1523"/><line style="stroke:#181818;stroke-width:1;" x1="210.2959" x2="210.2959" y1="296.1523" y2="316.1523"/><polygon fill="#181818" points="206.2959,306.1523,210.2959,316.1523,214.2959,306.1523,210.2959,310.1523" style="stroke:#181818;stroke-width:1;"/><line style="stroke:#181818;stroke-width:1;" x1="210.2959" x2="210.2959" y1="121.2656" y2="141.2656"/><polygon fill="#181818" points="206.2959,131.2656,210.2959,141.2656,214.2959,131.2656,210.2959,135.2656" style="stroke:#181818;stroke-width:1;"/><line style="stroke:#181818;stroke-width:1;" x1="210.2959" x2="210.2959" y1="562.1714" y2="582.1714"/><polygon fill="#181818" points="206.2959,572.1714,210.2959,582.1714,214.2959,572.1714,210.2959,576.1714" style="stroke:#181818;stroke-width:1;"/><line style="stroke:#181818;stroke-width:1;" x1="210.2959" x2="210.2959" y1="616.1401" y2="636.1401"/><polygon fill="#181818" points="206.2959,626.1401,210.2959,636.1401,214.2959,626.1401,210.2959,630.1401" style="stroke:#181818;stroke-width:1;"/><line style="stroke:#181818;stroke-width:1;" x1="210.2959" x2="210.2959" y1="503.8003" y2="528.2026"/><polygon fill="#181818" points="206.2959,518.2026,210.2959,528.2026,214.2959,518.2026,210.2959,522.2026" style="stroke:#181818;stroke-width:1;"/><line style="stroke:#181818;stroke-width:1;" x1="293.7771" x2="368.3428" y1="491.8003" y2="491.8003"/><polygon fill="#181818" points="364.3428,580.1714,368.3428,590.1714,372.3428,580.1714,368.3428,584.1714" style="stroke:#181818;stroke-width:1;"/><line style="stroke:#181818;stroke-width:1;" x1="368.3428" x2="368.3428" y1="491.8003" y2="680.1401"/><line style="stroke:#181818;stroke-width:1;" x1="368.3428" x2="210.2959" y1="680.1401" y2="680.1401"/><line style="stroke:#181818;stroke-width:1;" x1="210.2959" x2="210.2959" y1="680.1401" y2="700.1401"/><polygon fill="#181818" points="206.2959,690.1401,210.2959,700.1401,214.2959,690.1401,210.2959,694.1401" style="stroke:#181818;stroke-width:1;"/><line style="stroke:#181818;stroke-width:1;" x1="210.2959" x2="210.2959" y1="459.8003" y2="479.8003"/><polygon fill="#181818" points="206.2959,469.8003,210.2959,479.8003,214.2959,469.8003,210.2959,473.8003" style="stroke:#181818;stroke-width:1;"/><line style="stroke:#181818;stroke-width:1;" x1="210.2959" x2="210.2959" y1="782.5112" y2="817.5112"/><polygon fill="#181818" points="206.2959,807.5112,210.2959,817.5112,214.2959,807.5112,210.2959,811.5112" style="stroke:#181818;stroke-width:1;"/><line style="stroke:#181818;stroke-width:1;" x1="210.2959" x2="210.2959" y1="724.1401" y2="748.5425"/><polygon fill="#181818" points="206.2959,738.5425,210.2959,748.5425,214.2959,738.5425,210.2959,742.5425" style="stroke:#181818;stroke-width:1;"/><line style="stroke:#181818;stroke-width:1;" x1="294.5881" x2="392.5918" y1="712.1401" y2="712.1401"/><polygon fill="#181818" points="388.5918,790.0112,392.5918,800.0112,396.5918,790.0112,392.5918,794.0112" style="stroke:#181818;stroke-width:1;"/><line style="stroke:#181818;stroke-width:1;" x1="392.5918" x2="392.5918" y1="712.1401" y2="883.48"/><line style="stroke:#181818;stroke-width:1;" x1="392.5918" x2="222.2959" y1="883.48" y2="883.48"/><polygon fill="#181818" points="232.2959,879.48,222.2959,883.48,232.2959,887.48,228.2959,883.48" style="stroke:#181818;stroke-width:1;"/><line style="stroke:#181818;stroke-width:1;" x1="210.2959" x2="210.2959" y1="851.48" y2="871.48"/><polygon fill="#181818" points="206.2959,861.48,210.2959,871.48,214.2959,861.48,210.2959,865.48" style="stroke:#181818;stroke-width:1;"/><line style="stroke:#181818;stroke-width:1;" x1="210.2959" x2="210.2959" y1="394.1211" y2="425.8315"/><polygon fill="#181818" points="206.2959,415.8315,210.2959,425.8315,214.2959,415.8315,210.2959,419.8315" style="stroke:#181818;stroke-width:1;"/><line style="stroke:#181818;stroke-width:1;" x1="210.2959" x2="210.2959" y1="895.48" y2="905.48"/><line style="stroke:#181818;stroke-width:1;" x1="210.2959" x2="410.5918" y1="905.48" y2="905.48"/><polygon fill="#181818" points="406.5918,643.6558,410.5918,633.6558,414.5918,643.6558,410.5918,639.6558" style="stroke:#181818;stroke-width:1;"/><line style="stroke:#181818;stroke-width:1;" x1="410.5918" x2="410.5918" y1="382.1211" y2="905.48"/><line style="stroke:#181818;stroke-width:1;" x1="410.5918" x2="254.1733" y1="382.1211" y2="382.1211"/><polygon fill="#181818" points="264.1733,378.1211,254.1733,382.1211,264.1733,386.1211,260.1733,382.1211" style="stroke:#181818;stroke-width:1;"/><line style="stroke:#181818;stroke-width:1;" x1="166.4185" x2="24" y1="382.1211" y2="382.1211"/><polygon fill="#181818" points="20,629.6558,24,639.6558,28,629.6558,24,633.6558" style="stroke:#181818;stroke-width:1;"/><line style="stroke:#181818;stroke-width:1;" x1="24" x2="24" y1="382.1211" y2="917.48"/><line style="stroke:#181818;stroke-width:1;" x1="24" x2="210.2959" y1="917.48" y2="917.48"/><line style="stroke:#181818;stroke-width:1;" x1="210.2959" x2="210.2959" y1="917.48" y2="937.48"/><polygon fill="#181818" points="206.2959,927.48,210.2959,937.48,214.2959,927.48,210.2959,931.48" style="stroke:#181818;stroke-width:1;"/><line style="stroke:#181818;stroke-width:1;" x1="210.2959" x2="210.2959" y1="350.1211" y2="370.1211"/><polygon fill="#181818" points="206.2959,360.1211,210.2959,370.1211,214.2959,360.1211,210.2959,364.1211" style="stroke:#181818;stroke-width:1;"/><line style="stroke:#181818;stroke-width:1;" x1="210.2959" x2="210.2959" y1="971.4487" y2="991.4487"/><polygon fill="#181818" points="206.2959,981.4487,210.2959,991.4487,214.2959,981.4487,210.2959,985.4487" style="stroke:#181818;stroke-width:1;"/><line style="stroke:#181818;stroke-width:1;" x1="210.2959" x2="210.2959" y1="1025.4175" y2="1045.4175"/><polygon fill="#181818" points="206.2959,1035.4175,210.2959,1045.4175,214.2959,1035.4175,210.2959,1039.4175" style="stroke:#181818;stroke-width:1;"/><?plantuml-src VP9HJiCm38RVSmg_hNlW0gqGAWma98Gcu08cCM0HaYbnWN4d7X07G68NmsdN3eIWKgFOiPtVdoCidg3rjp6nF4Hm10iIifOtxw5OHvnivp6nGmVLukHoRamMJ6Bg2x9ypGckC1522zKoaIDBEIQSmthhFuJgijiw6sFu1ghFZp5bVt-CEfY3t560AlFSW7xrSKenrT1s4lSShIWu2fQnwK-pn9LH5zyOKvy6rWFFBvXWziYP1LtCCwr5KeJCLkonc8Bs7cmCe-GYwEcEbO1gMceGFABTlAAAuGnLYAEKPqb8MlmykjXQwT3F2XnDAAK7IVqojBSB-w_3llHXP_sMUL5TJzJM29G1WwAJr0-cRNPfPnXAj-Dq5YEVTKzj5zXpAfk1rTywLTX4Rb8w0kYlR3Tlw7JStv9mbzFy3XGDpE3rNqqFGrlIJdwK-05naAbhFnQTxNc4J9fJ-6pUmRBriJ7raj83YrvYbTRqM1FvmMXCQVmB?></g></svg>