<?plantuml 1.2026.2?><svg xmlns="http://www.w3.org/2000/svg" xmlns:xlink="http://www.w3.org/1999/xlink" contentStyleType="text/css" data-diagram-type="SEQUENCE" height="646px" preserveAspectRatio="none" style="width:928px;height:646px;background:#FFFFFF;" version="1.1" viewBox="0 0 928 646" width="928px" zoomAndPan="magnify"><defs/><g><g class="participant-lifeline" data-entity-uid="part1" data-qualified-name="Administrador" id="part1-lifeline"><g><title>Administrador</title><rect fill="#000000" fill-opacity="0.00000" height="558.2578" width="8" x="53.54" y="81.2969"/><line style="stroke:#181818;stroke-width:0.5;stroke-dasharray:5,5;" x1="57" x2="57" y1="81.2969" y2="639.5547"/></g></g><g class="participant-lifeline" data-entity-uid="part2" data-qualified-name="V" id="part2-lifeline"><g><title>Vista. TaskList</title><rect fill="#000000" fill-opacity="0.00000" height="558.2578" width="8" x="245.5371" y="81.2969"/><line style="stroke:#181818;stroke-width:0.5;stroke-dasharray:5,5;" x1="249.0366" x2="249.0366" y1="81.2969" y2="639.5547"/></g></g><g class="participant-lifeline" data-entity-uid="part3" data-qualified-name="C" id="part3-lifeline"><g><title>Controller. TaskRouter</title><rect fill="#000000" fill-opacity="0.00000" height="558.2578" width="8" x="432.437" y="81.2969"/><line style="stroke:#181818;stroke-width:0.5;stroke-dasharray:5,5;" x1="435.4888" x2="435.4888" y1="81.2969" y2="639.5547"/></g></g><g class="participant-lifeline" data-entity-uid="part4" data-qualified-name="S" id="part4-lifeline"><g><title>Service. TaskService</title><rect fill="#000000" fill-opacity="0.00000" height="558.2578" width="8" x="607.9761" y="81.2969"/><line style="stroke:#181818;stroke-width:0.5;stroke-dasharray:5,5;" x1="611.3853" x2="611.3853" y1="81.2969" y2="639.5547"/></g></g><g class="participant-lifeline" data-entity-uid="part5" data-qualified-name="R" id="part5-lifeline"><g><title>Repository. TaskRepository</title><rect fill="#000000" fill-opacity="0.00000" height="558.2578" width="8" x="815.4146" y="81.2969"/><line style="stroke:#181818;stroke-width:0.5;stroke-dasharray:5,5;" x1="818.4927" x2="818.4927" y1="81.2969" y2="639.5547"/></g></g><g class="participant participant-head" data-entity-uid="part1" data-qualified-name="Administrador" id="part1-head"><text fill="#000000" font-family="sans-serif" font-size="14" lengthAdjust="spacing" textLength="99.0801" x="5" y="77.9951">Administrador</text><ellipse cx="57.54" cy="13.5" fill="#E2E2F0" rx="8" ry="8" style="stroke:#181818;stroke-width:0.5;"/><path d="M57.54,21.5 L57.54,48.5 M44.54,29.5 L70.54,29.5 M57.54,48.5 L44.54,63.5 M57.54,48.5 L70.54,63.5" fill="none" style="stroke:#181818;stroke-width:0.5;"/></g><g class="participant participant-head" data-entity-uid="part2" data-qualified-name="V" id="part2-head"><rect fill="#E2E2F0" height="30.2969" rx="2.5" ry="2.5" style="stroke:#181818;stroke-width:0.5;" width="115.001" x="192.0366" y="50"/><text fill="#000000" font-family="sans-serif" font-size="14" lengthAdjust="spacing" textLength="101.001" x="199.0366" y="69.9951">Vista: TaskList</text></g><g class="participant participant-head" data-entity-uid="part3" data-qualified-name="C" id="part3-head"><rect fill="#E2E2F0" height="30.2969" rx="2.5" ry="2.5" style="stroke:#181818;stroke-width:0.5;" width="171.8965" x="350.4888" y="50"/><text fill="#000000" font-family="sans-serif" font-size="14" lengthAdjust="spacing" textLength="157.8965" x="357.4888" y="69.9951">Controller: TaskRouter</text></g><g class="participant participant-head" data-entity-uid="part4" data-qualified-name="S" id="part4-head"><rect fill="#E2E2F0" height="30.2969" rx="2.5" ry="2.5" style="stroke:#181818;stroke-width:0.5;" width="159.1816" x="532.3853" y="50"/><text fill="#000000" font-family="sans-serif" font-size="14" lengthAdjust="spacing" textLength="145.1816" x="539.3853" y="69.9951">Service: TaskService</text></g><g class="participant participant-head" data-entity-uid="part5" data-qualified-name="R" id="part5-head"><rect fill="#E2E2F0" height="30.2969" rx="2.5" ry="2.5" style="stroke:#181818;stroke-width:0.5;" width="205.8438" x="716.4927" y="50"/><text fill="#000000" font-family="sans-serif" font-size="14" lengthAdjust="spacing" textLength="191.8438" x="723.4927" y="69.9951">Repository: TaskRepository</text></g><g class="message" data-entity-1="part1" data-entity-2="part2" id="msg1"><polygon fill="#181818" points="237.5371,108.4297,247.5371,112.4297,237.5371,116.4297" style="stroke:#181818;stroke-width:1;"/><line style="stroke:#181818;stroke-width:1;" x1="57.54" x2="243.5371" y1="112.4297" y2="112.4297"/><text fill="#000000" font-family="sans-serif" font-size="13" lengthAdjust="spacing" textLength="112.271" x="64.54" y="107.3638">eliminarTarea(id)</text></g><g class="message" data-entity-1="part2" data-entity-2="part3" id="msg2"><polygon fill="#181818" points="424.437,137.5625,434.437,141.5625,424.437,145.5625" style="stroke:#181818;stroke-width:1;"/><line style="stroke:#181818;stroke-width:1;" x1="249.5371" x2="430.437" y1="141.5625" y2="141.5625"/><text fill="#000000" font-family="sans-serif" font-size="13" lengthAdjust="spacing" textLength="162.8999" x="256.5371" y="136.4966">HTTP DELETE /tasks/{id}</text></g><g class="message" data-entity-1="part3" data-entity-2="part4" id="msg3"><polygon fill="#181818" points="599.9761,166.6953,609.9761,170.6953,599.9761,174.6953" style="stroke:#181818;stroke-width:1;"/><line style="stroke:#181818;stroke-width:1;" x1="436.437" x2="605.9761" y1="170.6953" y2="170.6953"/><text fill="#000000" font-family="sans-serif" font-size="13" lengthAdjust="spacing" textLength="127.7275" x="443.437" y="165.6294">soft_delete_task(id)</text></g><path d="M500,183.6953 L500,208.6953 L722,208.6953 L722,193.6953 L712,183.6953 L500,183.6953" fill="#FEFFDD" style="stroke:#181818;stroke-width:0.5;"/><path d="M712,183.6953 L712,193.6953 L722,193.6953 L712,183.6953" fill="#FEFFDD" style="stroke:#181818;stroke-width:0.5;"/><text fill="#000000" font-family="sans-serif" font-size="13" lengthAdjust="spacing" textLength="201.1636" x="506" y="200.7622">Validaci&#243;n de Rol (BR-MEM-02)</text><g class="message" data-entity-1="part4" data-entity-2="part4" id="msg4"><line style="stroke:#181818;stroke-width:1;" x1="611.9761" x2="653.9761" y1="234.9609" y2="234.9609"/><line style="stroke:#181818;stroke-width:1;" x1="653.9761" x2="653.9761" y1="234.9609" y2="247.9609"/><line style="stroke:#181818;stroke-width:1;" x1="612.9761" x2="653.9761" y1="247.9609" y2="247.9609"/><polygon fill="#181818" points="622.9761,243.9609,612.9761,247.9609,622.9761,251.9609" style="stroke:#181818;stroke-width:1;"/><text fill="#000000" font-family="sans-serif" font-size="13" lengthAdjust="spacing" textLength="193.4385" x="618.9761" y="229.895">check_admin_privileges(user)</text></g><g class="message" data-entity-1="part4" data-entity-2="part5" id="msg5"><polygon fill="#181818" points="807.4146,273.0938,817.4146,277.0938,807.4146,281.0938" style="stroke:#181818;stroke-width:1;"/><line style="stroke:#181818;stroke-width:1;" x1="611.9761" x2="813.4146" y1="277.0938" y2="277.0938"/><text fill="#000000" font-family="sans-serif" font-size="13" lengthAdjust="spacing" textLength="84.1636" x="618.9761" y="272.0278">get_by_id(id)</text></g><g class="message" data-entity-1="part5" data-entity-2="part4" id="msg6"><polygon fill="#181818" points="622.9761,302.2266,612.9761,306.2266,622.9761,310.2266" style="stroke:#181818;stroke-width:1;"/><line style="stroke:#181818;stroke-width:1;" x1="616.9761" x2="818.4146" y1="306.2266" y2="306.2266"/><text fill="#000000" font-family="sans-serif" font-size="13" lengthAdjust="spacing" textLength="53.6821" x="628.9761" y="301.1606">task_obj</text></g><path d="M515,319.2266 L515,344.2266 L708,344.2266 L708,329.2266 L698,319.2266 L515,319.2266" fill="#FEFFDD" style="stroke:#181818;stroke-width:0.5;"/><path d="M698,319.2266 L698,329.2266 L708,329.2266 L698,319.2266" fill="#FEFFDD" style="stroke:#181818;stroke-width:0.5;"/><text fill="#000000" font-family="sans-serif" font-size="13" lengthAdjust="spacing" textLength="172.3325" x="521" y="336.2935">Borrado L&#243;gico (BR-ET-01)</text><g class="message" data-entity-1="part4" data-entity-2="part4" id="msg7"><line style="stroke:#181818;stroke-width:1;" x1="611.9761" x2="653.9761" y1="370.4922" y2="370.4922"/><line style="stroke:#181818;stroke-width:1;" x1="653.9761" x2="653.9761" y1="370.4922" y2="383.4922"/><line style="stroke:#181818;stroke-width:1;" x1="612.9761" x2="653.9761" y1="383.4922" y2="383.4922"/><polygon fill="#181818" points="622.9761,379.4922,612.9761,383.4922,622.9761,387.4922" style="stroke:#181818;stroke-width:1;"/><text fill="#000000" font-family="sans-serif" font-size="13" lengthAdjust="spacing" textLength="172.5864" x="618.9761" y="365.4263">task_obj.is_deleted = True</text></g><g class="message" data-entity-1="part4" data-entity-2="part4" id="msg8"><line style="stroke:#181818;stroke-width:1;" x1="611.9761" x2="653.9761" y1="412.625" y2="412.625"/><line style="stroke:#181818;stroke-width:1;" x1="653.9761" x2="653.9761" y1="412.625" y2="425.625"/><line style="stroke:#181818;stroke-width:1;" x1="612.9761" x2="653.9761" y1="425.625" y2="425.625"/><polygon fill="#181818" points="622.9761,421.625,612.9761,425.625,622.9761,429.625" style="stroke:#181818;stroke-width:1;"/><text fill="#000000" font-family="sans-serif" font-size="13" lengthAdjust="spacing" textLength="182.7109" x="618.9761" y="407.5591">task_obj.deleted_at = now()</text></g><g class="message" data-entity-1="part4" data-entity-2="part5" id="msg9"><polygon fill="#181818" points="807.4146,450.7578,817.4146,454.7578,807.4146,458.7578" style="stroke:#181818;stroke-width:1;"/><line style="stroke:#181818;stroke-width:1;" x1="611.9761" x2="813.4146" y1="454.7578" y2="454.7578"/><text fill="#000000" font-family="sans-serif" font-size="13" lengthAdjust="spacing" textLength="109.6304" x="618.9761" y="449.6919">update(task_obj)</text></g><g class="message" data-entity-1="part5" data-entity-2="part4" id="msg10"><polygon fill="#181818" points="622.9761,479.8906,612.9761,483.8906,622.9761,487.8906" style="stroke:#181818;stroke-width:1;"/><line style="stroke:#181818;stroke-width:1;" x1="616.9761" x2="818.4146" y1="483.8906" y2="483.8906"/><text fill="#000000" font-family="sans-serif" font-size="13" lengthAdjust="spacing" textLength="50.8511" x="628.9761" y="478.8247">success</text></g><path d="M616,496.8906 L616,536.8906 L865,536.8906 L865,506.8906 L855,496.8906 L616,496.8906" fill="#FEFFDD" style="stroke:#181818;stroke-width:0.5;"/><path d="M855,496.8906 L855,506.8906 L865,506.8906 L855,496.8906" fill="#FEFFDD" style="stroke:#181818;stroke-width:0.5;"/><text fill="#000000" font-family="sans-serif" font-size="13" lengthAdjust="spacing" textLength="228.6045" x="622" y="513.9575">Las sucesoras ignorar&#225;n esta tarea</text><text fill="#000000" font-family="sans-serif" font-size="13" lengthAdjust="spacing" textLength="201.4175" x="622" y="529.0903">en sus validaciones (BR-ET-02)</text><g class="message" data-entity-1="part4" data-entity-2="part3" id="msg11"><polygon fill="#181818" points="447.437,559.2891,437.437,563.2891,447.437,567.2891" style="stroke:#181818;stroke-width:1;"/><line style="stroke:#181818;stroke-width:1;" x1="441.437" x2="610.9761" y1="563.2891" y2="563.2891"/><text fill="#000000" font-family="sans-serif" font-size="13" lengthAdjust="spacing" textLength="50.8511" x="453.437" y="558.2231">success</text></g><g class="message" data-entity-1="part3" data-entity-2="part2" id="msg12"><polygon fill="#181818" points="260.5371,588.4219,250.5371,592.4219,260.5371,596.4219" style="stroke:#181818;stroke-width:1;"/><line style="stroke:#181818;stroke-width:1;" x1="254.5371" x2="435.437" y1="592.4219" y2="592.4219"/><text fill="#000000" font-family="sans-serif" font-size="13" lengthAdjust="spacing" textLength="102.4575" x="266.5371" y="587.356">204 No Content</text></g><g class="message" data-entity-1="part2" data-entity-2="part1" id="msg13"><polygon fill="#181818" points="68.54,617.5547,58.54,621.5547,68.54,625.5547" style="stroke:#181818;stroke-width:1;"/><line style="stroke:#181818;stroke-width:1;" x1="62.54" x2="248.5371" y1="621.5547" y2="621.5547"/><text fill="#000000" font-family="sans-serif" font-size="13" lengthAdjust="spacing" textLength="167.9971" x="74.54" y="616.4888">Remover de la lista visual</text></g><?plantuml-src RPB1Rjim38RlVWgY9_UGDGrs2h01hMkWXtGO7CEd0eOYiIuRHJ8asKCmx67s37s4l5XfnIxYOHTR4Z_o_oNIxycqmea3-73Ko5z7CdG7dGWPh8CxTI13V2gKTGcJWIIrmWIuglXOhA4KVh_XvHK83zKSoQm9pcgDximLjWle8fdDoIswdYIUiN4JkUsSAx2rdjZPSQpukOzqaIGpnx3u3XMi0JNngN2bS2XIKjT9DOGo3ZsMvKzuo3TvcSDDu9B-vZUfFqas05i6l7q9jKAD0UiX7jCJOmE2xT55fXAQb91qUZUW40gh8Rql5a_vqsAvkawsKotvYd9VYy5YtJhgIME3FkqyEguPiOAn1aEzEzQaebOnPG_gjTsz_Qj-RzrmMzYStXkIDahdvM9vUw4yvNuXFrv6mJSeNOV_OKQW5e4POt-bb-QwLec0wGHV-FETbEZzQCzHynh0liJGXfl3OVJMyOeQmtzt-ci0UOXOcDloRD0muw4V7zCQz9ztMKqMiWkXREhlQlaLVbWOvWrDE3TtFWXhAF0GNupxemNeONgX9zy9_G40?></g></svg>