<?plantuml 1.2026.2?><svg xmlns="http://www.w3.org/2000/svg" xmlns:xlink="http://www.w3.org/1999/xlink" contentStyleType="text/css" data-diagram-type="DESCRIPTION" height="443px" preserveAspectRatio="none" style="width:939px;height:443px;background:#FFFFFF;" version="1.1" viewBox="0 0 939 443" width="939px" zoomAndPan="magnify"><defs/><g><!--cluster completarGestion--><g class="cluster" data-qualified-name="completarGestion" data-source-line="4" id="ent0003"><path d="M294,6 L448.0566,6 A3.75,3.75 0 0 1 450.5566,8.5 L457.5566,28.2969 L860,28.2969 A2.5,2.5 0 0 1 862.5,30.7969 L862.5,433.5 A2.5,2.5 0 0 1 860,436 L294,436 A2.5,2.5 0 0 1 291.5,433.5 L291.5,8.5 A2.5,2.5 0 0 1 294,6" fill="none" style="stroke:#000000;stroke-width:1.5;"/><line style="stroke:#000000;stroke-width:1.5;" x1="291.5" x2="457.5566" y1="28.2969" y2="28.2969"/><text fill="#000000" font-family="sans-serif" font-size="14" font-weight="bold" lengthAdjust="spacing" textLength="153.0566" x="295.5" y="20.9951">completarGestion()</text></g><!--entity ResumenGestionView--><g class="entity" data-qualified-name="completarGestion.ResumenGestionView" data-source-line="5" id="ent0004"><rect fill="#629EF9" height="36.2969" rx="2.5" ry="2.5" style="stroke:#181818;stroke-width:0.5;" width="172.7354" x="397" y="41"/><text fill="#000000" font-family="sans-serif" font-size="14" lengthAdjust="spacing" textLength="152.7354" x="407" y="63.9951">ResumenGestionView</text></g><!--entity TareasController--><g class="entity" data-qualified-name="completarGestion.TareasController" data-source-line="6" id="ent0005"><rect fill="#B5BD68" height="36.2969" rx="2.5" ry="2.5" style="stroke:#181818;stroke-width:0.5;" width="136.5459" x="415" y="174"/><text fill="#000000" font-family="sans-serif" font-size="14" lengthAdjust="spacing" textLength="116.5459" x="425" y="196.9951">TareasController</text></g><!--entity TareaRepository--><g class="entity" data-qualified-name="completarGestion.TareaRepository" data-source-line="7" id="ent0006"><rect fill="#F2AC4E" height="36.2969" rx="2.5" ry="2.5" style="stroke:#181818;stroke-width:0.5;" width="135.1514" x="308" y="287"/><text fill="#000000" font-family="sans-serif" font-size="14" lengthAdjust="spacing" textLength="115.1514" x="318" y="309.9951">TareaRepository</text></g><!--entity GrupoRepository--><g class="entity" data-qualified-name="completarGestion.GrupoRepository" data-source-line="8" id="ent0007"><rect fill="#F2AC4E" height="36.2969" rx="2.5" ry="2.5" style="stroke:#181818;stroke-width:0.5;" width="138.002" x="556.5" y="287"/><text fill="#000000" font-family="sans-serif" font-size="14" lengthAdjust="spacing" textLength="118.002" x="566.5" y="309.9951">GrupoRepository</text></g><!--entity Tarea--><g class="entity" data-qualified-name="completarGestion.Tarea" data-source-line="9" id="ent0008"><rect fill="#F2AC4E" height="36.2969" rx="2.5" ry="2.5" style="stroke:#181818;stroke-width:0.5;" width="60.0791" x="345.5" y="384"/><text fill="#000000" font-family="sans-serif" font-size="14" lengthAdjust="spacing" textLength="40.0791" x="355.5" y="406.9951">Tarea</text></g><!--entity Grupo--><g class="entity" data-qualified-name="completarGestion.Grupo" data-source-line="10" id="ent0009"><rect fill="#F2AC4E" height="36.2969" rx="2.5" ry="2.5" style="stroke:#181818;stroke-width:0.5;" width="62.9297" x="594" y="384"/><text fill="#000000" font-family="sans-serif" font-size="14" lengthAdjust="spacing" textLength="42.9297" x="604" y="406.9951">Grupo</text></g><!--entity Usuario--><g class="entity" data-qualified-name="Usuario" data-source-line="3" id="ent0002"><ellipse cx="905.6021" cy="29.5" fill="#F1F1F1" rx="8" ry="8" style="stroke:#181818;stroke-width:0.5;"/><path d="M905.6021,37.5 L905.6021,64.5 M892.6021,45.5 L918.6021,45.5 M905.6021,64.5 L892.6021,79.5 M905.6021,64.5 L918.6021,79.5" fill="none" style="stroke:#181818;stroke-width:0.5;"/><text fill="#000000" font-family="sans-serif" font-size="14" lengthAdjust="spacing" textLength="53.2041" x="879" y="93.9951">Usuario</text></g><!--entity SistemaDisponible--><g class="entity" data-qualified-name="SistemaDisponible" data-source-line="12" id="ent0010"><rect fill="#CDEBA5" height="36.2969" rx="2.5" ry="2.5" style="stroke:#181818;stroke-width:0.5;" width="159.125" x="7" y="41"/><text fill="#000000" font-family="sans-serif" font-size="14" lengthAdjust="spacing" textLength="139.125" x="17" y="63.9951">:Sistema Disponible</text></g><!--link SistemaDisponible to ResumenGestionView--><g class="link" data-entity-1="ent0010" data-entity-2="ent0004" data-link-type="dependency" data-source-line="14" id="lnk11"><path d="M166.36,59 C233.16,59 322.26,59 390.88,59" fill="none" id="SistemaDisponible-to-ResumenGestionView" style="stroke:#181818;stroke-width:1;"/><polygon fill="#181818" points="396.88,59,387.88,55,391.88,59,387.88,63,396.88,59" style="stroke:#181818;stroke-width:1;"/><text fill="#000000" font-family="sans-serif" font-size="13" lengthAdjust="spacing" textLength="142.708" x="210.5" y="52.0669">1: completarGestion()</text></g><!--link ResumenGestionView to SistemaDisponible--><g class="link" data-entity-1="ent0004" data-entity-2="ent0010" data-link-type="dependency" data-source-line="24" id="lnk17"><path d="M396.88,59 C328.26,59 239.16,59 172.36,59" fill="none" id="ResumenGestionView-to-SistemaDisponible" style="stroke:#181818;stroke-width:1;"/><polygon fill="#181818" points="166.36,59,175.36,63,171.36,59,175.36,55,166.36,59" style="stroke:#181818;stroke-width:1;"/><text fill="#000000" font-family="sans-serif" font-size="13" lengthAdjust="spacing" textLength="194.251" x="184.5" y="52.0669">5: sistemaDisponible(usuario)</text></g><!--link ResumenGestionView to TareasController--><g class="link" data-entity-1="ent0004" data-entity-2="ent0005" data-link-type="dependency" data-source-line="16" id="lnk12"><path d="M483.5,77.13 C483.5,102.23 483.5,142.76 483.5,167.87" fill="none" id="ResumenGestionView-to-TareasController" style="stroke:#181818;stroke-width:1;"/><polygon fill="#181818" points="483.5,173.87,487.5,164.87,483.5,168.87,479.5,164.87,483.5,173.87" style="stroke:#181818;stroke-width:1;"/><text fill="#000000" font-family="sans-serif" font-size="13" lengthAdjust="spacing" textLength="271.959" x="484.5" y="140.0669">2: obtenerResumenColaboracion(usuario)</text></g><!--link TareasController to GrupoRepository--><g class="link" data-entity-1="ent0005" data-entity-2="ent0007" data-link-type="dependency" data-source-line="18" id="lnk13"><path d="M520.98,210.1 C550.43,223.54 586.5,240 586.5,240 C586.5,240 600.3785,262.7659 611.9285,281.7259" fill="none" id="TareasController-to-GrupoRepository" style="stroke:#181818;stroke-width:1;"/><polygon fill="#181818" points="615.05,286.85,613.7838,277.0829,612.4488,282.5799,606.9517,281.2448,615.05,286.85" style="stroke:#181818;stroke-width:1;"/><text fill="#000000" font-family="sans-serif" font-size="13" lengthAdjust="spacing" textLength="219.7432" x="596.5" y="253.0669">3: obtenerGruposActivos(usuario)</text></g><!--link TareasController to TareaRepository--><g class="link" data-entity-1="ent0005" data-entity-2="ent0006" data-link-type="dependency" data-source-line="19" id="lnk14"><path d="M431.11,210.1 C389.93,223.54 339.5,240 339.5,240 C339.5,240 339.5,257 339.5,257 C339.5,257 348.3713,268.5869 358.6513,282.0069" fill="none" id="TareasController-to-TareaRepository" style="stroke:#181818;stroke-width:1;"/><polygon fill="#181818" points="362.3,286.77,360.0024,277.1929,359.2595,282.8007,353.6516,282.0577,362.3,286.77" style="stroke:#181818;stroke-width:1;"/><text fill="#000000" font-family="sans-serif" font-size="13" lengthAdjust="spacing" textLength="241.9727" x="340.5" y="253.0669">4: obtenerTareasPendientes(usuario)</text></g><!--link GrupoRepository to Grupo--><g class="link" data-entity-1="ent0007" data-entity-2="ent0009" data-link-type="association" data-source-line="21" id="lnk15"><path d="M625.5,323.42 C625.5,340.57 625.5,366.58 625.5,383.69" fill="none" id="GrupoRepository-Grupo" style="stroke:#181818;stroke-width:1;"/></g><!--link TareaRepository to Tarea--><g class="link" data-entity-1="ent0006" data-entity-2="ent0008" data-link-type="association" data-source-line="22" id="lnk16"><path d="M375.5,323.42 C375.5,340.57 375.5,366.58 375.5,383.69" fill="none" id="TareaRepository-Tarea" style="stroke:#181818;stroke-width:1;"/></g><?plantuml-src XP7BRi8m44Nt_efHkcaNMPG2AbvKek6nhUXZFqb6oCBnMBRJ2bNzzoOa0kH0crtkN1zRP_nE6OiEAz3AKDXR0ijwt_u8WKLW1---HgTOM2nsk2KekBAQ0her-Q3O07f8ul3sBe5l0Stdg0XejfhWPZgQBLSps92lAp9zyqFHLrpC9tavVOGtT8G-OnCSQqqkhgr6ysoyx6eRiknLyzxzbTRQrPR_RHrOVn74ZpYRP8lbytm2YNnLFb25i53Uib6vfgJrqiUdL8X11AbBdov8aN0lOUXLY64Lqh91nBeaZ2Hm7iYGwyzah35dXqMBghl5DiJu9AGDBX8cuU58Eupyl0Zga_s9Sn4JRKV2-8Zf-YzaIaKcq1b9H9Stf5v_X6i7tSukQcdD3eHBc4ZmSNgy_1S0?></g></svg>