<?plantuml 1.2026.2?><svg xmlns="http://www.w3.org/2000/svg" xmlns:xlink="http://www.w3.org/1999/xlink" contentStyleType="text/css" data-diagram-type="DESCRIPTION" height="86px" preserveAspectRatio="none" style="width:1036px;height:86px;background:#FFFFFF;" version="1.1" viewBox="0 0 1036 86" width="1036px" zoomAndPan="magnify"><defs/><g><!--entity Usuario--><g class="entity" data-qualified-name="Usuario" data-source-line="4" id="ent0002"><ellipse cx="32.6021" cy="14" fill="#F1F1F1" rx="8" ry="8" style="stroke:#181818;stroke-width:0.5;"/><path d="M32.6021,22 L32.6021,49 M19.6021,30 L45.6021,30 M32.6021,49 L19.6021,64 M32.6021,49 L45.6021,64" fill="none" style="stroke:#181818;stroke-width:0.5;"/><text fill="#000000" font-family="sans-serif" font-size="14" lengthAdjust="spacing" textLength="53.2041" x="6" y="78.4951">Usuario</text></g><!--entity TareasView--><g class="entity" data-qualified-name="TareasView" data-source-line="5" id="ent0003"><path d="M282.9517,23.5 L282.9517,47.5 M282.9517,35.5 L299.9517,35.5" fill="none" style="stroke:#181818;stroke-width:0.5;"/><ellipse cx="311.9517" cy="35.5" fill="#F1F1F1" rx="12" ry="12" style="stroke:#181818;stroke-width:0.5;"/><text fill="#000000" font-family="sans-serif" font-size="14" lengthAdjust="spacing" textLength="80.9033" x="263" y="64.4951">TareasView</text></g><!--entity DashboardController--><g class="entity" data-qualified-name="DashboardController" data-source-line="6" id="ent0004"><ellipse cx="607.6865" cy="35.5" fill="#F1F1F1" rx="12" ry="12" style="stroke:#181818;stroke-width:0.5;"/><polygon fill="#181818" points="603.6865,23.5,609.6865,18.5,607.6865,23.5,609.6865,28.5,603.6865,23.5" style="stroke:#181818;stroke-width:1;"/><text fill="#000000" font-family="sans-serif" font-size="14" lengthAdjust="spacing" textLength="145.373" x="535" y="64.4951">DashboardController</text></g><!--entity SistemaDisponible--><g class="entity" data-qualified-name="SistemaDisponible" data-source-line="7" id="ent0005"><rect fill="#C5E0B4" height="36.2969" rx="2.5" ry="2.5" style="stroke:#181818;stroke-width:0.5;" width="159.125" x="871" y="25.5"/><text fill="#000000" font-family="sans-serif" font-size="14" lengthAdjust="spacing" textLength="139.125" x="881" y="48.4951">:Sistema Disponible</text></g><!--link Usuario to TareasView--><g class="link" data-entity-1="ent0002" data-entity-2="ent0003" data-link-type="dependency" data-source-line="9" id="lnk6"><path d="M59.29,43.5 C106.5,43.5 201.08,43.5 256.97,43.5" fill="none" id="Usuario-to-TareasView" style="stroke:#181818;stroke-width:1;"/><polygon fill="#181818" points="262.97,43.5,253.97,39.5,257.97,43.5,253.97,47.5,262.97,43.5" style="stroke:#181818;stroke-width:1;"/><text fill="#000000" font-family="sans-serif" font-size="13" lengthAdjust="spacing" textLength="142.708" x="90" y="39.5669">1: completarGestion()</text></g><!--link TareasView to DashboardController--><g class="link" data-entity-1="ent0003" data-entity-2="ent0004" data-link-type="dependency" data-source-line="10" id="lnk7"><path d="M344.29,43.5 C392.66,43.5 469.2,43.5 528.76,43.5" fill="none" id="TareasView-to-DashboardController" style="stroke:#181818;stroke-width:1;"/><polygon fill="#181818" points="534.76,43.5,525.76,39.5,529.76,43.5,525.76,47.5,534.76,43.5" style="stroke:#181818;stroke-width:1;"/><text fill="#000000" font-family="sans-serif" font-size="13" lengthAdjust="spacing" textLength="129.6572" x="375" y="39.5669">2: verificarYVolver()</text></g><!--link DashboardController to SistemaDisponible--><g class="link" data-entity-1="ent0004" data-entity-2="ent0005" data-link-type="dependency" data-source-line="11" id="lnk8"><path d="M680.4,43.5 C736.19,43.5 807.43,43.5 864.86,43.5" fill="none" id="DashboardController-to-SistemaDisponible" style="stroke:#181818;stroke-width:1;"/><polygon fill="#181818" points="870.86,43.5,861.86,39.5,865.86,43.5,861.86,47.5,870.86,43.5" style="stroke:#181818;stroke-width:1;"/><text fill="#000000" font-family="sans-serif" font-size="13" lengthAdjust="spacing" textLength="129.6128" x="711" y="39.5669">3: actualizaEstado()</text></g><?plantuml-src RL2xQWD13EptAuJTs8KXpsQB5B6DFo298QNkJhP5TAj5gqkuV7rkYI66k9nXNapvu9JHi0VXH3vcWgmoLX243WwkO7myENHir3fh2W5RLuEtCg2nXaQ7rA6Dy8f6MFPCNw7LvAO26oodHj6wzIyXPA76O3eAmIo-S77g4JPSiYPkX6Q01Sxq7mlpzUFsvlaXX7Chh5PF5uKGuJP2gtqMShGTbRfqiGmNakguicUotaNu9EC3jsZlUvK9JDPhsfhnVro4-mZJAGCAV-EsE7QwMFu0?></g></svg>