<?plantuml 1.2026.2?><svg xmlns="http://www.w3.org/2000/svg" xmlns:xlink="http://www.w3.org/1999/xlink" contentStyleType="text/css" data-diagram-type="DESCRIPTION" height="443px" preserveAspectRatio="none" style="width:750px;height:443px;background:#FFFFFF;" version="1.1" viewBox="0 0 750 443" width="750px" zoomAndPan="magnify"><defs/><g><!--cluster eliminarMiembro--><g class="cluster" data-qualified-name="eliminarMiembro" data-source-line="4" id="ent0003"><path d="M387,6 L534.9521,6 A3.75,3.75 0 0 1 537.4521,8.5 L544.4521,28.2969 L671,28.2969 A2.5,2.5 0 0 1 673.5,30.7969 L673.5,433.5 A2.5,2.5 0 0 1 671,436 L387,436 A2.5,2.5 0 0 1 384.5,433.5 L384.5,8.5 A2.5,2.5 0 0 1 387,6" fill="none" style="stroke:#000000;stroke-width:1.5;"/><line style="stroke:#000000;stroke-width:1.5;" x1="384.5" x2="544.4521" y1="28.2969" y2="28.2969"/><text fill="#000000" font-family="sans-serif" font-size="14" font-weight="bold" lengthAdjust="spacing" textLength="146.9521" x="388.5" y="20.9951">eliminarMiembro()</text></g><!--entity GestionarMiembrosView--><g class="entity" data-qualified-name="eliminarMiembro.GestionarMiembrosView" data-source-line="5" id="ent0004"><rect fill="#629EF9" height="36.2969" rx="2.5" ry="2.5" style="stroke:#181818;stroke-width:0.5;" width="190.1602" x="400.5" y="41"/><text fill="#000000" font-family="sans-serif" font-size="14" lengthAdjust="spacing" textLength="170.1602" x="410.5" y="63.9951">GestionarMiembrosView</text></g><!--entity MembresiasController--><g class="entity" data-qualified-name="eliminarMiembro.MembresiasController" data-source-line="6" id="ent0005"><rect fill="#B5BD68" height="36.2969" rx="2.5" ry="2.5" style="stroke:#181818;stroke-width:0.5;" width="173.8154" x="400.5" y="174"/><text fill="#000000" font-family="sans-serif" font-size="14" lengthAdjust="spacing" textLength="153.8154" x="410.5" y="196.9951">MembresiasController</text></g><!--entity MiembroRepository--><g class="entity" data-qualified-name="eliminarMiembro.MiembroRepository" data-source-line="7" id="ent0006"><rect fill="#F2AC4E" height="36.2969" rx="2.5" ry="2.5" style="stroke:#181818;stroke-width:0.5;" width="156.5" x="400.5" y="287"/><text fill="#000000" font-family="sans-serif" font-size="14" lengthAdjust="spacing" textLength="136.5" x="410.5" y="309.9951">MiembroRepository</text></g><!--entity MiembroGrupo--><g class="entity" data-qualified-name="eliminarMiembro.MiembroGrupo" data-source-line="8" id="ent0007"><rect fill="#F2AC4E" height="36.2969" rx="2.5" ry="2.5" style="stroke:#181818;stroke-width:0.5;" width="124.3574" x="416.5" y="384"/><text fill="#000000" font-family="sans-serif" font-size="14" lengthAdjust="spacing" textLength="104.3574" x="426.5" y="406.9951">MiembroGrupo</text></g><!--entity Usuario--><g class="entity" data-qualified-name="Usuario" data-source-line="3" id="ent0002"><ellipse cx="716.6021" cy="29.5" fill="#F1F1F1" rx="8" ry="8" style="stroke:#181818;stroke-width:0.5;"/><path d="M716.6021,37.5 L716.6021,64.5 M703.6021,45.5 L729.6021,45.5 M716.6021,64.5 L703.6021,79.5 M716.6021,64.5 L729.6021,79.5" fill="none" style="stroke:#181818;stroke-width:0.5;"/><text fill="#000000" font-family="sans-serif" font-size="14" lengthAdjust="spacing" textLength="53.2041" x="690" y="93.9951">Usuario</text></g><!--entity SistemaDisponible--><g class="entity" data-qualified-name="SistemaDisponible" data-source-line="10" id="ent0008"><rect fill="#CDEBA5" height="36.2969" rx="2.5" ry="2.5" style="stroke:#181818;stroke-width:0.5;" width="159.125" x="7" y="41"/><text fill="#000000" font-family="sans-serif" font-size="14" lengthAdjust="spacing" textLength="139.125" x="17" y="63.9951">:Sistema Disponible</text></g><!--link SistemaDisponible to GestionarMiembrosView--><g class="link" data-entity-1="ent0008" data-entity-2="ent0004" data-link-type="dependency" data-source-line="12" id="lnk9"><path d="M166.33,59 C233.4,59 323.4,59 394.43,59" fill="none" id="SistemaDisponible-to-GestionarMiembrosView" style="stroke:#181818;stroke-width:1;"/><polygon fill="#181818" points="400.43,59,391.43,55,395.43,59,391.43,63,400.43,59" style="stroke:#181818;stroke-width:1;"/><text fill="#000000" font-family="sans-serif" font-size="13" lengthAdjust="spacing" textLength="198.3325" x="184.25" y="52.0669">1: expulsarMiembro(miembro)</text></g><!--link GestionarMiembrosView to SistemaDisponible--><g class="link" data-entity-1="ent0004" data-entity-2="ent0008" data-link-type="dependency" data-source-line="20" id="lnk13"><path d="M400.43,59 C329.4,59 239.4,59 172.33,59" fill="none" id="GestionarMiembrosView-to-SistemaDisponible" style="stroke:#181818;stroke-width:1;"/><polygon fill="#181818" points="166.33,59,175.33,63,171.33,59,175.33,55,166.33,59" style="stroke:#181818;stroke-width:1;"/><text fill="#000000" font-family="sans-serif" font-size="13" lengthAdjust="spacing" textLength="194.251" x="186.25" y="52.0669">4: sistemaDisponible(usuario)</text></g><!--link GestionarMiembrosView to MembresiasController--><g class="link" data-entity-1="ent0004" data-entity-2="ent0005" data-link-type="dependency" data-source-line="14" id="lnk10"><path d="M494.45,77.13 C492.92,102.23 490.4449,142.7711 488.9149,167.8811" fill="none" id="GestionarMiembrosView-to-MembresiasController" style="stroke:#181818;stroke-width:1;"/><polygon fill="#181818" points="488.55,173.87,493.09,165.1299,488.8541,168.8793,485.1048,164.6434,488.55,173.87" style="stroke:#181818;stroke-width:1;"/><text fill="#000000" font-family="sans-serif" font-size="13" lengthAdjust="spacing" textLength="215.1982" x="491.5" y="140.0669">2: procesarExpulsion(idMiembro)</text></g><!--link MembresiasController to MiembroRepository--><g class="link" data-entity-1="ent0005" data-entity-2="ent0006" data-link-type="dependency" data-source-line="16" id="lnk11"><path d="M486.09,210.34 C484.4,231.2 482.063,259.9995 480.383,280.7995" fill="none" id="MembresiasController-to-MiembroRepository" style="stroke:#181818;stroke-width:1;"/><polygon fill="#181818" points="479.9,286.78,484.6116,278.1312,480.3025,281.7962,476.6375,277.4872,479.9,286.78" style="stroke:#181818;stroke-width:1;"/><text fill="#000000" font-family="sans-serif" font-size="13" lengthAdjust="spacing" textLength="220.7017" x="484.5" y="253.0669">3: eliminarMembresia(idMiembro)</text></g><!--link MiembroRepository to MiembroGrupo--><g class="link" data-entity-1="ent0006" data-entity-2="ent0007" data-link-type="association" data-source-line="18" id="lnk12"><path d="M478.5,323.42 C478.5,340.57 478.5,366.58 478.5,383.69" fill="none" id="MiembroRepository-MiembroGrupo" style="stroke:#181818;stroke-width:1;"/></g><?plantuml-src VP8nJyCm48Lt_ufJM98X0w6jg0UaagQTie1WTz9JTQfZMxOZY13_7OSMGjCKBvQVtllaUxOxa3B2YWOaAVITGJ1QTls1CL5xRU75jSAIPaRK1x57G4aDAM5BmgQo6eI3QAJ5IGGV3CAoM7kXzXBXPf4jYyqIjkWywS7hNWdVnjvgNkqMzr3s3dGaNAwLjrfAj6Fh9blbim9Ej2Sqsb6uTlU_RsjRezad-sF8ryNZQWuHVoRdiH6m9cUqeafYr0zvaWULiGi9Kfi-J8_8uPO3lfjMkg6dvhWdZ4rc8Dq5t5GB738EnkeQ0wtufePqJBlobpWLWxJdZQlYSCU7P_s9dSF6cK0wx_BQ17qX5prnc75mOpLkZryj-G80?></g></svg>