<?plantuml 1.2026.2?><svg xmlns="http://www.w3.org/2000/svg" xmlns:xlink="http://www.w3.org/1999/xlink" contentStyleType="text/css" data-diagram-type="SEQUENCE" height="732px" preserveAspectRatio="none" style="width:1287px;height:732px;background:#FFFFFF;" version="1.1" viewBox="0 0 1287 732" width="1287px" zoomAndPan="magnify"><defs/><g><rect fill="none" height="294.1328" style="stroke:#000000;stroke-width:1.5;" width="1270.4185" x="10" y="414.625"/><g class="participant-lifeline" data-entity-uid="part1" data-qualified-name="Usuario" id="part1-lifeline"><g><title>Usuario</title><rect fill="#000000" fill-opacity="0.00000" height="644.4609" width="8" x="45.6021" y="81.2969"/><line style="stroke:#181818;stroke-width:0.5;stroke-dasharray:5,5;" x1="49" x2="49" y1="81.2969" y2="725.7578"/></g></g><g class="participant-lifeline" data-entity-uid="part2" data-qualified-name="V" id="part2-lifeline"><g><title>Vista. TaskItem</title><rect fill="#000000" fill-opacity="0.00000" height="644.4609" width="8" x="211.9292" y="81.2969"/><line style="stroke:#181818;stroke-width:0.5;stroke-dasharray:5,5;" x1="215.7305" x2="215.7305" y1="81.2969" y2="725.7578"/></g></g><g class="participant-lifeline" data-entity-uid="part3" data-qualified-name="C" id="part3-lifeline"><g><title>Controller. TaskRouter</title><rect fill="#000000" fill-opacity="0.00000" height="644.4609" width="8" x="583.5586" y="81.2969"/><line style="stroke:#181818;stroke-width:0.5;stroke-dasharray:5,5;" x1="586.6104" x2="586.6104" y1="81.2969" y2="725.7578"/></g></g><g class="participant-lifeline" data-entity-uid="part4" data-qualified-name="S" id="part4-lifeline"><g><title>Service. TaskService</title><rect fill="#000000" fill-opacity="0.00000" height="644.4609" width="8" x="819.9258" y="81.2969"/><line style="stroke:#181818;stroke-width:0.5;stroke-dasharray:5,5;" x1="823.335" x2="823.335" y1="81.2969" y2="725.7578"/></g></g><g class="participant-lifeline" data-entity-uid="part5" data-qualified-name="R" id="part5-lifeline"><g><title>Repository. TaskRepository</title><rect fill="#000000" fill-opacity="0.00000" height="644.4609" width="8" x="1056.9253" y="81.2969"/><line style="stroke:#181818;stroke-width:0.5;stroke-dasharray:5,5;" x1="1060.0034" x2="1060.0034" y1="81.2969" y2="725.7578"/></g></g><g class="participant-lifeline" data-entity-uid="part6" data-qualified-name="T" id="part6-lifeline"><g><title>Entity. Task</title><rect fill="#000000" fill-opacity="0.00000" height="644.4609" width="8" x="1218.1328" y="81.2969"/><line style="stroke:#181818;stroke-width:0.5;stroke-dasharray:5,5;" x1="1221.8472" x2="1221.8472" y1="81.2969" y2="725.7578"/></g></g><g class="participant participant-head" data-entity-uid="part1" data-qualified-name="Usuario" id="part1-head"><text fill="#000000" font-family="sans-serif" font-size="14" lengthAdjust="spacing" textLength="53.2041" x="20" y="77.9951">Usuario</text><ellipse cx="49.6021" cy="13.5" fill="#E2E2F0" rx="8" ry="8" style="stroke:#181818;stroke-width:0.5;"/><path d="M49.6021,21.5 L49.6021,48.5 M36.6021,29.5 L62.6021,29.5 M49.6021,48.5 L36.6021,63.5 M49.6021,48.5 L62.6021,63.5" fill="none" style="stroke:#181818;stroke-width:0.5;"/></g><g class="participant participant-head" data-entity-uid="part2" data-qualified-name="V" id="part2-head"><rect fill="#E2E2F0" height="30.2969" rx="2.5" ry="2.5" style="stroke:#181818;stroke-width:0.5;" width="122.3975" x="154.7305" y="50"/><text fill="#000000" font-family="sans-serif" font-size="14" lengthAdjust="spacing" textLength="108.3975" x="161.7305" y="69.9951">Vista: TaskItem</text></g><g class="participant participant-head" data-entity-uid="part3" data-qualified-name="C" id="part3-head"><rect fill="#E2E2F0" height="30.2969" rx="2.5" ry="2.5" style="stroke:#181818;stroke-width:0.5;" width="171.8965" x="501.6104" y="50"/><text fill="#000000" font-family="sans-serif" font-size="14" lengthAdjust="spacing" textLength="157.8965" x="508.6104" y="69.9951">Controller: TaskRouter</text></g><g class="participant participant-head" data-entity-uid="part4" data-qualified-name="S" id="part4-head"><rect fill="#E2E2F0" height="30.2969" rx="2.5" ry="2.5" style="stroke:#181818;stroke-width:0.5;" width="159.1816" x="744.335" y="50"/><text fill="#000000" font-family="sans-serif" font-size="14" lengthAdjust="spacing" textLength="145.1816" x="751.335" y="69.9951">Service: TaskService</text></g><g class="participant participant-head" data-entity-uid="part5" data-qualified-name="R" id="part5-head"><rect fill="#E2E2F0" height="30.2969" rx="2.5" ry="2.5" style="stroke:#181818;stroke-width:0.5;" width="205.8438" x="958.0034" y="50"/><text fill="#000000" font-family="sans-serif" font-size="14" lengthAdjust="spacing" textLength="191.8438" x="965.0034" y="69.9951">Repository: TaskRepository</text></g><g class="participant participant-head" data-entity-uid="part6" data-qualified-name="T" id="part6-head"><rect fill="#E2E2F0" height="30.2969" rx="2.5" ry="2.5" style="stroke:#181818;stroke-width:0.5;" width="96.5713" x="1173.8472" y="50"/><text fill="#000000" font-family="sans-serif" font-size="14" lengthAdjust="spacing" textLength="82.5713" x="1180.8472" y="69.9951">Entity: Task</text></g><g class="message" data-entity-1="part1" data-entity-2="part2" id="msg1"><polygon fill="#181818" points="203.9292,108.4297,213.9292,112.4297,203.9292,116.4297" style="stroke:#181818;stroke-width:1;"/><line style="stroke:#181818;stroke-width:1;" x1="49.6021" x2="209.9292" y1="112.4297" y2="112.4297"/><text fill="#000000" font-family="sans-serif" font-size="13" lengthAdjust="spacing" textLength="135.4146" x="56.6021" y="107.3638">marcarCompletada()</text></g><g class="message" data-entity-1="part2" data-entity-2="part3" id="msg2"><polygon fill="#181818" points="575.5586,137.5625,585.5586,141.5625,575.5586,145.5625" style="stroke:#181818;stroke-width:1;"/><line style="stroke:#181818;stroke-width:1;" x1="215.9292" x2="581.5586" y1="141.5625" y2="141.5625"/><text fill="#000000" font-family="sans-serif" font-size="13" lengthAdjust="spacing" textLength="341.4658" x="222.9292" y="136.4966">HTTP PATCH /tasks/{id}/status (is_completed=True)</text></g><g class="message" data-entity-1="part3" data-entity-2="part4" id="msg3"><polygon fill="#181818" points="811.9258,166.6953,821.9258,170.6953,811.9258,174.6953" style="stroke:#181818;stroke-width:1;"/><line style="stroke:#181818;stroke-width:1;" x1="587.5586" x2="817.9258" y1="170.6953" y2="170.6953"/><text fill="#000000" font-family="sans-serif" font-size="13" lengthAdjust="spacing" textLength="186.0879" x="594.5586" y="165.6294">mark_task_as_completed(id)</text></g><g class="message" data-entity-1="part4" data-entity-2="part5" id="msg4"><polygon fill="#181818" points="1048.9253,195.8281,1058.9253,199.8281,1048.9253,203.8281" style="stroke:#181818;stroke-width:1;"/><line style="stroke:#181818;stroke-width:1;" x1="823.9258" x2="1054.9253" y1="199.8281" y2="199.8281"/><text fill="#000000" font-family="sans-serif" font-size="13" lengthAdjust="spacing" textLength="84.1636" x="830.9258" y="194.7622">get_by_id(id)</text></g><g class="message" data-entity-1="part5" data-entity-2="part4" id="msg5"><polygon fill="#181818" points="834.9258,224.9609,824.9258,228.9609,834.9258,232.9609" style="stroke:#181818;stroke-width:1;"/><line style="stroke:#181818;stroke-width:1;" x1="828.9258" x2="1059.9253" y1="228.9609" y2="228.9609"/><text fill="#000000" font-family="sans-serif" font-size="13" lengthAdjust="spacing" textLength="53.6821" x="840.9258" y="223.895">task_obj</text></g><path d="M698,241.9609 L698,266.9609 L948,266.9609 L948,251.9609 L938,241.9609 L698,241.9609" fill="#FEFFDD" style="stroke:#181818;stroke-width:0.5;"/><path d="M938,241.9609 L938,251.9609 L948,251.9609 L938,241.9609" fill="#FEFFDD" style="stroke:#181818;stroke-width:0.5;"/><text fill="#000000" font-family="sans-serif" font-size="13" lengthAdjust="spacing" textLength="229.1694" x="704" y="259.0278">Validaci&#243;n de Permisos (BR-MC-01)</text><g class="message" data-entity-1="part4" data-entity-2="part4" id="msg6"><line style="stroke:#181818;stroke-width:1;" x1="823.9258" x2="865.9258" y1="293.2266" y2="293.2266"/><line style="stroke:#181818;stroke-width:1;" x1="865.9258" x2="865.9258" y1="293.2266" y2="306.2266"/><line style="stroke:#181818;stroke-width:1;" x1="824.9258" x2="865.9258" y1="306.2266" y2="306.2266"/><polygon fill="#181818" points="834.9258,302.2266,824.9258,306.2266,834.9258,310.2266" style="stroke:#181818;stroke-width:1;"/><text fill="#000000" font-family="sans-serif" font-size="13" lengthAdjust="spacing" textLength="222.9995" x="830.9258" y="288.1606">check_permissions(user, task_obj)</text></g><path d="M682,319.2266 L682,344.2266 L965,344.2266 L965,329.2266 L955,319.2266 L682,319.2266" fill="#FEFFDD" style="stroke:#181818;stroke-width:0.5;"/><path d="M955,319.2266 L955,329.2266 L965,329.2266 L955,319.2266" fill="#FEFFDD" style="stroke:#181818;stroke-width:0.5;"/><text fill="#000000" font-family="sans-serif" font-size="13" lengthAdjust="spacing" textLength="262.6978" x="688" y="336.2935">Validaci&#243;n de Dependencias (BR-MC-02)</text><g class="message" data-entity-1="part4" data-entity-2="part5" id="msg7"><polygon fill="#181818" points="1048.9253,366.4922,1058.9253,370.4922,1048.9253,374.4922" style="stroke:#181818;stroke-width:1;"/><line style="stroke:#181818;stroke-width:1;" x1="823.9258" x2="1054.9253" y1="370.4922" y2="370.4922"/><text fill="#000000" font-family="sans-serif" font-size="13" lengthAdjust="spacing" textLength="195.8062" x="830.9258" y="365.4263">get_pending_predecessors(id)</text></g><g class="message" data-entity-1="part5" data-entity-2="part4" id="msg8"><polygon fill="#181818" points="834.9258,395.625,824.9258,399.625,834.9258,403.625" style="stroke:#181818;stroke-width:1;"/><line style="stroke:#181818;stroke-width:1;" x1="828.9258" x2="1059.9253" y1="399.625" y2="399.625"/><text fill="#000000" font-family="sans-serif" font-size="13" lengthAdjust="spacing" textLength="165.458" x="840.9258" y="394.5591">List&lt;Task&gt; predecessors</text></g><path d="M10,414.625 L74.4429,414.625 L74.4429,421.7578 L64.4429,431.7578 L10,431.7578 L10,414.625" fill="#EEEEEE" style="stroke:#000000;stroke-width:1.5;"/><rect fill="none" height="294.1328" style="stroke:#000000;stroke-width:1.5;" width="1270.4185" x="10" y="414.625"/><text fill="#000000" font-family="sans-serif" font-size="13" font-weight="bold" lengthAdjust="spacing" textLength="19.4429" x="25" y="427.6919">alt</text><text fill="#000000" font-family="sans-serif" font-size="11" font-weight="bold" lengthAdjust="spacing" textLength="425.0576" x="89.4429" y="426.8354">[si existen predecesores pendientes (!is_completed &amp;&amp; !is_deleted)]</text><g class="message" data-entity-1="part4" data-entity-2="part3" id="msg9"><polygon fill="#181818" points="598.5586,448.8906,588.5586,452.8906,598.5586,456.8906" style="stroke:#181818;stroke-width:1;"/><line style="stroke:#181818;stroke-width:1;" x1="592.5586" x2="822.9258" y1="452.8906" y2="452.8906"/><text fill="#000000" font-family="sans-serif" font-size="13" lengthAdjust="spacing" textLength="212.3672" x="604.5586" y="447.8247">throw DependencyViolationError</text></g><g class="message" data-entity-1="part3" data-entity-2="part2" id="msg10"><polygon fill="#181818" points="226.9292,478.0234,216.9292,482.0234,226.9292,486.0234" style="stroke:#181818;stroke-width:1;"/><line style="stroke:#181818;stroke-width:1;" x1="220.9292" x2="586.5586" y1="482.0234" y2="482.0234"/><text fill="#000000" font-family="sans-serif" font-size="13" lengthAdjust="spacing" textLength="347.6294" x="232.9292" y="476.9575">400 Bad Request (Error: "Dependencias pendientes")</text></g><g class="message" data-entity-1="part2" data-entity-2="part1" id="msg11"><polygon fill="#181818" points="60.6021,507.1563,50.6021,511.1563,60.6021,515.1563" style="stroke:#181818;stroke-width:1;"/><line style="stroke:#181818;stroke-width:1;" x1="54.6021" x2="214.9292" y1="511.1563" y2="511.1563"/><text fill="#000000" font-family="sans-serif" font-size="13" lengthAdjust="spacing" textLength="85.814" x="66.6021" y="506.0903">Mostrar error</text></g><line style="stroke:#000000;stroke-width:1;stroke-dasharray:2,2;" x1="10" x2="1280.4185" y1="520.1563" y2="520.1563"/><text fill="#000000" font-family="sans-serif" font-size="11" font-weight="bold" lengthAdjust="spacing" textLength="204.4883" x="15" y="530.3667">[todas las dependencias limpias]</text><g class="message" data-entity-1="part4" data-entity-2="part6" id="msg12"><polygon fill="#181818" points="1210.1328,551.0938,1220.1328,555.0938,1210.1328,559.0938" style="stroke:#181818;stroke-width:1;"/><line style="stroke:#181818;stroke-width:1;" x1="823.9258" x2="1216.1328" y1="555.0938" y2="555.0938"/><text fill="#000000" font-family="sans-serif" font-size="13" lengthAdjust="spacing" textLength="151.8931" x="830.9258" y="550.0278">set_is_completed(True)</text></g><g class="message" data-entity-1="part4" data-entity-2="part5" id="msg13"><polygon fill="#181818" points="1048.9253,580.2266,1058.9253,584.2266,1048.9253,588.2266" style="stroke:#181818;stroke-width:1;"/><line style="stroke:#181818;stroke-width:1;" x1="823.9258" x2="1054.9253" y1="584.2266" y2="584.2266"/><text fill="#000000" font-family="sans-serif" font-size="13" lengthAdjust="spacing" textLength="109.6304" x="830.9258" y="579.1606">update(task_obj)</text></g><g class="message" data-entity-1="part5" data-entity-2="part4" id="msg14"><polygon fill="#181818" points="834.9258,609.3594,824.9258,613.3594,834.9258,617.3594" style="stroke:#181818;stroke-width:1;"/><line style="stroke:#181818;stroke-width:1;" x1="828.9258" x2="1059.9253" y1="613.3594" y2="613.3594"/><text fill="#000000" font-family="sans-serif" font-size="13" lengthAdjust="spacing" textLength="50.8511" x="840.9258" y="608.2935">success</text></g><g class="message" data-entity-1="part4" data-entity-2="part3" id="msg15"><polygon fill="#181818" points="598.5586,638.4922,588.5586,642.4922,598.5586,646.4922" style="stroke:#181818;stroke-width:1;"/><line style="stroke:#181818;stroke-width:1;" x1="592.5586" x2="822.9258" y1="642.4922" y2="642.4922"/><text fill="#000000" font-family="sans-serif" font-size="13" lengthAdjust="spacing" textLength="87.9214" x="604.5586" y="637.4263">updated_task</text></g><g class="message" data-entity-1="part3" data-entity-2="part2" id="msg16"><polygon fill="#181818" points="226.9292,667.625,216.9292,671.625,226.9292,675.625" style="stroke:#181818;stroke-width:1;"/><line style="stroke:#181818;stroke-width:1;" x1="220.9292" x2="586.5586" y1="671.625" y2="671.625"/><text fill="#000000" font-family="sans-serif" font-size="13" lengthAdjust="spacing" textLength="47.7026" x="232.9292" y="666.5591">200 OK</text></g><g class="message" data-entity-1="part2" data-entity-2="part1" id="msg17"><polygon fill="#181818" points="60.6021,696.7578,50.6021,700.7578,60.6021,704.7578" style="stroke:#181818;stroke-width:1;"/><line style="stroke:#181818;stroke-width:1;" x1="54.6021" x2="214.9292" y1="700.7578" y2="700.7578"/><text fill="#000000" font-family="sans-serif" font-size="13" lengthAdjust="spacing" textLength="142.3271" x="66.6021" y="695.6919">Actualizar Checkmark</text></g><?plantuml-src XPDlRzCm4CRV-rCSVJ6bqggMYLSLcxI5IKCmKQKXRoFFFcscYHtiow0WFjK-0b-CizD_GKXKQbFxVdU-v_maR8pjf9Sj1DesoB_UAEhRHaX5piFdq4jld626Z3ATj0IJoWIIIoXbsBmdR2SW0rHZ97UMl6iQz0DNk9xG9p8VaslqpqRXWEqMYLkFkG8x5mptjDrLFAmJNOpfMqk6TcIAbqBijC3i2YfOGYkzaZvtRTSWIIspgQXYBEVONLckO7LTvdSm9ouHvZ-D_ZLdsTG7o4oerP27-hBqFKv57bFNGzbD7NDgUK9bHa_5EZ85Cuz8zSEsDiDsiKzDMUxXYn3M4O9xHf_sAzaOBPNv_M918wpGjoOuxkEccDtdiyNhNUd8gYTKcxfBI33EXgmFwCyFjQV_AVuEExGQhJBoUC35Nxr7nDZ7klEeKM48peUnb8ziaRTn-5Tm2WaX6u9W0BypWFOGT1u3fB9eYVzchqvd36Td43SqfkLK07_M-ykY9---7HlVLiOrabZxhVVE9pRVN_gRnG9kf8O2l_OO2BB4B64oqdriP3ASbOonzyyIxXs_9z83fWEm2GZaD2Ss_DMdbHhJTlmyDbnoUk0HdihB1WiTc3ZcljEIC3jUMumUnXjw5ISwdiEGefFvngelMFMd3_zISiqlEnlW1ul9etEYUmMt_mS0?></g></svg>