<?plantuml 1.2026.2?><svg xmlns="http://www.w3.org/2000/svg" xmlns:xlink="http://www.w3.org/1999/xlink" contentStyleType="text/css" data-diagram-type="CLASS" height="1034px" preserveAspectRatio="none" style="width:746px;height:1034px;background:#FFFFFF;" version="1.1" viewBox="0 0 746 1034" width="746px" zoomAndPan="magnify"><defs/><g><!--cluster Capa UI (React)--><g class="cluster" data-qualified-name="Capa UI .React." data-source-line="4" id="ent0002"><path d="M180.5,11 L304.5264,11 A3.75,3.75 0 0 1 307.0264,13.5 L314.0264,33.2969 L569.5,33.2969 A2.5,2.5 0 0 1 572,35.7969 L572,298.5 A2.5,2.5 0 0 1 569.5,301 L180.5,301 A2.5,2.5 0 0 1 178,298.5 L178,13.5 A2.5,2.5 0 0 1 180.5,11" fill="#FFFFFF" style="stroke:#000000;stroke-width:1;"/><line style="stroke:#000000;stroke-width:1;" x1="178" x2="314.0264" y1="33.2969" y2="33.2969"/><text fill="#000000" font-family="Verdana" font-size="14" font-weight="bold" lengthAdjust="spacing" textLength="123.0264" x="182" y="25.9951">Capa UI (React)</text></g><!--cluster Capa API (FastAPI)--><g class="cluster" data-qualified-name="Capa API .FastAPI." data-source-line="14" id="ent0005"><path d="M13.5,350 L162.8809,350 A3.75,3.75 0 0 1 165.3809,352.5 L172.3809,372.2969 L736.5,372.2969 A2.5,2.5 0 0 1 739,374.7969 L739,819.5 A2.5,2.5 0 0 1 736.5,822 L13.5,822 A2.5,2.5 0 0 1 11,819.5 L11,352.5 A2.5,2.5 0 0 1 13.5,350" fill="#FFFFFF" style="stroke:#000000;stroke-width:1;"/><line style="stroke:#000000;stroke-width:1;" x1="11" x2="172.3809" y1="372.2969" y2="372.2969"/><text fill="#000000" font-family="Verdana" font-size="14" font-weight="bold" lengthAdjust="spacing" textLength="148.3809" x="15" y="364.9951">Capa API (FastAPI)</text></g><!--cluster Capa Datos (SQLAlchemy)--><g class="cluster" data-qualified-name="Capa Datos .SQLAlchemy." data-source-line="32" id="ent0010"><path d="M396.5,871 L602.9609,871 A3.75,3.75 0 0 1 605.4609,873.5 L612.4609,893.2969 L612.5,893.2969 A2.5,2.5 0 0 1 615,895.7969 L615,1024.5 A2.5,2.5 0 0 1 612.5,1027 L396.5,1027 A2.5,2.5 0 0 1 394,1024.5 L394,873.5 A2.5,2.5 0 0 1 396.5,871" fill="#FFFFFF" style="stroke:#000000;stroke-width:1;"/><line style="stroke:#000000;stroke-width:1;" x1="394" x2="612.4609" y1="893.2969" y2="893.2969"/><text fill="#000000" font-family="Verdana" font-size="14" font-weight="bold" lengthAdjust="spacing" textLength="205.4609" x="398" y="885.9951">Capa Datos (SQLAlchemy)</text></g><!--class EditTaskModal--><g class="entity" data-qualified-name="Capa UI .React..EditTaskModal" data-source-line="5" id="ent0003"><rect fill="#FFFFFF" height="88.8594" rx="2.5" ry="2.5" style="stroke:#000000;stroke-width:1;" width="228.6377" x="260.5" y="46"/><ellipse cx="320.2471" cy="66.1328" fill="#FFFFFF" rx="9" ry="9" style="stroke:#000000;stroke-width:1;"/><path d="M323.2158,71.7734 Q322.6377,72.0703 321.9971,72.2109 Q321.3564,72.3672 320.6533,72.3672 Q318.1533,72.3672 316.8252,70.7266 Q315.5127,69.0703 315.5127,65.9453 Q315.5127,62.8203 316.8252,61.1641 Q318.1533,59.5078 320.6533,59.5078 Q321.3564,59.5078 321.9971,59.6641 Q322.6533,59.8203 323.2158,60.1172 L323.2158,62.8359 Q322.5908,62.2578 321.9971,61.9922 Q321.4033,61.7109 320.7783,61.7109 Q319.4346,61.7109 318.7471,62.7891 Q318.0596,63.8516 318.0596,65.9453 Q318.0596,68.0391 318.7471,69.1172 Q319.4346,70.1797 320.7783,70.1797 Q321.4033,70.1797 321.9971,69.9141 Q322.5908,69.6328 323.2158,69.0547 L323.2158,71.7734 Z " fill="#000000"/><text fill="#000000" font-family="Verdana" font-size="12" font-style="italic" lengthAdjust="spacing" textLength="71.9883" x="352.5747" y="62.1387">&#171;boundary&#187;</text><text fill="#000000" font-family="Verdana" font-size="14" lengthAdjust="spacing" textLength="101.6436" x="337.7471" y="77.9639">EditTaskModal</text><line style="stroke:#000000;stroke-width:1;" x1="261.5" x2="488.1377" y1="86.2656" y2="86.2656"/><text fill="#000000" font-family="Verdana" font-size="14" lengthAdjust="spacing" textLength="216.6377" x="266.5" y="103.2607">-taskData: TaskUpdateSchema</text><line style="stroke:#000000;stroke-width:1;" x1="261.5" x2="488.1377" y1="110.5625" y2="110.5625"/><text fill="#000000" font-family="Verdana" font-size="14" lengthAdjust="spacing" textLength="121.0713" x="266.5" y="127.5576">+handleUpdate()</text></g><!--class useTasks--><g class="entity" data-qualified-name="Capa UI .React..useTasks" data-source-line="9" id="ent0004"><rect fill="#FFFFFF" height="72.5625" rx="2.5" ry="2.5" style="stroke:#000000;stroke-width:1;" width="362.9844" x="193.5" y="212"/><ellipse cx="338.939" cy="232.1328" fill="#FFFFFF" rx="9" ry="9" style="stroke:#000000;stroke-width:1;"/><path d="M341.9077,237.7734 Q341.3296,238.0703 340.689,238.2109 Q340.0483,238.3672 339.3452,238.3672 Q336.8452,238.3672 335.5171,236.7266 Q334.2046,235.0703 334.2046,231.9453 Q334.2046,228.8203 335.5171,227.1641 Q336.8452,225.5078 339.3452,225.5078 Q340.0483,225.5078 340.689,225.6641 Q341.3452,225.8203 341.9077,226.1172 L341.9077,228.8359 Q341.2827,228.2578 340.689,227.9922 Q340.0952,227.7109 339.4702,227.7109 Q338.1265,227.7109 337.439,228.7891 Q336.7515,229.8516 336.7515,231.9453 Q336.7515,234.0391 337.439,235.1172 Q338.1265,236.1797 339.4702,236.1797 Q340.0952,236.1797 340.689,235.9141 Q341.2827,235.6328 341.9077,235.0547 L341.9077,237.7734 Z " fill="#000000"/><text fill="#000000" font-family="Verdana" font-size="12" font-style="italic" lengthAdjust="spacing" textLength="56.6719" x="360.4063" y="228.1387">&#171;control&#187;</text><text fill="#000000" font-family="Verdana" font-size="14" lengthAdjust="spacing" textLength="64.6064" x="356.439" y="243.9639">useTasks</text><line style="stroke:#000000;stroke-width:1;" x1="194.5" x2="555.4844" y1="252.2656" y2="252.2656"/><line style="stroke:#000000;stroke-width:1;" x1="194.5" x2="555.4844" y1="260.2656" y2="260.2656"/><text fill="#000000" font-family="Verdana" font-size="14" lengthAdjust="spacing" textLength="350.9844" x="199.5" y="277.2607">+updateTask(id: UUID, data: TaskUpdateSchema)</text></g><!--class TaskRouter--><g class="entity" data-qualified-name="Capa API .FastAPI..TaskRouter" data-source-line="15" id="ent0006"><rect fill="#FFFFFF" height="72.5625" rx="2.5" ry="2.5" style="stroke:#000000;stroke-width:1;" width="449.9854" x="150" y="385"/><ellipse cx="331.4644" cy="405.1328" fill="#FFFFFF" rx="9" ry="9" style="stroke:#000000;stroke-width:1;"/><path d="M334.4331,410.7734 Q333.855,411.0703 333.2144,411.2109 Q332.5737,411.3672 331.8706,411.3672 Q329.3706,411.3672 328.0425,409.7266 Q326.73,408.0703 326.73,404.9453 Q326.73,401.8203 328.0425,400.1641 Q329.3706,398.5078 331.8706,398.5078 Q332.5737,398.5078 333.2144,398.6641 Q333.8706,398.8203 334.4331,399.1172 L334.4331,401.8359 Q333.8081,401.2578 333.2144,400.9922 Q332.6206,400.7109 331.9956,400.7109 Q330.6519,400.7109 329.9644,401.7891 Q329.2769,402.8516 329.2769,404.9453 Q329.2769,407.0391 329.9644,408.1172 Q330.6519,409.1797 331.9956,409.1797 Q332.6206,409.1797 333.2144,408.9141 Q333.8081,408.6328 334.4331,408.0547 L334.4331,410.7734 Z " fill="#000000"/><text fill="#000000" font-family="Verdana" font-size="12" font-style="italic" lengthAdjust="spacing" textLength="71.9883" x="352.7485" y="401.1387">&#171;boundary&#187;</text><text fill="#000000" font-family="Verdana" font-size="14" lengthAdjust="spacing" textLength="79.5566" x="348.9644" y="416.9639">TaskRouter</text><line style="stroke:#000000;stroke-width:1;" x1="151" x2="598.9854" y1="425.2656" y2="425.2656"/><line style="stroke:#000000;stroke-width:1;" x1="151" x2="598.9854" y1="433.2656" y2="433.2656"/><text fill="#000000" font-family="Verdana" font-size="14" lengthAdjust="spacing" textLength="437.9854" x="156" y="450.2607">+update_task(task_id, task_in, current_user, db): TaskSchema</text></g><!--class TaskUpdateSchema--><g class="entity" data-qualified-name="Capa API .FastAPI..TaskUpdateSchema" data-source-line="18" id="ent0007"><rect fill="#FFFFFF" height="105.1563" rx="2.5" ry="2.5" style="stroke:#000000;stroke-width:1;" width="223.1758" x="26.5" y="535"/><ellipse cx="64.5771" cy="555.1328" fill="#FFFFFF" rx="9" ry="9" style="stroke:#000000;stroke-width:1;"/><path d="M67.5459,560.7734 Q66.9678,561.0703 66.3271,561.2109 Q65.6865,561.3672 64.9834,561.3672 Q62.4834,561.3672 61.1553,559.7266 Q59.8428,558.0703 59.8428,554.9453 Q59.8428,551.8203 61.1553,550.1641 Q62.4834,548.5078 64.9834,548.5078 Q65.6865,548.5078 66.3271,548.6641 Q66.9834,548.8203 67.5459,549.1172 L67.5459,551.8359 Q66.9209,551.2578 66.3271,550.9922 Q65.7334,550.7109 65.1084,550.7109 Q63.7646,550.7109 63.0771,551.7891 Q62.3896,552.8516 62.3896,554.9453 Q62.3896,557.0391 63.0771,558.1172 Q63.7646,559.1797 65.1084,559.1797 Q65.7334,559.1797 66.3271,558.9141 Q66.9209,558.6328 67.5459,558.0547 L67.5459,560.7734 Z " fill="#000000"/><text fill="#000000" font-family="Verdana" font-size="12" font-style="italic" lengthAdjust="spacing" textLength="34.4766" x="134.5996" y="551.1387">&#171;dto&#187;</text><text fill="#000000" font-family="Verdana" font-size="14" lengthAdjust="spacing" textLength="139.5215" x="82.0771" y="566.9639">TaskUpdateSchema</text><line style="stroke:#000000;stroke-width:1;" x1="27.5" x2="248.6758" y1="575.2656" y2="575.2656"/><text fill="#000000" font-family="Verdana" font-size="14" lengthAdjust="spacing" textLength="136.9238" x="32.5" y="592.2607">+title: Optional[str]</text><text fill="#000000" font-family="Verdana" font-size="14" lengthAdjust="spacing" textLength="187.3936" x="32.5" y="608.5576">+description: Optional[str]</text><text fill="#000000" font-family="Verdana" font-size="14" lengthAdjust="spacing" textLength="211.1758" x="32.5" y="624.8545">+status: Optional[TaskStatus]</text><line style="stroke:#000000;stroke-width:1;" x1="27.5" x2="248.6758" y1="632.1563" y2="632.1563"/></g><!--class TaskService--><g class="entity" data-qualified-name="Capa API .FastAPI..TaskService" data-source-line="23" id="ent0008"><rect fill="#FFFFFF" height="72.5625" rx="2.5" ry="2.5" style="stroke:#000000;stroke-width:1;" width="438.2207" x="285" y="551"/><ellipse cx="458.2236" cy="571.1328" fill="#FFFFFF" rx="9" ry="9" style="stroke:#000000;stroke-width:1;"/><path d="M461.1924,576.7734 Q460.6143,577.0703 459.9736,577.2109 Q459.333,577.3672 458.6299,577.3672 Q456.1299,577.3672 454.8018,575.7266 Q453.4893,574.0703 453.4893,570.9453 Q453.4893,567.8203 454.8018,566.1641 Q456.1299,564.5078 458.6299,564.5078 Q459.333,564.5078 459.9736,564.6641 Q460.6299,564.8203 461.1924,565.1172 L461.1924,567.8359 Q460.5674,567.2578 459.9736,566.9922 Q459.3799,566.7109 458.7549,566.7109 Q457.4111,566.7109 456.7236,567.7891 Q456.0361,568.8516 456.0361,570.9453 Q456.0361,573.0391 456.7236,574.1172 Q457.4111,575.1797 458.7549,575.1797 Q459.3799,575.1797 459.9736,574.9141 Q460.5674,574.6328 461.1924,574.0547 L461.1924,576.7734 Z " fill="#000000"/><text fill="#000000" font-family="Verdana" font-size="12" font-style="italic" lengthAdjust="spacing" textLength="56.6719" x="489.5244" y="567.1387">&#171;control&#187;</text><text fill="#000000" font-family="Verdana" font-size="14" lengthAdjust="spacing" textLength="84.2734" x="475.7236" y="582.9639">TaskService</text><line style="stroke:#000000;stroke-width:1;" x1="286" x2="722.2207" y1="591.2656" y2="591.2656"/><line style="stroke:#000000;stroke-width:1;" x1="286" x2="722.2207" y1="599.2656" y2="599.2656"/><text fill="#000000" font-family="Verdana" font-size="14" lengthAdjust="spacing" textLength="426.2207" x="291" y="616.2607">+update_existing_task(task_id, data, current_user, db): Task</text></g><!--class TaskRepository--><g class="entity" data-qualified-name="Capa API .FastAPI..TaskRepository" data-source-line="26" id="ent0009"><rect fill="#FFFFFF" height="88.8594" rx="2.5" ry="2.5" style="stroke:#000000;stroke-width:1;" width="221.8018" x="393" y="717"/><ellipse cx="446.3486" cy="737.1328" fill="#FFFFFF" rx="9" ry="9" style="stroke:#000000;stroke-width:1;"/><path d="M449.3174,742.7734 Q448.7393,743.0703 448.0986,743.2109 Q447.458,743.3672 446.7549,743.3672 Q444.2549,743.3672 442.9268,741.7266 Q441.6143,740.0703 441.6143,736.9453 Q441.6143,733.8203 442.9268,732.1641 Q444.2549,730.5078 446.7549,730.5078 Q447.458,730.5078 448.0986,730.6641 Q448.7549,730.8203 449.3174,731.1172 L449.3174,733.8359 Q448.6924,733.2578 448.0986,732.9922 Q447.5049,732.7109 446.8799,732.7109 Q445.5361,732.7109 444.8486,733.7891 Q444.1611,734.8516 444.1611,736.9453 Q444.1611,739.0391 444.8486,740.1172 Q445.5361,741.1797 446.8799,741.1797 Q447.5049,741.1797 448.0986,740.9141 Q448.6924,740.6328 449.3174,740.0547 L449.3174,742.7734 Z " fill="#000000"/><text fill="#000000" font-family="Verdana" font-size="12" font-style="italic" lengthAdjust="spacing" textLength="49.6465" x="492.8276" y="733.1387">&#171;entity&#187;</text><text fill="#000000" font-family="Verdana" font-size="14" lengthAdjust="spacing" textLength="107.6045" x="463.8486" y="748.9639">TaskRepository</text><line style="stroke:#000000;stroke-width:1;" x1="394" x2="613.8018" y1="757.2656" y2="757.2656"/><line style="stroke:#000000;stroke-width:1;" x1="394" x2="613.8018" y1="765.2656" y2="765.2656"/><text fill="#000000" font-family="Verdana" font-size="14" lengthAdjust="spacing" textLength="144.0674" x="399" y="782.2607">+get_by_id(id): Task</text><text fill="#000000" font-family="Verdana" font-size="14" lengthAdjust="spacing" textLength="209.8018" x="399" y="798.5576">+update(db_obj, obj_in): Task</text></g><!--class Task--><g class="entity" data-qualified-name="Capa Datos .SQLAlchemy..Task" data-source-line="33" id="ent0011"><rect fill="#FFFFFF" height="105.1563" rx="2.5" ry="2.5" style="stroke:#000000;stroke-width:1;" width="153.0596" x="427.5" y="906"/><ellipse cx="477.4565" cy="926.1328" fill="#FFFFFF" rx="9" ry="9" style="stroke:#000000;stroke-width:1;"/><path d="M480.4253,931.7734 Q479.8472,932.0703 479.2065,932.2109 Q478.5659,932.3672 477.8628,932.3672 Q475.3628,932.3672 474.0347,930.7266 Q472.7222,929.0703 472.7222,925.9453 Q472.7222,922.8203 474.0347,921.1641 Q475.3628,919.5078 477.8628,919.5078 Q478.5659,919.5078 479.2065,919.6641 Q479.8628,919.8203 480.4253,920.1172 L480.4253,922.8359 Q479.8003,922.2578 479.2065,921.9922 Q478.6128,921.7109 477.9878,921.7109 Q476.644,921.7109 475.9565,922.7891 Q475.269,923.8516 475.269,925.9453 Q475.269,928.0391 475.9565,929.1172 Q476.644,930.1797 477.9878,930.1797 Q478.6128,930.1797 479.2065,929.9141 Q479.8003,929.6328 480.4253,929.0547 L480.4253,931.7734 Z " fill="#000000"/><text fill="#000000" font-family="Verdana" font-size="12" font-style="italic" lengthAdjust="spacing" textLength="49.6465" x="492.9565" y="922.1387">&#171;entity&#187;</text><text fill="#000000" font-family="Verdana" font-size="14" lengthAdjust="spacing" textLength="32.5322" x="501.5137" y="937.9639">Task</text><line style="stroke:#000000;stroke-width:1;" x1="428.5" x2="579.5596" y1="946.2656" y2="946.2656"/><text fill="#000000" font-family="Verdana" font-size="14" lengthAdjust="spacing" textLength="69.0771" x="433.5" y="963.2607">+id: UUID</text><text fill="#000000" font-family="Verdana" font-size="14" lengthAdjust="spacing" textLength="66.8076" x="433.5" y="979.5576">+title: str</text><text fill="#000000" font-family="Verdana" font-size="14" lengthAdjust="spacing" textLength="141.0596" x="433.5" y="995.8545">+status: TaskStatus</text><line style="stroke:#000000;stroke-width:1;" x1="428.5" x2="579.5596" y1="1003.1563" y2="1003.1563"/></g><!--link EditTaskModal to useTasks--><g class="link" data-entity-1="ent0003" data-entity-2="ent0004" data-link-type="dependency" data-source-line="40" id="lnk12"><path codeLine="40" d="M375,135.37 C375,159.52 375,183.11 375,205.83" fill="none" id="EditTaskModal-to-useTasks" style="stroke:#000000;stroke-width:1;stroke-dasharray:7,7;"/><polygon fill="#000000" points="375,211.83,379,202.83,375,206.83,371,202.83,375,211.83" style="stroke:#000000;stroke-width:1;"/><text fill="#000000" font-family="Verdana" font-size="13" lengthAdjust="spacing" textLength="22.9785" x="376" y="178.0669">usa</text></g><!--link useTasks to TaskRouter--><g class="link" data-entity-1="ent0004" data-entity-2="ent0006" data-link-type="dependency" data-source-line="41" id="lnk13"><path codeLine="41" d="M375,285.35 C375,314.63 375,349.8 375,378.99" fill="none" id="useTasks-to-TaskRouter" style="stroke:#000000;stroke-width:1;stroke-dasharray:7,7;"/><polygon fill="#000000" points="375,384.99,379,375.99,375,379.99,371,375.99,375,384.99" style="stroke:#000000;stroke-width:1;"/><text fill="#000000" font-family="Verdana" font-size="13" lengthAdjust="spacing" textLength="138.3599" x="376" y="330.0669">HTTP PUT /tasks/{id}</text></g><!--link TaskRouter to TaskUpdateSchema--><g class="link" data-entity-1="ent0006" data-entity-2="ent0007" data-link-type="dependency" data-source-line="42" id="lnk14"><path codeLine="42" d="M323.57,458.09 C291.17,480.51 253.7337,506.4155 217.6537,531.3855" fill="none" id="TaskRouter-to-TaskUpdateSchema" style="stroke:#000000;stroke-width:1;stroke-dasharray:7,7;"/><polygon fill="#000000" points="212.72,534.8,222.3969,532.9674,216.8314,531.9546,217.8442,526.3892,212.72,534.8" style="stroke:#000000;stroke-width:1;"/><text fill="#000000" font-family="Verdana" font-size="13" lengthAdjust="spacing" textLength="39.1016" x="278" y="501.0669">valida</text></g><!--link TaskRouter to TaskService--><g class="link" data-entity-1="ent0006" data-entity-2="ent0008" data-link-type="dependency" data-source-line="43" id="lnk15"><path codeLine="43" d="M402.99,458.09 C424.63,485.59 450.7309,518.7738 472.3509,546.2638" fill="none" id="TaskRouter-to-TaskService" style="stroke:#000000;stroke-width:1;stroke-dasharray:7,7;"/><polygon fill="#000000" points="476.06,550.98,473.6404,541.433,472.9691,547.0498,467.3522,546.3785,476.06,550.98" style="stroke:#000000;stroke-width:1;"/><text fill="#000000" font-family="Verdana" font-size="13" lengthAdjust="spacing" textLength="42.6118" x="440" y="501.0669">invoca</text></g><!--link TaskService to TaskRepository--><g class="link" data-entity-1="ent0008" data-entity-2="ent0009" data-link-type="dependency" data-source-line="44" id="lnk16"><path codeLine="44" d="M504,624.14 C504,651.1 504,682.26 504,710.98" fill="none" id="TaskService-to-TaskRepository" style="stroke:#000000;stroke-width:1;stroke-dasharray:7,7;"/><polygon fill="#000000" points="504,716.98,508,707.98,504,711.98,500,707.98,504,716.98" style="stroke:#000000;stroke-width:1;"/><text fill="#000000" font-family="Verdana" font-size="13" lengthAdjust="spacing" textLength="122.3384" x="505" y="683.0669">verifica y actualiza</text></g><!--link TaskRepository to Task--><g class="link" data-entity-1="ent0009" data-entity-2="ent0011" data-link-type="dependency" data-source-line="45" id="lnk17"><path codeLine="45" d="M504,806.26 C504,835.79 504,868.89 504,899.94" fill="none" id="TaskRepository-to-Task" style="stroke:#000000;stroke-width:1;stroke-dasharray:7,7;"/><polygon fill="#000000" points="504,905.94,508,896.94,504,900.94,500,896.94,504,905.94" style="stroke:#000000;stroke-width:1;"/><text fill="#000000" font-family="Verdana" font-size="13" lengthAdjust="spacing" textLength="55.7832" x="505" y="851.0669">modifica</text></g><?plantuml-src XLHDRvj04BtpAwOvOSL9UaQH9Qj9LKkjwlhZ54LesDqwM-DTj3jO9P7_UsTnC9XWbGDQc3VpthmP-4GlQgUWo56Ro6-rAT3X3aIEta-9dCvAKZDXpLA_AlWSHGMABMuKN7t10c4zWtYXKD3e2juYuAlEX4UfQOL--yDApE7-FhEbaUYgoUGT5guR88Oy86420Rmk999Q2bQ49z0rlA2HkJe6ur4TE7IeIgz2icSMbadEvcSarr3McG4JQvd0UZrx68CSP6sg7_fzJkVSw5Vqn8TUgw76mh9BxbAVZOGqj1k7Mwhb68u7CmPHEgSCfTo9OsNPw2YiOyIXnzVLpAoIR8-GDEKgWPy5QMimV_BadZjXgRnmkWvU1db2AdqdNekgNpuFgbegjzT2_MSGgVghFMcpwTaH9dBHYq6-XIgirsHTnPISfAdl-qPHcbLSdYVVhTJL4yiijTcVCV2Dnt5E-64HU5kjXtZvw_iq3_PN0zjmIKspVH_dnCuF6D_wtQev_x1kRoVj_YTynEZq66ATtKpWsserX_bw1NV1St_tfkKXwY2QXBFbIc2FkPOu16pcdO0sUokEcERbYRuT4jTIJl_M0g42_cUKNFdrlNABQX8PlhEoXly3?></g></svg>