<?plantuml 1.2026.2?><svg xmlns="http://www.w3.org/2000/svg" xmlns:xlink="http://www.w3.org/1999/xlink" contentStyleType="text/css" data-diagram-type="SEQUENCE" height="532px" preserveAspectRatio="none" style="width:1161px;height:532px;background:#FFFFFF;" version="1.1" viewBox="0 0 1161 532" width="1161px" zoomAndPan="magnify"><defs/><g><g><title>..UI React..</title><rect fill="#FFFFFF" height="319.4609" style="stroke:#000000;stroke-width:1;" width="10" x="325.082" y="113.4297"/></g><g><title>..Router FastAPI..</title><rect fill="#FFFFFF" height="261.1953" style="stroke:#000000;stroke-width:1;" width="10" x="476.5972" y="142.5625"/></g><g><title>..L.gica Autenticaci.n..</title><rect fill="#FFFFFF" height="202.9297" style="stroke:#000000;stroke-width:1;" width="10" x="666.5176" y="171.6953"/></g><g><title>..Capa Datos SQLAlchemy..</title><rect fill="#FFFFFF" height="87.3984" style="stroke:#000000;stroke-width:1;" width="10" x="946.3062" y="200.8281"/></g><g><title>PostgreSQL</title><rect fill="#FFFFFF" height="29.1328" style="stroke:#000000;stroke-width:1;" width="10" x="1112.1772" y="229.9609"/></g><g class="participant-lifeline" data-entity-uid="part1" data-qualified-name="Usuario" id="part1-lifeline"><g><title>Usuario</title><rect fill="#000000" fill-opacity="0.00000" height="368.5938" width="8" x="35.6021" y="82.2969"/><line style="stroke:#000000;stroke-width:1;stroke-dasharray:5,5;" x1="39" x2="39" y1="82.2969" y2="450.8906"/></g></g><g class="participant-lifeline" data-entity-uid="part2" data-qualified-name="LoginView" id="part2-lifeline"><g><title>..UI React..</title><rect fill="#000000" fill-opacity="0.00000" height="368.5938" width="8" x="326.082" y="82.2969"/><line style="stroke:#000000;stroke-width:1;stroke-dasharray:5,5;" x1="329.9751" x2="329.9751" y1="82.2969" y2="450.8906"/></g></g><g class="participant-lifeline" data-entity-uid="part3" data-qualified-name="SesionController" id="part3-lifeline"><g><title>..Router FastAPI..</title><rect fill="#000000" fill-opacity="0.00000" height="368.5938" width="8" x="477.5972" y="82.2969"/><line style="stroke:#000000;stroke-width:1;stroke-dasharray:5,5;" x1="481.4375" x2="481.4375" y1="82.2969" y2="450.8906"/></g></g><g class="participant-lifeline" data-entity-uid="part4" data-qualified-name="AuthService" id="part4-lifeline"><g><title>..L.gica Autenticaci.n..</title><rect fill="#000000" fill-opacity="0.00000" height="368.5938" width="8" x="667.5176" y="82.2969"/><line style="stroke:#000000;stroke-width:1;stroke-dasharray:5,5;" x1="670.8896" x2="670.8896" y1="82.2969" y2="450.8906"/></g></g><g class="participant-lifeline" data-entity-uid="part5" data-qualified-name="UsuarioRepository" id="part5-lifeline"><g><title>..Capa Datos SQLAlchemy..</title><rect fill="#000000" fill-opacity="0.00000" height="368.5938" width="8" x="947.3062" y="82.2969"/><line style="stroke:#000000;stroke-width:1;stroke-dasharray:5,5;" x1="950.8115" x2="950.8115" y1="82.2969" y2="450.8906"/></g></g><g class="participant-lifeline" data-entity-uid="part6" data-qualified-name="PostgreSQL" id="part6-lifeline"><g><title>PostgreSQL</title><rect fill="#000000" fill-opacity="0.00000" height="368.5938" width="8" x="1113.1772" y="82.2969"/><line style="stroke:#000000;stroke-width:1;stroke-dasharray:5,5;" x1="1116.8008" x2="1116.8008" y1="82.2969" y2="450.8906"/></g></g><g class="participant participant-head" data-entity-uid="part1" data-qualified-name="Usuario" id="part1-head"><text fill="#000000" font-family="Verdana" font-size="14" lengthAdjust="spacing" textLength="53.2041" x="10" y="78.9951">Usuario</text><ellipse cx="39.6021" cy="14" fill="#FFFFFF" rx="8" ry="8" style="stroke:#000000;stroke-width:1;"/><path d="M39.6021,22 L39.6021,49 M26.6021,30 L52.6021,30 M39.6021,49 L26.6021,64 M39.6021,49 L52.6021,64" fill="none" style="stroke:#000000;stroke-width:1;"/></g><g class="participant participant-tail" data-entity-uid="part1" data-qualified-name="Usuario" id="part1-tail"><text fill="#000000" font-family="Verdana" font-size="14" lengthAdjust="spacing" textLength="53.2041" x="10" y="462.8857">Usuario</text><ellipse cx="39.6021" cy="475.1875" fill="#FFFFFF" rx="8" ry="8" style="stroke:#000000;stroke-width:1;"/><path d="M39.6021,483.1875 L39.6021,510.1875 M26.6021,491.1875 L52.6021,491.1875 M39.6021,510.1875 L26.6021,525.1875 M39.6021,510.1875 L52.6021,525.1875" fill="none" style="stroke:#000000;stroke-width:1;"/></g><g class="participant participant-head" data-entity-uid="part2" data-qualified-name="LoginView" id="part2-head"><rect fill="#FFFFFF" height="46.5938" rx="2.5" ry="2.5" style="stroke:#000000;stroke-width:1;" width="90.2139" x="284.9751" y="34.7031"/><text fill="#000000" font-family="Verdana" font-size="14" font-style="italic" lengthAdjust="spacing" textLength="76.2139" x="291.9751" y="54.6982">&#171;UI React&#187;</text><text fill="#000000" font-family="Verdana" font-size="14" lengthAdjust="spacing" textLength="71.5449" x="294.3096" y="70.9951">LoginView</text></g><g class="participant participant-tail" data-entity-uid="part2" data-qualified-name="LoginView" id="part2-tail"><rect fill="#FFFFFF" height="46.5938" rx="2.5" ry="2.5" style="stroke:#000000;stroke-width:1;" width="90.2139" x="284.9751" y="449.8906"/><text fill="#000000" font-family="Verdana" font-size="14" font-style="italic" lengthAdjust="spacing" textLength="76.2139" x="291.9751" y="469.8857">&#171;UI React&#187;</text><text fill="#000000" font-family="Verdana" font-size="14" lengthAdjust="spacing" textLength="71.5449" x="294.3096" y="486.1826">LoginView</text></g><g class="participant participant-head" data-entity-uid="part3" data-qualified-name="SesionController" id="part3-head"><rect fill="#FFFFFF" height="46.5938" rx="2.5" ry="2.5" style="stroke:#000000;stroke-width:1;" width="134.3193" x="414.4375" y="34.7031"/><text fill="#000000" font-family="Verdana" font-size="14" font-style="italic" lengthAdjust="spacing" textLength="120.3193" x="421.4375" y="54.6982">&#171;Router FastAPI&#187;</text><text fill="#000000" font-family="Verdana" font-size="14" lengthAdjust="spacing" textLength="115.2949" x="423.9497" y="70.9951">SesionController</text></g><g class="participant participant-tail" data-entity-uid="part3" data-qualified-name="SesionController" id="part3-tail"><rect fill="#FFFFFF" height="46.5938" rx="2.5" ry="2.5" style="stroke:#000000;stroke-width:1;" width="134.3193" x="414.4375" y="449.8906"/><text fill="#000000" font-family="Verdana" font-size="14" font-style="italic" lengthAdjust="spacing" textLength="120.3193" x="421.4375" y="469.8857">&#171;Router FastAPI&#187;</text><text fill="#000000" font-family="Verdana" font-size="14" lengthAdjust="spacing" textLength="115.2949" x="423.9497" y="486.1826">SesionController</text></g><g class="participant participant-head" data-entity-uid="part4" data-qualified-name="AuthService" id="part4-head"><rect fill="#FFFFFF" height="46.5938" rx="2.5" ry="2.5" style="stroke:#000000;stroke-width:1;" width="177.2559" x="582.8896" y="34.7031"/><text fill="#000000" font-family="Verdana" font-size="14" font-style="italic" lengthAdjust="spacing" textLength="163.2559" x="589.8896" y="54.6982">&#171;L&#243;gica Autenticaci&#243;n&#187;</text><text fill="#000000" font-family="Verdana" font-size="14" lengthAdjust="spacing" textLength="84.5537" x="629.2407" y="70.9951">AuthService</text></g><g class="participant participant-tail" data-entity-uid="part4" data-qualified-name="AuthService" id="part4-tail"><rect fill="#FFFFFF" height="46.5938" rx="2.5" ry="2.5" style="stroke:#000000;stroke-width:1;" width="177.2559" x="582.8896" y="449.8906"/><text fill="#000000" font-family="Verdana" font-size="14" font-style="italic" lengthAdjust="spacing" textLength="163.2559" x="589.8896" y="469.8857">&#171;L&#243;gica Autenticaci&#243;n&#187;</text><text fill="#000000" font-family="Verdana" font-size="14" lengthAdjust="spacing" textLength="84.5537" x="629.2407" y="486.1826">AuthService</text></g><g class="participant participant-head" data-entity-uid="part5" data-qualified-name="UsuarioRepository" id="part5-head"><rect fill="#FFFFFF" height="46.5938" rx="2.5" ry="2.5" style="stroke:#000000;stroke-width:1;" width="204.9893" x="848.8115" y="34.7031"/><text fill="#000000" font-family="Verdana" font-size="14" font-style="italic" lengthAdjust="spacing" textLength="190.9893" x="855.8115" y="54.6982">&#171;Capa Datos SQLAlchemy&#187;</text><text fill="#000000" font-family="Verdana" font-size="14" lengthAdjust="spacing" textLength="128.2764" x="887.168" y="70.9951">UsuarioRepository</text></g><g class="participant participant-tail" data-entity-uid="part5" data-qualified-name="UsuarioRepository" id="part5-tail"><rect fill="#FFFFFF" height="46.5938" rx="2.5" ry="2.5" style="stroke:#000000;stroke-width:1;" width="204.9893" x="848.8115" y="449.8906"/><text fill="#000000" font-family="Verdana" font-size="14" font-style="italic" lengthAdjust="spacing" textLength="190.9893" x="855.8115" y="469.8857">&#171;Capa Datos SQLAlchemy&#187;</text><text fill="#000000" font-family="Verdana" font-size="14" lengthAdjust="spacing" textLength="128.2764" x="887.168" y="486.1826">UsuarioRepository</text></g><g class="participant participant-head" data-entity-uid="part6" data-qualified-name="PostgreSQL" id="part6-head"><text fill="#000000" font-family="Verdana" font-size="14" lengthAdjust="spacing" textLength="80.7529" x="1073.8008" y="78.9951">PostgreSQL</text><path d="M1099.1772,30 C1099.1772,20 1117.1772,20 1117.1772,20 C1117.1772,20 1135.1772,20 1135.1772,30 L1135.1772,56 C1135.1772,66 1117.1772,66 1117.1772,66 C1117.1772,66 1099.1772,66 1099.1772,56 L1099.1772,30" fill="#FFFFFF" style="stroke:#000000;stroke-width:1;"/><path d="M1099.1772,30 C1099.1772,40 1117.1772,40 1117.1772,40 C1117.1772,40 1135.1772,40 1135.1772,30" fill="none" style="stroke:#000000;stroke-width:1;"/></g><g class="participant participant-tail" data-entity-uid="part6" data-qualified-name="PostgreSQL" id="part6-tail"><text fill="#000000" font-family="Verdana" font-size="14" lengthAdjust="spacing" textLength="80.7529" x="1073.8008" y="462.8857">PostgreSQL</text><path d="M1099.1772,476.1875 C1099.1772,466.1875 1117.1772,466.1875 1117.1772,466.1875 C1117.1772,466.1875 1135.1772,466.1875 1135.1772,476.1875 L1135.1772,502.1875 C1135.1772,512.1875 1117.1772,512.1875 1117.1772,512.1875 C1117.1772,512.1875 1099.1772,512.1875 1099.1772,502.1875 L1099.1772,476.1875" fill="#FFFFFF" style="stroke:#000000;stroke-width:1;"/><path d="M1099.1772,476.1875 C1099.1772,486.1875 1117.1772,486.1875 1117.1772,486.1875 C1117.1772,486.1875 1135.1772,486.1875 1135.1772,476.1875" fill="none" style="stroke:#000000;stroke-width:1;"/></g><g><title>..UI React..</title><rect fill="#FFFFFF" height="319.4609" style="stroke:#000000;stroke-width:1;" width="10" x="325.082" y="113.4297"/></g><g><title>..Router FastAPI..</title><rect fill="#FFFFFF" height="261.1953" style="stroke:#000000;stroke-width:1;" width="10" x="476.5972" y="142.5625"/></g><g><title>..L.gica Autenticaci.n..</title><rect fill="#FFFFFF" height="202.9297" style="stroke:#000000;stroke-width:1;" width="10" x="666.5176" y="171.6953"/></g><g><title>..Capa Datos SQLAlchemy..</title><rect fill="#FFFFFF" height="87.3984" style="stroke:#000000;stroke-width:1;" width="10" x="946.3062" y="200.8281"/></g><g><title>PostgreSQL</title><rect fill="#FFFFFF" height="29.1328" style="stroke:#000000;stroke-width:1;" width="10" x="1112.1772" y="229.9609"/></g><g class="message" data-entity-1="part1" data-entity-2="part2" id="msg1"><polygon fill="#000000" points="313.082,109.4297,323.082,113.4297,313.082,117.4297,317.082,113.4297" style="stroke:#000000;stroke-width:1;"/><line style="stroke:#000000;stroke-width:1;" x1="39.6021" x2="319.082" y1="113.4297" y2="113.4297"/><text fill="#000000" font-family="Verdana" font-size="13" font-weight="bold" lengthAdjust="spacing" textLength="9.0454" x="46.6021" y="108.3638">1</text><text fill="#000000" font-family="Verdana" font-size="13" lengthAdjust="spacing" textLength="148.3257" x="59.6475" y="108.3638">Introduce credenciales</text></g><g class="message" data-entity-1="part2" data-entity-2="part3" id="msg2"><polygon fill="#000000" points="464.5972,138.5625,474.5972,142.5625,464.5972,146.5625,468.5972,142.5625" style="stroke:#000000;stroke-width:1;"/><line style="stroke:#000000;stroke-width:1;" x1="335.082" x2="470.5972" y1="142.5625" y2="142.5625"/><text fill="#000000" font-family="Verdana" font-size="13" font-weight="bold" lengthAdjust="spacing" textLength="9.0454" x="342.082" y="137.4966">2</text><text fill="#000000" font-family="Verdana" font-size="13" lengthAdjust="spacing" textLength="74.4453" x="355.1274" y="137.4966">POST /login</text></g><g class="message" data-entity-1="part3" data-entity-2="part4" id="msg3"><polygon fill="#000000" points="654.5176,167.6953,664.5176,171.6953,654.5176,175.6953,658.5176,171.6953" style="stroke:#000000;stroke-width:1;"/><line style="stroke:#000000;stroke-width:1;" x1="486.5972" x2="660.5176" y1="171.6953" y2="171.6953"/><text fill="#000000" font-family="Verdana" font-size="13" font-weight="bold" lengthAdjust="spacing" textLength="9.0454" x="493.5972" y="166.6294">3</text><text fill="#000000" font-family="Verdana" font-size="13" lengthAdjust="spacing" textLength="147.875" x="506.6426" y="166.6294">login(email, password)</text></g><g class="message" data-entity-1="part4" data-entity-2="part5" id="msg4"><polygon fill="#000000" points="934.3062,196.8281,944.3062,200.8281,934.3062,204.8281,938.3062,200.8281" style="stroke:#000000;stroke-width:1;"/><line style="stroke:#000000;stroke-width:1;" x1="676.5176" x2="940.3062" y1="200.8281" y2="200.8281"/><text fill="#000000" font-family="Verdana" font-size="13" font-weight="bold" lengthAdjust="spacing" textLength="9.0454" x="683.5176" y="195.7622">4</text><text fill="#000000" font-family="Verdana" font-size="13" lengthAdjust="spacing" textLength="146.9229" x="696.563" y="195.7622">buscarPorEmail(email)</text></g><g class="message" data-entity-1="part5" data-entity-2="part6" id="msg5"><polygon fill="#000000" points="1100.1772,225.9609,1110.1772,229.9609,1100.1772,233.9609,1104.1772,229.9609" style="stroke:#000000;stroke-width:1;"/><line style="stroke:#000000;stroke-width:1;" x1="956.3062" x2="1106.1772" y1="229.9609" y2="229.9609"/><text fill="#000000" font-family="Verdana" font-size="13" font-weight="bold" lengthAdjust="spacing" textLength="9.0454" x="963.3062" y="224.895">5</text><text fill="#000000" font-family="Verdana" font-size="13" lengthAdjust="spacing" textLength="48.9404" x="976.3516" y="224.895">SELECT</text></g><g class="message" data-entity-1="part6" data-entity-2="part5" id="msg6"><polygon fill="#000000" points="967.3062,255.0938,957.3062,259.0938,967.3062,263.0938,963.3062,259.0938" style="stroke:#000000;stroke-width:1;"/><line style="stroke:#000000;stroke-width:1;stroke-dasharray:2,2;" x1="961.3062" x2="1116.1772" y1="259.0938" y2="259.0938"/><text fill="#000000" font-family="Verdana" font-size="13" font-weight="bold" lengthAdjust="spacing" textLength="9.0454" x="973.3062" y="254.0278">6</text><text fill="#000000" font-family="Verdana" font-size="13" lengthAdjust="spacing" textLength="115.7495" x="986.3516" y="254.0278">Devuelve registro</text></g><g class="message" data-entity-1="part5" data-entity-2="part4" id="msg7"><polygon fill="#000000" points="687.5176,284.2266,677.5176,288.2266,687.5176,292.2266,683.5176,288.2266" style="stroke:#000000;stroke-width:1;"/><line style="stroke:#000000;stroke-width:1;stroke-dasharray:2,2;" x1="681.5176" x2="950.3062" y1="288.2266" y2="288.2266"/><text fill="#000000" font-family="Verdana" font-size="13" font-weight="bold" lengthAdjust="spacing" textLength="9.0454" x="693.5176" y="283.1606">7</text><text fill="#000000" font-family="Verdana" font-size="13" lengthAdjust="spacing" textLength="232.7432" x="706.563" y="283.1606">Devuelve objeto Usuario (con hash)</text></g><g class="message" data-entity-1="part4" data-entity-2="part4" id="msg8"><line style="stroke:#000000;stroke-width:1;" x1="676.5176" x2="718.5176" y1="332.4922" y2="332.4922"/><line style="stroke:#000000;stroke-width:1;" x1="718.5176" x2="718.5176" y1="332.4922" y2="345.4922"/><line style="stroke:#000000;stroke-width:1;" x1="677.5176" x2="718.5176" y1="345.4922" y2="345.4922"/><polygon fill="#000000" points="687.5176,341.4922,677.5176,345.4922,687.5176,349.4922,683.5176,345.4922" style="stroke:#000000;stroke-width:1;"/><text fill="#000000" font-family="Verdana" font-size="13" font-weight="bold" lengthAdjust="spacing" textLength="9.0454" x="683.5176" y="319.8599">8</text><text fill="#000000" font-family="Verdana" font-size="13" lengthAdjust="spacing" textLength="181.7397" x="696.563" y="312.2935">Verifica hash de contrase&#241;a</text><text fill="#000000" font-family="Verdana" font-size="13" lengthAdjust="spacing" textLength="127.334" x="696.563" y="327.4263">y genera token JWT</text></g><g class="message" data-entity-1="part4" data-entity-2="part3" id="msg9"><polygon fill="#000000" points="497.5972,370.625,487.5972,374.625,497.5972,378.625,493.5972,374.625" style="stroke:#000000;stroke-width:1;"/><line style="stroke:#000000;stroke-width:1;stroke-dasharray:2,2;" x1="491.5972" x2="670.5176" y1="374.625" y2="374.625"/><text fill="#000000" font-family="Verdana" font-size="13" font-weight="bold" lengthAdjust="spacing" textLength="9.0454" x="503.5972" y="369.5591">9</text><text fill="#000000" font-family="Verdana" font-size="13" lengthAdjust="spacing" textLength="130.9521" x="516.6426" y="369.5591">Devuelve token JWT</text></g><g class="message" data-entity-1="part3" data-entity-2="part2" id="msg10"><polygon fill="#000000" points="346.082,399.7578,336.082,403.7578,346.082,407.7578,342.082,403.7578" style="stroke:#000000;stroke-width:1;"/><line style="stroke:#000000;stroke-width:1;stroke-dasharray:2,2;" x1="340.082" x2="480.5972" y1="403.7578" y2="403.7578"/><text fill="#000000" font-family="Verdana" font-size="13" font-weight="bold" lengthAdjust="spacing" textLength="18.0908" x="352.082" y="398.6919">10</text><text fill="#000000" font-family="Verdana" font-size="13" lengthAdjust="spacing" textLength="95.4243" x="374.1729" y="398.6919">Retorna Token</text></g><g class="message" data-entity-1="part2" data-entity-2="part1" id="msg11"><polygon fill="#000000" points="50.6021,428.8906,40.6021,432.8906,50.6021,436.8906,46.6021,432.8906" style="stroke:#000000;stroke-width:1;"/><line style="stroke:#000000;stroke-width:1;stroke-dasharray:2,2;" x1="44.6021" x2="329.082" y1="432.8906" y2="432.8906"/><text fill="#000000" font-family="Verdana" font-size="13" font-weight="bold" lengthAdjust="spacing" textLength="18.0908" x="56.6021" y="427.8247">11</text><text fill="#000000" font-family="Verdana" font-size="13" lengthAdjust="spacing" textLength="239.3892" x="78.6929" y="427.8247">Muestra Dashboard (Sesi&#243;n Iniciada)</text></g><?plantuml-src TPDDRjim48NtFCLqvm0DkZS20uRZ02vSrBMSTDFDY9fAJ6IEm1y7FbQH8_XY7RQfHKlkJf3U-_JcSVWXDBGdw5eqLc4CREE-9ASKwi0E7dr4PrXrw8BHfaCROCsriK-6Nk7kxd45MnBfR7OXASWRjWksmN7RaXFbbcEGXmVqORvP3VJp69g2tC5e4kdwz5ORZUajMT6WDgStEx2y9zjInzv8rACO5zWXt6DW3yMtzRpLCjjHV1K6BD4JRDY7sf5yLEeT0BUpRA8fh5BcAaeGxQWYgmssv5CTve21UgtgNO8OJJo5pTTY1v_QfEhjGvqQ6GMMrp65FuG9xT6q7w53xr_PLJSzCbEht2cWSKbJAAFNw3RibedubvlHHXOrXWYvRrAGnNAzNEnwHbPpfhlzJw1xEaHg3mIEQkEb1bNHDTIL7AEkpYmkdodml__1HBE51drpayF7imxwkuG_aJC_qs8c45Io8UdKPAzEl_27FK9DbXn2u1UoyFdxxf9sVKdEWNjN5Z0_sl6Y33PtAmCxYx1Bf9moshbiS_ip4SANID9_kaA-AHbT1PFabSidrq8k7bPuqT-Pyni0?></g></svg>