<?plantuml 1.2026.2?><svg xmlns="http://www.w3.org/2000/svg" xmlns:xlink="http://www.w3.org/1999/xlink" contentStyleType="text/css" data-diagram-type="DESCRIPTION" height="443px" preserveAspectRatio="none" style="width:798px;height:443px;background:#FFFFFF;" version="1.1" viewBox="0 0 798 443" width="798px" zoomAndPan="magnify"><defs/><g><!--cluster editarMiembro--><g class="cluster" data-qualified-name="editarMiembro" data-source-line="4" id="ent0003"><path d="M383,6 L513.5137,6 A3.75,3.75 0 0 1 516.0137,8.5 L523.0137,28.2969 L719,28.2969 A2.5,2.5 0 0 1 721.5,30.7969 L721.5,433.5 A2.5,2.5 0 0 1 719,436 L383,436 A2.5,2.5 0 0 1 380.5,433.5 L380.5,8.5 A2.5,2.5 0 0 1 383,6" fill="none" style="stroke:#000000;stroke-width:1.5;"/><line style="stroke:#000000;stroke-width:1.5;" x1="380.5" x2="523.0137" y1="28.2969" y2="28.2969"/><text fill="#000000" font-family="sans-serif" font-size="14" font-weight="bold" lengthAdjust="spacing" textLength="129.5137" x="384.5" y="20.9951">editarMiembro()</text></g><!--entity GestionarMiembrosView--><g class="entity" data-qualified-name="editarMiembro.GestionarMiembrosView" data-source-line="5" id="ent0004"><rect fill="#629EF9" height="36.2969" rx="2.5" ry="2.5" style="stroke:#181818;stroke-width:0.5;" width="190.1602" x="396.5" y="41"/><text fill="#000000" font-family="sans-serif" font-size="14" lengthAdjust="spacing" textLength="170.1602" x="406.5" y="63.9951">GestionarMiembrosView</text></g><!--entity MembresiasController--><g class="entity" data-qualified-name="editarMiembro.MembresiasController" data-source-line="6" id="ent0005"><rect fill="#B5BD68" height="36.2969" rx="2.5" ry="2.5" style="stroke:#181818;stroke-width:0.5;" width="173.8154" x="396.5" y="174"/><text fill="#000000" font-family="sans-serif" font-size="14" lengthAdjust="spacing" textLength="153.8154" x="406.5" y="196.9951">MembresiasController</text></g><!--entity MiembroRepository--><g class="entity" data-qualified-name="editarMiembro.MiembroRepository" data-source-line="7" id="ent0006"><rect fill="#F2AC4E" height="36.2969" rx="2.5" ry="2.5" style="stroke:#181818;stroke-width:0.5;" width="156.5" x="396.5" y="287"/><text fill="#000000" font-family="sans-serif" font-size="14" lengthAdjust="spacing" textLength="136.5" x="406.5" y="309.9951">MiembroRepository</text></g><!--entity MiembroGrupo--><g class="entity" data-qualified-name="editarMiembro.MiembroGrupo" data-source-line="8" id="ent0007"><rect fill="#F2AC4E" height="36.2969" rx="2.5" ry="2.5" style="stroke:#181818;stroke-width:0.5;" width="124.3574" x="412.5" y="384"/><text fill="#000000" font-family="sans-serif" font-size="14" lengthAdjust="spacing" textLength="104.3574" x="422.5" y="406.9951">MiembroGrupo</text></g><!--entity Usuario--><g class="entity" data-qualified-name="Usuario" data-source-line="3" id="ent0002"><ellipse cx="764.6021" cy="29.5" fill="#F1F1F1" rx="8" ry="8" style="stroke:#181818;stroke-width:0.5;"/><path d="M764.6021,37.5 L764.6021,64.5 M751.6021,45.5 L777.6021,45.5 M764.6021,64.5 L751.6021,79.5 M764.6021,64.5 L777.6021,79.5" fill="none" style="stroke:#181818;stroke-width:0.5;"/><text fill="#000000" font-family="sans-serif" font-size="14" lengthAdjust="spacing" textLength="53.2041" x="738" y="93.9951">Usuario</text></g><!--entity SistemaDisponible--><g class="entity" data-qualified-name="SistemaDisponible" data-source-line="10" id="ent0008"><rect fill="#CDEBA5" height="36.2969" rx="2.5" ry="2.5" style="stroke:#181818;stroke-width:0.5;" width="159.125" x="7" y="41"/><text fill="#000000" font-family="sans-serif" font-size="14" lengthAdjust="spacing" textLength="139.125" x="17" y="63.9951">:Sistema Disponible</text></g><!--link SistemaDisponible to GestionarMiembrosView--><g class="link" data-entity-1="ent0008" data-entity-2="ent0004" data-link-type="dependency" data-source-line="12" id="lnk9"><path d="M166.03,59 C232.15,59 320.41,59 390.48,59" fill="none" id="SistemaDisponible-to-GestionarMiembrosView" style="stroke:#181818;stroke-width:1;"/><polygon fill="#181818" points="396.48,59,387.48,55,391.48,59,387.48,63,396.48,59" style="stroke:#181818;stroke-width:1;"/><text fill="#000000" font-family="sans-serif" font-size="13" lengthAdjust="spacing" textLength="160.2783" x="201.25" y="52.0669">1: editarMiembro(grupo)</text></g><!--link GestionarMiembrosView to SistemaDisponible--><g class="link" data-entity-1="ent0004" data-entity-2="ent0008" data-link-type="dependency" data-source-line="20" id="lnk13"><path d="M396.48,59 C326.41,59 238.15,59 172.03,59" fill="none" id="GestionarMiembrosView-to-SistemaDisponible" style="stroke:#181818;stroke-width:1;"/><polygon fill="#181818" points="166.03,59,175.03,63,171.03,59,175.03,55,166.03,59" style="stroke:#181818;stroke-width:1;"/><text fill="#000000" font-family="sans-serif" font-size="13" lengthAdjust="spacing" textLength="194.251" x="184.25" y="52.0669">4: sistemaDisponible(usuario)</text></g><!--link GestionarMiembrosView to MembresiasController--><g class="link" data-entity-1="ent0004" data-entity-2="ent0005" data-link-type="dependency" data-source-line="14" id="lnk10"><path d="M490.45,77.13 C488.92,102.23 486.4449,142.7711 484.9149,167.8811" fill="none" id="GestionarMiembrosView-to-MembresiasController" style="stroke:#181818;stroke-width:1;"/><polygon fill="#181818" points="484.55,173.87,489.09,165.1299,484.8541,168.8793,481.1048,164.6434,484.55,173.87" style="stroke:#181818;stroke-width:1;"/><text fill="#000000" font-family="sans-serif" font-size="13" lengthAdjust="spacing" textLength="249.1899" x="487.5" y="140.0669">2: actualizarRol(idMiembro, nuevoRol)</text></g><!--link MembresiasController to MiembroRepository--><g class="link" data-entity-1="ent0005" data-entity-2="ent0006" data-link-type="dependency" data-source-line="16" id="lnk11"><path d="M482.09,210.34 C480.4,231.2 478.063,259.9995 476.383,280.7995" fill="none" id="MembresiasController-to-MiembroRepository" style="stroke:#181818;stroke-width:1;"/><polygon fill="#181818" points="475.9,286.78,480.6116,278.1312,476.3025,281.7962,472.6375,277.4872,475.9,286.78" style="stroke:#181818;stroke-width:1;"/><text fill="#000000" font-family="sans-serif" font-size="13" lengthAdjust="spacing" textLength="272.4795" x="480.5" y="253.0669">3: guardarCambios(idMiembro, nuevoRol)</text></g><!--link MiembroRepository to MiembroGrupo--><g class="link" data-entity-1="ent0006" data-entity-2="ent0007" data-link-type="association" data-source-line="18" id="lnk12"><path d="M474.5,323.42 C474.5,340.57 474.5,366.58 474.5,383.69" fill="none" id="MiembroRepository-MiembroGrupo" style="stroke:#181818;stroke-width:1;"/></g><?plantuml-src VP9FJyCm3CNl-HHMkNGIFL2sYUM0DBe_frs6uEwkLcKjJQ8a1Gt4ToSL4x2kMsvv-ld9VhRVixRei075ciB14bYZ3jr72Dm5u-35j-ZO28kxFTO4L750js5gIcS0FIGdIZfAu5D0V8vs0NMj26wc-Movci6QV62ZVrd_olJUPyj9MKqVODCHv1bzONHmHYboVNILpuln4evkMxB6SspvS9rRkzOQyIN-0SLY-JIVG2AVsGTg41RihT5SAagw4O_odoh4cGIPonw7HvHm9qzpI-kkYP4GWpnaLRGQIa12BY7kfKN57-YsHgLS7KjlGRVqPg8MVOUA8UjS-s59k9TGnnrNw0fiIZR-acU_D1gUXdffd2wPiy0aZ2NulfgsF_Ss-WO0?></g></svg>