<?plantuml 1.2026.2?><svg xmlns="http://www.w3.org/2000/svg" xmlns:xlink="http://www.w3.org/1999/xlink" contentStyleType="text/css" data-diagram-type="CLASS" height="556px" preserveAspectRatio="none" style="width:736px;height:556px;background:#FFFFFF;" version="1.1" viewBox="0 0 736 556" width="736px" zoomAndPan="magnify"><defs/><g><!--cluster Design Model--><g class="cluster" data-qualified-name="Design Model" data-source-line="1" id="ent0002"><path d="M8.5,6 L116.4756,6 A3.75,3.75 0 0 1 118.9756,8.5 L125.9756,28.2969 L726.5,28.2969 A2.5,2.5 0 0 1 729,30.7969 L729,546.5 A2.5,2.5 0 0 1 726.5,549 L8.5,549 A2.5,2.5 0 0 1 6,546.5 L6,8.5 A2.5,2.5 0 0 1 8.5,6" fill="none" style="stroke:#000000;stroke-width:1.5;"/><line style="stroke:#000000;stroke-width:1.5;" x1="6" x2="125.9756" y1="28.2969" y2="28.2969"/><text fill="#000000" font-family="sans-serif" font-size="14" font-weight="bold" lengthAdjust="spacing" textLength="106.9756" x="10" y="20.9951">Design Model</text></g><!--class User--><g class="entity" data-qualified-name="Design Model.User" data-source-line="2" id="ent0003"><rect fill="#F1F1F1" height="145.7813" rx="2.5" ry="2.5" style="stroke:#181818;stroke-width:0.5;" width="181.5244" x="153" y="387"/><ellipse cx="223.5571" cy="403" fill="#ADD1B2" rx="11" ry="11" style="stroke:#181818;stroke-width:1;"/><path d="M226.5259,408.6406 Q225.9478,408.9375 225.3071,409.0781 Q224.6665,409.2344 223.9634,409.2344 Q221.4634,409.2344 220.1353,407.5938 Q218.8228,405.9375 218.8228,402.8125 Q218.8228,399.6875 220.1353,398.0313 Q221.4634,396.375 223.9634,396.375 Q224.6665,396.375 225.3071,396.5313 Q225.9634,396.6875 226.5259,396.9844 L226.5259,399.7031 Q225.9009,399.125 225.3071,398.8594 Q224.7134,398.5781 224.0884,398.5781 Q222.7446,398.5781 222.0571,399.6563 Q221.3696,400.7188 221.3696,402.8125 Q221.3696,404.9063 222.0571,405.9844 Q222.7446,407.0469 224.0884,407.0469 Q224.7134,407.0469 225.3071,406.7813 Q225.9009,406.5 226.5259,405.9219 L226.5259,408.6406 Z " fill="#000000"/><text fill="#000000" font-family="sans-serif" font-size="14" lengthAdjust="spacing" textLength="31.9102" x="244.0571" y="407.8467">User</text><line style="stroke:#181818;stroke-width:0.5;" x1="154" x2="333.5244" y1="419" y2="419"/><g data-visibility-modifier="PUBLIC_FIELD"><ellipse cx="164" cy="432.6484" fill="none" rx="3" ry="3" style="stroke:#038048;stroke-width:1;"/></g><text fill="#000000" font-family="sans-serif" font-size="14" lengthAdjust="spacing" textLength="57.3467" x="173" y="435.9951">id: UUID</text><g data-visibility-modifier="PUBLIC_FIELD"><ellipse cx="164" cy="448.9453" fill="none" rx="3" ry="3" style="stroke:#038048;stroke-width:1;"/></g><text fill="#000000" font-family="sans-serif" font-size="14" lengthAdjust="spacing" textLength="90.6514" x="173" y="452.292">name: String</text><g data-visibility-modifier="PUBLIC_FIELD"><ellipse cx="164" cy="465.2422" fill="none" rx="3" ry="3" style="stroke:#038048;stroke-width:1;"/></g><text fill="#000000" font-family="sans-serif" font-size="14" lengthAdjust="spacing" textLength="89.5576" x="173" y="468.5889">email: String</text><g data-visibility-modifier="PUBLIC_FIELD"><ellipse cx="164" cy="481.5391" fill="none" rx="3" ry="3" style="stroke:#038048;stroke-width:1;"/></g><text fill="#000000" font-family="sans-serif" font-size="14" lengthAdjust="spacing" textLength="98.6973" x="173" y="484.8857">role: UserRole</text><g data-visibility-modifier="PUBLIC_FIELD"><ellipse cx="164" cy="497.8359" fill="none" rx="3" ry="3" style="stroke:#038048;stroke-width:1;"/></g><text fill="#000000" font-family="sans-serif" font-size="14" lengthAdjust="spacing" textLength="128.707" x="173" y="501.1826">status: UserStatus</text><g data-visibility-modifier="PUBLIC_FIELD"><ellipse cx="164" cy="514.1328" fill="none" rx="3" ry="3" style="stroke:#038048;stroke-width:1;"/></g><text fill="#000000" font-family="sans-serif" font-size="14" lengthAdjust="spacing" textLength="155.5244" x="173" y="517.4795">family_group_id: UUID</text><line style="stroke:#181818;stroke-width:0.5;" x1="154" x2="333.5244" y1="524.7813" y2="524.7813"/></g><!--class UserRole--><g class="entity" data-qualified-name="Design Model.UserRole" data-source-line="11" id="ent0004"><rect fill="#F1F1F1" height="96.8906" rx="2.5" ry="2.5" style="stroke:#181818;stroke-width:0.5;" width="127.2197" x="585.5" y="49"/><ellipse cx="615.1312" cy="65" fill="#EB937F" rx="11" ry="11" style="stroke:#181818;stroke-width:1;"/><path d="M619.2405,71 L611.5218,71 L611.5218,58.6094 L619.2405,58.6094 L619.2405,60.7656 L613.9749,60.7656 L613.9749,63.4375 L618.7405,63.4375 L618.7405,65.5938 L613.9749,65.5938 L613.9749,68.8438 L619.2405,68.8438 L619.2405,71 Z " fill="#000000"/><text fill="#000000" font-family="sans-serif" font-size="14" lengthAdjust="spacing" textLength="62.7061" x="632.3825" y="69.8467">UserRole</text><line style="stroke:#181818;stroke-width:0.5;" x1="586.5" x2="711.7197" y1="81" y2="81"/><text fill="#000000" font-family="sans-serif" font-size="14" lengthAdjust="spacing" textLength="47.0381" x="591.5" y="97.9951">ADMIN</text><text fill="#000000" font-family="sans-serif" font-size="14" lengthAdjust="spacing" textLength="115.2197" x="591.5" y="114.292">MEMBER_ADMIN</text><text fill="#000000" font-family="sans-serif" font-size="14" lengthAdjust="spacing" textLength="61.1816" x="591.5" y="130.5889">MEMBER</text><line style="stroke:#181818;stroke-width:0.5;" x1="586.5" x2="711.7197" y1="137.8906" y2="137.8906"/></g><!--class UserStatus--><g class="entity" data-qualified-name="Design Model.UserStatus" data-source-line="17" id="ent0005"><rect fill="#F1F1F1" height="96.8906" rx="2.5" ry="2.5" style="stroke:#181818;stroke-width:0.5;" width="128.6963" x="421.5" y="49"/><ellipse cx="445.5787" cy="65" fill="#EB937F" rx="11" ry="11" style="stroke:#181818;stroke-width:1;"/><path d="M449.688,71 L441.9693,71 L441.9693,58.6094 L449.688,58.6094 L449.688,60.7656 L444.4224,60.7656 L444.4224,63.4375 L449.188,63.4375 L449.188,65.5938 L444.4224,65.5938 L444.4224,68.8438 L449.688,68.8438 L449.688,71 Z " fill="#000000"/><text fill="#000000" font-family="sans-serif" font-size="14" lengthAdjust="spacing" textLength="76.5215" x="461.5961" y="69.8467">UserStatus</text><line style="stroke:#181818;stroke-width:0.5;" x1="422.5" x2="549.1963" y1="81" y2="81"/><text fill="#000000" font-family="sans-serif" font-size="14" lengthAdjust="spacing" textLength="50.4561" x="427.5" y="97.9951">ACTIVE</text><text fill="#000000" font-family="sans-serif" font-size="14" lengthAdjust="spacing" textLength="65.0576" x="427.5" y="114.292">INACTIVE</text><text fill="#000000" font-family="sans-serif" font-size="14" lengthAdjust="spacing" textLength="116.6963" x="427.5" y="130.5889">PENDING_INVITE</text><line style="stroke:#181818;stroke-width:0.5;" x1="422.5" x2="549.1963" y1="137.8906" y2="137.8906"/></g><!--class MemberService--><g class="entity" data-qualified-name="Design Model.MemberService" data-source-line="23" id="ent0006"><rect fill="#F1F1F1" height="113.1875" rx="2.5" ry="2.5" style="stroke:#181818;stroke-width:0.5;" width="444.3389" x="22" y="214"/><ellipse cx="185.2559" cy="230" fill="#ADD1B2" rx="11" ry="11" style="stroke:#181818;stroke-width:1;"/><path d="M188.2246,235.6406 Q187.6465,235.9375 187.0059,236.0781 Q186.3652,236.2344 185.6621,236.2344 Q183.1621,236.2344 181.834,234.5938 Q180.5215,232.9375 180.5215,229.8125 Q180.5215,226.6875 181.834,225.0313 Q183.1621,223.375 185.6621,223.375 Q186.3652,223.375 187.0059,223.5313 Q187.6621,223.6875 188.2246,223.9844 L188.2246,226.7031 Q187.5996,226.125 187.0059,225.8594 Q186.4121,225.5781 185.7871,225.5781 Q184.4434,225.5781 183.7559,226.6563 Q183.0684,227.7188 183.0684,229.8125 Q183.0684,231.9063 183.7559,232.9844 Q184.4434,234.0469 185.7871,234.0469 Q186.4121,234.0469 187.0059,233.7813 Q187.5996,233.5 188.2246,232.9219 L188.2246,235.6406 Z " fill="#000000"/><text fill="#000000" font-family="sans-serif" font-size="14" lengthAdjust="spacing" textLength="109.3271" x="205.7559" y="234.8467">MemberService</text><line style="stroke:#181818;stroke-width:0.5;" x1="23" x2="465.3389" y1="246" y2="246"/><line style="stroke:#181818;stroke-width:0.5;" x1="23" x2="465.3389" y1="254" y2="254"/><g data-visibility-modifier="PUBLIC_METHOD"><ellipse cx="33" cy="267.6484" fill="#84BE84" rx="3" ry="3" style="stroke:#038048;stroke-width:1;"/></g><text fill="#000000" font-family="sans-serif" font-size="14" lengthAdjust="spacing" textLength="293.1113" x="42" y="270.9951">inviteMember(data: InviteDTO): Invitation</text><g data-visibility-modifier="PUBLIC_METHOD"><ellipse cx="33" cy="283.9453" fill="#84BE84" rx="3" ry="3" style="stroke:#038048;stroke-width:1;"/></g><text fill="#000000" font-family="sans-serif" font-size="14" lengthAdjust="spacing" textLength="418.3389" x="42" y="287.292">updateMemberRole(userId: UUID, newRole: UserRole): User</text><g data-visibility-modifier="PUBLIC_METHOD"><ellipse cx="33" cy="300.2422" fill="#84BE84" rx="3" ry="3" style="stroke:#038048;stroke-width:1;"/></g><text fill="#000000" font-family="sans-serif" font-size="14" lengthAdjust="spacing" textLength="269.5479" x="42" y="303.5889">deactivateMember(userId: UUID): void</text><g data-visibility-modifier="PUBLIC_METHOD"><ellipse cx="33" cy="316.5391" fill="#84BE84" rx="3" ry="3" style="stroke:#038048;stroke-width:1;"/></g><text fill="#000000" font-family="sans-serif" font-size="14" lengthAdjust="spacing" textLength="330.2646" x="42" y="319.8857">listFamilyMembers(groupId: UUID): List&lt;User&gt;</text></g><!--class MemberController--><g class="entity" data-qualified-name="Design Model.MemberController" data-source-line="30" id="ent0007"><rect fill="#F1F1F1" height="113.1875" rx="2.5" ry="2.5" style="stroke:#181818;stroke-width:0.5;" width="363.7227" x="22" y="41"/><ellipse cx="136.2319" cy="57" fill="#ADD1B2" rx="11" ry="11" style="stroke:#181818;stroke-width:1;"/><path d="M139.2007,62.6406 Q138.6226,62.9375 137.9819,63.0781 Q137.3413,63.2344 136.6382,63.2344 Q134.1382,63.2344 132.8101,61.5938 Q131.4976,59.9375 131.4976,56.8125 Q131.4976,53.6875 132.8101,52.0313 Q134.1382,50.375 136.6382,50.375 Q137.3413,50.375 137.9819,50.5313 Q138.6382,50.6875 139.2007,50.9844 L139.2007,53.7031 Q138.5757,53.125 137.9819,52.8594 Q137.3882,52.5781 136.7632,52.5781 Q135.4194,52.5781 134.7319,53.6563 Q134.0444,54.7188 134.0444,56.8125 Q134.0444,58.9063 134.7319,59.9844 Q135.4194,61.0469 136.7632,61.0469 Q137.3882,61.0469 137.9819,60.7813 Q138.5757,60.5 139.2007,59.9219 L139.2007,62.6406 Z " fill="#000000"/><text fill="#000000" font-family="sans-serif" font-size="14" lengthAdjust="spacing" textLength="126.7588" x="156.7319" y="61.8467">MemberController</text><line style="stroke:#181818;stroke-width:0.5;" x1="23" x2="384.7227" y1="73" y2="73"/><line style="stroke:#181818;stroke-width:0.5;" x1="23" x2="384.7227" y1="81" y2="81"/><g data-visibility-modifier="PUBLIC_METHOD"><ellipse cx="33" cy="94.6484" fill="#84BE84" rx="3" ry="3" style="stroke:#038048;stroke-width:1;"/></g><text fill="#000000" font-family="sans-serif" font-size="14" lengthAdjust="spacing" textLength="277.6621" x="42" y="97.9951">postInvite(request: Request): Response</text><g data-visibility-modifier="PUBLIC_METHOD"><ellipse cx="33" cy="110.9453" fill="#84BE84" rx="3" ry="3" style="stroke:#038048;stroke-width:1;"/></g><text fill="#000000" font-family="sans-serif" font-size="14" lengthAdjust="spacing" textLength="337.7227" x="42" y="114.292">putRole(userId: UUID, role: UserRole): Response</text><g data-visibility-modifier="PUBLIC_METHOD"><ellipse cx="33" cy="127.2422" fill="#84BE84" rx="3" ry="3" style="stroke:#038048;stroke-width:1;"/></g><text fill="#000000" font-family="sans-serif" font-size="14" lengthAdjust="spacing" textLength="277.7715" x="42" y="130.5889">deleteMember(userId: UUID): Response</text><g data-visibility-modifier="PUBLIC_METHOD"><ellipse cx="33" cy="143.5391" fill="#84BE84" rx="3" ry="3" style="stroke:#038048;stroke-width:1;"/></g><text fill="#000000" font-family="sans-serif" font-size="14" lengthAdjust="spacing" textLength="218.1553" x="42" y="146.8857">getMembers(): List&lt;UserDTO&gt;</text></g><!--link MemberController to MemberService--><g class="link" data-entity-1="ent0007" data-entity-2="ent0006" data-link-type="dependency" data-source-line="37" id="lnk8"><path codeLine="37" d="M216.99,154.02 C221.48,173.23 225.1551,188.9073 229.6451,208.1273" fill="none" id="MemberController-to-MemberService" style="stroke:#181818;stroke-width:1;"/><polygon fill="#181818" points="231.01,213.97,232.8578,204.296,229.8726,209.1011,225.0675,206.1159,231.01,213.97" style="stroke:#181818;stroke-width:1;"/></g><!--link MemberService to User--><g class="link" data-entity-1="ent0006" data-entity-2="ent0003" data-link-type="dependency" data-source-line="38" id="lnk9"><path codeLine="38" d="M244,327.25 C244,345.92 244,361.02 244,380.77" fill="none" id="MemberService-to-User" style="stroke:#181818;stroke-width:1;stroke-dasharray:7,7;"/><polygon fill="#181818" points="244,386.77,248,377.77,244,381.77,240,377.77,244,386.77" style="stroke:#181818;stroke-width:1;"/></g><?plantuml-src TLBRJeGm47tVhsZsYOtkVW0ncwYWQI9esCihgJ2Inj9YBnXZzjyjb2LbPVl2zFJCOSxCDAJu91MWPGIALXmbeWIsHByBP4_1Y5Bee40EG7Tk42r3T3ZWo8CugI54EoqfhpmOQaBP32u5i_HEEBEHzw0qqKQvfrqVUuyVfARi9w-aC4q-AUAqw3_0JJsgUYNVHmbEnriI9mznbi-1isAk3b_kSO-FyNZ5wGNm5gSHJfzpd1xnFlOrNKCJgD-jBCYM5Z3jB6-f1lSUb4IJ4E4UYlQlgo4ccWhkvPZ64eUSpdTWRCruwCujul2TJRgzSg6dK08fD6r7bOc2fRU2bXwTKQMV-b4ukWhwYNW9BvPnr_raUytye-3QBW6xsAn6AEqC1nA-32WTeim5govIZU3AtvV6w1dFyjBmJAPTSxXcU8PUWJwxzGtQkKmy_dEtNc-dy_PevmtORBPk9AS_?></g></svg>