<?plantuml 1.2026.2?><svg xmlns="http://www.w3.org/2000/svg" xmlns:xlink="http://www.w3.org/1999/xlink" contentStyleType="text/css" data-diagram-type="SEQUENCE" height="474px" preserveAspectRatio="none" style="width:1021px;height:474px;background:#FFFFFF;" version="1.1" viewBox="0 0 1021 474" width="1021px" zoomAndPan="magnify"><defs/><g><g><title>..UI React..</title><rect fill="#FFFFFF" height="262.1953" style="stroke:#000000;stroke-width:1;" width="10" x="199.2417" y="113.4297"/></g><g><title>..Router FastAPI..</title><rect fill="#FFFFFF" height="203.9297" style="stroke:#000000;stroke-width:1;" width="10" x="379.6704" y="142.5625"/></g><g><title>..L.gica..</title><rect fill="#FFFFFF" height="145.6641" style="stroke:#000000;stroke-width:1;" width="10" x="560.0991" y="171.6953"/></g><g><title>..Capa Datos SQLAlchemy..</title><rect fill="#FFFFFF" height="87.3984" style="stroke:#000000;stroke-width:1;" width="10" x="806.2026" y="200.8281"/></g><g><title>PostgreSQL</title><rect fill="#FFFFFF" height="29.1328" style="stroke:#000000;stroke-width:1;" width="10" x="972.0737" y="229.9609"/></g><g class="participant-lifeline" data-entity-uid="part1" data-qualified-name="Usuario" id="part1-lifeline"><g><title>Usuario</title><rect fill="#000000" fill-opacity="0.00000" height="311.3281" width="8" x="35.6021" y="82.2969"/><line style="stroke:#000000;stroke-width:1;stroke-dasharray:5,5;" x1="39" x2="39" y1="82.2969" y2="393.625"/></g></g><g class="participant-lifeline" data-entity-uid="part2" data-qualified-name="ListarTareasView" id="part2-lifeline"><g><title>..UI React..</title><rect fill="#000000" fill-opacity="0.00000" height="311.3281" width="8" x="200.2417" y="82.2969"/><line style="stroke:#000000;stroke-width:1;stroke-dasharray:5,5;" x1="203.3862" x2="203.3862" y1="82.2969" y2="393.625"/></g></g><g class="participant-lifeline" data-entity-uid="part3" data-qualified-name="TareasController" id="part3-lifeline"><g><title>..Router FastAPI..</title><rect fill="#000000" fill-opacity="0.00000" height="311.3281" width="8" x="380.6704" y="82.2969"/><line style="stroke:#000000;stroke-width:1;stroke-dasharray:5,5;" x1="384.5107" x2="384.5107" y1="82.2969" y2="393.625"/></g></g><g class="participant-lifeline" data-entity-uid="part4" data-qualified-name="TareasService" id="part4-lifeline"><g><title>..L.gica..</title><rect fill="#000000" fill-opacity="0.00000" height="311.3281" width="8" x="561.0991" y="82.2969"/><line style="stroke:#000000;stroke-width:1;stroke-dasharray:5,5;" x1="564.542" x2="564.542" y1="82.2969" y2="393.625"/></g></g><g class="participant-lifeline" data-entity-uid="part5" data-qualified-name="TareaRepository" id="part5-lifeline"><g><title>..Capa Datos SQLAlchemy..</title><rect fill="#000000" fill-opacity="0.00000" height="311.3281" width="8" x="807.2026" y="82.2969"/><line style="stroke:#000000;stroke-width:1;stroke-dasharray:5,5;" x1="810.708" x2="810.708" y1="82.2969" y2="393.625"/></g></g><g class="participant-lifeline" data-entity-uid="part6" data-qualified-name="PostgreSQL" id="part6-lifeline"><g><title>PostgreSQL</title><rect fill="#000000" fill-opacity="0.00000" height="311.3281" width="8" x="973.0737" y="82.2969"/><line style="stroke:#000000;stroke-width:1;stroke-dasharray:5,5;" x1="976.6973" x2="976.6973" y1="82.2969" y2="393.625"/></g></g><g class="participant participant-head" data-entity-uid="part1" data-qualified-name="Usuario" id="part1-head"><text fill="#000000" font-family="Verdana" font-size="14" lengthAdjust="spacing" textLength="53.2041" x="10" y="78.9951">Usuario</text><ellipse cx="39.6021" cy="14" fill="#FFFFFF" rx="8" ry="8" style="stroke:#000000;stroke-width:1;"/><path d="M39.6021,22 L39.6021,49 M26.6021,30 L52.6021,30 M39.6021,49 L26.6021,64 M39.6021,49 L52.6021,64" fill="none" style="stroke:#000000;stroke-width:1;"/></g><g class="participant participant-tail" data-entity-uid="part1" data-qualified-name="Usuario" id="part1-tail"><text fill="#000000" font-family="Verdana" font-size="14" lengthAdjust="spacing" textLength="53.2041" x="10" y="405.6201">Usuario</text><ellipse cx="39.6021" cy="417.9219" fill="#FFFFFF" rx="8" ry="8" style="stroke:#000000;stroke-width:1;"/><path d="M39.6021,425.9219 L39.6021,452.9219 M26.6021,433.9219 L52.6021,433.9219 M39.6021,452.9219 L26.6021,467.9219 M39.6021,452.9219 L52.6021,467.9219" fill="none" style="stroke:#000000;stroke-width:1;"/></g><g class="participant participant-head" data-entity-uid="part2" data-qualified-name="ListarTareasView" id="part2-head"><rect fill="#FFFFFF" height="46.5938" rx="2.5" ry="2.5" style="stroke:#000000;stroke-width:1;" width="133.7109" x="137.3862" y="34.7031"/><text fill="#000000" font-family="Verdana" font-size="14" font-style="italic" lengthAdjust="spacing" textLength="76.2139" x="166.1348" y="54.6982">&#171;UI React&#187;</text><text fill="#000000" font-family="Verdana" font-size="14" lengthAdjust="spacing" textLength="119.7109" x="144.3862" y="70.9951">ListarTareasView</text></g><g class="participant participant-tail" data-entity-uid="part2" data-qualified-name="ListarTareasView" id="part2-tail"><rect fill="#FFFFFF" height="46.5938" rx="2.5" ry="2.5" style="stroke:#000000;stroke-width:1;" width="133.7109" x="137.3862" y="392.625"/><text fill="#000000" font-family="Verdana" font-size="14" font-style="italic" lengthAdjust="spacing" textLength="76.2139" x="166.1348" y="412.6201">&#171;UI React&#187;</text><text fill="#000000" font-family="Verdana" font-size="14" lengthAdjust="spacing" textLength="119.7109" x="144.3862" y="428.917">ListarTareasView</text></g><g class="participant participant-head" data-entity-uid="part3" data-qualified-name="TareasController" id="part3-head"><rect fill="#FFFFFF" height="46.5938" rx="2.5" ry="2.5" style="stroke:#000000;stroke-width:1;" width="134.3193" x="317.5107" y="34.7031"/><text fill="#000000" font-family="Verdana" font-size="14" font-style="italic" lengthAdjust="spacing" textLength="120.3193" x="324.5107" y="54.6982">&#171;Router FastAPI&#187;</text><text fill="#000000" font-family="Verdana" font-size="14" lengthAdjust="spacing" textLength="116.5459" x="326.3975" y="70.9951">TareasController</text></g><g class="participant participant-tail" data-entity-uid="part3" data-qualified-name="TareasController" id="part3-tail"><rect fill="#FFFFFF" height="46.5938" rx="2.5" ry="2.5" style="stroke:#000000;stroke-width:1;" width="134.3193" x="317.5107" y="392.625"/><text fill="#000000" font-family="Verdana" font-size="14" font-style="italic" lengthAdjust="spacing" textLength="120.3193" x="324.5107" y="412.6201">&#171;Router FastAPI&#187;</text><text fill="#000000" font-family="Verdana" font-size="14" lengthAdjust="spacing" textLength="116.5459" x="326.3975" y="428.917">TareasController</text></g><g class="participant participant-head" data-entity-uid="part4" data-qualified-name="TareasService" id="part4-head"><rect fill="#FFFFFF" height="46.5938" rx="2.5" ry="2.5" style="stroke:#000000;stroke-width:1;" width="113.1143" x="508.542" y="34.7031"/><text fill="#000000" font-family="Verdana" font-size="14" font-style="italic" lengthAdjust="spacing" textLength="62.6992" x="533.7495" y="54.6982">&#171;L&#243;gica&#187;</text><text fill="#000000" font-family="Verdana" font-size="14" lengthAdjust="spacing" textLength="99.1143" x="515.542" y="70.9951">TareasService</text></g><g class="participant participant-tail" data-entity-uid="part4" data-qualified-name="TareasService" id="part4-tail"><rect fill="#FFFFFF" height="46.5938" rx="2.5" ry="2.5" style="stroke:#000000;stroke-width:1;" width="113.1143" x="508.542" y="392.625"/><text fill="#000000" font-family="Verdana" font-size="14" font-style="italic" lengthAdjust="spacing" textLength="62.6992" x="533.7495" y="412.6201">&#171;L&#243;gica&#187;</text><text fill="#000000" font-family="Verdana" font-size="14" lengthAdjust="spacing" textLength="99.1143" x="515.542" y="428.917">TareasService</text></g><g class="participant participant-head" data-entity-uid="part5" data-qualified-name="TareaRepository" id="part5-head"><rect fill="#FFFFFF" height="46.5938" rx="2.5" ry="2.5" style="stroke:#000000;stroke-width:1;" width="204.9893" x="708.708" y="34.7031"/><text fill="#000000" font-family="Verdana" font-size="14" font-style="italic" lengthAdjust="spacing" textLength="190.9893" x="715.708" y="54.6982">&#171;Capa Datos SQLAlchemy&#187;</text><text fill="#000000" font-family="Verdana" font-size="14" lengthAdjust="spacing" textLength="115.1514" x="753.627" y="70.9951">TareaRepository</text></g><g class="participant participant-tail" data-entity-uid="part5" data-qualified-name="TareaRepository" id="part5-tail"><rect fill="#FFFFFF" height="46.5938" rx="2.5" ry="2.5" style="stroke:#000000;stroke-width:1;" width="204.9893" x="708.708" y="392.625"/><text fill="#000000" font-family="Verdana" font-size="14" font-style="italic" lengthAdjust="spacing" textLength="190.9893" x="715.708" y="412.6201">&#171;Capa Datos SQLAlchemy&#187;</text><text fill="#000000" font-family="Verdana" font-size="14" lengthAdjust="spacing" textLength="115.1514" x="753.627" y="428.917">TareaRepository</text></g><g class="participant participant-head" data-entity-uid="part6" data-qualified-name="PostgreSQL" id="part6-head"><text fill="#000000" font-family="Verdana" font-size="14" lengthAdjust="spacing" textLength="80.7529" x="933.6973" y="78.9951">PostgreSQL</text><path d="M959.0737,30 C959.0737,20 977.0737,20 977.0737,20 C977.0737,20 995.0737,20 995.0737,30 L995.0737,56 C995.0737,66 977.0737,66 977.0737,66 C977.0737,66 959.0737,66 959.0737,56 L959.0737,30" fill="#FFFFFF" style="stroke:#000000;stroke-width:1;"/><path d="M959.0737,30 C959.0737,40 977.0737,40 977.0737,40 C977.0737,40 995.0737,40 995.0737,30" fill="none" style="stroke:#000000;stroke-width:1;"/></g><g class="participant participant-tail" data-entity-uid="part6" data-qualified-name="PostgreSQL" id="part6-tail"><text fill="#000000" font-family="Verdana" font-size="14" lengthAdjust="spacing" textLength="80.7529" x="933.6973" y="405.6201">PostgreSQL</text><path d="M959.0737,418.9219 C959.0737,408.9219 977.0737,408.9219 977.0737,408.9219 C977.0737,408.9219 995.0737,408.9219 995.0737,418.9219 L995.0737,444.9219 C995.0737,454.9219 977.0737,454.9219 977.0737,454.9219 C977.0737,454.9219 959.0737,454.9219 959.0737,444.9219 L959.0737,418.9219" fill="#FFFFFF" style="stroke:#000000;stroke-width:1;"/><path d="M959.0737,418.9219 C959.0737,428.9219 977.0737,428.9219 977.0737,428.9219 C977.0737,428.9219 995.0737,428.9219 995.0737,418.9219" fill="none" style="stroke:#000000;stroke-width:1;"/></g><g><title>..UI React..</title><rect fill="#FFFFFF" height="262.1953" style="stroke:#000000;stroke-width:1;" width="10" x="199.2417" y="113.4297"/></g><g><title>..Router FastAPI..</title><rect fill="#FFFFFF" height="203.9297" style="stroke:#000000;stroke-width:1;" width="10" x="379.6704" y="142.5625"/></g><g><title>..L.gica..</title><rect fill="#FFFFFF" height="145.6641" style="stroke:#000000;stroke-width:1;" width="10" x="560.0991" y="171.6953"/></g><g><title>..Capa Datos SQLAlchemy..</title><rect fill="#FFFFFF" height="87.3984" style="stroke:#000000;stroke-width:1;" width="10" x="806.2026" y="200.8281"/></g><g><title>PostgreSQL</title><rect fill="#FFFFFF" height="29.1328" style="stroke:#000000;stroke-width:1;" width="10" x="972.0737" y="229.9609"/></g><g class="message" data-entity-1="part1" data-entity-2="part2" id="msg1"><polygon fill="#000000" points="187.2417,109.4297,197.2417,113.4297,187.2417,117.4297,191.2417,113.4297" style="stroke:#000000;stroke-width:1;"/><line style="stroke:#000000;stroke-width:1;" x1="39.6021" x2="193.2417" y1="113.4297" y2="113.4297"/><text fill="#000000" font-family="Verdana" font-size="13" font-weight="bold" lengthAdjust="spacing" textLength="9.0454" x="46.6021" y="108.3638">1</text><text fill="#000000" font-family="Verdana" font-size="13" lengthAdjust="spacing" textLength="127.5942" x="59.6475" y="108.3638">Interact&#250;a con la UI</text></g><g class="message" data-entity-1="part2" data-entity-2="part3" id="msg2"><polygon fill="#000000" points="367.6704,138.5625,377.6704,142.5625,367.6704,146.5625,371.6704,142.5625" style="stroke:#000000;stroke-width:1;"/><line style="stroke:#000000;stroke-width:1;" x1="209.2417" x2="373.6704" y1="142.5625" y2="142.5625"/><text fill="#000000" font-family="Verdana" font-size="13" font-weight="bold" lengthAdjust="spacing" textLength="9.0454" x="216.2417" y="137.4966">2</text><text fill="#000000" font-family="Verdana" font-size="13" lengthAdjust="spacing" textLength="75.8862" x="229.2871" y="137.4966">GET /tareas</text></g><g class="message" data-entity-1="part3" data-entity-2="part4" id="msg3"><polygon fill="#000000" points="548.0991,167.6953,558.0991,171.6953,548.0991,175.6953,552.0991,171.6953" style="stroke:#000000;stroke-width:1;"/><line style="stroke:#000000;stroke-width:1;" x1="389.6704" x2="554.0991" y1="171.6953" y2="171.6953"/><text fill="#000000" font-family="Verdana" font-size="13" font-weight="bold" lengthAdjust="spacing" textLength="9.0454" x="396.6704" y="166.6294">3</text><text fill="#000000" font-family="Verdana" font-size="13" lengthAdjust="spacing" textLength="107.2246" x="409.7158" y="166.6294">Delegar petici&#243;n</text></g><g class="message" data-entity-1="part4" data-entity-2="part5" id="msg4"><polygon fill="#000000" points="794.2026,196.8281,804.2026,200.8281,794.2026,204.8281,798.2026,200.8281" style="stroke:#000000;stroke-width:1;"/><line style="stroke:#000000;stroke-width:1;" x1="570.0991" x2="800.2026" y1="200.8281" y2="200.8281"/><text fill="#000000" font-family="Verdana" font-size="13" font-weight="bold" lengthAdjust="spacing" textLength="9.0454" x="577.0991" y="195.7622">4</text><text fill="#000000" font-family="Verdana" font-size="13" lengthAdjust="spacing" textLength="204.0581" x="590.1445" y="195.7622">obtenerTareasPorGrupo(grupo)</text></g><g class="message" data-entity-1="part5" data-entity-2="part6" id="msg5"><polygon fill="#000000" points="960.0737,225.9609,970.0737,229.9609,960.0737,233.9609,964.0737,229.9609" style="stroke:#000000;stroke-width:1;"/><line style="stroke:#000000;stroke-width:1;" x1="816.2026" x2="966.0737" y1="229.9609" y2="229.9609"/><text fill="#000000" font-family="Verdana" font-size="13" font-weight="bold" lengthAdjust="spacing" textLength="9.0454" x="823.2026" y="224.895">5</text><text fill="#000000" font-family="Verdana" font-size="13" lengthAdjust="spacing" textLength="48.9404" x="836.248" y="224.895">SELECT</text></g><g class="message" data-entity-1="part6" data-entity-2="part5" id="msg6"><polygon fill="#000000" points="827.2026,255.0938,817.2026,259.0938,827.2026,263.0938,823.2026,259.0938" style="stroke:#000000;stroke-width:1;"/><line style="stroke:#000000;stroke-width:1;stroke-dasharray:2,2;" x1="821.2026" x2="976.0737" y1="259.0938" y2="259.0938"/><text fill="#000000" font-family="Verdana" font-size="13" font-weight="bold" lengthAdjust="spacing" textLength="9.0454" x="833.2026" y="254.0278">6</text><text fill="#000000" font-family="Verdana" font-size="13" lengthAdjust="spacing" textLength="71.6968" x="846.248" y="254.0278">Resultados</text></g><g class="message" data-entity-1="part5" data-entity-2="part4" id="msg7"><polygon fill="#000000" points="581.0991,284.2266,571.0991,288.2266,581.0991,292.2266,577.0991,288.2266" style="stroke:#000000;stroke-width:1;"/><line style="stroke:#000000;stroke-width:1;stroke-dasharray:2,2;" x1="575.0991" x2="810.2026" y1="288.2266" y2="288.2266"/><text fill="#000000" font-family="Verdana" font-size="13" font-weight="bold" lengthAdjust="spacing" textLength="9.0454" x="587.0991" y="283.1606">7</text><text fill="#000000" font-family="Verdana" font-size="13" lengthAdjust="spacing" textLength="133.3833" x="600.1445" y="283.1606">Devuelve resultados</text></g><g class="message" data-entity-1="part4" data-entity-2="part3" id="msg8"><polygon fill="#000000" points="400.6704,313.3594,390.6704,317.3594,400.6704,321.3594,396.6704,317.3594" style="stroke:#000000;stroke-width:1;"/><line style="stroke:#000000;stroke-width:1;stroke-dasharray:2,2;" x1="394.6704" x2="564.0991" y1="317.3594" y2="317.3594"/><text fill="#000000" font-family="Verdana" font-size="13" font-weight="bold" lengthAdjust="spacing" textLength="9.0454" x="406.6704" y="312.2935">8</text><text fill="#000000" font-family="Verdana" font-size="13" lengthAdjust="spacing" textLength="133.3833" x="419.7158" y="312.2935">Devuelve resultados</text></g><g class="message" data-entity-1="part3" data-entity-2="part2" id="msg9"><polygon fill="#000000" points="220.2417,342.4922,210.2417,346.4922,220.2417,350.4922,216.2417,346.4922" style="stroke:#000000;stroke-width:1;"/><line style="stroke:#000000;stroke-width:1;stroke-dasharray:2,2;" x1="214.2417" x2="383.6704" y1="346.4922" y2="346.4922"/><text fill="#000000" font-family="Verdana" font-size="13" font-weight="bold" lengthAdjust="spacing" textLength="9.0454" x="226.2417" y="341.4263">9</text><text fill="#000000" font-family="Verdana" font-size="13" lengthAdjust="spacing" textLength="133.3833" x="239.2871" y="341.4263">Devuelve resultados</text></g><g class="message" data-entity-1="part2" data-entity-2="part1" id="msg10"><polygon fill="#000000" points="50.6021,371.625,40.6021,375.625,50.6021,379.625,46.6021,375.625" style="stroke:#000000;stroke-width:1;"/><line style="stroke:#000000;stroke-width:1;stroke-dasharray:2,2;" x1="44.6021" x2="203.2417" y1="375.625" y2="375.625"/><text fill="#000000" font-family="Verdana" font-size="13" font-weight="bold" lengthAdjust="spacing" textLength="18.0908" x="56.6021" y="370.5591">10</text><text fill="#000000" font-family="Verdana" font-size="13" lengthAdjust="spacing" textLength="83.8271" x="78.6929" y="370.5591">Muestra lista</text></g><?plantuml-src ZP8nRy8m48Lt_uhhrWweUuIG450KAPLeWEv7E0LBnexiSof-5rjN_bYT5fgGU629ekIzp_UUxuaFT2Ie54ejqBFH_hWZAmGMR2nidKShZQZGiYnaXPeXauxHRj0Ikaz9Np0URrF8AJWcaplbdsPcD5kZ5DcWp8tdyFA6ZgUhDAfVawrbGK6SNSwbB32cogaoJeOHJq4tmmfXZcmSh3-ogIf2fbDmxP5nXuvWPHoNbi9F8QwHO3GP9aaWrM6yaEJoZL0O3GfXcpPbo1gP1WunG0Ji87O2oyK6NldtUmlhwyJ0-0-xTPB0d1ILQA6Yff3BMVTvLwcuDzv8dTuIC3icJTVfLyOkhQ_CSzayNthOrYVwd81k-mtKzI9Rp3QjlrD-HpUAJfIJyufnRvpOKummE3nQKUr9rGGsIelcQOkAN-0Zp5xrtNkCBzj3qCv-39SjS6_xdC2x9ySMGJMoBgZl-m40?></g></svg>