<?plantuml 1.2026.2?><svg xmlns="http://www.w3.org/2000/svg" xmlns:xlink="http://www.w3.org/1999/xlink" contentStyleType="text/css" data-diagram-type="SEQUENCE" height="533px" preserveAspectRatio="none" style="width:1293px;height:533px;background:#FFFFFF;" version="1.1" viewBox="0 0 1293 533" width="1293px" zoomAndPan="magnify"><defs/><g><g><title>..control..</title><rect fill="#FFFFFF" height="262.1953" style="stroke:#000000;stroke-width:1;" width="10" x="391.1299" y="142.5625"/></g><g><title>..boundary..</title><rect fill="#FFFFFF" height="203.9297" style="stroke:#000000;stroke-width:1;" width="10" x="568.0991" y="171.6953"/></g><g><title>..control..</title><rect fill="#FFFFFF" height="145.6641" style="stroke:#000000;stroke-width:1;" width="10" x="797.0195" y="200.8281"/></g><g><title>..entity..</title><rect fill="#FFFFFF" height="87.3984" style="stroke:#000000;stroke-width:1;" width="10" x="1062.0898" y="229.9609"/></g><g><title>PostgreSQL</title><rect fill="#FFFFFF" height="29.1328" style="stroke:#000000;stroke-width:1;" width="10" x="1244.0693" y="259.0938"/></g><g class="participant-lifeline" data-entity-uid="part1" data-qualified-name="Usuario" id="part1-lifeline"><g><title>Usuario</title><rect fill="#000000" fill-opacity="0.00000" height="369.5938" width="8" x="35.6021" y="82.2969"/><line style="stroke:#000000;stroke-width:1;stroke-dasharray:5,5;" x1="39" x2="39" y1="82.2969" y2="451.8906"/></g></g><g class="participant-lifeline" data-entity-uid="part2" data-qualified-name="DP" id="part2-lifeline"><g><title>..boundary..</title><rect fill="#000000" fill-opacity="0.00000" height="369.5938" width="8" x="209.7568" y="82.2969"/><line style="stroke:#000000;stroke-width:1;stroke-dasharray:5,5;" x1="213.396" x2="213.396" y1="82.2969" y2="451.8906"/></g></g><g class="participant-lifeline" data-entity-uid="part3" data-qualified-name="UT" id="part3-lifeline"><g><title>..control..</title><rect fill="#000000" fill-opacity="0.00000" height="369.5938" width="8" x="392.1299" y="82.2969"/><line style="stroke:#000000;stroke-width:1;stroke-dasharray:5,5;" x1="396.0713" x2="396.0713" y1="82.2969" y2="451.8906"/></g></g><g class="participant-lifeline" data-entity-uid="part4" data-qualified-name="TR" id="part4-lifeline"><g><title>..boundary..</title><rect fill="#000000" fill-opacity="0.00000" height="369.5938" width="8" x="569.0991" y="82.2969"/><line style="stroke:#000000;stroke-width:1;stroke-dasharray:5,5;" x1="572.106" x2="572.106" y1="82.2969" y2="451.8906"/></g></g><g class="participant-lifeline" data-entity-uid="part5" data-qualified-name="TS" id="part5-lifeline"><g><title>..control..</title><rect fill="#000000" fill-opacity="0.00000" height="369.5938" width="8" x="798.0195" y="82.2969"/><line style="stroke:#000000;stroke-width:1;stroke-dasharray:5,5;" x1="801.8828" x2="801.8828" y1="82.2969" y2="451.8906"/></g></g><g class="participant-lifeline" data-entity-uid="part6" data-qualified-name="TREP" id="part6-lifeline"><g><title>..entity..</title><rect fill="#000000" fill-opacity="0.00000" height="369.5938" width="8" x="1063.0898" y="82.2969"/><line style="stroke:#000000;stroke-width:1;stroke-dasharray:5,5;" x1="1066.2876" x2="1066.2876" y1="82.2969" y2="451.8906"/></g></g><g class="participant-lifeline" data-entity-uid="part7" data-qualified-name="DB" id="part7-lifeline"><g><title>PostgreSQL</title><rect fill="#000000" fill-opacity="0.00000" height="369.5938" width="8" x="1245.0693" y="82.2969"/><line style="stroke:#000000;stroke-width:1;stroke-dasharray:5,5;" x1="1248.6929" x2="1248.6929" y1="82.2969" y2="451.8906"/></g></g><g class="participant participant-head" data-entity-uid="part1" data-qualified-name="Usuario" id="part1-head"><text fill="#000000" font-family="Verdana" font-size="14" lengthAdjust="spacing" textLength="53.2041" x="10" y="78.9951">Usuario</text><ellipse cx="39.6021" cy="14" fill="#FFFFFF" rx="8" ry="8" style="stroke:#000000;stroke-width:1;"/><path d="M39.6021,22 L39.6021,49 M26.6021,30 L52.6021,30 M39.6021,49 L26.6021,64 M39.6021,49 L52.6021,64" fill="none" style="stroke:#000000;stroke-width:1;"/></g><g class="participant participant-tail" data-entity-uid="part1" data-qualified-name="Usuario" id="part1-tail"><text fill="#000000" font-family="Verdana" font-size="14" lengthAdjust="spacing" textLength="53.2041" x="10" y="463.8857">Usuario</text><ellipse cx="39.6021" cy="476.1875" fill="#FFFFFF" rx="8" ry="8" style="stroke:#000000;stroke-width:1;"/><path d="M39.6021,484.1875 L39.6021,511.1875 M26.6021,492.1875 L52.6021,492.1875 M39.6021,511.1875 L26.6021,526.1875 M39.6021,511.1875 L52.6021,526.1875" fill="none" style="stroke:#000000;stroke-width:1;"/></g><g class="participant participant-head" data-entity-uid="part2" data-qualified-name="DP" id="part2-head"><rect fill="#FFFFFF" height="46.5938" rx="2.5" ry="2.5" style="stroke:#000000;stroke-width:1;" width="124.7217" x="151.396" y="34.7031"/><text fill="#000000" font-family="Verdana" font-size="14" font-style="italic" lengthAdjust="spacing" textLength="83.9863" x="171.7637" y="54.6982">&#171;boundary&#187;</text><text fill="#000000" font-family="Verdana" font-size="14" lengthAdjust="spacing" textLength="110.7217" x="158.396" y="70.9951">DashboardPage</text></g><g class="participant participant-tail" data-entity-uid="part2" data-qualified-name="DP" id="part2-tail"><rect fill="#FFFFFF" height="46.5938" rx="2.5" ry="2.5" style="stroke:#000000;stroke-width:1;" width="124.7217" x="151.396" y="450.8906"/><text fill="#000000" font-family="Verdana" font-size="14" font-style="italic" lengthAdjust="spacing" textLength="83.9863" x="171.7637" y="470.8857">&#171;boundary&#187;</text><text fill="#000000" font-family="Verdana" font-size="14" lengthAdjust="spacing" textLength="110.7217" x="158.396" y="487.1826">DashboardPage</text></g><g class="participant participant-head" data-entity-uid="part3" data-qualified-name="UT" id="part3-head"><rect fill="#FFFFFF" height="46.5938" rx="2.5" ry="2.5" style="stroke:#000000;stroke-width:1;" width="80.1172" x="356.0713" y="34.7031"/><text fill="#000000" font-family="Verdana" font-size="14" font-style="italic" lengthAdjust="spacing" textLength="66.1172" x="363.0713" y="54.6982">&#171;control&#187;</text><text fill="#000000" font-family="Verdana" font-size="14" lengthAdjust="spacing" textLength="64.6064" x="363.8267" y="70.9951">useTasks</text></g><g class="participant participant-tail" data-entity-uid="part3" data-qualified-name="UT" id="part3-tail"><rect fill="#FFFFFF" height="46.5938" rx="2.5" ry="2.5" style="stroke:#000000;stroke-width:1;" width="80.1172" x="356.0713" y="450.8906"/><text fill="#000000" font-family="Verdana" font-size="14" font-style="italic" lengthAdjust="spacing" textLength="66.1172" x="363.0713" y="470.8857">&#171;control&#187;</text><text fill="#000000" font-family="Verdana" font-size="14" lengthAdjust="spacing" textLength="64.6064" x="363.8267" y="487.1826">useTasks</text></g><g class="participant participant-head" data-entity-uid="part4" data-qualified-name="TR" id="part4-head"><rect fill="#FFFFFF" height="46.5938" rx="2.5" ry="2.5" style="stroke:#000000;stroke-width:1;" width="97.9863" x="524.106" y="34.7031"/><text fill="#000000" font-family="Verdana" font-size="14" font-style="italic" lengthAdjust="spacing" textLength="83.9863" x="531.106" y="54.6982">&#171;boundary&#187;</text><text fill="#000000" font-family="Verdana" font-size="14" lengthAdjust="spacing" textLength="79.5566" x="533.3208" y="70.9951">TaskRouter</text></g><g class="participant participant-tail" data-entity-uid="part4" data-qualified-name="TR" id="part4-tail"><rect fill="#FFFFFF" height="46.5938" rx="2.5" ry="2.5" style="stroke:#000000;stroke-width:1;" width="97.9863" x="524.106" y="450.8906"/><text fill="#000000" font-family="Verdana" font-size="14" font-style="italic" lengthAdjust="spacing" textLength="83.9863" x="531.106" y="470.8857">&#171;boundary&#187;</text><text fill="#000000" font-family="Verdana" font-size="14" lengthAdjust="spacing" textLength="79.5566" x="533.3208" y="487.1826">TaskRouter</text></g><g class="participant participant-head" data-entity-uid="part5" data-qualified-name="TS" id="part5-head"><rect fill="#FFFFFF" height="46.5938" rx="2.5" ry="2.5" style="stroke:#000000;stroke-width:1;" width="98.2734" x="752.8828" y="34.7031"/><text fill="#000000" font-family="Verdana" font-size="14" font-style="italic" lengthAdjust="spacing" textLength="66.1172" x="768.9609" y="54.6982">&#171;control&#187;</text><text fill="#000000" font-family="Verdana" font-size="14" lengthAdjust="spacing" textLength="84.2734" x="759.8828" y="70.9951">TaskService</text></g><g class="participant participant-tail" data-entity-uid="part5" data-qualified-name="TS" id="part5-tail"><rect fill="#FFFFFF" height="46.5938" rx="2.5" ry="2.5" style="stroke:#000000;stroke-width:1;" width="98.2734" x="752.8828" y="450.8906"/><text fill="#000000" font-family="Verdana" font-size="14" font-style="italic" lengthAdjust="spacing" textLength="66.1172" x="768.9609" y="470.8857">&#171;control&#187;</text><text fill="#000000" font-family="Verdana" font-size="14" lengthAdjust="spacing" textLength="84.2734" x="759.8828" y="487.1826">TaskService</text></g><g class="participant participant-head" data-entity-uid="part6" data-qualified-name="TREP" id="part6-head"><rect fill="#FFFFFF" height="46.5938" rx="2.5" ry="2.5" style="stroke:#000000;stroke-width:1;" width="121.6045" x="1006.2876" y="34.7031"/><text fill="#000000" font-family="Verdana" font-size="14" font-style="italic" lengthAdjust="spacing" textLength="57.9209" x="1038.1294" y="54.6982">&#171;entity&#187;</text><text fill="#000000" font-family="Verdana" font-size="14" lengthAdjust="spacing" textLength="107.6045" x="1013.2876" y="70.9951">TaskRepository</text></g><g class="participant participant-tail" data-entity-uid="part6" data-qualified-name="TREP" id="part6-tail"><rect fill="#FFFFFF" height="46.5938" rx="2.5" ry="2.5" style="stroke:#000000;stroke-width:1;" width="121.6045" x="1006.2876" y="450.8906"/><text fill="#000000" font-family="Verdana" font-size="14" font-style="italic" lengthAdjust="spacing" textLength="57.9209" x="1038.1294" y="470.8857">&#171;entity&#187;</text><text fill="#000000" font-family="Verdana" font-size="14" lengthAdjust="spacing" textLength="107.6045" x="1013.2876" y="487.1826">TaskRepository</text></g><g class="participant participant-head" data-entity-uid="part7" data-qualified-name="DB" id="part7-head"><text fill="#000000" font-family="Verdana" font-size="14" lengthAdjust="spacing" textLength="80.7529" x="1205.6929" y="78.9951">PostgreSQL</text><path d="M1231.0693,30 C1231.0693,20 1249.0693,20 1249.0693,20 C1249.0693,20 1267.0693,20 1267.0693,30 L1267.0693,56 C1267.0693,66 1249.0693,66 1249.0693,66 C1249.0693,66 1231.0693,66 1231.0693,56 L1231.0693,30" fill="#FFFFFF" style="stroke:#000000;stroke-width:1;"/><path d="M1231.0693,30 C1231.0693,40 1249.0693,40 1249.0693,40 C1249.0693,40 1267.0693,40 1267.0693,30" fill="none" style="stroke:#000000;stroke-width:1;"/></g><g class="participant participant-tail" data-entity-uid="part7" data-qualified-name="DB" id="part7-tail"><text fill="#000000" font-family="Verdana" font-size="14" lengthAdjust="spacing" textLength="80.7529" x="1205.6929" y="463.8857">PostgreSQL</text><path d="M1231.0693,477.1875 C1231.0693,467.1875 1249.0693,467.1875 1249.0693,467.1875 C1249.0693,467.1875 1267.0693,467.1875 1267.0693,477.1875 L1267.0693,503.1875 C1267.0693,513.1875 1249.0693,513.1875 1249.0693,513.1875 C1249.0693,513.1875 1231.0693,513.1875 1231.0693,503.1875 L1231.0693,477.1875" fill="#FFFFFF" style="stroke:#000000;stroke-width:1;"/><path d="M1231.0693,477.1875 C1231.0693,487.1875 1249.0693,487.1875 1249.0693,487.1875 C1249.0693,487.1875 1267.0693,487.1875 1267.0693,477.1875" fill="none" style="stroke:#000000;stroke-width:1;"/></g><g><title>..control..</title><rect fill="#FFFFFF" height="262.1953" style="stroke:#000000;stroke-width:1;" width="10" x="391.1299" y="142.5625"/></g><g><title>..boundary..</title><rect fill="#FFFFFF" height="203.9297" style="stroke:#000000;stroke-width:1;" width="10" x="568.0991" y="171.6953"/></g><g><title>..control..</title><rect fill="#FFFFFF" height="145.6641" style="stroke:#000000;stroke-width:1;" width="10" x="797.0195" y="200.8281"/></g><g><title>..entity..</title><rect fill="#FFFFFF" height="87.3984" style="stroke:#000000;stroke-width:1;" width="10" x="1062.0898" y="229.9609"/></g><g><title>PostgreSQL</title><rect fill="#FFFFFF" height="29.1328" style="stroke:#000000;stroke-width:1;" width="10" x="1244.0693" y="259.0938"/></g><g class="message" data-entity-1="part1" data-entity-2="part2" id="msg1"><polygon fill="#000000" points="201.7568,109.4297,211.7568,113.4297,201.7568,117.4297,205.7568,113.4297" style="stroke:#000000;stroke-width:1;"/><line style="stroke:#000000;stroke-width:1;" x1="39.6021" x2="207.7568" y1="113.4297" y2="113.4297"/><text fill="#000000" font-family="Verdana" font-size="13" font-weight="bold" lengthAdjust="spacing" textLength="9.0454" x="46.6021" y="108.3638">1</text><text fill="#000000" font-family="Verdana" font-size="13" lengthAdjust="spacing" textLength="137.1094" x="59.6475" y="108.3638">accede al Dashboard</text></g><g class="message" data-entity-1="part2" data-entity-2="part3" id="msg2"><polygon fill="#000000" points="379.1299,138.5625,389.1299,142.5625,379.1299,146.5625,383.1299,142.5625" style="stroke:#000000;stroke-width:1;"/><line style="stroke:#000000;stroke-width:1;" x1="213.7568" x2="385.1299" y1="142.5625" y2="142.5625"/><text fill="#000000" font-family="Verdana" font-size="13" font-weight="bold" lengthAdjust="spacing" textLength="9.0454" x="220.7568" y="137.4966">2</text><text fill="#000000" font-family="Verdana" font-size="13" lengthAdjust="spacing" textLength="80.1836" x="233.8022" y="137.4966">fetchTasks()</text></g><g class="message" data-entity-1="part3" data-entity-2="part4" id="msg3"><polygon fill="#000000" points="556.0991,167.6953,566.0991,171.6953,556.0991,175.6953,560.0991,171.6953" style="stroke:#000000;stroke-width:1;"/><line style="stroke:#000000;stroke-width:1;" x1="401.1299" x2="562.0991" y1="171.6953" y2="171.6953"/><text fill="#000000" font-family="Verdana" font-size="13" font-weight="bold" lengthAdjust="spacing" textLength="9.0454" x="408.1299" y="166.6294">3</text><text fill="#000000" font-family="Verdana" font-size="13" lengthAdjust="spacing" textLength="107.7832" x="421.1753" y="166.6294">GET /tasks (JWT)</text></g><g class="message" data-entity-1="part4" data-entity-2="part5" id="msg4"><polygon fill="#000000" points="785.0195,196.8281,795.0195,200.8281,785.0195,204.8281,789.0195,200.8281" style="stroke:#000000;stroke-width:1;"/><line style="stroke:#000000;stroke-width:1;" x1="578.0991" x2="791.0195" y1="200.8281" y2="200.8281"/><text fill="#000000" font-family="Verdana" font-size="13" font-weight="bold" lengthAdjust="spacing" textLength="9.0454" x="585.0991" y="195.7622">4</text><text fill="#000000" font-family="Verdana" font-size="13" lengthAdjust="spacing" textLength="186.875" x="598.1445" y="195.7622">get_user_tasks(user_id, role)</text></g><g class="message" data-entity-1="part5" data-entity-2="part6" id="msg5"><polygon fill="#000000" points="1050.0898,225.9609,1060.0898,229.9609,1050.0898,233.9609,1054.0898,229.9609" style="stroke:#000000;stroke-width:1;"/><line style="stroke:#000000;stroke-width:1;" x1="807.0195" x2="1056.0898" y1="229.9609" y2="229.9609"/><text fill="#000000" font-family="Verdana" font-size="13" font-weight="bold" lengthAdjust="spacing" textLength="9.0454" x="814.0195" y="224.895">5</text><text fill="#000000" font-family="Verdana" font-size="13" lengthAdjust="spacing" textLength="223.0249" x="827.0649" y="224.895">get_all_by_user(user_id) / get_all()</text></g><g class="message" data-entity-1="part6" data-entity-2="part7" id="msg6"><polygon fill="#000000" points="1232.0693,255.0938,1242.0693,259.0938,1232.0693,263.0938,1236.0693,259.0938" style="stroke:#000000;stroke-width:1;"/><line style="stroke:#000000;stroke-width:1;" x1="1072.0898" x2="1238.0693" y1="259.0938" y2="259.0938"/><text fill="#000000" font-family="Verdana" font-size="13" font-weight="bold" lengthAdjust="spacing" textLength="9.0454" x="1079.0898" y="254.0278">6</text><text fill="#000000" font-family="Verdana" font-size="13" lengthAdjust="spacing" textLength="139.9341" x="1092.1353" y="254.0278">SELECT * FROM tasks</text></g><g class="message" data-entity-1="part7" data-entity-2="part6" id="msg7"><polygon fill="#000000" points="1083.0898,284.2266,1073.0898,288.2266,1083.0898,292.2266,1079.0898,288.2266" style="stroke:#000000;stroke-width:1;"/><line style="stroke:#000000;stroke-width:1;stroke-dasharray:2,2;" x1="1077.0898" x2="1248.0693" y1="288.2266" y2="288.2266"/><text fill="#000000" font-family="Verdana" font-size="13" font-weight="bold" lengthAdjust="spacing" textLength="9.0454" x="1089.0898" y="283.1606">7</text><text fill="#000000" font-family="Verdana" font-size="13" lengthAdjust="spacing" textLength="59.4458" x="1102.1353" y="283.1606">list[Task]</text></g><g class="message" data-entity-1="part6" data-entity-2="part5" id="msg8"><polygon fill="#000000" points="818.0195,313.3594,808.0195,317.3594,818.0195,321.3594,814.0195,317.3594" style="stroke:#000000;stroke-width:1;"/><line style="stroke:#000000;stroke-width:1;stroke-dasharray:2,2;" x1="812.0195" x2="1066.0898" y1="317.3594" y2="317.3594"/><text fill="#000000" font-family="Verdana" font-size="13" font-weight="bold" lengthAdjust="spacing" textLength="9.0454" x="824.0195" y="312.2935">8</text><text fill="#000000" font-family="Verdana" font-size="13" lengthAdjust="spacing" textLength="59.4458" x="837.0649" y="312.2935">list[Task]</text></g><g class="message" data-entity-1="part5" data-entity-2="part4" id="msg9"><polygon fill="#000000" points="589.0991,342.4922,579.0991,346.4922,589.0991,350.4922,585.0991,346.4922" style="stroke:#000000;stroke-width:1;"/><line style="stroke:#000000;stroke-width:1;stroke-dasharray:2,2;" x1="583.0991" x2="801.0195" y1="346.4922" y2="346.4922"/><text fill="#000000" font-family="Verdana" font-size="13" font-weight="bold" lengthAdjust="spacing" textLength="9.0454" x="595.0991" y="341.4263">9</text><text fill="#000000" font-family="Verdana" font-size="13" lengthAdjust="spacing" textLength="59.4458" x="608.1445" y="341.4263">list[Task]</text></g><g class="message" data-entity-1="part4" data-entity-2="part3" id="msg10"><polygon fill="#000000" points="412.1299,371.625,402.1299,375.625,412.1299,379.625,408.1299,375.625" style="stroke:#000000;stroke-width:1;"/><line style="stroke:#000000;stroke-width:1;stroke-dasharray:2,2;" x1="406.1299" x2="572.0991" y1="375.625" y2="375.625"/><text fill="#000000" font-family="Verdana" font-size="13" font-weight="bold" lengthAdjust="spacing" textLength="18.0908" x="418.1299" y="370.5591">10</text><text fill="#000000" font-family="Verdana" font-size="13" lengthAdjust="spacing" textLength="120.8784" x="440.2207" y="370.5591">200 OK (JSON List)</text></g><g class="message" data-entity-1="part3" data-entity-2="part2" id="msg11"><polygon fill="#000000" points="224.7568,400.7578,214.7568,404.7578,224.7568,408.7578,220.7568,404.7578" style="stroke:#000000;stroke-width:1;"/><line style="stroke:#000000;stroke-width:1;stroke-dasharray:2,2;" x1="218.7568" x2="395.1299" y1="404.7578" y2="404.7578"/><text fill="#000000" font-family="Verdana" font-size="13" font-weight="bold" lengthAdjust="spacing" textLength="18.0908" x="230.7568" y="399.6919">11</text><text fill="#000000" font-family="Verdana" font-size="13" lengthAdjust="spacing" textLength="131.2822" x="252.8477" y="399.6919">update state (tasks)</text></g><g class="message" data-entity-1="part2" data-entity-2="part1" id="msg12"><polygon fill="#000000" points="50.6021,429.8906,40.6021,433.8906,50.6021,437.8906,46.6021,433.8906" style="stroke:#000000;stroke-width:1;"/><line style="stroke:#000000;stroke-width:1;" x1="44.6021" x2="212.7568" y1="433.8906" y2="433.8906"/><text fill="#000000" font-family="Verdana" font-size="13" font-weight="bold" lengthAdjust="spacing" textLength="18.0908" x="56.6021" y="428.8247">12</text><text fill="#000000" font-family="Verdana" font-size="13" lengthAdjust="spacing" textLength="118.644" x="78.6929" y="428.8247">renderiza TaskList</text></g><?plantuml-src XP51J-Cm48Nl_XL3Joa2WJXMg8T2M6afD5i7SK2hQf8ChKM88tk2L7xzZjq4MiJkNggeyxqtVc-EU4El16sDfb7OiMswruASKbYoTV3WEtJ6gXOTczAqs32Chj5l2ekkod1D8q0FrnbSNXQsQofqs-dq4EyyvUXVV2GVSY5Bsx2pzLSmK4lRCRc8vij_c0PMatipvUu5kVwFBxNM6ucqxRtJy6Hgs73mhf2nG4ymogpdjIFzQxvBDbEgBm5Efo7e1B0igIB06ZwQK3AGiQIRm3DnkOc9at6eqRmXauoKJ8MHM1FuaUPmne61vETZliVbIoL4uBHmQ-ALzETMaKtYfwbEG5BIlaWhmQDvclKohEjLiOtgGJU6is6K7AnCCnML8U5Cz3gTfrSv7CFDSd47SVSdBfK8TFgvhJQUdqBWtwgYVMpdEMJv7jijrxtVtp4TQnawlZW_XyMjTASNzp0NnVZGCtOztAjhg_2lv_2Rn3G7k9ocFrz_w0auQYfovXqXl2Gi-0C0?></g></svg>