<?plantuml 1.2026.2?><svg xmlns="http://www.w3.org/2000/svg" xmlns:xlink="http://www.w3.org/1999/xlink" contentStyleType="text/css" data-diagram-type="DESCRIPTION" height="443px" preserveAspectRatio="none" style="width:679px;height:443px;background:#FFFFFF;" version="1.1" viewBox="0 0 679 443" width="679px" zoomAndPan="magnify"><defs/><g><!--cluster cerrarSesion--><g class="cluster" data-qualified-name="cerrarSesion" data-source-line="4" id="ent0003"><path d="M166,6 L280.0459,6 A3.75,3.75 0 0 1 282.5459,8.5 L289.5459,28.2969 L397,28.2969 A2.5,2.5 0 0 1 399.5,30.7969 L399.5,433.5 A2.5,2.5 0 0 1 397,436 L166,436 A2.5,2.5 0 0 1 163.5,433.5 L163.5,8.5 A2.5,2.5 0 0 1 166,6" fill="none" style="stroke:#000000;stroke-width:1.5;"/><line style="stroke:#000000;stroke-width:1.5;" x1="163.5" x2="289.5459" y1="28.2969" y2="28.2969"/><text fill="#000000" font-family="sans-serif" font-size="14" font-weight="bold" lengthAdjust="spacing" textLength="113.0459" x="167.5" y="20.9951">cerrarSesion()</text></g><!--entity MainView--><g class="entity" data-qualified-name="cerrarSesion.MainView" data-source-line="5" id="ent0004"><rect fill="#629EF9" height="36.2969" rx="2.5" ry="2.5" style="stroke:#181818;stroke-width:0.5;" width="86.9512" x="204" y="41"/><text fill="#000000" font-family="sans-serif" font-size="14" lengthAdjust="spacing" textLength="66.9512" x="214" y="63.9951">MainView</text></g><!--entity SesionController--><g class="entity" data-qualified-name="cerrarSesion.SesionController" data-source-line="6" id="ent0005"><rect fill="#B5BD68" height="36.2969" rx="2.5" ry="2.5" style="stroke:#181818;stroke-width:0.5;" width="135.2949" x="180" y="174"/><text fill="#000000" font-family="sans-serif" font-size="14" lengthAdjust="spacing" textLength="115.2949" x="190" y="196.9951">SesionController</text></g><!--entity SesionRepository--><g class="entity" data-qualified-name="cerrarSesion.SesionRepository" data-source-line="7" id="ent0006"><rect fill="#F2AC4E" height="36.2969" rx="2.5" ry="2.5" style="stroke:#181818;stroke-width:0.5;" width="141.1943" x="180" y="287"/><text fill="#000000" font-family="sans-serif" font-size="14" lengthAdjust="spacing" textLength="121.1943" x="190" y="309.9951">SesionRepository</text></g><!--entity Sesion--><g class="entity" data-qualified-name="cerrarSesion.Sesion" data-source-line="8" id="ent0007"><rect fill="#F2AC4E" height="36.2969" rx="2.5" ry="2.5" style="stroke:#181818;stroke-width:0.5;" width="66.1221" x="217.5" y="384"/><text fill="#000000" font-family="sans-serif" font-size="14" lengthAdjust="spacing" textLength="46.1221" x="227.5" y="406.9951">Sesion</text></g><!--entity Usuario--><g class="entity" data-qualified-name="Usuario" data-source-line="3" id="ent0002"><ellipse cx="32.6021" cy="29.5" fill="#F1F1F1" rx="8" ry="8" style="stroke:#181818;stroke-width:0.5;"/><path d="M32.6021,37.5 L32.6021,64.5 M19.6021,45.5 L45.6021,45.5 M32.6021,64.5 L19.6021,79.5 M32.6021,64.5 L45.6021,79.5" fill="none" style="stroke:#181818;stroke-width:0.5;"/><text fill="#000000" font-family="sans-serif" font-size="14" lengthAdjust="spacing" textLength="53.2041" x="6" y="93.9951">Usuario</text></g><!--entity SistemaNoDisponible--><g class="entity" data-qualified-name="SistemaNoDisponible" data-source-line="10" id="ent0008"><rect fill="#CDEBA5" height="36.2969" rx="2.5" ry="2.5" style="stroke:#181818;stroke-width:0.5;" width="182.6133" x="491" y="41"/><text fill="#000000" font-family="sans-serif" font-size="14" lengthAdjust="spacing" textLength="162.6133" x="501" y="63.9951">:Sistema No Disponible</text></g><!--link Usuario to MainView--><g class="link" data-entity-1="ent0002" data-entity-2="ent0004" data-link-type="dependency" data-source-line="12" id="lnk9"><path d="M59.3,59 C95.54,59 154.64,59 197.96,59" fill="none" id="Usuario-to-MainView" style="stroke:#181818;stroke-width:1;"/><polygon fill="#181818" points="203.96,59,194.96,55,198.96,59,194.96,63,203.96,59" style="stroke:#181818;stroke-width:1;"/><text fill="#000000" font-family="sans-serif" font-size="13" lengthAdjust="spacing" textLength="108.9004" x="77.5" y="52.0669">1: cerrarSesion()</text></g><!--link MainView to SesionController--><g class="link" data-entity-1="ent0004" data-entity-2="ent0005" data-link-type="dependency" data-source-line="14" id="lnk10"><path d="M247.5,77.13 C247.5,102.23 247.5,142.76 247.5,167.87" fill="none" id="MainView-to-SesionController" style="stroke:#181818;stroke-width:1;"/><polygon fill="#181818" points="247.5,173.87,251.5,164.87,247.5,168.87,243.5,164.87,247.5,173.87" style="stroke:#181818;stroke-width:1;"/><text fill="#000000" font-family="sans-serif" font-size="13" lengthAdjust="spacing" textLength="121.5068" x="248.5" y="140.0669">2: finalizarSesion()</text></g><!--link SesionController to SesionRepository--><g class="link" data-entity-1="ent0005" data-entity-2="ent0006" data-link-type="dependency" data-source-line="16" id="lnk11"><path d="M247.97,210.34 C248.53,231.2 249.3085,259.9822 249.8685,280.7822" fill="none" id="SesionController-to-SesionRepository" style="stroke:#181818;stroke-width:1;"/><polygon fill="#181818" points="250.03,286.78,253.7863,277.6756,249.8954,281.7818,245.7892,277.8909,250.03,286.78" style="stroke:#181818;stroke-width:1;"/><text fill="#000000" font-family="sans-serif" font-size="13" lengthAdjust="spacing" textLength="167.0068" x="249.5" y="253.0669">3: invalidarSesionActual()</text></g><!--link SesionRepository to Sesion--><g class="link" data-entity-1="ent0006" data-entity-2="ent0007" data-link-type="association" data-source-line="18" id="lnk12"><path d="M250.5,323.42 C250.5,340.57 250.5,366.58 250.5,383.69" fill="none" id="SesionRepository-Sesion" style="stroke:#181818;stroke-width:1;"/></g><!--link MainView to SistemaNoDisponible--><g class="link" data-entity-1="ent0004" data-entity-2="ent0008" data-link-type="dependency" data-source-line="20" id="lnk13"><path d="M291.3,59 C341.75,59 420.05,59 485,59" fill="none" id="MainView-to-SistemaNoDisponible" style="stroke:#181818;stroke-width:1;"/><polygon fill="#181818" points="491,59,482,55,486,59,482,63,491,59" style="stroke:#181818;stroke-width:1;"/><text fill="#000000" font-family="sans-serif" font-size="13" lengthAdjust="spacing" textLength="163.8013" x="309.5" y="52.0669">4: sistemaNoDisponible()</text></g><?plantuml-src VL0zJyCm5DpzAqvXQOSCXBQY7f12ccvqe8Bz9J7LKrqxibDGGFnt4f4q8I2y-Rvqz_oHJKcEJj1iL5MN2gNLTViHWlBAEZpvCpcsegJyI0U5N3b7RgyyMmFo2CR0R1xWGw1vJkKLcODMk5f5wtIxnWEnUMRrDgMpPLQiRl4Ta5XJEQkrSbFPDegJHTh97bLfFJVrwdzbubECg6IJtiTB17BFlb8dmivYmxwqXZEjWdPCn-piW0lHNG2X2-ykAoIk9NvE5w8d4HQDTBf88f9uOKEQtyUkgGxXnJpibBYHOFFQc8lU7EVLcVGGCQYRYFu4er9j_pyMIYma_6zyDly2?></g></svg>