<?plantuml 1.2026.2?><svg xmlns="http://www.w3.org/2000/svg" xmlns:xlink="http://www.w3.org/1999/xlink" contentStyleType="text/css" data-diagram-type="DESCRIPTION" height="443px" preserveAspectRatio="none" style="width:759px;height:443px;background:#FFFFFF;" version="1.1" viewBox="0 0 759 443" width="759px" zoomAndPan="magnify"><defs/><g><!--cluster crearTarea--><g class="cluster" data-qualified-name="crearTarea" data-source-line="4" id="ent0003"><path d="M380,6 L479.6904,6 A3.75,3.75 0 0 1 482.1904,8.5 L489.1904,28.2969 L680,28.2969 A2.5,2.5 0 0 1 682.5,30.7969 L682.5,433.5 A2.5,2.5 0 0 1 680,436 L380,436 A2.5,2.5 0 0 1 377.5,433.5 L377.5,8.5 A2.5,2.5 0 0 1 380,6" fill="none" style="stroke:#000000;stroke-width:1.5;"/><line style="stroke:#000000;stroke-width:1.5;" x1="377.5" x2="489.1904" y1="28.2969" y2="28.2969"/><text fill="#000000" font-family="sans-serif" font-size="14" font-weight="bold" lengthAdjust="spacing" textLength="98.6904" x="381.5" y="20.9951">crearTarea()</text></g><!--entity CrearTareaView--><g class="entity" data-qualified-name="crearTarea.CrearTareaView" data-source-line="5" id="ent0004"><rect fill="#629EF9" height="36.2969" rx="2.5" ry="2.5" style="stroke:#181818;stroke-width:0.5;" width="132.0889" x="396.5" y="41"/><text fill="#000000" font-family="sans-serif" font-size="14" lengthAdjust="spacing" textLength="112.0889" x="406.5" y="63.9951">CrearTareaView</text></g><!--entity TareasController--><g class="entity" data-qualified-name="crearTarea.TareasController" data-source-line="6" id="ent0005"><rect fill="#B5BD68" height="36.2969" rx="2.5" ry="2.5" style="stroke:#181818;stroke-width:0.5;" width="136.5459" x="394" y="174"/><text fill="#000000" font-family="sans-serif" font-size="14" lengthAdjust="spacing" textLength="116.5459" x="404" y="196.9951">TareasController</text></g><!--entity TareaRepository--><g class="entity" data-qualified-name="crearTarea.TareaRepository" data-source-line="7" id="ent0006"><rect fill="#F2AC4E" height="36.2969" rx="2.5" ry="2.5" style="stroke:#181818;stroke-width:0.5;" width="135.1514" x="394" y="287"/><text fill="#000000" font-family="sans-serif" font-size="14" lengthAdjust="spacing" textLength="115.1514" x="404" y="309.9951">TareaRepository</text></g><!--entity Tarea--><g class="entity" data-qualified-name="crearTarea.Tarea" data-source-line="8" id="ent0007"><rect fill="#F2AC4E" height="36.2969" rx="2.5" ry="2.5" style="stroke:#181818;stroke-width:0.5;" width="60.0791" x="408.5" y="384"/><text fill="#000000" font-family="sans-serif" font-size="14" lengthAdjust="spacing" textLength="40.0791" x="418.5" y="406.9951">Tarea</text></g><!--entity Grupo--><g class="entity" data-qualified-name="crearTarea.Grupo" data-source-line="9" id="ent0008"><rect fill="#F2AC4E" height="36.2969" rx="2.5" ry="2.5" style="stroke:#181818;stroke-width:0.5;" width="62.9297" x="504" y="384"/><text fill="#000000" font-family="sans-serif" font-size="14" lengthAdjust="spacing" textLength="42.9297" x="514" y="406.9951">Grupo</text></g><!--entity Usuario--><g class="entity" data-qualified-name="Usuario" data-source-line="3" id="ent0002"><ellipse cx="725.6021" cy="29.5" fill="#F1F1F1" rx="8" ry="8" style="stroke:#181818;stroke-width:0.5;"/><path d="M725.6021,37.5 L725.6021,64.5 M712.6021,45.5 L738.6021,45.5 M725.6021,64.5 L712.6021,79.5 M725.6021,64.5 L738.6021,79.5" fill="none" style="stroke:#181818;stroke-width:0.5;"/><text fill="#000000" font-family="sans-serif" font-size="14" lengthAdjust="spacing" textLength="53.2041" x="699" y="93.9951">Usuario</text></g><!--entity SistemaDisponible--><g class="entity" data-qualified-name="SistemaDisponible" data-source-line="11" id="ent0009"><rect fill="#CDEBA5" height="36.2969" rx="2.5" ry="2.5" style="stroke:#181818;stroke-width:0.5;" width="159.125" x="7" y="41"/><text fill="#000000" font-family="sans-serif" font-size="14" lengthAdjust="spacing" textLength="139.125" x="17" y="63.9951">:Sistema Disponible</text></g><!--link SistemaDisponible to CrearTareaView--><g class="link" data-entity-1="ent0009" data-entity-2="ent0004" data-link-type="dependency" data-source-line="13" id="lnk10"><path d="M166.24,59 C234.68,59 326.17,59 390.35,59" fill="none" id="SistemaDisponible-to-CrearTareaView" style="stroke:#181818;stroke-width:1;"/><polygon fill="#181818" points="396.35,59,387.35,55,391.35,59,387.35,63,396.35,59" style="stroke:#181818;stroke-width:1;"/><text fill="#000000" font-family="sans-serif" font-size="13" lengthAdjust="spacing" textLength="97.9443" x="232.75" y="52.0669">1: crearTarea()</text></g><!--link CrearTareaView to SistemaDisponible--><g class="link" data-entity-1="ent0004" data-entity-2="ent0009" data-link-type="dependency" data-source-line="22" id="lnk15"><path d="M396.35,59 C332.17,59 240.68,59 172.24,59" fill="none" id="CrearTareaView-to-SistemaDisponible" style="stroke:#181818;stroke-width:1;"/><polygon fill="#181818" points="166.24,59,175.24,63,171.24,59,175.24,55,166.24,59" style="stroke:#181818;stroke-width:1;"/><text fill="#000000" font-family="sans-serif" font-size="13" lengthAdjust="spacing" textLength="194.251" x="184.25" y="52.0669">4: sistemaDisponible(usuario)</text></g><!--link CrearTareaView to TareasController--><g class="link" data-entity-1="ent0004" data-entity-2="ent0005" data-link-type="dependency" data-source-line="15" id="lnk11"><path d="M462.5,77.13 C462.5,102.23 462.5,142.76 462.5,167.87" fill="none" id="CrearTareaView-to-TareasController" style="stroke:#181818;stroke-width:1;"/><polygon fill="#181818" points="462.5,173.87,466.5,164.87,462.5,168.87,458.5,164.87,462.5,173.87" style="stroke:#181818;stroke-width:1;"/><text fill="#000000" font-family="sans-serif" font-size="13" lengthAdjust="spacing" textLength="202.2236" x="463.5" y="140.0669">2: registrarTarea(datos, grupo)</text></g><!--link TareasController to TareaRepository--><g class="link" data-entity-1="ent0005" data-entity-2="ent0006" data-link-type="dependency" data-source-line="17" id="lnk12"><path d="M462.34,210.34 C462.16,231.2 461.8919,259.9802 461.7119,280.7802" fill="none" id="TareasController-to-TareaRepository" style="stroke:#181818;stroke-width:1;"/><polygon fill="#181818" points="461.66,286.78,465.7377,277.815,461.7033,281.7802,457.738,277.7457,461.66,286.78" style="stroke:#181818;stroke-width:1;"/><text fill="#000000" font-family="sans-serif" font-size="13" lengthAdjust="spacing" textLength="236.6089" x="462.5" y="253.0669">3: crearTareaEnGrupo(datos, grupo)</text></g><!--link TareaRepository to Tarea--><g class="link" data-entity-1="ent0006" data-entity-2="ent0007" data-link-type="association" data-source-line="19" id="lnk13"><path d="M457.28,323.42 C453.13,340.57 446.83,366.58 442.69,383.69" fill="none" id="TareaRepository-Tarea" style="stroke:#181818;stroke-width:1;"/></g><!--link TareaRepository to Grupo--><g class="link" data-entity-1="ent0006" data-entity-2="ent0008" data-link-type="association" data-source-line="20" id="lnk14"><path d="M475.07,323.42 C488.42,340.57 508.69,366.58 522.01,383.69" fill="none" id="TareaRepository-Grupo" style="stroke:#181818;stroke-width:1;"/></g><?plantuml-src VLBBReCm4BpxArRqaaZbK9f4ZG-LKa9wx-k-m0fP8RPb6rMewh_NXAHGazG7IzwPsTqPsUw5r6Zm0BMGv5fDe5NTTW_6i73AmBjjq0Z5D1Pxh0WAGsZUqD-05gBXEPj7yCN07qE5GrdL13UhP9tjrf3-iZu4VOQaV9cNgmSuuZPLqXbLrsH2sYxPf8kifxsGLbRu_Th_M5UmPzDenRxP24ctsTDc2H5_5TRH0M4hh5PIv3L5dSzJUQWoDYb1REB7m2g7EmxZZ1ZxIu2uzABGEeU4-yKhFyASfIKwPM-XwfRtRK89nES-GpOSxiVJCtbqVh7J8FADJkbT0Fhe9XuwuvCyE2musB0wQ_eFDVy1?></g></svg>