<?plantuml 1.2026.2?><svg xmlns="http://www.w3.org/2000/svg" xmlns:xlink="http://www.w3.org/1999/xlink" contentStyleType="text/css" data-diagram-type="SEQUENCE" height="716px" preserveAspectRatio="none" style="width:1449px;height:716px;background:#FFFFFF;" version="1.1" viewBox="0 0 1449 716" width="1449px" zoomAndPan="magnify"><defs/><g><g class="participant-lifeline" data-entity-uid="part1" data-qualified-name="Actor" id="part1-lifeline"><g><title>Actor</title><rect fill="#000000" fill-opacity="0.00000" height="554.2578" width="8" x="22.5425" y="81.2969"/><line style="stroke:#181818;stroke-width:0.5;stroke-dasharray:5,5;" x1="26" x2="26" y1="81.2969" y2="635.5547"/></g></g><g class="participant-lifeline" data-entity-uid="part2" data-qualified-name="UI" id="part2-lifeline"><g><title>UI. React</title><rect fill="#000000" fill-opacity="0.00000" height="554.2578" width="8" x="238.6797" y="81.2969"/><line style="stroke:#181818;stroke-width:0.5;stroke-dasharray:5,5;" x1="241.855" x2="241.855" y1="81.2969" y2="635.5547"/></g></g><g class="participant-lifeline" data-entity-uid="part3" data-qualified-name="Auth" id="part3-lifeline"><g><title>AuthMiddleware</title><rect fill="#000000" fill-opacity="0.00000" height="554.2578" width="8" x="551.8765" y="81.2969"/><line style="stroke:#181818;stroke-width:0.5;stroke-dasharray:5,5;" x1="555.1484" x2="555.1484" y1="81.2969" y2="635.5547"/></g></g><g class="participant-lifeline" data-entity-uid="part4" data-qualified-name="Ctrl" id="part4-lifeline"><g><title>MemberController</title><rect fill="#000000" fill-opacity="0.00000" height="554.2578" width="8" x="762.7871" y="81.2969"/><line style="stroke:#181818;stroke-width:0.5;stroke-dasharray:5,5;" x1="766.4077" x2="766.4077" y1="81.2969" y2="635.5547"/></g></g><g class="participant-lifeline" data-entity-uid="part5" data-qualified-name="Svc" id="part5-lifeline"><g><title>MemberService</title><rect fill="#000000" fill-opacity="0.00000" height="554.2578" width="8" x="959.6719" y="81.2969"/><line style="stroke:#181818;stroke-width:0.5;stroke-dasharray:5,5;" x1="963.0083" x2="963.0083" y1="81.2969" y2="635.5547"/></g></g><g class="participant-lifeline" data-entity-uid="part6" data-qualified-name="Repo" id="part6-lifeline"><g><title>UserRepository</title><rect fill="#000000" fill-opacity="0.00000" height="554.2578" width="8" x="1125.6729" y="81.2969"/><line style="stroke:#181818;stroke-width:0.5;stroke-dasharray:5,5;" x1="1129.1816" x2="1129.1816" y1="81.2969" y2="635.5547"/></g></g><g class="participant-lifeline" data-entity-uid="part7" data-qualified-name="DB" id="part7-lifeline"><g><title>Database</title><rect fill="#000000" fill-opacity="0.00000" height="554.2578" width="8" x="1408.1621" y="81.2969"/><line style="stroke:#181818;stroke-width:0.5;stroke-dasharray:5,5;" x1="1411.7617" x2="1411.7617" y1="81.2969" y2="635.5547"/></g></g><g class="participant participant-head" data-entity-uid="part1" data-qualified-name="Actor" id="part1-head"><text fill="#000000" font-family="sans-serif" font-size="14" lengthAdjust="spacing" textLength="37.085" x="5" y="77.9951">Actor</text><ellipse cx="26.5425" cy="13.5" fill="#E2E2F0" rx="8" ry="8" style="stroke:#181818;stroke-width:0.5;"/><path d="M26.5425,21.5 L26.5425,48.5 M13.5425,29.5 L39.5425,29.5 M26.5425,48.5 L13.5425,63.5 M26.5425,48.5 L39.5425,63.5" fill="none" style="stroke:#181818;stroke-width:0.5;"/></g><g class="participant participant-tail" data-entity-uid="part1" data-qualified-name="Actor" id="part1-tail"><text fill="#000000" font-family="sans-serif" font-size="14" lengthAdjust="spacing" textLength="37.085" x="5" y="647.5498">Actor</text><ellipse cx="26.5425" cy="659.3516" fill="#E2E2F0" rx="8" ry="8" style="stroke:#181818;stroke-width:0.5;"/><path d="M26.5425,667.3516 L26.5425,694.3516 M13.5425,675.3516 L39.5425,675.3516 M26.5425,694.3516 L13.5425,709.3516 M26.5425,694.3516 L39.5425,709.3516" fill="none" style="stroke:#181818;stroke-width:0.5;"/></g><g class="participant participant-head" data-entity-uid="part2" data-qualified-name="UI" id="part2-head"><rect fill="#E2E2F0" height="30.2969" rx="2.5" ry="2.5" style="stroke:#181818;stroke-width:0.5;" width="77.6494" x="203.855" y="50"/><text fill="#000000" font-family="sans-serif" font-size="14" lengthAdjust="spacing" textLength="63.6494" x="210.855" y="69.9951">UI: React</text></g><g class="participant participant-tail" data-entity-uid="part2" data-qualified-name="UI" id="part2-tail"><rect fill="#E2E2F0" height="30.2969" rx="2.5" ry="2.5" style="stroke:#181818;stroke-width:0.5;" width="77.6494" x="203.855" y="634.5547"/><text fill="#000000" font-family="sans-serif" font-size="14" lengthAdjust="spacing" textLength="63.6494" x="210.855" y="654.5498">UI: React</text></g><g class="participant participant-head" data-entity-uid="part3" data-qualified-name="Auth" id="part3-head"><rect fill="#E2E2F0" height="30.2969" rx="2.5" ry="2.5" style="stroke:#181818;stroke-width:0.5;" width="127.4561" x="492.1484" y="50"/><text fill="#000000" font-family="sans-serif" font-size="14" lengthAdjust="spacing" textLength="113.4561" x="499.1484" y="69.9951">AuthMiddleware</text></g><g class="participant participant-tail" data-entity-uid="part3" data-qualified-name="Auth" id="part3-tail"><rect fill="#E2E2F0" height="30.2969" rx="2.5" ry="2.5" style="stroke:#181818;stroke-width:0.5;" width="127.4561" x="492.1484" y="634.5547"/><text fill="#000000" font-family="sans-serif" font-size="14" lengthAdjust="spacing" textLength="113.4561" x="499.1484" y="654.5498">AuthMiddleware</text></g><g class="participant participant-head" data-entity-uid="part4" data-qualified-name="Ctrl" id="part4-head"><rect fill="#E2E2F0" height="30.2969" rx="2.5" ry="2.5" style="stroke:#181818;stroke-width:0.5;" width="140.7588" x="696.4077" y="50"/><text fill="#000000" font-family="sans-serif" font-size="14" lengthAdjust="spacing" textLength="126.7588" x="703.4077" y="69.9951">MemberController</text></g><g class="participant participant-tail" data-entity-uid="part4" data-qualified-name="Ctrl" id="part4-tail"><rect fill="#E2E2F0" height="30.2969" rx="2.5" ry="2.5" style="stroke:#181818;stroke-width:0.5;" width="140.7588" x="696.4077" y="634.5547"/><text fill="#000000" font-family="sans-serif" font-size="14" lengthAdjust="spacing" textLength="126.7588" x="703.4077" y="654.5498">MemberController</text></g><g class="participant participant-head" data-entity-uid="part5" data-qualified-name="Svc" id="part5-head"><rect fill="#E2E2F0" height="30.2969" rx="2.5" ry="2.5" style="stroke:#181818;stroke-width:0.5;" width="123.3271" x="902.0083" y="50"/><text fill="#000000" font-family="sans-serif" font-size="14" lengthAdjust="spacing" textLength="109.3271" x="909.0083" y="69.9951">MemberService</text></g><g class="participant participant-tail" data-entity-uid="part5" data-qualified-name="Svc" id="part5-tail"><rect fill="#E2E2F0" height="30.2969" rx="2.5" ry="2.5" style="stroke:#181818;stroke-width:0.5;" width="123.3271" x="902.0083" y="634.5547"/><text fill="#000000" font-family="sans-serif" font-size="14" lengthAdjust="spacing" textLength="109.3271" x="909.0083" y="654.5498">MemberService</text></g><g class="participant participant-head" data-entity-uid="part6" data-qualified-name="Repo" id="part6-head"><rect fill="#E2E2F0" height="30.2969" rx="2.5" ry="2.5" style="stroke:#181818;stroke-width:0.5;" width="120.9824" x="1069.1816" y="50"/><text fill="#000000" font-family="sans-serif" font-size="14" lengthAdjust="spacing" textLength="106.9824" x="1076.1816" y="69.9951">UserRepository</text></g><g class="participant participant-tail" data-entity-uid="part6" data-qualified-name="Repo" id="part6-tail"><rect fill="#E2E2F0" height="30.2969" rx="2.5" ry="2.5" style="stroke:#181818;stroke-width:0.5;" width="120.9824" x="1069.1816" y="634.5547"/><text fill="#000000" font-family="sans-serif" font-size="14" lengthAdjust="spacing" textLength="106.9824" x="1076.1816" y="654.5498">UserRepository</text></g><g class="participant participant-head" data-entity-uid="part7" data-qualified-name="DB" id="part7-head"><text fill="#000000" font-family="sans-serif" font-size="14" lengthAdjust="spacing" textLength="66.8008" x="1375.7617" y="77.9951">Database</text><path d="M1394.1621,29 C1394.1621,19 1412.1621,19 1412.1621,19 C1412.1621,19 1430.1621,19 1430.1621,29 L1430.1621,55 C1430.1621,65 1412.1621,65 1412.1621,65 C1412.1621,65 1394.1621,65 1394.1621,55 L1394.1621,29" fill="#E2E2F0" style="stroke:#181818;stroke-width:0.5;"/><path d="M1394.1621,29 C1394.1621,39 1412.1621,39 1412.1621,39 C1412.1621,39 1430.1621,39 1430.1621,29" fill="none" style="stroke:#181818;stroke-width:0.5;"/></g><g class="participant participant-tail" data-entity-uid="part7" data-qualified-name="DB" id="part7-tail"><text fill="#000000" font-family="sans-serif" font-size="14" lengthAdjust="spacing" textLength="66.8008" x="1375.7617" y="647.5498">Database</text><path d="M1394.1621,660.8516 C1394.1621,650.8516 1412.1621,650.8516 1412.1621,650.8516 C1412.1621,650.8516 1430.1621,650.8516 1430.1621,660.8516 L1430.1621,686.8516 C1430.1621,696.8516 1412.1621,696.8516 1412.1621,696.8516 C1412.1621,696.8516 1394.1621,696.8516 1394.1621,686.8516 L1394.1621,660.8516" fill="#E2E2F0" style="stroke:#181818;stroke-width:0.5;"/><path d="M1394.1621,660.8516 C1394.1621,670.8516 1412.1621,670.8516 1412.1621,670.8516 C1412.1621,670.8516 1430.1621,670.8516 1430.1621,660.8516" fill="none" style="stroke:#181818;stroke-width:0.5;"/></g><g class="message" data-entity-1="part1" data-entity-2="part2" id="msg1"><polygon fill="#181818" points="230.6797,108.4297,240.6797,112.4297,230.6797,116.4297,234.6797,112.4297" style="stroke:#181818;stroke-width:1;"/><line style="stroke:#181818;stroke-width:1;" x1="26.5425" x2="236.6797" y1="112.4297" y2="112.4297"/><text fill="#000000" font-family="sans-serif" font-size="13" lengthAdjust="spacing" textLength="192.1372" x="33.5425" y="107.3638">Clic en "Desactivar" miembro</text></g><g class="message" data-entity-1="part2" data-entity-2="part2" id="msg2"><line style="stroke:#181818;stroke-width:1;" x1="242.6797" x2="284.6797" y1="141.5625" y2="141.5625"/><line style="stroke:#181818;stroke-width:1;" x1="284.6797" x2="284.6797" y1="141.5625" y2="154.5625"/><line style="stroke:#181818;stroke-width:1;" x1="243.6797" x2="284.6797" y1="154.5625" y2="154.5625"/><polygon fill="#181818" points="253.6797,150.5625,243.6797,154.5625,253.6797,158.5625,249.6797,154.5625" style="stroke:#181818;stroke-width:1;"/><text fill="#000000" font-family="sans-serif" font-size="13" lengthAdjust="spacing" textLength="299.1968" x="249.6797" y="136.4966">Mostrar di&#225;logo de confirmaci&#243;n (BR-MEM-03)</text></g><g class="message" data-entity-1="part1" data-entity-2="part2" id="msg3"><polygon fill="#181818" points="230.6797,179.6953,240.6797,183.6953,230.6797,187.6953,234.6797,183.6953" style="stroke:#181818;stroke-width:1;"/><line style="stroke:#181818;stroke-width:1;" x1="26.5425" x2="236.6797" y1="183.6953" y2="183.6953"/><text fill="#000000" font-family="sans-serif" font-size="13" lengthAdjust="spacing" textLength="64.7778" x="33.5425" y="178.6294">Confirmar</text></g><g class="message" data-entity-1="part2" data-entity-2="part3" id="msg4"><polygon fill="#181818" points="543.8765,208.8281,553.8765,212.8281,543.8765,216.8281,547.8765,212.8281" style="stroke:#181818;stroke-width:1;"/><line style="stroke:#181818;stroke-width:1;" x1="242.6797" x2="549.8765" y1="212.8281" y2="212.8281"/><text fill="#000000" font-family="sans-serif" font-size="13" lengthAdjust="spacing" textLength="205.6133" x="249.6797" y="207.7622">DELETE /api/members/{userId}</text></g><g class="message" data-entity-1="part3" data-entity-2="part3" id="msg5"><line style="stroke:#181818;stroke-width:1;" x1="555.8765" x2="597.8765" y1="241.9609" y2="241.9609"/><line style="stroke:#181818;stroke-width:1;" x1="597.8765" x2="597.8765" y1="241.9609" y2="254.9609"/><line style="stroke:#181818;stroke-width:1;" x1="556.8765" x2="597.8765" y1="254.9609" y2="254.9609"/><polygon fill="#181818" points="566.8765,250.9609,556.8765,254.9609,566.8765,258.9609,562.8765,254.9609" style="stroke:#181818;stroke-width:1;"/><text fill="#000000" font-family="sans-serif" font-size="13" lengthAdjust="spacing" textLength="196.9106" x="562.8765" y="236.895">Validar jerarqu&#237;a (BR-MEM-02)</text></g><g class="message" data-entity-1="part3" data-entity-2="part4" id="msg6"><polygon fill="#181818" points="754.7871,280.0938,764.7871,284.0938,754.7871,288.0938,758.7871,284.0938" style="stroke:#181818;stroke-width:1;"/><line style="stroke:#181818;stroke-width:1;" x1="555.8765" x2="760.7871" y1="284.0938" y2="284.0938"/><text fill="#000000" font-family="sans-serif" font-size="13" lengthAdjust="spacing" textLength="172.8848" x="562.8765" y="279.0278">deactivateMember(userId)</text></g><g class="message" data-entity-1="part4" data-entity-2="part5" id="msg7"><polygon fill="#181818" points="951.6719,309.2266,961.6719,313.2266,951.6719,317.2266,955.6719,313.2266" style="stroke:#181818;stroke-width:1;"/><line style="stroke:#181818;stroke-width:1;" x1="766.7871" x2="957.6719" y1="313.2266" y2="313.2266"/><text fill="#000000" font-family="sans-serif" font-size="13" lengthAdjust="spacing" textLength="172.8848" x="773.7871" y="308.1606">deactivateMember(userId)</text></g><g class="message" data-entity-1="part5" data-entity-2="part6" id="msg8"><polygon fill="#181818" points="1117.6729,338.3594,1127.6729,342.3594,1117.6729,346.3594,1121.6729,342.3594" style="stroke:#181818;stroke-width:1;"/><line style="stroke:#181818;stroke-width:1;" x1="963.6719" x2="1123.6729" y1="342.3594" y2="342.3594"/><text fill="#000000" font-family="sans-serif" font-size="13" lengthAdjust="spacing" textLength="103.9619" x="970.6719" y="337.2935">findById(userId)</text></g><g class="message" data-entity-1="part6" data-entity-2="part5" id="msg9"><polygon fill="#181818" points="974.6719,367.4922,964.6719,371.4922,974.6719,375.4922,970.6719,371.4922" style="stroke:#181818;stroke-width:1;"/><line style="stroke:#181818;stroke-width:1;stroke-dasharray:2,2;" x1="968.6719" x2="1128.6729" y1="371.4922" y2="371.4922"/><text fill="#000000" font-family="sans-serif" font-size="13" lengthAdjust="spacing" textLength="71.7158" x="980.6719" y="366.4263">User Entity</text></g><g class="message" data-entity-1="part5" data-entity-2="part5" id="msg10"><line style="stroke:#181818;stroke-width:1;" x1="963.6719" x2="1005.6719" y1="400.625" y2="400.625"/><line style="stroke:#181818;stroke-width:1;" x1="1005.6719" x2="1005.6719" y1="400.625" y2="413.625"/><line style="stroke:#181818;stroke-width:1;" x1="964.6719" x2="1005.6719" y1="413.625" y2="413.625"/><polygon fill="#181818" points="974.6719,409.625,964.6719,413.625,974.6719,417.625,970.6719,413.625" style="stroke:#181818;stroke-width:1;"/><text fill="#000000" font-family="sans-serif" font-size="13" lengthAdjust="spacing" textLength="152.001" x="970.6719" y="395.5591">user.status = INACTIVE</text></g><g class="message" data-entity-1="part5" data-entity-2="part6" id="msg11"><polygon fill="#181818" points="1117.6729,438.7578,1127.6729,442.7578,1117.6729,446.7578,1121.6729,442.7578" style="stroke:#181818;stroke-width:1;"/><line style="stroke:#181818;stroke-width:1;" x1="963.6719" x2="1123.6729" y1="442.7578" y2="442.7578"/><text fill="#000000" font-family="sans-serif" font-size="13" lengthAdjust="spacing" textLength="68.9292" x="970.6719" y="437.6919">save(user)</text></g><g class="message" data-entity-1="part6" data-entity-2="part7" id="msg12"><polygon fill="#181818" points="1400.1621,467.8906,1410.1621,471.8906,1400.1621,475.8906,1404.1621,471.8906" style="stroke:#181818;stroke-width:1;"/><line style="stroke:#181818;stroke-width:1;" x1="1129.6729" x2="1406.1621" y1="471.8906" y2="471.8906"/><text fill="#000000" font-family="sans-serif" font-size="13" lengthAdjust="spacing" textLength="258.4893" x="1136.6729" y="466.8247">UPDATE users SET status = 'inactive' ...</text></g><g class="message" data-entity-1="part7" data-entity-2="part6" id="msg13"><polygon fill="#181818" points="1140.6729,497.0234,1130.6729,501.0234,1140.6729,505.0234,1136.6729,501.0234" style="stroke:#181818;stroke-width:1;"/><line style="stroke:#181818;stroke-width:1;stroke-dasharray:2,2;" x1="1134.6729" x2="1411.1621" y1="501.0234" y2="501.0234"/><text fill="#000000" font-family="sans-serif" font-size="13" lengthAdjust="spacing" textLength="18.7573" x="1146.6729" y="495.9575">OK</text></g><g class="message" data-entity-1="part5" data-entity-2="part4" id="msg14"><polygon fill="#181818" points="777.7871,526.1563,767.7871,530.1563,777.7871,534.1563,773.7871,530.1563" style="stroke:#181818;stroke-width:1;"/><line style="stroke:#181818;stroke-width:1;stroke-dasharray:2,2;" x1="771.7871" x2="962.6719" y1="530.1563" y2="530.1563"/><text fill="#000000" font-family="sans-serif" font-size="13" lengthAdjust="spacing" textLength="52.3301" x="783.7871" y="525.0903">Success</text></g><g class="message" data-entity-1="part4" data-entity-2="part3" id="msg15"><polygon fill="#181818" points="566.8765,555.2891,556.8765,559.2891,566.8765,563.2891,562.8765,559.2891" style="stroke:#181818;stroke-width:1;"/><line style="stroke:#181818;stroke-width:1;stroke-dasharray:2,2;" x1="560.8765" x2="765.7871" y1="559.2891" y2="559.2891"/><text fill="#000000" font-family="sans-serif" font-size="13" lengthAdjust="spacing" textLength="47.7026" x="572.8765" y="554.2231">200 OK</text></g><g class="message" data-entity-1="part3" data-entity-2="part2" id="msg16"><polygon fill="#181818" points="253.6797,584.4219,243.6797,588.4219,253.6797,592.4219,249.6797,588.4219" style="stroke:#181818;stroke-width:1;"/><line style="stroke:#181818;stroke-width:1;stroke-dasharray:2,2;" x1="247.6797" x2="554.8765" y1="588.4219" y2="588.4219"/><text fill="#000000" font-family="sans-serif" font-size="13" lengthAdjust="spacing" textLength="113.439" x="259.6797" y="583.356">Success Message</text></g><g class="message" data-entity-1="part2" data-entity-2="part1" id="msg17"><polygon fill="#181818" points="37.5425,613.5547,27.5425,617.5547,37.5425,621.5547,33.5425,617.5547" style="stroke:#181818;stroke-width:1;"/><line style="stroke:#181818;stroke-width:1;stroke-dasharray:2,2;" x1="31.5425" x2="241.6797" y1="617.5547" y2="617.5547"/><text fill="#000000" font-family="sans-serif" font-size="13" lengthAdjust="spacing" textLength="180.3242" x="43.5425" y="612.4888">Actualiza lista de miembros</text></g><?plantuml-src VP9DRjim48NtEiN0cyGB_o3P2MW0sz92QDKK_ib-GavI5hBeafGB9yXXSe2kUWHVh3EKhC11a0qbSJu-ldaZLC4wcCcQxD05eymEwm23JP72ab250Q27JN5UdJNXPscqhkWFEeg8R9r39MtloIri7PojAd8HMmHNVOIjoEsDQgLMU_NEZ2Utf9trXdqU8YEVYSQ0z-W91bdt5clPF4bYIp2w0MbaKHa5L3D6dbioUsGpMyCNEvjiYXDMMXySEj3c-5hPHmkQGDdwmRWjAdFyLyFbV3agyt8qlHw-kw73N2SdQQIGvT_oTGuJt9d9DhRf9yyDDrFebqIGD_GEAwFvxb_43dutnx_uTjdLi8SblfHzjLq4QiExR3M7YPG5umG_eRWga4IOmeEfzVnGwBugsp0wYKZqaDV1XCFfNDmNUkm3XiR35oY-pnRhuYu_b_QufoXx4htXqR3aZsp6gKY1PvslePUvC7MqJ1Sm7e-JR1vzj6AtNrlnFeHLenHvt_NS1tardGhR1jPDfqEXv0KVASv83iW4KtaqdFuJGcNOYaoz-pVyVm00?></g></svg>