<?plantuml 1.2026.2?><svg xmlns="http://www.w3.org/2000/svg" xmlns:xlink="http://www.w3.org/1999/xlink" contentStyleType="text/css" data-diagram-type="DESCRIPTION" height="443px" preserveAspectRatio="none" style="width:836px;height:443px;background:#FFFFFF;" version="1.1" viewBox="0 0 836 443" width="836px" zoomAndPan="magnify"><defs/><g><!--cluster crearGrupo--><g class="cluster" data-qualified-name="crearGrupo" data-source-line="4" id="ent0003"><path d="M381,6 L483.8486,6 A3.75,3.75 0 0 1 486.3486,8.5 L493.3486,28.2969 L757,28.2969 A2.5,2.5 0 0 1 759.5,30.7969 L759.5,433.5 A2.5,2.5 0 0 1 757,436 L381,436 A2.5,2.5 0 0 1 378.5,433.5 L378.5,8.5 A2.5,2.5 0 0 1 381,6" fill="none" style="stroke:#000000;stroke-width:1.5;"/><line style="stroke:#000000;stroke-width:1.5;" x1="378.5" x2="493.3486" y1="28.2969" y2="28.2969"/><text fill="#000000" font-family="sans-serif" font-size="14" font-weight="bold" lengthAdjust="spacing" textLength="101.8486" x="382.5" y="20.9951">crearGrupo()</text></g><!--entity CrearGrupoView--><g class="entity" data-qualified-name="crearGrupo.CrearGrupoView" data-source-line="5" id="ent0004"><rect fill="#629EF9" height="36.2969" rx="2.5" ry="2.5" style="stroke:#181818;stroke-width:0.5;" width="134.9395" x="397" y="41"/><text fill="#000000" font-family="sans-serif" font-size="14" lengthAdjust="spacing" textLength="114.9395" x="407" y="63.9951">CrearGrupoView</text></g><!--entity GruposController--><g class="entity" data-qualified-name="crearGrupo.GruposController" data-source-line="6" id="ent0005"><rect fill="#B5BD68" height="36.2969" rx="2.5" ry="2.5" style="stroke:#181818;stroke-width:0.5;" width="139.3965" x="395" y="174"/><text fill="#000000" font-family="sans-serif" font-size="14" lengthAdjust="spacing" textLength="119.3965" x="405" y="196.9951">GruposController</text></g><!--entity GrupoRepository--><g class="entity" data-qualified-name="crearGrupo.GrupoRepository" data-source-line="7" id="ent0006"><rect fill="#F2AC4E" height="36.2969" rx="2.5" ry="2.5" style="stroke:#181818;stroke-width:0.5;" width="138.002" x="394.5" y="287"/><text fill="#000000" font-family="sans-serif" font-size="14" lengthAdjust="spacing" textLength="118.002" x="404.5" y="309.9951">GrupoRepository</text></g><!--entity Grupo--><g class="entity" data-qualified-name="crearGrupo.Grupo" data-source-line="8" id="ent0007"><rect fill="#F2AC4E" height="36.2969" rx="2.5" ry="2.5" style="stroke:#181818;stroke-width:0.5;" width="62.9297" x="410" y="384"/><text fill="#000000" font-family="sans-serif" font-size="14" lengthAdjust="spacing" textLength="42.9297" x="420" y="406.9951">Grupo</text></g><!--entity MiembroGrupo--><g class="entity" data-qualified-name="crearGrupo.MiembroGrupo" data-source-line="9" id="ent0008"><rect fill="#F2AC4E" height="36.2969" rx="2.5" ry="2.5" style="stroke:#181818;stroke-width:0.5;" width="124.3574" x="508.5" y="384"/><text fill="#000000" font-family="sans-serif" font-size="14" lengthAdjust="spacing" textLength="104.3574" x="518.5" y="406.9951">MiembroGrupo</text></g><!--entity Usuario--><g class="entity" data-qualified-name="Usuario" data-source-line="3" id="ent0002"><ellipse cx="802.6021" cy="29.5" fill="#F1F1F1" rx="8" ry="8" style="stroke:#181818;stroke-width:0.5;"/><path d="M802.6021,37.5 L802.6021,64.5 M789.6021,45.5 L815.6021,45.5 M802.6021,64.5 L789.6021,79.5 M802.6021,64.5 L815.6021,79.5" fill="none" style="stroke:#181818;stroke-width:0.5;"/><text fill="#000000" font-family="sans-serif" font-size="14" lengthAdjust="spacing" textLength="53.2041" x="776" y="93.9951">Usuario</text></g><!--entity SistemaDisponible--><g class="entity" data-qualified-name="SistemaDisponible" data-source-line="11" id="ent0009"><rect fill="#CDEBA5" height="36.2969" rx="2.5" ry="2.5" style="stroke:#181818;stroke-width:0.5;" width="159.125" x="7" y="41"/><text fill="#000000" font-family="sans-serif" font-size="14" lengthAdjust="spacing" textLength="139.125" x="17" y="63.9951">:Sistema Disponible</text></g><!--link SistemaDisponible to CrearGrupoView--><g class="link" data-entity-1="ent0009" data-entity-2="ent0004" data-link-type="dependency" data-source-line="13" id="lnk10"><path d="M166.2,59 C234.65,59 326.23,59 390.92,59" fill="none" id="SistemaDisponible-to-CrearGrupoView" style="stroke:#181818;stroke-width:1;"/><polygon fill="#181818" points="396.92,59,387.92,55,391.92,59,387.92,63,396.92,59" style="stroke:#181818;stroke-width:1;"/><text fill="#000000" font-family="sans-serif" font-size="13" lengthAdjust="spacing" textLength="100.5913" x="231.5" y="52.0669">1: crearGrupo()</text></g><!--link CrearGrupoView to SistemaDisponible--><g class="link" data-entity-1="ent0004" data-entity-2="ent0009" data-link-type="dependency" data-source-line="22" id="lnk15"><path d="M396.92,59 C332.23,59 240.65,59 172.2,59" fill="none" id="CrearGrupoView-to-SistemaDisponible" style="stroke:#181818;stroke-width:1;"/><polygon fill="#181818" points="166.2,59,175.2,63,171.2,59,175.2,55,166.2,59" style="stroke:#181818;stroke-width:1;"/><text fill="#000000" font-family="sans-serif" font-size="13" lengthAdjust="spacing" textLength="194.251" x="184.5" y="52.0669">4: sistemaDisponible(usuario)</text></g><!--link CrearGrupoView to GruposController--><g class="link" data-entity-1="ent0004" data-entity-2="ent0005" data-link-type="dependency" data-source-line="15" id="lnk11"><path d="M464.5,77.13 C464.5,102.23 464.5,142.76 464.5,167.87" fill="none" id="CrearGrupoView-to-GruposController" style="stroke:#181818;stroke-width:1;"/><polygon fill="#181818" points="464.5,173.87,468.5,164.87,464.5,168.87,460.5,164.87,464.5,173.87" style="stroke:#181818;stroke-width:1;"/><text fill="#000000" font-family="sans-serif" font-size="13" lengthAdjust="spacing" textLength="216.8359" x="465.5" y="140.0669">2: registrarGrupo(datos, creador)</text></g><!--link GruposController to GrupoRepository--><g class="link" data-entity-1="ent0005" data-entity-2="ent0006" data-link-type="dependency" data-source-line="17" id="lnk12"><path d="M464.34,210.34 C464.16,231.2 463.8919,259.9802 463.7119,280.7802" fill="none" id="GruposController-to-GrupoRepository" style="stroke:#181818;stroke-width:1;"/><polygon fill="#181818" points="463.66,286.78,467.7377,277.815,463.7033,281.7802,459.738,277.7457,463.66,286.78" style="stroke:#181818;stroke-width:1;"/><text fill="#000000" font-family="sans-serif" font-size="13" lengthAdjust="spacing" textLength="312.1777" x="464.5" y="253.0669">3: crearGrupoConAdministrador(datos, creador)</text></g><!--link GrupoRepository to Grupo--><g class="link" data-entity-1="ent0006" data-entity-2="ent0007" data-link-type="association" data-source-line="19" id="lnk13"><path d="M459.46,323.42 C455.5,340.57 449.47,366.58 445.51,383.69" fill="none" id="GrupoRepository-Grupo" style="stroke:#181818;stroke-width:1;"/></g><!--link GrupoRepository to MiembroGrupo--><g class="link" data-entity-1="ent0006" data-entity-2="ent0008" data-link-type="association" data-source-line="20" id="lnk14"><path d="M483.13,323.42 C502.43,340.57 531.74,366.58 551,383.69" fill="none" id="GrupoRepository-MiembroGrupo" style="stroke:#181818;stroke-width:1;"/></g><?plantuml-src VPB1JiCm38RlUGghN3Q97YZRn790Abt7YGi8xcaRLT7I979IeGhnxgJTHhkKaPljpx_jNx47eGn3re0KYhlES31QTdr022kTHdYtBKEXYM7bWTKSIkGCdx4r6fY5Q0mNomY-2FY7l7HCrPB3pIRPvlijPB_KX-2V8LIiYshp04FTPbevr59o3B5zacQh_8YzSeyAlr_t7tMbzY9uKw0-8jza0cIx_2bTGqJVX7MyOR0JrcWb2icZ_jnJUimICaj1ZF5ZS365EmfJgmYv122kV5Fe08M4-lrhFmBFhHLpsjuEOfL6BnGsGNnM6asYS3-Tx-6qQeGQTBtA5T6ntskU7FsZS67dxAxUZ9b755OKR9XTjCU_jlm1?></g></svg>