<?plantuml 1.2026.2?><svg xmlns="http://www.w3.org/2000/svg" xmlns:xlink="http://www.w3.org/1999/xlink" contentStyleType="text/css" data-diagram-type="DESCRIPTION" height="132px" preserveAspectRatio="none" style="width:1330px;height:132px;background:#FFFFFF;" version="1.1" viewBox="0 0 1330 132" width="1330px" zoomAndPan="magnify"><defs/><g><!--entity Usuario--><g class="entity" data-qualified-name="Usuario" data-source-line="4" id="ent0002"><ellipse cx="32.6021" cy="50.5" fill="#F1F1F1" rx="8" ry="8" style="stroke:#181818;stroke-width:0.5;"/><path d="M32.6021,58.5 L32.6021,85.5 M19.6021,66.5 L45.6021,66.5 M32.6021,85.5 L19.6021,100.5 M32.6021,85.5 L45.6021,100.5" fill="none" style="stroke:#181818;stroke-width:0.5;"/><text fill="#000000" font-family="sans-serif" font-size="14" lengthAdjust="spacing" textLength="53.2041" x="6" y="114.9951">Usuario</text></g><!--entity InvitacionesView--><g class="entity" data-qualified-name="InvitacionesView" data-source-line="5" id="ent0003"><path d="M294.354,60 L294.354,84 M294.354,72 L311.354,72" fill="none" style="stroke:#181818;stroke-width:0.5;"/><ellipse cx="323.354" cy="72" fill="#F1F1F1" rx="12" ry="12" style="stroke:#181818;stroke-width:0.5;"/><text fill="#000000" font-family="sans-serif" font-size="14" lengthAdjust="spacing" textLength="117.708" x="256" y="100.9951">InvitacionesView</text></g><!--entity InvitacionesController--><g class="entity" data-qualified-name="InvitacionesController" data-source-line="6" id="ent0004"><ellipse cx="703.1753" cy="23" fill="#F1F1F1" rx="12" ry="12" style="stroke:#181818;stroke-width:0.5;"/><polygon fill="#181818" points="699.1753,11,705.1753,6,703.1753,11,705.1753,16,699.1753,11" style="stroke:#181818;stroke-width:1;"/><text fill="#000000" font-family="sans-serif" font-size="14" lengthAdjust="spacing" textLength="153.3506" x="626.5" y="51.9951">InvitacionesController</text></g><!--entity InvitacionRepository--><g class="entity" data-qualified-name="InvitacionRepository" data-source-line="7" id="ent0005"><ellipse cx="1122.6714" cy="23" fill="#F1F1F1" rx="12" ry="12" style="stroke:#181818;stroke-width:0.5;"/><line style="stroke:#181818;stroke-width:0.5;" x1="1110.6714" x2="1134.6714" y1="37" y2="37"/><text fill="#000000" font-family="sans-serif" font-size="14" lengthAdjust="spacing" textLength="143.3428" x="1051" y="51.9951">InvitacionRepository</text></g><!--entity EntidadInvitacion--><g class="entity" data-qualified-name="EntidadInvitacion" data-source-line="8" id="ent0006"><ellipse cx="1289.1353" cy="23" fill="#F1F1F1" rx="12" ry="12" style="stroke:#181818;stroke-width:0.5;"/><line style="stroke:#181818;stroke-width:0.5;" x1="1277.1353" x2="1301.1353" y1="37" y2="37"/><text fill="#000000" font-family="sans-serif" font-size="14" lengthAdjust="spacing" textLength="68.2705" x="1255" y="51.9951">Invitacion</text></g><!--entity InvitacionesAbierto--><g class="entity" data-qualified-name="InvitacionesAbierto" data-source-line="9" id="ent0007"><rect fill="#C5E0B4" height="36.2969" rx="2.5" ry="2.5" style="stroke:#181818;stroke-width:0.5;" width="164.1221" x="621" y="90"/><text fill="#000000" font-family="sans-serif" font-size="14" lengthAdjust="spacing" textLength="144.1221" x="631" y="112.9951">:Invitaciones Abierto</text></g><!--link Usuario to InvitacionesView--><g class="link" data-entity-1="ent0002" data-entity-2="ent0003" data-link-type="dependency" data-source-line="11" id="lnk8"><path d="M59.39,80 C103.8,80 189.57,80 249.94,80" fill="none" id="Usuario-to-InvitacionesView" style="stroke:#181818;stroke-width:1;"/><polygon fill="#181818" points="255.94,80,246.94,76,250.94,80,246.94,84,255.94,80" style="stroke:#181818;stroke-width:1;"/><text fill="#000000" font-family="sans-serif" font-size="13" lengthAdjust="spacing" textLength="135.6113" x="90" y="76.0669">1: abrirInvitaciones()</text></g><!--link InvitacionesView to InvitacionesController--><g class="link" data-entity-1="ent0003" data-entity-2="ent0004" data-link-type="dependency" data-source-line="12" id="lnk9"><path d="M374.21,72.61 C441.5,64.07 546.4977,50.7353 620.4177,41.3553" fill="none" id="InvitacionesView-to-InvitacionesController" style="stroke:#181818;stroke-width:1;"/><polygon fill="#181818" points="626.37,40.6,616.9381,37.7648,621.4098,41.2294,617.9451,45.7011,626.37,40.6" style="stroke:#181818;stroke-width:1;"/><text fill="#000000" font-family="sans-serif" font-size="13" lengthAdjust="spacing" textLength="185.6245" x="405" y="41.0669">2: listarInvitaciones(usuario)</text></g><!--link InvitacionesController to InvitacionRepository--><g class="link" data-entity-1="ent0004" data-entity-2="ent0005" data-link-type="dependency" data-source-line="13" id="lnk10"><path d="M779.61,31 C856.8,31 969.68,31 1044.98,31" fill="none" id="InvitacionesController-to-InvitacionRepository" style="stroke:#181818;stroke-width:1;"/><polygon fill="#181818" points="1050.98,31,1041.98,27,1045.98,31,1041.98,35,1050.98,31" style="stroke:#181818;stroke-width:1;"/><text fill="#000000" font-family="sans-serif" font-size="13" lengthAdjust="spacing" textLength="204.1025" x="816" y="27.0669">3: obtenerInvitaciones(usuario)</text></g><!--link InvitacionRepository to EntidadInvitacion--><g class="link" data-entity-1="ent0005" data-entity-2="ent0006" data-link-type="association" data-source-line="14" id="lnk11"><path d="M1194.22,31 C1215.29,31 1237.39,31 1254.85,31" fill="none" id="InvitacionRepository-EntidadInvitacion" style="stroke:#181818;stroke-width:1;"/></g><!--link InvitacionesView to InvitacionesAbierto--><g class="link" data-entity-1="ent0003" data-entity-2="ent0007" data-link-type="dependency" data-source-line="15" id="lnk12"><path d="M374.21,93.89 C390.57,97.8 404,101 404,101 C404,101 526.7217,103.8786 614.9617,105.9586" fill="none" id="InvitacionesView-to-InvitacionesAbierto" style="stroke:#181818;stroke-width:1;"/><polygon fill="#181818" points="620.96,106.1,612.0568,101.889,615.9614,105.9822,611.8682,109.8868,620.96,106.1" style="stroke:#181818;stroke-width:1;"/><text fill="#000000" font-family="sans-serif" font-size="13" lengthAdjust="spacing" textLength="129.6128" x="433" y="97.0669">4: actualizaEstado()</text></g><?plantuml-src XP1FJyCm3CNl-HJMk6o7IlmPbnoGOEg1AnBStTOCYn1NZWigdvwCRMhAa7QCdz_FUI-zS-nHyGC2HxAn9-WbZBk72_HgO0BAspU3ZfLQOudEOMkYy9m6L1RNo10xr14UuoSRjdc5qWlJbsibcagO2PlzB90wYiPMsfwebyIPFHwrnIGk01FKUTnXDqtTxbCOju5WuSixSDymgSclhHGESxZOtDQN3sld3ZcWgkvE8e27Am_OA6ifBLVkPFElVGgQ8TS-zviCvvHXVtaEAtnpvDHE1jvuaCOeqbbYOQkgVmey6-HOc8TrhgAr0GD_OvtJTB9S_G00?></g></svg>