<?plantuml 1.2026.2?><svg xmlns="http://www.w3.org/2000/svg" xmlns:xlink="http://www.w3.org/1999/xlink" contentStyleType="text/css" data-diagram-type="DESCRIPTION" height="443px" preserveAspectRatio="none" style="width:788px;height:443px;background:#FFFFFF;" version="1.1" viewBox="0 0 788 443" width="788px" zoomAndPan="magnify"><defs/><g><!--cluster abrirInvitaciones--><g class="cluster" data-qualified-name="abrirInvitaciones" data-source-line="4" id="ent0003"><path d="M384,6 L531.624,6 A3.75,3.75 0 0 1 534.124,8.5 L541.124,28.2969 L709,28.2969 A2.5,2.5 0 0 1 711.5,30.7969 L711.5,433.5 A2.5,2.5 0 0 1 709,436 L384,436 A2.5,2.5 0 0 1 381.5,433.5 L381.5,8.5 A2.5,2.5 0 0 1 384,6" fill="none" style="stroke:#000000;stroke-width:1.5;"/><line style="stroke:#000000;stroke-width:1.5;" x1="381.5" x2="541.124" y1="28.2969" y2="28.2969"/><text fill="#000000" font-family="sans-serif" font-size="14" font-weight="bold" lengthAdjust="spacing" textLength="146.624" x="385.5" y="20.9951">abrirInvitaciones()</text></g><!--entity ListarInvitacionesView--><g class="entity" data-qualified-name="abrirInvitaciones.ListarInvitacionesView" data-source-line="5" id="ent0004"><rect fill="#629EF9" height="36.2969" rx="2.5" ry="2.5" style="stroke:#181818;stroke-width:0.5;" width="176.5156" x="397" y="41"/><text fill="#000000" font-family="sans-serif" font-size="14" lengthAdjust="spacing" textLength="156.5156" x="407" y="63.9951">ListarInvitacionesView</text></g><!--entity InvitacionesController--><g class="entity" data-qualified-name="abrirInvitaciones.InvitacionesController" data-source-line="6" id="ent0005"><rect fill="#B5BD68" height="36.2969" rx="2.5" ry="2.5" style="stroke:#181818;stroke-width:0.5;" width="173.3506" x="398" y="174"/><text fill="#000000" font-family="sans-serif" font-size="14" lengthAdjust="spacing" textLength="153.3506" x="408" y="196.9951">InvitacionesController</text></g><!--entity InvitacionRepository--><g class="entity" data-qualified-name="abrirInvitaciones.InvitacionRepository" data-source-line="7" id="ent0006"><rect fill="#F2AC4E" height="36.2969" rx="2.5" ry="2.5" style="stroke:#181818;stroke-width:0.5;" width="163.3428" x="398" y="287"/><text fill="#000000" font-family="sans-serif" font-size="14" lengthAdjust="spacing" textLength="143.3428" x="408" y="309.9951">InvitacionRepository</text></g><!--entity Invitacion--><g class="entity" data-qualified-name="abrirInvitaciones.Invitacion" data-source-line="8" id="ent0007"><rect fill="#F2AC4E" height="36.2969" rx="2.5" ry="2.5" style="stroke:#181818;stroke-width:0.5;" width="88.2705" x="435.5" y="384"/><text fill="#000000" font-family="sans-serif" font-size="14" lengthAdjust="spacing" textLength="68.2705" x="445.5" y="406.9951">Invitacion</text></g><!--entity Usuario--><g class="entity" data-qualified-name="Usuario" data-source-line="3" id="ent0002"><ellipse cx="754.6021" cy="29.5" fill="#F1F1F1" rx="8" ry="8" style="stroke:#181818;stroke-width:0.5;"/><path d="M754.6021,37.5 L754.6021,64.5 M741.6021,45.5 L767.6021,45.5 M754.6021,64.5 L741.6021,79.5 M754.6021,64.5 L767.6021,79.5" fill="none" style="stroke:#181818;stroke-width:0.5;"/><text fill="#000000" font-family="sans-serif" font-size="14" lengthAdjust="spacing" textLength="53.2041" x="728" y="93.9951">Usuario</text></g><!--entity SistemaDisponible--><g class="entity" data-qualified-name="SistemaDisponible" data-source-line="10" id="ent0008"><rect fill="#CDEBA5" height="36.2969" rx="2.5" ry="2.5" style="stroke:#181818;stroke-width:0.5;" width="159.125" x="7" y="41"/><text fill="#000000" font-family="sans-serif" font-size="14" lengthAdjust="spacing" textLength="139.125" x="17" y="63.9951">:Sistema Disponible</text></g><!--link SistemaDisponible to ListarInvitacionesView--><g class="link" data-entity-1="ent0008" data-entity-2="ent0004" data-link-type="dependency" data-source-line="12" id="lnk9"><path d="M166.28,59 C232.92,59 321.83,59 390.83,59" fill="none" id="SistemaDisponible-to-ListarInvitacionesView" style="stroke:#181818;stroke-width:1;"/><polygon fill="#181818" points="396.83,59,387.83,55,391.83,59,387.83,63,396.83,59" style="stroke:#181818;stroke-width:1;"/><text fill="#000000" font-family="sans-serif" font-size="13" lengthAdjust="spacing" textLength="135.6113" x="214" y="52.0669">1: abrirInvitaciones()</text></g><!--link ListarInvitacionesView to SistemaDisponible--><g class="link" data-entity-1="ent0004" data-entity-2="ent0008" data-link-type="dependency" data-source-line="20" id="lnk13"><path d="M396.83,59 C327.83,59 238.92,59 172.28,59" fill="none" id="ListarInvitacionesView-to-SistemaDisponible" style="stroke:#181818;stroke-width:1;"/><polygon fill="#181818" points="166.28,59,175.28,63,171.28,59,175.28,55,166.28,59" style="stroke:#181818;stroke-width:1;"/><text fill="#000000" font-family="sans-serif" font-size="13" lengthAdjust="spacing" textLength="194.251" x="184.5" y="52.0669">4: sistemaDisponible(usuario)</text></g><!--link ListarInvitacionesView to InvitacionesController--><g class="link" data-entity-1="ent0004" data-entity-2="ent0005" data-link-type="dependency" data-source-line="14" id="lnk10"><path d="M485.37,77.13 C485.18,102.23 484.8654,142.7602 484.6754,167.8702" fill="none" id="ListarInvitacionesView-to-InvitacionesController" style="stroke:#181818;stroke-width:1;"/><polygon fill="#181818" points="484.63,173.87,488.698,164.9005,484.6678,168.8701,480.6982,164.84,484.63,173.87" style="stroke:#181818;stroke-width:1;"/><text fill="#000000" font-family="sans-serif" font-size="13" lengthAdjust="spacing" textLength="204.1025" x="485.5" y="140.0669">2: obtenerInvitaciones(usuario)</text></g><!--link InvitacionesController to InvitacionRepository--><g class="link" data-entity-1="ent0005" data-entity-2="ent0006" data-link-type="dependency" data-source-line="16" id="lnk11"><path d="M483.72,210.34 C482.78,231.2 481.478,259.986 480.548,280.786" fill="none" id="InvitacionesController-to-InvitacionRepository" style="stroke:#181818;stroke-width:1;"/><polygon fill="#181818" points="480.28,286.78,484.678,277.9677,480.5033,281.785,476.686,277.6103,480.28,286.78" style="stroke:#181818;stroke-width:1;"/><text fill="#000000" font-family="sans-serif" font-size="13" lengthAdjust="spacing" textLength="261.3647" x="482.5" y="253.0669">3: buscarPendientesPorUsuario(usuario)</text></g><!--link InvitacionRepository to Invitacion--><g class="link" data-entity-1="ent0006" data-entity-2="ent0007" data-link-type="association" data-source-line="18" id="lnk12"><path d="M479.5,323.42 C479.5,340.57 479.5,366.58 479.5,383.69" fill="none" id="InvitacionRepository-Invitacion" style="stroke:#181818;stroke-width:1;"/></g><?plantuml-src XPBDJWCX58NtFCNDkD75B1pRnh8mgTDfOkAYqUZ-CdFJa58Wm6WcndUNYOtpsyYEmyU1Sy0VfRRey0HAQWgD9R16DUs4CIo3SV3cQtJIC8lb4Gy4A9nqJ_f31YobqUG1FIGJzVecWIy6SJWg0-g38hXQPUjYjuPdwGCEw7T9dsDOB4MrkeS-bXiTd56At1ZUPPjyKVJW5xB6onYW-HTbtwotd6-BnyqI4luQRqadXAtqrcWf52LjrBFSgOnD94XT-d0X9eTR3ZDrCJRFGrf5h_aME6GSZ0YaQUXM_pvQD9tV2Ed0iokBmnq7KViItPvq9Ka7ydlZphzWrhZR7MtxlLvCrBOpAOt3WeCVgtyd_W00?></g></svg>