<?plantuml 1.2026.2?><svg xmlns="http://www.w3.org/2000/svg" xmlns:xlink="http://www.w3.org/1999/xlink" contentStyleType="text/css" data-diagram-type="DESCRIPTION" height="790px" preserveAspectRatio="none" style="width:544px;height:790px;background:#FFFFFF;" version="1.1" viewBox="0 0 544 790" width="544px" zoomAndPan="magnify"><defs/><g><!--cluster Sistema BRE?OTASK--><g class="cluster" data-qualified-name="Sistema BRE.OTASK" data-source-line="12" id="ent0005"><rect fill="none" height="777" rx="2.5" ry="2.5" style="stroke:#181818;stroke-width:1;" width="323" x="215" y="7"/><text fill="#000000" font-family="sans-serif" font-size="14" font-weight="bold" lengthAdjust="spacing" textLength="164.2607" x="294.3696" y="21.9951">Sistema BRE&#209;OTASK</text></g><!--entity UC_Groups--><g class="entity" data-qualified-name="Sistema BRE.OTASK.UC_Groups" data-source-line="13" id="ent0006"><ellipse cx="376.597" cy="202.2194" fill="#F1F1F1" rx="76.597" ry="17.7194" style="stroke:#181818;stroke-width:0.5;"/><text fill="#000000" font-family="sans-serif" font-size="14" lengthAdjust="spacing" textLength="122.582" x="315.306" y="206.8678">Gestionar Grupos</text></g><!--entity UC_Members--><g class="entity" data-qualified-name="Sistema BRE.OTASK.UC_Members" data-source-line="14" id="ent0007"><ellipse cx="376.4606" cy="61.7921" fill="#F1F1F1" rx="84.4606" ry="19.2921" style="stroke:#181818;stroke-width:0.5;"/><text fill="#000000" font-family="sans-serif" font-size="14" lengthAdjust="spacing" textLength="141.0801" x="305.9205" y="66.4405">Gestionar Miembros</text></g><!--entity UC_Invite--><g class="entity" data-qualified-name="Sistema BRE.OTASK.UC_Invite" data-source-line="15" id="ent0008"><ellipse cx="376.4261" cy="433.1852" fill="#F1F1F1" rx="71.4261" ry="16.6852" style="stroke:#181818;stroke-width:0.5;"/><text fill="#000000" font-family="sans-serif" font-size="14" lengthAdjust="spacing" textLength="109.9492" x="321.4515" y="437.8337">Invitar Usuarios</text></g><!--entity UC_CreateTask--><g class="entity" data-qualified-name="Sistema BRE.OTASK.UC_CreateTask" data-source-line="16" id="ent0009"><ellipse cx="376.3159" cy="500.1632" fill="#F1F1F1" rx="63.8159" ry="15.1632" style="stroke:#181818;stroke-width:0.5;"/><text fill="#000000" font-family="sans-serif" font-size="14" lengthAdjust="spacing" textLength="90.3027" x="331.1645" y="504.8116">Crear Tareas</text></g><!--entity UC_EditTask--><g class="entity" data-qualified-name="Sistema BRE.OTASK.UC_EditTask" data-source-line="17" id="ent0010"><ellipse cx="376.4252" cy="565.885" fill="#F1F1F1" rx="64.9252" ry="15.385" style="stroke:#181818;stroke-width:0.5;"/><text fill="#000000" font-family="sans-serif" font-size="14" lengthAdjust="spacing" textLength="93.2695" x="329.7904" y="570.5335">Editar Tareas</text></g><!--entity UC_DeleteTask--><g class="entity" data-qualified-name="Sistema BRE.OTASK.UC_DeleteTask" data-source-line="18" id="ent0011"><ellipse cx="376.6189" cy="133.1238" fill="#F1F1F1" rx="71.1189" ry="16.6238" style="stroke:#181818;stroke-width:0.5;"/><text fill="#000000" font-family="sans-serif" font-size="14" lengthAdjust="spacing" textLength="109.1836" x="322.0271" y="137.7722">Eliminar Tareas</text></g><!--entity UC_Deps--><g class="entity" data-qualified-name="Sistema BRE.OTASK.UC_Deps" data-source-line="19" id="ent0012"><ellipse cx="376.6437" cy="359.0287" fill="#F1F1F1" rx="98.1437" ry="22.0287" style="stroke:#181818;stroke-width:0.5;"/><text fill="#000000" font-family="sans-serif" font-size="14" lengthAdjust="spacing" textLength="171.958" x="290.6647" y="363.6772">Gestionar Dependencias</text></g><!--entity UC_View--><g class="entity" data-qualified-name="Sistema BRE.OTASK.UC_View" data-source-line="20" id="ent0013"><ellipse cx="376.5275" cy="642.8055" fill="#F1F1F1" rx="117.0275" ry="25.8055" style="stroke:#181818;stroke-width:0.5;"/><text fill="#000000" font-family="sans-serif" font-size="14" lengthAdjust="spacing" textLength="213.001" x="270.0271" y="647.4539">Consultar Horario / Dashboard</text></g><!--entity UC_CompleteOwn--><g class="entity" data-qualified-name="Sistema BRE.OTASK.UC_CompleteOwn" data-source-line="21" id="ent0014"><ellipse cx="376.6668" cy="736.0334" fill="#F1F1F1" rx="145.6668" ry="31.5334" style="stroke:#181818;stroke-width:0.5;"/><text fill="#000000" font-family="sans-serif" font-size="14" lengthAdjust="spacing" textLength="273.4512" x="239.9412" y="740.6818">Completar Tareas Propias / Sin Asignar</text></g><!--entity UC_CompleteAny--><g class="entity" data-qualified-name="Sistema BRE.OTASK.UC_CompleteAny" data-source-line="22" id="ent0015"><ellipse cx="376.5498" cy="278.11" fill="#F1F1F1" rx="106.0498" ry="23.61" style="stroke:#181818;stroke-width:0.5;"/><text fill="#000000" font-family="sans-serif" font-size="14" lengthAdjust="spacing" textLength="189.3076" x="281.896" y="282.7584">Completar Cualquier Tarea</text></g><!--entity Admin--><g class="entity" data-qualified-name="Admin" data-source-line="8" id="ent0002"><ellipse cx="88.54" cy="329.5" fill="#FFFFFF" rx="8" ry="8" style="stroke:#000000;stroke-width:0.5;"/><path d="M88.54,337.5 L88.54,364.5 M75.54,345.5 L101.54,345.5 M88.54,364.5 L75.54,379.5 M88.54,364.5 L101.54,379.5" fill="none" style="stroke:#000000;stroke-width:0.5;"/><text fill="#000000" font-family="sans-serif" font-size="14" lengthAdjust="spacing" textLength="99.0801" x="39" y="393.9951">Administrador</text></g><!--entity Manager--><g class="entity" data-qualified-name="Manager" data-source-line="9" id="ent0003"><ellipse cx="88.479" cy="455.5" fill="#FFFFFF" rx="8" ry="8" style="stroke:#000000;stroke-width:0.5;"/><path d="M88.479,463.5 L88.479,490.5 M75.479,471.5 L101.479,471.5 M88.479,490.5 L75.479,505.5 M88.479,490.5 L101.479,505.5" fill="none" style="stroke:#000000;stroke-width:0.5;"/><text fill="#000000" font-family="sans-serif" font-size="14" lengthAdjust="spacing" textLength="164.958" x="6" y="519.9951">Miembro Administrador</text></g><!--entity Member--><g class="entity" data-qualified-name="Member" data-source-line="10" id="ent0004"><ellipse cx="88.7139" cy="659.5" fill="#FFFFFF" rx="8" ry="8" style="stroke:#000000;stroke-width:0.5;"/><path d="M88.7139,667.5 L88.7139,694.5 M75.7139,675.5 L101.7139,675.5 M88.7139,694.5 L75.7139,709.5 M88.7139,694.5 L101.7139,709.5" fill="none" style="stroke:#000000;stroke-width:0.5;"/><text fill="#000000" font-family="sans-serif" font-size="14" lengthAdjust="spacing" textLength="61.4277" x="58" y="723.9951">Miembro</text></g><!--link Admin to UC_Groups--><g class="link" data-entity-1="ent0002" data-entity-2="ent0006" data-link-type="association" data-source-line="28" id="lnk16"><path d="M116.23,320.84 C137.61,293.26 170.06,257.4 207,237 C236.29,220.83 272.21,212.1 303.34,207.41" fill="none" id="Admin-UC_Groups" style="stroke:#181818;stroke-width:1;"/></g><!--link Admin to UC_Members--><g class="link" data-entity-1="ent0002" data-entity-2="ent0007" data-link-type="association" data-source-line="29" id="lnk17"><path d="M95.72,320.62 C107.13,263.24 136.97,155.77 207,99 C230.96,79.57 262.92,69.79 292.56,65.03" fill="none" id="Admin-UC_Members" style="stroke:#181818;stroke-width:1;"/></g><!--link Admin to UC_Invite--><g class="link" data-entity-1="ent0002" data-entity-2="ent0008" data-link-type="association" data-source-line="30" id="lnk18"><path d="M138.28,376.6 C159.26,383.8 184.17,391.86 207,398 C244.08,407.97 286.39,416.75 319.33,423.02" fill="none" id="Admin-UC_Invite" style="stroke:#181818;stroke-width:1;"/></g><!--link Admin to UC_CreateTask--><g class="link" data-entity-1="ent0002" data-entity-2="ent0009" data-link-type="association" data-source-line="31" id="lnk19"><path d="M135.5,397.07 C147.28,407.21 159.79,418.32 171,429 C187.85,445.04 186.62,455.79 207,467 C239.52,484.89 280.26,493.18 313.54,496.98" fill="none" id="Admin-UC_CreateTask" style="stroke:#181818;stroke-width:1;"/></g><!--link Admin to UC_EditTask--><g class="link" data-entity-1="ent0002" data-entity-2="ent0010" data-link-type="association" data-source-line="32" id="lnk20"><path d="M138.05,393.44 C150.08,403.79 162.07,415.9 171,429 C198.33,469.06 170.44,500.14 207,532 C235.46,556.8 276.94,565.4 311.62,567.74" fill="none" id="Admin-UC_EditTask" style="stroke:#181818;stroke-width:1;"/></g><!--link Admin to UC_DeleteTask--><g class="link" data-entity-1="ent0002" data-entity-2="ent0011" data-link-type="association" data-source-line="33" id="lnk21"><path d="M102.24,320.66 C119.01,276.4 152.88,204.85 207,167 C235.61,146.99 273.27,138.17 305.72,134.49" fill="none" id="Admin-UC_DeleteTask" style="stroke:#181818;stroke-width:1;"/></g><!--link Admin to UC_Deps--><g class="link" data-entity-1="ent0002" data-entity-2="ent0012" data-link-type="association" data-source-line="34" id="lnk22"><path d="M138.02,359 C176.34,359 231.06,359 278.32,359" fill="none" id="Admin-UC_Deps" style="stroke:#181818;stroke-width:1;"/></g><!--link Admin to UC_View--><g class="link" data-entity-1="ent0002" data-entity-2="ent0013" data-link-type="association" data-source-line="35" id="lnk23"><path d="M138.34,391.99 C150.67,402.48 162.73,415.04 171,429 C210.37,495.44 153.68,543.13 207,599 C223.18,615.95 245,626.67 267.57,633.38" fill="none" id="Admin-UC_View" style="stroke:#181818;stroke-width:1;"/></g><!--link Admin to UC_CompleteAny--><g class="link" data-entity-1="ent0002" data-entity-2="ent0015" data-link-type="association" data-source-line="36" id="lnk24"><path d="M138.07,341.38 C159.12,334.02 184.14,325.66 207,319 C237.5,310.12 271.47,301.59 300.88,294.64" fill="none" id="Admin-UC_CompleteAny" style="stroke:#181818;stroke-width:1;"/></g><!--link Manager to UC_Invite--><g class="link" data-entity-1="ent0003" data-entity-2="ent0008" data-link-type="association" data-source-line="38" id="lnk25"><path d="M171.07,470.17 C218.62,461.52 277.36,450.84 319.66,443.15" fill="none" id="Manager-UC_Invite" style="stroke:#181818;stroke-width:1;"/></g><!--link Manager to UC_CreateTask--><g class="link" data-entity-1="ent0003" data-entity-2="ent0009" data-link-type="association" data-source-line="39" id="lnk26"><path d="M171.07,489.28 C216.48,491.66 272.08,494.58 313.83,496.77" fill="none" id="Manager-UC_CreateTask" style="stroke:#181818;stroke-width:1;"/></g><!--link Manager to UC_EditTask--><g class="link" data-entity-1="ent0003" data-entity-2="ent0010" data-link-type="association" data-source-line="40" id="lnk27"><path d="M171,519.8 C182.95,524.26 195.21,528.48 207,532 C244.61,543.21 288.04,551.88 321.39,557.65" fill="none" id="Manager-UC_EditTask" style="stroke:#181818;stroke-width:1;"/></g><!--link Manager to UC_Deps--><g class="link" data-entity-1="ent0003" data-entity-2="ent0012" data-link-type="association" data-source-line="41" id="lnk28"><path d="M132.6,447 C153.75,430.1 180.38,411.29 207,399 C234.44,386.34 266.3,377.45 294.88,371.33" fill="none" id="Manager-UC_Deps" style="stroke:#181818;stroke-width:1;"/></g><!--link Manager to UC_View--><g class="link" data-entity-1="ent0003" data-entity-2="ent0013" data-link-type="association" data-source-line="42" id="lnk29"><path d="M119.6,523.07 C141.35,548.13 172.82,579.75 207,599 C229.79,611.83 256.41,621.02 281.68,627.55" fill="none" id="Manager-UC_View" style="stroke:#181818;stroke-width:1;"/></g><!--link Manager to UC_CompleteAny--><g class="link" data-entity-1="ent0003" data-entity-2="ent0015" data-link-type="association" data-source-line="43" id="lnk30"><path d="M141.21,446.8 C152.08,437.01 162.74,425.86 171,414 C196.8,376.94 173.16,348.9 207,319 C226.18,302.06 251.2,291.84 276.06,285.76" fill="none" id="Manager-UC_CompleteAny" style="stroke:#181818;stroke-width:1;"/></g><!--link Member to UC_View--><g class="link" data-entity-1="ent0004" data-entity-2="ent0013" data-link-type="association" data-source-line="45" id="lnk31"><path d="M119.03,684.25 C156.99,678.14 224.73,667.25 281.07,658.19" fill="none" id="Member-UC_View" style="stroke:#181818;stroke-width:1;"/></g><!--link Member to UC_CompleteOwn--><g class="link" data-entity-1="ent0004" data-entity-2="ent0014" data-link-type="association" data-source-line="46" id="lnk32"><path d="M119.03,693.85 C152.35,699.33 208.63,708.58 259.98,717.02" fill="none" id="Member-UC_CompleteOwn" style="stroke:#181818;stroke-width:1;"/></g><?plantuml-src TLD1Rjim4Bph5GjVUcdQDpXou1H5aA1sUYtMqaOcJ97CageR57r47z9Nv6DTKhP2Aeak4cPdPuVBaQQ70C42gsuVe5LCJL3MLFwWZ4F67Xms1-ne4vuqGIoZwJHb16o2PVXTWJoNGkxO3gQjhHRqk5U1nehbbdX4TrferP-g6biNoxPNHld0s5fU07f8oBbyewZViONNj1iqOerdnB4adrAf9iUms4WlzGYNtwwU_zvkbvklYvFjmLE3NYXhyl7uoB3cmLcVfExh7siva_FlSKzp9_OuUqR_Odwg8EHxFo2h5tB2gUJMJCBSehmcNiG2RT4VIkvLcsHBSWJVe6eb6tn5Nf6cjvHV3hWYHwObqwYyQxwGsXe_w6Zcsd8y8to65VhzpYAtvxRlYexpjjw9WSaMtB5rCaYwDyh0qgjEF4nh6DbqUpJloTG3wiT1qKbmthaqJp5x7-2QE1q9MWcsrUGX1Xgy4fvwK8r8aPP_0Zk9USG1fT3WHv1cHv98AJiMsG1EYKXZ3VsIZOaIUKVDyx-e8h8IpXJHJrMLGWmN5rcgSkWSdHmx9II7iZ3ay7JjEPXTRmdFHgURAOPa2wjElrffgGGpKsLXibN2oK499GyprS95Maz1pf4i7Fy1?></g></svg>