<?plantuml 1.2026.2?><svg xmlns="http://www.w3.org/2000/svg" xmlns:xlink="http://www.w3.org/1999/xlink" contentStyleType="text/css" data-diagram-type="DESCRIPTION" height="443px" preserveAspectRatio="none" style="width:786px;height:443px;background:#FFFFFF;" version="1.1" viewBox="0 0 786 443" width="786px" zoomAndPan="magnify"><defs/><g><!--cluster marcarCompletada--><g class="cluster" data-qualified-name="marcarCompletada" data-source-line="4" id="ent0003"><path d="M383,6 L546.791,6 A3.75,3.75 0 0 1 549.291,8.5 L556.291,28.2969 L707,28.2969 A2.5,2.5 0 0 1 709.5,30.7969 L709.5,433.5 A2.5,2.5 0 0 1 707,436 L383,436 A2.5,2.5 0 0 1 380.5,433.5 L380.5,8.5 A2.5,2.5 0 0 1 383,6" fill="none" style="stroke:#000000;stroke-width:1.5;"/><line style="stroke:#000000;stroke-width:1.5;" x1="380.5" x2="556.291" y1="28.2969" y2="28.2969"/><text fill="#000000" font-family="sans-serif" font-size="14" font-weight="bold" lengthAdjust="spacing" textLength="162.791" x="384.5" y="20.9951">marcarCompletada()</text></g><!--entity ListarTareasView--><g class="entity" data-qualified-name="marcarCompletada.ListarTareasView" data-source-line="5" id="ent0004"><rect fill="#629EF9" height="36.2969" rx="2.5" ry="2.5" style="stroke:#181818;stroke-width:0.5;" width="139.7109" x="396.5" y="41"/><text fill="#000000" font-family="sans-serif" font-size="14" lengthAdjust="spacing" textLength="119.7109" x="406.5" y="63.9951">ListarTareasView</text></g><!--entity TareasController--><g class="entity" data-qualified-name="marcarCompletada.TareasController" data-source-line="6" id="ent0005"><rect fill="#B5BD68" height="36.2969" rx="2.5" ry="2.5" style="stroke:#181818;stroke-width:0.5;" width="136.5459" x="397" y="174"/><text fill="#000000" font-family="sans-serif" font-size="14" lengthAdjust="spacing" textLength="116.5459" x="407" y="196.9951">TareasController</text></g><!--entity TareaRepository--><g class="entity" data-qualified-name="marcarCompletada.TareaRepository" data-source-line="7" id="ent0006"><rect fill="#F2AC4E" height="36.2969" rx="2.5" ry="2.5" style="stroke:#181818;stroke-width:0.5;" width="135.1514" x="397" y="287"/><text fill="#000000" font-family="sans-serif" font-size="14" lengthAdjust="spacing" textLength="115.1514" x="407" y="309.9951">TareaRepository</text></g><!--entity Tarea--><g class="entity" data-qualified-name="marcarCompletada.Tarea" data-source-line="8" id="ent0007"><rect fill="#F2AC4E" height="36.2969" rx="2.5" ry="2.5" style="stroke:#181818;stroke-width:0.5;" width="60.0791" x="434.5" y="384"/><text fill="#000000" font-family="sans-serif" font-size="14" lengthAdjust="spacing" textLength="40.0791" x="444.5" y="406.9951">Tarea</text></g><!--entity Usuario--><g class="entity" data-qualified-name="Usuario" data-source-line="3" id="ent0002"><ellipse cx="752.6021" cy="29.5" fill="#F1F1F1" rx="8" ry="8" style="stroke:#181818;stroke-width:0.5;"/><path d="M752.6021,37.5 L752.6021,64.5 M739.6021,45.5 L765.6021,45.5 M752.6021,64.5 L739.6021,79.5 M752.6021,64.5 L765.6021,79.5" fill="none" style="stroke:#181818;stroke-width:0.5;"/><text fill="#000000" font-family="sans-serif" font-size="14" lengthAdjust="spacing" textLength="53.2041" x="726" y="93.9951">Usuario</text></g><!--entity SistemaDisponible--><g class="entity" data-qualified-name="SistemaDisponible" data-source-line="10" id="ent0008"><rect fill="#CDEBA5" height="36.2969" rx="2.5" ry="2.5" style="stroke:#181818;stroke-width:0.5;" width="159.125" x="7" y="41"/><text fill="#000000" font-family="sans-serif" font-size="14" lengthAdjust="spacing" textLength="139.125" x="17" y="63.9951">:Sistema Disponible</text></g><!--link SistemaDisponible to ListarTareasView--><g class="link" data-entity-1="ent0008" data-entity-2="ent0004" data-link-type="dependency" data-source-line="12" id="lnk9"><path d="M166.16,59 C234.17,59 325.05,59 390.21,59" fill="none" id="SistemaDisponible-to-ListarTareasView" style="stroke:#181818;stroke-width:1;"/><polygon fill="#181818" points="396.21,59,387.21,55,391.21,59,387.21,63,396.21,59" style="stroke:#181818;stroke-width:1;"/><text fill="#000000" font-family="sans-serif" font-size="13" lengthAdjust="spacing" textLength="164.5503" x="199.25" y="52.0669">1: completarTarea(tarea)</text></g><!--link ListarTareasView to SistemaDisponible--><g class="link" data-entity-1="ent0004" data-entity-2="ent0008" data-link-type="dependency" data-source-line="20" id="lnk13"><path d="M396.21,59 C331.05,59 240.17,59 172.16,59" fill="none" id="ListarTareasView-to-SistemaDisponible" style="stroke:#181818;stroke-width:1;"/><polygon fill="#181818" points="166.16,59,175.16,63,171.16,59,175.16,55,166.16,59" style="stroke:#181818;stroke-width:1;"/><text fill="#000000" font-family="sans-serif" font-size="13" lengthAdjust="spacing" textLength="194.251" x="184.25" y="52.0669">4: sistemaDisponible(usuario)</text></g><!--link ListarTareasView to TareasController--><g class="link" data-entity-1="ent0004" data-entity-2="ent0005" data-link-type="dependency" data-source-line="14" id="lnk10"><path d="M466.37,77.13 C466.18,102.23 465.8654,142.7602 465.6754,167.8702" fill="none" id="ListarTareasView-to-TareasController" style="stroke:#181818;stroke-width:1;"/><polygon fill="#181818" points="465.63,173.87,469.698,164.9005,465.6678,168.8701,461.6982,164.84,465.63,173.87" style="stroke:#181818;stroke-width:1;"/><text fill="#000000" font-family="sans-serif" font-size="13" lengthAdjust="spacing" textLength="208" x="466.5" y="140.0669">2: registrarFinalizacion(idTarea)</text></g><!--link TareasController to TareaRepository--><g class="link" data-entity-1="ent0005" data-entity-2="ent0006" data-link-type="dependency" data-source-line="16" id="lnk11"><path d="M465.34,210.34 C465.16,231.2 464.8919,259.9802 464.7119,280.7802" fill="none" id="TareasController-to-TareaRepository" style="stroke:#181818;stroke-width:1;"/><polygon fill="#181818" points="464.66,286.78,468.7377,277.815,464.7033,281.7802,460.738,277.7457,464.66,286.78" style="stroke:#181818;stroke-width:1;"/><text fill="#000000" font-family="sans-serif" font-size="13" lengthAdjust="spacing" textLength="260.9458" x="465.5" y="253.0669">3: cambiarEstadoACompletada(idTarea)</text></g><!--link TareaRepository to Tarea--><g class="link" data-entity-1="ent0006" data-entity-2="ent0007" data-link-type="association" data-source-line="18" id="lnk12"><path d="M464.5,323.42 C464.5,340.57 464.5,366.58 464.5,383.69" fill="none" id="TareaRepository-Tarea" style="stroke:#181818;stroke-width:1;"/></g><?plantuml-src VLAnRiCW5DpvYYTtSGOFJPEeOOYKEixKgKsxFzl8UWe6z22gqgh_NYoxIaIgCY1n7CVTWJ-ISSZOWoQZmjafS5QVXuKGs0JByEPFo6I5m-Q8dO8UkK4kRU-q2jWYe8Si1VDP1by2uc3L13ITLd2tcg-h_HgUoGVa0x92_qxg8wNLoxfTFS98AAq9RBLMdDBsyssvg4RQYtBMKtHx_eybliNLJhchdhPBoEHhzADwX1rvPmtLMcL3fWc-e4BSG51miRa99E5UGZDrCU9v6EQP42aNYZOgf5abp6LCqKKo8-_9eAPFRCYQdDh399KUWk9NwLA7X8Te1VkQaAjuSsktLu-KQ5sEHQcfiZyC3v5lcf2maE1JD3-DdsVs0m00?></g></svg>