<?plantuml 1.2026.2?><svg xmlns="http://www.w3.org/2000/svg" xmlns:xlink="http://www.w3.org/1999/xlink" contentStyleType="text/css" data-diagram-type="DESCRIPTION" height="132px" preserveAspectRatio="none" style="width:1415px;height:132px;background:#FFFFFF;" version="1.1" viewBox="0 0 1415 132" width="1415px" zoomAndPan="magnify"><defs/><g><!--entity Usuario--><g class="entity" data-qualified-name="Usuario" data-source-line="4" id="ent0002"><ellipse cx="32.6021" cy="50.5" fill="#F1F1F1" rx="8" ry="8" style="stroke:#181818;stroke-width:0.5;"/><path d="M32.6021,58.5 L32.6021,85.5 M19.6021,66.5 L45.6021,66.5 M32.6021,85.5 L19.6021,100.5 M32.6021,85.5 L45.6021,100.5" fill="none" style="stroke:#181818;stroke-width:0.5;"/><text fill="#000000" font-family="sans-serif" font-size="14" lengthAdjust="spacing" textLength="53.2041" x="6" y="114.9951">Usuario</text></g><!--entity ListarTareasView--><g class="entity" data-qualified-name="ListarTareasView" data-source-line="5" id="ent0003"><path d="M361.3555,60 L361.3555,84 M361.3555,72 L378.3555,72" fill="none" style="stroke:#181818;stroke-width:0.5;"/><ellipse cx="390.3555" cy="72" fill="#F1F1F1" rx="12" ry="12" style="stroke:#181818;stroke-width:0.5;"/><text fill="#000000" font-family="sans-serif" font-size="14" lengthAdjust="spacing" textLength="119.7109" x="322" y="100.9951">ListarTareasView</text></g><!--entity TareasController--><g class="entity" data-qualified-name="TareasController" data-source-line="6" id="ent0004"><ellipse cx="840.2729" cy="23" fill="#F1F1F1" rx="12" ry="12" style="stroke:#181818;stroke-width:0.5;"/><polygon fill="#181818" points="836.2729,11,842.2729,6,840.2729,11,842.2729,16,836.2729,11" style="stroke:#181818;stroke-width:1;"/><text fill="#000000" font-family="sans-serif" font-size="14" lengthAdjust="spacing" textLength="116.5459" x="782" y="51.9951">TareasController</text></g><!--entity TareaRepository--><g class="entity" data-qualified-name="TareaRepository" data-source-line="7" id="ent0005"><ellipse cx="1249.5757" cy="23" fill="#F1F1F1" rx="12" ry="12" style="stroke:#181818;stroke-width:0.5;"/><line style="stroke:#181818;stroke-width:0.5;" x1="1237.5757" x2="1261.5757" y1="37" y2="37"/><text fill="#000000" font-family="sans-serif" font-size="14" lengthAdjust="spacing" textLength="115.1514" x="1192" y="51.9951">TareaRepository</text></g><!--entity Tarea--><g class="entity" data-qualified-name="Tarea" data-source-line="8" id="ent0006"><ellipse cx="1388.0396" cy="23" fill="#F1F1F1" rx="12" ry="12" style="stroke:#181818;stroke-width:0.5;"/><line style="stroke:#181818;stroke-width:0.5;" x1="1376.0396" x2="1400.0396" y1="37" y2="37"/><text fill="#000000" font-family="sans-serif" font-size="14" lengthAdjust="spacing" textLength="40.0791" x="1368" y="51.9951">Tarea</text></g><!--entity TareasAbierto--><g class="entity" data-qualified-name="TareasAbierto" data-source-line="9" id="ent0007"><rect fill="#C5E0B4" height="36.2969" rx="2.5" ry="2.5" style="stroke:#181818;stroke-width:0.5;" width="127.3174" x="777" y="90"/><text fill="#000000" font-family="sans-serif" font-size="14" lengthAdjust="spacing" textLength="107.3174" x="787" y="112.9951">:Tareas Abierto</text></g><!--link Usuario to ListarTareasView--><g class="link" data-entity-1="ent0002" data-entity-2="ent0003" data-link-type="dependency" data-source-line="11" id="lnk8"><path d="M59.05,80 C114.07,80 238.96,80 315.84,80" fill="none" id="Usuario-to-ListarTareasView" style="stroke:#181818;stroke-width:1;"/><polygon fill="#181818" points="321.84,80,312.84,76,316.84,80,312.84,84,321.84,80" style="stroke:#181818;stroke-width:1;"/><text fill="#000000" font-family="sans-serif" font-size="13" lengthAdjust="spacing" textLength="201.2778" x="90" y="76.0669">1: marcarCompletada(idTarea)</text></g><!--link ListarTareasView to TareasController--><g class="link" data-entity-1="ent0003" data-entity-2="ent0004" data-link-type="dependency" data-source-line="12" id="lnk9"><path d="M442.21,73.64 C530.27,64.19 688.7142,47.18 775.8642,37.83" fill="none" id="ListarTareasView-to-TareasController" style="stroke:#181818;stroke-width:1;"/><polygon fill="#181818" points="781.83,37.19,772.4547,34.1729,776.8585,37.7234,773.3081,42.1272,781.83,37.19" style="stroke:#181818;stroke-width:1;"/><text fill="#000000" font-family="sans-serif" font-size="13" lengthAdjust="spacing" textLength="273.5586" x="473" y="37.0669">2: actualizarEstadoTarea(idTarea, estado)</text></g><!--link TareasController to TareaRepository--><g class="link" data-entity-1="ent0004" data-entity-2="ent0005" data-link-type="dependency" data-source-line="13" id="lnk10"><path d="M899.38,31 C977.18,31 1108.61,31 1185.8,31" fill="none" id="TareasController-to-TareaRepository" style="stroke:#181818;stroke-width:1;"/><polygon fill="#181818" points="1191.8,31,1182.8,27,1186.8,31,1182.8,35,1191.8,31" style="stroke:#181818;stroke-width:1;"/><text fill="#000000" font-family="sans-serif" font-size="13" lengthAdjust="spacing" textLength="226.6558" x="935" y="27.0669">3: modificarTarea(idTarea, estado)</text></g><!--link TareaRepository to Tarea--><g class="link" data-entity-1="ent0005" data-entity-2="ent0006" data-link-type="association" data-source-line="14" id="lnk11"><path d="M1307.2,31 C1328.88,31 1352.17,31 1367.95,31" fill="none" id="TareaRepository-Tarea" style="stroke:#181818;stroke-width:1;"/></g><!--link ListarTareasView to TareasAbierto--><g class="link" data-entity-1="ent0003" data-entity-2="ent0007" data-link-type="dependency" data-source-line="15" id="lnk12"><path d="M442.36,94.01 C458.69,97.86 472,101 472,101 C472,101 665.7811,104.6963 770.7411,106.6863" fill="none" id="ListarTareasView-to-TareasAbierto" style="stroke:#181818;stroke-width:1;"/><polygon fill="#181818" points="776.74,106.8,767.8174,102.6301,771.7409,106.7052,767.6658,110.6287,776.74,106.8" style="stroke:#181818;stroke-width:1;"/><text fill="#000000" font-family="sans-serif" font-size="13" lengthAdjust="spacing" textLength="129.6128" x="545" y="97.0669">4: actualizaEstado()</text></g><?plantuml-src VP0zJyD038Rt-nLMMHg9I7oK9GCIHDsO4B2xYLiiBkV8SOJ2h-UIIw4GmNP-PJz-pjqRXnOL6_0So8QMe1K_Z8Npj3Sm0UN3gq7DIfMn1EUmCb5uxdfK5hUJFjIe0pnmPwXFg8JT2zExgoIOYeSKbQdof8w2iGqfVwHMEex0uKVincqO3fvWLIG0tEsOr6G5yPsYEO6pycPxSRznRfQ2FBzT-401bmKqg1LgAKthoR36DTTJI-OM_IFajtk4N1KGBz2Zvm_KRPofPUewaiw1fZ1pY-4lulUl8_0wMadDUwxczN-GJeRoV3xJFzB7unImEJ5Emkli4m00?></g></svg>