<?plantuml 1.2026.2?><svg xmlns="http://www.w3.org/2000/svg" xmlns:xlink="http://www.w3.org/1999/xlink" contentStyleType="text/css" data-diagram-type="SEQUENCE" height="691px" preserveAspectRatio="none" style="width:1646px;height:691px;background:#FFFFFF;" version="1.1" viewBox="0 0 1646 691" width="1646px" zoomAndPan="magnify"><defs/><g><g><title>..boundary..</title><rect fill="#FFFFFF" height="479.125" style="stroke:#000000;stroke-width:1;" width="10" x="256.707" y="113.4297"/></g><g><title>..control..</title><rect fill="#FFFFFF" height="420.8594" style="stroke:#000000;stroke-width:1;" width="10" x="463.4424" y="142.5625"/></g><g><title>..boundary..</title><rect fill="#FFFFFF" height="362.5938" style="stroke:#000000;stroke-width:1;" width="10" x="733.2734" y="171.6953"/></g><g><title>..control..</title><rect fill="#FFFFFF" height="304.3281" style="stroke:#000000;stroke-width:1;" width="10" x="1062.8486" y="200.8281"/></g><g><title>..entity..</title><rect fill="#FFFFFF" height="87.3984" style="stroke:#000000;stroke-width:1;" width="10" x="1326.6348" y="229.9609"/></g><g><title>..entity..</title><rect fill="#FFFFFF" height="87.3984" style="stroke:#000000;stroke-width:1;" width="10" x="1326.6348" y="388.625"/></g><g><title>PostgreSQL</title><rect fill="#FFFFFF" height="29.1328" style="stroke:#000000;stroke-width:1;" width="10" x="1597.2212" y="259.0938"/></g><g><title>PostgreSQL</title><rect fill="#FFFFFF" height="29.1328" style="stroke:#000000;stroke-width:1;" width="10" x="1597.2212" y="417.7578"/></g><g class="participant-lifeline" data-entity-uid="part1" data-qualified-name="Usuario" id="part1-lifeline"><g><title>Usuario</title><rect fill="#000000" fill-opacity="0.00000" height="528.2578" width="8" x="35.6021" y="82.2969"/><line style="stroke:#000000;stroke-width:1;stroke-dasharray:5,5;" x1="39" x2="39" y1="82.2969" y2="610.5547"/></g></g><g class="participant-lifeline" data-entity-uid="part2" data-qualified-name="ETM" id="part2-lifeline"><g><title>..boundary..</title><rect fill="#000000" fill-opacity="0.00000" height="528.2578" width="8" x="257.707" y="82.2969"/><line style="stroke:#000000;stroke-width:1;stroke-dasharray:5,5;" x1="260.8853" x2="260.8853" y1="82.2969" y2="610.5547"/></g></g><g class="participant-lifeline" data-entity-uid="part3" data-qualified-name="UT" id="part3-lifeline"><g><title>..control..</title><rect fill="#000000" fill-opacity="0.00000" height="528.2578" width="8" x="464.4424" y="82.2969"/><line style="stroke:#000000;stroke-width:1;stroke-dasharray:5,5;" x1="468.3838" x2="468.3838" y1="82.2969" y2="610.5547"/></g></g><g class="participant-lifeline" data-entity-uid="part4" data-qualified-name="TR" id="part4-lifeline"><g><title>..boundary..</title><rect fill="#000000" fill-opacity="0.00000" height="528.2578" width="8" x="734.2734" y="82.2969"/><line style="stroke:#000000;stroke-width:1;stroke-dasharray:5,5;" x1="737.2803" x2="737.2803" y1="82.2969" y2="610.5547"/></g></g><g class="participant-lifeline" data-entity-uid="part5" data-qualified-name="TS" id="part5-lifeline"><g><title>..control..</title><rect fill="#000000" fill-opacity="0.00000" height="528.2578" width="8" x="1063.8486" y="82.2969"/><line style="stroke:#000000;stroke-width:1;stroke-dasharray:5,5;" x1="1067.7119" x2="1067.7119" y1="82.2969" y2="610.5547"/></g></g><g class="participant-lifeline" data-entity-uid="part6" data-qualified-name="TREP" id="part6-lifeline"><g><title>..entity..</title><rect fill="#000000" fill-opacity="0.00000" height="528.2578" width="8" x="1327.6348" y="82.2969"/><line style="stroke:#000000;stroke-width:1;stroke-dasharray:5,5;" x1="1330.8325" x2="1330.8325" y1="82.2969" y2="610.5547"/></g></g><g class="participant-lifeline" data-entity-uid="part7" data-qualified-name="DB" id="part7-lifeline"><g><title>PostgreSQL</title><rect fill="#000000" fill-opacity="0.00000" height="528.2578" width="8" x="1598.2212" y="82.2969"/><line style="stroke:#000000;stroke-width:1;stroke-dasharray:5,5;" x1="1601.8447" x2="1601.8447" y1="82.2969" y2="610.5547"/></g></g><g class="participant participant-head" data-entity-uid="part1" data-qualified-name="Usuario" id="part1-head"><text fill="#000000" font-family="Verdana" font-size="14" lengthAdjust="spacing" textLength="53.2041" x="10" y="78.9951">Usuario</text><ellipse cx="39.6021" cy="14" fill="#FFFFFF" rx="8" ry="8" style="stroke:#000000;stroke-width:1;"/><path d="M39.6021,22 L39.6021,49 M26.6021,30 L52.6021,30 M39.6021,49 L26.6021,64 M39.6021,49 L52.6021,64" fill="none" style="stroke:#000000;stroke-width:1;"/></g><g class="participant participant-tail" data-entity-uid="part1" data-qualified-name="Usuario" id="part1-tail"><text fill="#000000" font-family="Verdana" font-size="14" lengthAdjust="spacing" textLength="53.2041" x="10" y="622.5498">Usuario</text><ellipse cx="39.6021" cy="634.8516" fill="#FFFFFF" rx="8" ry="8" style="stroke:#000000;stroke-width:1;"/><path d="M39.6021,642.8516 L39.6021,669.8516 M26.6021,650.8516 L52.6021,650.8516 M39.6021,669.8516 L26.6021,684.8516 M39.6021,669.8516 L52.6021,684.8516" fill="none" style="stroke:#000000;stroke-width:1;"/></g><g class="participant participant-head" data-entity-uid="part2" data-qualified-name="ETM" id="part2-head"><rect fill="#FFFFFF" height="46.5938" rx="2.5" ry="2.5" style="stroke:#000000;stroke-width:1;" width="115.6436" x="203.8853" y="34.7031"/><text fill="#000000" font-family="Verdana" font-size="14" font-style="italic" lengthAdjust="spacing" textLength="83.9863" x="219.7139" y="54.6982">&#171;boundary&#187;</text><text fill="#000000" font-family="Verdana" font-size="14" lengthAdjust="spacing" textLength="101.6436" x="210.8853" y="70.9951">EditTaskModal</text></g><g class="participant participant-tail" data-entity-uid="part2" data-qualified-name="ETM" id="part2-tail"><rect fill="#FFFFFF" height="46.5938" rx="2.5" ry="2.5" style="stroke:#000000;stroke-width:1;" width="115.6436" x="203.8853" y="609.5547"/><text fill="#000000" font-family="Verdana" font-size="14" font-style="italic" lengthAdjust="spacing" textLength="83.9863" x="219.7139" y="629.5498">&#171;boundary&#187;</text><text fill="#000000" font-family="Verdana" font-size="14" lengthAdjust="spacing" textLength="101.6436" x="210.8853" y="645.8467">EditTaskModal</text></g><g class="participant participant-head" data-entity-uid="part3" data-qualified-name="UT" id="part3-head"><rect fill="#FFFFFF" height="46.5938" rx="2.5" ry="2.5" style="stroke:#000000;stroke-width:1;" width="80.1172" x="428.3838" y="34.7031"/><text fill="#000000" font-family="Verdana" font-size="14" font-style="italic" lengthAdjust="spacing" textLength="66.1172" x="435.3838" y="54.6982">&#171;control&#187;</text><text fill="#000000" font-family="Verdana" font-size="14" lengthAdjust="spacing" textLength="64.6064" x="436.1392" y="70.9951">useTasks</text></g><g class="participant participant-tail" data-entity-uid="part3" data-qualified-name="UT" id="part3-tail"><rect fill="#FFFFFF" height="46.5938" rx="2.5" ry="2.5" style="stroke:#000000;stroke-width:1;" width="80.1172" x="428.3838" y="609.5547"/><text fill="#000000" font-family="Verdana" font-size="14" font-style="italic" lengthAdjust="spacing" textLength="66.1172" x="435.3838" y="629.5498">&#171;control&#187;</text><text fill="#000000" font-family="Verdana" font-size="14" lengthAdjust="spacing" textLength="64.6064" x="436.1392" y="645.8467">useTasks</text></g><g class="participant participant-head" data-entity-uid="part4" data-qualified-name="TR" id="part4-head"><rect fill="#FFFFFF" height="46.5938" rx="2.5" ry="2.5" style="stroke:#000000;stroke-width:1;" width="97.9863" x="689.2803" y="34.7031"/><text fill="#000000" font-family="Verdana" font-size="14" font-style="italic" lengthAdjust="spacing" textLength="83.9863" x="696.2803" y="54.6982">&#171;boundary&#187;</text><text fill="#000000" font-family="Verdana" font-size="14" lengthAdjust="spacing" textLength="79.5566" x="698.4951" y="70.9951">TaskRouter</text></g><g class="participant participant-tail" data-entity-uid="part4" data-qualified-name="TR" id="part4-tail"><rect fill="#FFFFFF" height="46.5938" rx="2.5" ry="2.5" style="stroke:#000000;stroke-width:1;" width="97.9863" x="689.2803" y="609.5547"/><text fill="#000000" font-family="Verdana" font-size="14" font-style="italic" lengthAdjust="spacing" textLength="83.9863" x="696.2803" y="629.5498">&#171;boundary&#187;</text><text fill="#000000" font-family="Verdana" font-size="14" lengthAdjust="spacing" textLength="79.5566" x="698.4951" y="645.8467">TaskRouter</text></g><g class="participant participant-head" data-entity-uid="part5" data-qualified-name="TS" id="part5-head"><rect fill="#FFFFFF" height="46.5938" rx="2.5" ry="2.5" style="stroke:#000000;stroke-width:1;" width="98.2734" x="1018.7119" y="34.7031"/><text fill="#000000" font-family="Verdana" font-size="14" font-style="italic" lengthAdjust="spacing" textLength="66.1172" x="1034.79" y="54.6982">&#171;control&#187;</text><text fill="#000000" font-family="Verdana" font-size="14" lengthAdjust="spacing" textLength="84.2734" x="1025.7119" y="70.9951">TaskService</text></g><g class="participant participant-tail" data-entity-uid="part5" data-qualified-name="TS" id="part5-tail"><rect fill="#FFFFFF" height="46.5938" rx="2.5" ry="2.5" style="stroke:#000000;stroke-width:1;" width="98.2734" x="1018.7119" y="609.5547"/><text fill="#000000" font-family="Verdana" font-size="14" font-style="italic" lengthAdjust="spacing" textLength="66.1172" x="1034.79" y="629.5498">&#171;control&#187;</text><text fill="#000000" font-family="Verdana" font-size="14" lengthAdjust="spacing" textLength="84.2734" x="1025.7119" y="645.8467">TaskService</text></g><g class="participant participant-head" data-entity-uid="part6" data-qualified-name="TREP" id="part6-head"><rect fill="#FFFFFF" height="46.5938" rx="2.5" ry="2.5" style="stroke:#000000;stroke-width:1;" width="121.6045" x="1270.8325" y="34.7031"/><text fill="#000000" font-family="Verdana" font-size="14" font-style="italic" lengthAdjust="spacing" textLength="57.9209" x="1302.6743" y="54.6982">&#171;entity&#187;</text><text fill="#000000" font-family="Verdana" font-size="14" lengthAdjust="spacing" textLength="107.6045" x="1277.8325" y="70.9951">TaskRepository</text></g><g class="participant participant-tail" data-entity-uid="part6" data-qualified-name="TREP" id="part6-tail"><rect fill="#FFFFFF" height="46.5938" rx="2.5" ry="2.5" style="stroke:#000000;stroke-width:1;" width="121.6045" x="1270.8325" y="609.5547"/><text fill="#000000" font-family="Verdana" font-size="14" font-style="italic" lengthAdjust="spacing" textLength="57.9209" x="1302.6743" y="629.5498">&#171;entity&#187;</text><text fill="#000000" font-family="Verdana" font-size="14" lengthAdjust="spacing" textLength="107.6045" x="1277.8325" y="645.8467">TaskRepository</text></g><g class="participant participant-head" data-entity-uid="part7" data-qualified-name="DB" id="part7-head"><text fill="#000000" font-family="Verdana" font-size="14" lengthAdjust="spacing" textLength="80.7529" x="1558.8447" y="78.9951">PostgreSQL</text><path d="M1584.2212,30 C1584.2212,20 1602.2212,20 1602.2212,20 C1602.2212,20 1620.2212,20 1620.2212,30 L1620.2212,56 C1620.2212,66 1602.2212,66 1602.2212,66 C1602.2212,66 1584.2212,66 1584.2212,56 L1584.2212,30" fill="#FFFFFF" style="stroke:#000000;stroke-width:1;"/><path d="M1584.2212,30 C1584.2212,40 1602.2212,40 1602.2212,40 C1602.2212,40 1620.2212,40 1620.2212,30" fill="none" style="stroke:#000000;stroke-width:1;"/></g><g class="participant participant-tail" data-entity-uid="part7" data-qualified-name="DB" id="part7-tail"><text fill="#000000" font-family="Verdana" font-size="14" lengthAdjust="spacing" textLength="80.7529" x="1558.8447" y="622.5498">PostgreSQL</text><path d="M1584.2212,635.8516 C1584.2212,625.8516 1602.2212,625.8516 1602.2212,625.8516 C1602.2212,625.8516 1620.2212,625.8516 1620.2212,635.8516 L1620.2212,661.8516 C1620.2212,671.8516 1602.2212,671.8516 1602.2212,671.8516 C1602.2212,671.8516 1584.2212,671.8516 1584.2212,661.8516 L1584.2212,635.8516" fill="#FFFFFF" style="stroke:#000000;stroke-width:1;"/><path d="M1584.2212,635.8516 C1584.2212,645.8516 1602.2212,645.8516 1602.2212,645.8516 C1602.2212,645.8516 1620.2212,645.8516 1620.2212,635.8516" fill="none" style="stroke:#000000;stroke-width:1;"/></g><g><title>..boundary..</title><rect fill="#FFFFFF" height="479.125" style="stroke:#000000;stroke-width:1;" width="10" x="256.707" y="113.4297"/></g><g><title>..control..</title><rect fill="#FFFFFF" height="420.8594" style="stroke:#000000;stroke-width:1;" width="10" x="463.4424" y="142.5625"/></g><g><title>..boundary..</title><rect fill="#FFFFFF" height="362.5938" style="stroke:#000000;stroke-width:1;" width="10" x="733.2734" y="171.6953"/></g><g><title>..control..</title><rect fill="#FFFFFF" height="304.3281" style="stroke:#000000;stroke-width:1;" width="10" x="1062.8486" y="200.8281"/></g><g><title>..entity..</title><rect fill="#FFFFFF" height="87.3984" style="stroke:#000000;stroke-width:1;" width="10" x="1326.6348" y="229.9609"/></g><g><title>..entity..</title><rect fill="#FFFFFF" height="87.3984" style="stroke:#000000;stroke-width:1;" width="10" x="1326.6348" y="388.625"/></g><g><title>PostgreSQL</title><rect fill="#FFFFFF" height="29.1328" style="stroke:#000000;stroke-width:1;" width="10" x="1597.2212" y="259.0938"/></g><g><title>PostgreSQL</title><rect fill="#FFFFFF" height="29.1328" style="stroke:#000000;stroke-width:1;" width="10" x="1597.2212" y="417.7578"/></g><g class="message" data-entity-1="part1" data-entity-2="part2" id="msg1"><polygon fill="#000000" points="244.707,109.4297,254.707,113.4297,244.707,117.4297,248.707,113.4297" style="stroke:#000000;stroke-width:1;"/><line style="stroke:#000000;stroke-width:1;" x1="39.6021" x2="250.707" y1="113.4297" y2="113.4297"/><text fill="#000000" font-family="Verdana" font-size="13" font-weight="bold" lengthAdjust="spacing" textLength="9.0454" x="46.6021" y="108.3638">1</text><text fill="#000000" font-family="Verdana" font-size="13" lengthAdjust="spacing" textLength="185.0596" x="59.6475" y="108.3638">modifica campos y actualiza</text></g><g class="message" data-entity-1="part2" data-entity-2="part3" id="msg2"><polygon fill="#000000" points="451.4424,138.5625,461.4424,142.5625,451.4424,146.5625,455.4424,142.5625" style="stroke:#000000;stroke-width:1;"/><line style="stroke:#000000;stroke-width:1;" x1="266.707" x2="457.4424" y1="142.5625" y2="142.5625"/><text fill="#000000" font-family="Verdana" font-size="13" font-weight="bold" lengthAdjust="spacing" textLength="9.0454" x="273.707" y="137.4966">2</text><text fill="#000000" font-family="Verdana" font-size="13" lengthAdjust="spacing" textLength="164.6899" x="286.7524" y="137.4966">updateTask(id, taskData)</text></g><g class="message" data-entity-1="part3" data-entity-2="part4" id="msg3"><polygon fill="#000000" points="721.2734,167.6953,731.2734,171.6953,721.2734,175.6953,725.2734,171.6953" style="stroke:#000000;stroke-width:1;"/><line style="stroke:#000000;stroke-width:1;" x1="473.4424" x2="727.2734" y1="171.6953" y2="171.6953"/><text fill="#000000" font-family="Verdana" font-size="13" font-weight="bold" lengthAdjust="spacing" textLength="9.0454" x="480.4424" y="166.6294">3</text><text fill="#000000" font-family="Verdana" font-size="13" lengthAdjust="spacing" textLength="227.7856" x="493.4878" y="166.6294">PUT /tasks/{id} (JSON Body + JWT)</text></g><g class="message" data-entity-1="part4" data-entity-2="part5" id="msg4"><polygon fill="#000000" points="1050.8486,196.8281,1060.8486,200.8281,1050.8486,204.8281,1054.8486,200.8281" style="stroke:#000000;stroke-width:1;"/><line style="stroke:#000000;stroke-width:1;" x1="743.2734" x2="1056.8486" y1="200.8281" y2="200.8281"/><text fill="#000000" font-family="Verdana" font-size="13" font-weight="bold" lengthAdjust="spacing" textLength="9.0454" x="750.2734" y="195.7622">4</text><text fill="#000000" font-family="Verdana" font-size="13" lengthAdjust="spacing" textLength="287.5298" x="763.3188" y="195.7622">update_existing_task(id, data, current_user)</text></g><g class="message" data-entity-1="part5" data-entity-2="part6" id="msg5"><polygon fill="#000000" points="1314.6348,225.9609,1324.6348,229.9609,1314.6348,233.9609,1318.6348,229.9609" style="stroke:#000000;stroke-width:1;"/><line style="stroke:#000000;stroke-width:1;" x1="1072.8486" x2="1320.6348" y1="229.9609" y2="229.9609"/><text fill="#000000" font-family="Verdana" font-size="13" font-weight="bold" lengthAdjust="spacing" textLength="9.0454" x="1079.8486" y="224.895">5</text><text fill="#000000" font-family="Verdana" font-size="13" lengthAdjust="spacing" textLength="84.1636" x="1092.894" y="224.895">get_by_id(id)</text></g><g class="message" data-entity-1="part6" data-entity-2="part7" id="msg6"><polygon fill="#000000" points="1585.2212,255.0938,1595.2212,259.0938,1585.2212,263.0938,1589.2212,259.0938" style="stroke:#000000;stroke-width:1;"/><line style="stroke:#000000;stroke-width:1;" x1="1336.6348" x2="1591.2212" y1="259.0938" y2="259.0938"/><text fill="#000000" font-family="Verdana" font-size="13" font-weight="bold" lengthAdjust="spacing" textLength="9.0454" x="1343.6348" y="254.0278">6</text><text fill="#000000" font-family="Verdana" font-size="13" lengthAdjust="spacing" textLength="228.541" x="1356.6802" y="254.0278">SELECT FROM tasks WHERE id = id</text></g><g class="message" data-entity-1="part7" data-entity-2="part6" id="msg7"><polygon fill="#000000" points="1347.6348,284.2266,1337.6348,288.2266,1347.6348,292.2266,1343.6348,288.2266" style="stroke:#000000;stroke-width:1;"/><line style="stroke:#000000;stroke-width:1;stroke-dasharray:2,2;" x1="1341.6348" x2="1601.2212" y1="288.2266" y2="288.2266"/><text fill="#000000" font-family="Verdana" font-size="13" font-weight="bold" lengthAdjust="spacing" textLength="9.0454" x="1353.6348" y="283.1606">7</text><text fill="#000000" font-family="Verdana" font-size="13" lengthAdjust="spacing" textLength="50.3687" x="1366.6802" y="283.1606">db_task</text></g><g class="message" data-entity-1="part6" data-entity-2="part5" id="msg8"><polygon fill="#000000" points="1083.8486,313.3594,1073.8486,317.3594,1083.8486,321.3594,1079.8486,317.3594" style="stroke:#000000;stroke-width:1;"/><line style="stroke:#000000;stroke-width:1;stroke-dasharray:2,2;" x1="1077.8486" x2="1330.6348" y1="317.3594" y2="317.3594"/><text fill="#000000" font-family="Verdana" font-size="13" font-weight="bold" lengthAdjust="spacing" textLength="9.0454" x="1089.8486" y="312.2935">8</text><text fill="#000000" font-family="Verdana" font-size="13" lengthAdjust="spacing" textLength="50.3687" x="1102.894" y="312.2935">db_task</text></g><g class="message" data-entity-1="part5" data-entity-2="part5" id="msg9"><line style="stroke:#000000;stroke-width:1;" x1="1072.8486" x2="1114.8486" y1="346.4922" y2="346.4922"/><line style="stroke:#000000;stroke-width:1;" x1="1114.8486" x2="1114.8486" y1="346.4922" y2="359.4922"/><line style="stroke:#000000;stroke-width:1;" x1="1073.8486" x2="1114.8486" y1="359.4922" y2="359.4922"/><polygon fill="#000000" points="1083.8486,355.4922,1073.8486,359.4922,1083.8486,363.4922,1079.8486,359.4922" style="stroke:#000000;stroke-width:1;"/><text fill="#000000" font-family="Verdana" font-size="13" font-weight="bold" lengthAdjust="spacing" textLength="9.0454" x="1079.8486" y="341.4263">9</text><text fill="#000000" font-family="Verdana" font-size="13" lengthAdjust="spacing" textLength="216.7407" x="1092.894" y="341.4263">verifica permisos (RBAC / Owner)</text></g><g class="message" data-entity-1="part5" data-entity-2="part6" id="msg10"><polygon fill="#000000" points="1314.6348,384.625,1324.6348,388.625,1314.6348,392.625,1318.6348,388.625" style="stroke:#000000;stroke-width:1;"/><line style="stroke:#000000;stroke-width:1;" x1="1072.8486" x2="1320.6348" y1="388.625" y2="388.625"/><text fill="#000000" font-family="Verdana" font-size="13" font-weight="bold" lengthAdjust="spacing" textLength="18.0908" x="1079.8486" y="383.5591">10</text><text fill="#000000" font-family="Verdana" font-size="13" lengthAdjust="spacing" textLength="143.8633" x="1101.9395" y="383.5591">update(db_task, data)</text></g><g class="message" data-entity-1="part6" data-entity-2="part7" id="msg11"><polygon fill="#000000" points="1585.2212,413.7578,1595.2212,417.7578,1585.2212,421.7578,1589.2212,417.7578" style="stroke:#000000;stroke-width:1;"/><line style="stroke:#000000;stroke-width:1;" x1="1336.6348" x2="1591.2212" y1="417.7578" y2="417.7578"/><text fill="#000000" font-family="Verdana" font-size="13" font-weight="bold" lengthAdjust="spacing" textLength="18.0908" x="1343.6348" y="412.6919">11</text><text fill="#000000" font-family="Verdana" font-size="13" lengthAdjust="spacing" textLength="135.751" x="1365.7256" y="412.6919">UPDATE tasks SET ...</text></g><g class="message" data-entity-1="part7" data-entity-2="part6" id="msg12"><polygon fill="#000000" points="1347.6348,442.8906,1337.6348,446.8906,1347.6348,450.8906,1343.6348,446.8906" style="stroke:#000000;stroke-width:1;"/><line style="stroke:#000000;stroke-width:1;stroke-dasharray:2,2;" x1="1341.6348" x2="1601.2212" y1="446.8906" y2="446.8906"/><text fill="#000000" font-family="Verdana" font-size="13" font-weight="bold" lengthAdjust="spacing" textLength="18.0908" x="1353.6348" y="441.8247">12</text><text fill="#000000" font-family="Verdana" font-size="13" lengthAdjust="spacing" textLength="87.9214" x="1375.7256" y="441.8247">updated_task</text></g><g class="message" data-entity-1="part6" data-entity-2="part5" id="msg13"><polygon fill="#000000" points="1083.8486,472.0234,1073.8486,476.0234,1083.8486,480.0234,1079.8486,476.0234" style="stroke:#000000;stroke-width:1;"/><line style="stroke:#000000;stroke-width:1;stroke-dasharray:2,2;" x1="1077.8486" x2="1330.6348" y1="476.0234" y2="476.0234"/><text fill="#000000" font-family="Verdana" font-size="13" font-weight="bold" lengthAdjust="spacing" textLength="18.0908" x="1089.8486" y="470.9575">13</text><text fill="#000000" font-family="Verdana" font-size="13" lengthAdjust="spacing" textLength="87.9214" x="1111.9395" y="470.9575">updated_task</text></g><g class="message" data-entity-1="part5" data-entity-2="part4" id="msg14"><polygon fill="#000000" points="754.2734,501.1563,744.2734,505.1563,754.2734,509.1563,750.2734,505.1563" style="stroke:#000000;stroke-width:1;"/><line style="stroke:#000000;stroke-width:1;stroke-dasharray:2,2;" x1="748.2734" x2="1066.8486" y1="505.1563" y2="505.1563"/><text fill="#000000" font-family="Verdana" font-size="13" font-weight="bold" lengthAdjust="spacing" textLength="18.0908" x="760.2734" y="500.0903">14</text><text fill="#000000" font-family="Verdana" font-size="13" lengthAdjust="spacing" textLength="87.9214" x="782.3643" y="500.0903">updated_task</text></g><g class="message" data-entity-1="part4" data-entity-2="part3" id="msg15"><polygon fill="#000000" points="484.4424,530.2891,474.4424,534.2891,484.4424,538.2891,480.4424,534.2891" style="stroke:#000000;stroke-width:1;"/><line style="stroke:#000000;stroke-width:1;stroke-dasharray:2,2;" x1="478.4424" x2="737.2734" y1="534.2891" y2="534.2891"/><text fill="#000000" font-family="Verdana" font-size="13" font-weight="bold" lengthAdjust="spacing" textLength="18.0908" x="490.4424" y="529.2231">15</text><text fill="#000000" font-family="Verdana" font-size="13" lengthAdjust="spacing" textLength="128.3623" x="512.5332" y="529.2231">200 OK (JSON Task)</text></g><g class="message" data-entity-1="part3" data-entity-2="part2" id="msg16"><polygon fill="#000000" points="277.707,559.4219,267.707,563.4219,277.707,567.4219,273.707,563.4219" style="stroke:#000000;stroke-width:1;"/><line style="stroke:#000000;stroke-width:1;stroke-dasharray:2,2;" x1="271.707" x2="467.4424" y1="563.4219" y2="563.4219"/><text fill="#000000" font-family="Verdana" font-size="13" font-weight="bold" lengthAdjust="spacing" textLength="18.0908" x="283.707" y="558.356">16</text><text fill="#000000" font-family="Verdana" font-size="13" lengthAdjust="spacing" textLength="50.8511" x="305.7979" y="558.356">success</text></g><g class="message" data-entity-1="part2" data-entity-2="part1" id="msg17"><polygon fill="#000000" points="50.6021,588.5547,40.6021,592.5547,50.6021,596.5547,46.6021,592.5547" style="stroke:#000000;stroke-width:1;"/><line style="stroke:#000000;stroke-width:1;stroke-dasharray:2,2;" x1="44.6021" x2="260.707" y1="592.5547" y2="592.5547"/><text fill="#000000" font-family="Verdana" font-size="13" font-weight="bold" lengthAdjust="spacing" textLength="18.0908" x="56.6021" y="587.4888">17</text><text fill="#000000" font-family="Verdana" font-size="13" lengthAdjust="spacing" textLength="142.6699" x="78.6929" y="587.4888">muestra confirmaci&#243;n</text></g><?plantuml-src XPBTRjD048Nlzoc6NAMYJIekenAfQOnGQOYn7VNIsdYtOKJijVOdO52VYaVWnPXTEuc3Q7fZxSLtplZCd3Vsgombr5kE5UFEgigLQwaPuuLL6bR6SOsArLnRBB3cbOL19D1ct7nRAC6t0-06ecm1DpThvIh1TJETdlBEI8-RWAuo8WjLMQss_uAUIfIpKWSqIywOUZQLUeU5RE7q5LzPAuEKgUcyevW4ih9elRVWbg-vaJ28bR4RBTCl3m6SpnZhjW1Nqv1q0gKI-8G5XuANP0iDqBeSt-9FxXU7EswbHvd7IKMX9-1g6X8sCKHn2POUSvfwSLIiCaOayPHy0Z6znvuouryedc5udou_mqo91jx2_MFM4sO98uaNfeT1kVo1ncAroUr-f0zv2ONJcdBdT1RTzqWPgSDmMiq4DjBcwoP7GTAJKL7C0aBeV4PW6Zr4TnbyI9QB4Ch0uySeYG05lAVFKKgh9C7LSOHOXtzZGlQPrdmVvZzC-mlf8UzEwlOQjTGb6hh7C9dTti4Objyhd_4aLxkTOUVRBkLilbKylysYBbeQPJ0QZSw4Qlt5wybU0W_nzaLu4Kp3rVVzUdTz3SjFNKrypIvENKEt3XKshYYaCNs4wXVwwWsxnbFLdJHMKzDLzOIwv0N--LtrLIJv2m00?></g></svg>