<?plantuml 1.2026.2?><svg xmlns="http://www.w3.org/2000/svg" xmlns:xlink="http://www.w3.org/1999/xlink" contentStyleType="text/css" data-diagram-type="DESCRIPTION" height="132px" preserveAspectRatio="none" style="width:1226px;height:132px;background:#FFFFFF;" version="1.1" viewBox="0 0 1226 132" width="1226px" zoomAndPan="magnify"><defs/><g><!--entity Usuario--><g class="entity" data-qualified-name="Usuario" data-source-line="4" id="ent0002"><ellipse cx="32.6021" cy="50.5" fill="#F1F1F1" rx="8" ry="8" style="stroke:#181818;stroke-width:0.5;"/><path d="M32.6021,58.5 L32.6021,85.5 M19.6021,66.5 L45.6021,66.5 M32.6021,85.5 L19.6021,100.5 M32.6021,85.5 L45.6021,100.5" fill="none" style="stroke:#181818;stroke-width:0.5;"/><text fill="#000000" font-family="sans-serif" font-size="14" lengthAdjust="spacing" textLength="53.2041" x="6" y="114.9951">Usuario</text></g><!--entity LoginView--><g class="entity" data-qualified-name="LoginView" data-source-line="5" id="ent0003"><path d="M327.2725,60 L327.2725,84 M327.2725,72 L344.2725,72" fill="none" style="stroke:#181818;stroke-width:0.5;"/><ellipse cx="356.2725" cy="72" fill="#F1F1F1" rx="12" ry="12" style="stroke:#181818;stroke-width:0.5;"/><text fill="#000000" font-family="sans-serif" font-size="14" lengthAdjust="spacing" textLength="71.5449" x="312" y="100.9951">LoginView</text></g><!--entity SesionController--><g class="entity" data-qualified-name="SesionController" data-source-line="6" id="ent0004"><ellipse cx="686.6475" cy="23" fill="#F1F1F1" rx="12" ry="12" style="stroke:#181818;stroke-width:0.5;"/><polygon fill="#181818" points="682.6475,11,688.6475,6,686.6475,11,688.6475,16,682.6475,11" style="stroke:#181818;stroke-width:1;"/><text fill="#000000" font-family="sans-serif" font-size="14" lengthAdjust="spacing" textLength="115.2949" x="629" y="51.9951">SesionController</text></g><!--entity UsuarioRepository--><g class="entity" data-qualified-name="UsuarioRepository" data-source-line="7" id="ent0005"><ellipse cx="1041.1382" cy="23" fill="#F1F1F1" rx="12" ry="12" style="stroke:#181818;stroke-width:0.5;"/><line style="stroke:#181818;stroke-width:0.5;" x1="1029.1382" x2="1053.1382" y1="37" y2="37"/><text fill="#000000" font-family="sans-serif" font-size="14" lengthAdjust="spacing" textLength="128.2764" x="977" y="51.9951">UsuarioRepository</text></g><!--entity EntidadUsuario--><g class="entity" data-qualified-name="EntidadUsuario" data-source-line="8" id="ent0006"><ellipse cx="1192.6021" cy="23" fill="#F1F1F1" rx="12" ry="12" style="stroke:#181818;stroke-width:0.5;"/><line style="stroke:#181818;stroke-width:0.5;" x1="1180.6021" x2="1204.6021" y1="37" y2="37"/><text fill="#000000" font-family="sans-serif" font-size="14" lengthAdjust="spacing" textLength="53.2041" x="1166" y="51.9951">Usuario</text></g><!--entity SesionCerrada--><g class="entity" data-qualified-name="SesionCerrada" data-source-line="9" id="ent0007"><rect fill="#FFB3BA" height="36.2969" rx="2.5" ry="2.5" style="stroke:#181818;stroke-width:0.5;" width="131.2344" x="621" y="90"/><text fill="#000000" font-family="sans-serif" font-size="14" lengthAdjust="spacing" textLength="111.2344" x="631" y="112.9951">:Sesi&#243;n Cerrada</text></g><!--link Usuario to LoginView--><g class="link" data-entity-1="ent0002" data-entity-2="ent0003" data-link-type="dependency" data-source-line="11" id="lnk8"><path d="M59.16,80 C115.02,80 241.75,80 305.56,80" fill="none" id="Usuario-to-LoginView" style="stroke:#181818;stroke-width:1;"/><polygon fill="#181818" points="311.56,80,302.56,76,306.56,80,302.56,84,311.56,80" style="stroke:#181818;stroke-width:1;"/><text fill="#000000" font-family="sans-serif" font-size="13" lengthAdjust="spacing" textLength="191.3755" x="90" y="76.0669">1: iniciarSesion(credenciales)</text></g><!--link LoginView to SesionController--><g class="link" data-entity-1="ent0003" data-entity-2="ent0004" data-link-type="dependency" data-source-line="12" id="lnk9"><path d="M384.06,74.89 C442.13,66.44 552.8727,50.315 622.8127,40.125" fill="none" id="LoginView-to-SesionController" style="stroke:#181818;stroke-width:1;"/><polygon fill="#181818" points="628.75,39.26,619.2673,36.5994,623.8022,39.9809,620.4207,44.5158,628.75,39.26" style="stroke:#181818;stroke-width:1;"/><text fill="#000000" font-family="sans-serif" font-size="13" lengthAdjust="spacing" textLength="175.7222" x="415" y="41.0669">2: autenticar(credenciales)</text></g><!--link SesionController to UsuarioRepository--><g class="link" data-entity-1="ent0004" data-entity-2="ent0005" data-link-type="dependency" data-source-line="13" id="lnk10"><path d="M744.14,31 C807.77,31 904.81,31 970.96,31" fill="none" id="SesionController-to-UsuarioRepository" style="stroke:#181818;stroke-width:1;"/><polygon fill="#181818" points="976.96,31,967.96,27,971.96,31,967.96,35,976.96,31" style="stroke:#181818;stroke-width:1;"/><text fill="#000000" font-family="sans-serif" font-size="13" lengthAdjust="spacing" textLength="163.7061" x="783" y="27.0669">3: buscarPorEmail(email)</text></g><!--link UsuarioRepository to EntidadUsuario--><g class="link" data-entity-1="ent0005" data-entity-2="ent0006" data-link-type="association" data-source-line="14" id="lnk11"><path d="M1105.4,31 C1126.57,31 1148.98,31 1165.63,31" fill="none" id="UsuarioRepository-EntidadUsuario" style="stroke:#181818;stroke-width:1;"/></g><!--link LoginView to SesionCerrada--><g class="link" data-entity-1="ent0003" data-entity-2="ent0007" data-link-type="dependency" data-source-line="15" id="lnk12"><path d="M384.16,91.36 C399.48,96.31 414,101 414,101 C414,101 534.512,104.1054 614.812,106.1754" fill="none" id="LoginView-to-SesionCerrada" style="stroke:#181818;stroke-width:1;"/><polygon fill="#181818" points="620.81,106.33,611.9161,102.0994,615.8117,106.2012,611.7099,110.0967,620.81,106.33" style="stroke:#181818;stroke-width:1;"/><text fill="#000000" font-family="sans-serif" font-size="13" lengthAdjust="spacing" textLength="129.6128" x="438" y="97.0669">4: actualizaEstado()</text></g><?plantuml-src RP2nJiGm38RtF8LLbdRe0CVK0OaxzIO618BTbvXYaKig9nKghyKZy68ajDL9BKias__t-tV21xiU1SzWsL4SUuBUsp4Noj9RXEX1k7kFO5X8H_PEATJH2xo40OMzEld16PGH7dp7xfNfKsdledWBpnGIS9WgIwB8HOxZWZvHxmCdht4P5FEa00pGffv1i-p9wz5rbg1eil7FjuC3YQ31F_cyREh0rV6ut-tlbPfngEkxIq9euBe1TgmPPG9BBMJ8fOQbKAcBD8FhGn9_qm0ECUVMA2ju8yyUcwEJoQw1qn2ImQENzeniIyflfRRYkbv_oByHv_CRk4tvT1pGyXUs8QBnPVKB?></g></svg>