<?plantuml 1.2026.2?><svg xmlns="http://www.w3.org/2000/svg" xmlns:xlink="http://www.w3.org/1999/xlink" contentStyleType="text/css" data-diagram-type="DESCRIPTION" height="443px" preserveAspectRatio="none" style="width:994px;height:443px;background:#FFFFFF;" version="1.1" viewBox="0 0 994 443" width="994px" zoomAndPan="magnify"><defs/><g><!--cluster iniciarSesion--><g class="cluster" data-qualified-name="iniciarSesion" data-source-line="4" id="ent0003"><path d="M221.5,6 L336.6055,6 A3.75,3.75 0 0 1 339.1055,8.5 L346.1055,28.2969 L762.5,28.2969 A2.5,2.5 0 0 1 765,30.7969 L765,433.5 A2.5,2.5 0 0 1 762.5,436 L221.5,436 A2.5,2.5 0 0 1 219,433.5 L219,8.5 A2.5,2.5 0 0 1 221.5,6" fill="none" style="stroke:#000000;stroke-width:1.5;"/><line style="stroke:#000000;stroke-width:1.5;" x1="219" x2="346.1055" y1="28.2969" y2="28.2969"/><text fill="#000000" font-family="sans-serif" font-size="14" font-weight="bold" lengthAdjust="spacing" textLength="114.1055" x="223" y="20.9951">iniciarSesion()</text></g><!--entity LoginView--><g class="entity" data-qualified-name="iniciarSesion.LoginView" data-source-line="5" id="ent0004"><rect fill="#629EF9" height="36.2969" rx="2.5" ry="2.5" style="stroke:#181818;stroke-width:0.5;" width="91.5449" x="429" y="41"/><text fill="#000000" font-family="sans-serif" font-size="14" lengthAdjust="spacing" textLength="71.5449" x="439" y="63.9951">LoginView</text></g><!--entity IniciarSesionController--><g class="entity" data-qualified-name="iniciarSesion.IniciarSesionController" data-source-line="6" id="ent0005"><rect fill="#B5BD68" height="36.2969" rx="2.5" ry="2.5" style="stroke:#181818;stroke-width:0.5;" width="178.1084" x="386" y="174"/><text fill="#000000" font-family="sans-serif" font-size="14" lengthAdjust="spacing" textLength="158.1084" x="396" y="196.9951">IniciarSesionController</text></g><!--entity UsuarioRepository--><g class="entity" data-qualified-name="iniciarSesion.UsuarioRepository" data-source-line="7" id="ent0006"><rect fill="#F2AC4E" height="36.2969" rx="2.5" ry="2.5" style="stroke:#181818;stroke-width:0.5;" width="148.2764" x="235" y="287"/><text fill="#000000" font-family="sans-serif" font-size="14" lengthAdjust="spacing" textLength="128.2764" x="245" y="309.9951">UsuarioRepository</text></g><!--entity Usuario--><g class="entity" data-qualified-name="iniciarSesion.Usuario" data-source-line="8" id="ent0007"><rect fill="#F2AC4E" height="36.2969" rx="2.5" ry="2.5" style="stroke:#181818;stroke-width:0.5;" width="73.2041" x="272.5" y="384"/><text fill="#000000" font-family="sans-serif" font-size="14" lengthAdjust="spacing" textLength="53.2041" x="282.5" y="406.9951">Usuario</text></g><!--entity Sesion--><g class="entity" data-qualified-name="iniciarSesion.Sesion" data-source-line="9" id="ent0008"><rect fill="#F2AC4E" height="36.2969" rx="2.5" ry="2.5" style="stroke:#181818;stroke-width:0.5;" width="66.1221" x="563" y="287"/><text fill="#000000" font-family="sans-serif" font-size="14" lengthAdjust="spacing" textLength="46.1221" x="573" y="309.9951">Sesion</text></g><!--entity UsuarioNoRegistrado--><g class="entity" data-qualified-name="UsuarioNoRegistrado" data-source-line="3" id="ent0002"><ellipse cx="79.9648" cy="29.5" fill="#F1F1F1" rx="8" ry="8" style="stroke:#181818;stroke-width:0.5;"/><path d="M79.9648,37.5 L79.9648,64.5 M66.9648,45.5 L92.9648,45.5 M79.9648,64.5 L66.9648,79.5 M79.9648,64.5 L92.9648,79.5" fill="none" style="stroke:#181818;stroke-width:0.5;"/><text fill="#000000" font-family="sans-serif" font-size="14" lengthAdjust="spacing" textLength="147.9297" x="6" y="93.9951">UsuarioNoRegistrado</text></g><!--entity SistemaDisponible--><g class="entity" data-qualified-name="SistemaDisponible" data-source-line="11" id="ent0009"><rect fill="#CDEBA5" height="36.2969" rx="2.5" ry="2.5" style="stroke:#181818;stroke-width:0.5;" width="159.125" x="829.5" y="41"/><text fill="#000000" font-family="sans-serif" font-size="14" lengthAdjust="spacing" textLength="139.125" x="839.5" y="63.9951">:Sistema Disponible</text></g><!--link UsuarioNoRegistrado to LoginView--><g class="link" data-entity-1="ent0002" data-entity-2="ent0004" data-link-type="dependency" data-source-line="13" id="lnk10"><path d="M154.3,59 C234.97,59 355.32,59 422.82,59" fill="none" id="UsuarioNoRegistrado-to-LoginView" style="stroke:#181818;stroke-width:1;"/><polygon fill="#181818" points="428.82,59,419.82,55,423.82,59,419.82,63,428.82,59" style="stroke:#181818;stroke-width:1;"/><text fill="#000000" font-family="sans-serif" font-size="13" lengthAdjust="spacing" textLength="238.4053" x="172.5" y="52.0669">1: iniciarSesion(usuario, contrase&#241;a)</text></g><!--link LoginView to IniciarSesionController--><g class="link" data-entity-1="ent0004" data-entity-2="ent0005" data-link-type="dependency" data-source-line="15" id="lnk11"><path d="M475,77.13 C475,102.23 475,142.76 475,167.87" fill="none" id="LoginView-to-IniciarSesionController" style="stroke:#181818;stroke-width:1;"/><polygon fill="#181818" points="475,173.87,479,164.87,475,168.87,471,164.87,475,173.87" style="stroke:#181818;stroke-width:1;"/><text fill="#000000" font-family="sans-serif" font-size="13" lengthAdjust="spacing" textLength="222.752" x="476" y="140.0669">2: autenticar(usuario, contrase&#241;a)</text></g><!--link IniciarSesionController to UsuarioRepository--><g class="link" data-entity-1="ent0005" data-entity-2="ent0006" data-link-type="dependency" data-source-line="17" id="lnk12"><path d="M398.16,210.03 C337.49,223.49 263,240 263,240 C263,240 263,257 263,257 C263,257 274.804,269.0613 287.934,282.4813" fill="none" id="IniciarSesionController-to-UsuarioRepository" style="stroke:#181818;stroke-width:1;"/><polygon fill="#181818" points="292.13,286.77,288.6951,277.5395,288.6333,283.1961,282.9768,283.1343,292.13,286.77" style="stroke:#181818;stroke-width:1;"/><text fill="#000000" font-family="sans-serif" font-size="13" lengthAdjust="spacing" textLength="284.5083" x="264" y="253.0669">3: validarCredenciales(usuario, contrase&#241;a)</text></g><!--link UsuarioRepository to Usuario--><g class="link" data-entity-1="ent0006" data-entity-2="ent0007" data-link-type="association" data-source-line="19" id="lnk13"><path d="M309,323.42 C309,340.57 309,366.58 309,383.69" fill="none" id="UsuarioRepository-Usuario" style="stroke:#181818;stroke-width:1;"/></g><!--link IniciarSesionController to Sesion--><g class="link" data-entity-1="ent0005" data-entity-2="ent0008" data-link-type="dependency" data-source-line="21" id="lnk14"><path d="M505.07,210.23 C528.47,223.65 557,240 557,240 C557,240 570.8785,262.7659 582.4285,281.7259" fill="none" id="IniciarSesionController-to-Sesion" style="stroke:#181818;stroke-width:1;"/><polygon fill="#181818" points="585.55,286.85,584.2838,277.0829,582.9488,282.5799,577.4517,281.2448,585.55,286.85" style="stroke:#181818;stroke-width:1;"/><text fill="#000000" font-family="sans-serif" font-size="13" lengthAdjust="spacing" textLength="151.6836" x="567" y="253.0669">4: crearSesion(usuario)</text></g><!--link LoginView to SistemaDisponible--><g class="link" data-entity-1="ent0004" data-entity-2="ent0009" data-link-type="dependency" data-source-line="23" id="lnk15"><path d="M521.03,59 C594.44,59 732.94,59 823.37,59" fill="none" id="LoginView-to-SistemaDisponible" style="stroke:#181818;stroke-width:1;"/><polygon fill="#181818" points="829.37,59,820.37,55,824.37,59,820.37,63,829.37,59" style="stroke:#181818;stroke-width:1;"/><text fill="#000000" font-family="sans-serif" font-size="13" lengthAdjust="spacing" textLength="272.7461" x="539.25" y="52.0669">5: sistemaDisponible(usuarioAutenticado)</text></g><?plantuml-src VP3FJW8n4CRlVOh9Ue74FOX0f0SJN20nCHuWUf_jJZOJIhjfYuOO7yfdyCNi1lctiFJMRsQ-cU_dbsmgTBW2pOR2fYAehDxK7o5G1UlWpQ_HiNsrSohP1uU55HMg9PO4R5WnkWLvjWRGGtAYTBe9V0c8pv4AQ4fDS3FiZQQp4RpOaiqxqsUpdW_oOlW0pyT6cJN1MQt9DRjdlN7Md-wEd5DbFSUhDzVxMghRPU9R79MooVHfF814Bc9uMY5Cs5VMSAufgHF_omTLY0l487Nfuo6pX3jv2g-ptWxTWggpegVV7-mAiH-1j8WEBLGaz2JWEf09hD2rcRLCGngTpmXAk9VmWPeBT9cZWaoSrUJRpCyCeksUzzNLMr52Nu9or2Ho2g76U8PSma22RwexW_6EIs6xVm00?></g></svg>