<?plantuml 1.2026.2?><svg xmlns="http://www.w3.org/2000/svg" xmlns:xlink="http://www.w3.org/1999/xlink" contentStyleType="text/css" data-diagram-type="DESCRIPTION" height="495px" preserveAspectRatio="none" style="width:808px;height:495px;background:#FFFFFF;" version="1.1" viewBox="0 0 808 495" width="808px" zoomAndPan="magnify"><defs/><g><!--cluster relacionarTareas--><g class="cluster" data-qualified-name="relacionarTareas" data-source-line="4" id="ent0003"><path d="M354,39.5659 L500.6533,39.5659 A3.75,3.75 0 0 1 503.1533,42.0659 L510.1533,61.8628 L727,61.8628 A2.5,2.5 0 0 1 729.5,64.3628 L729.5,486.0659 A2.5,2.5 0 0 1 727,488.5659 L354,488.5659 A2.5,2.5 0 0 1 351.5,486.0659 L351.5,42.0659 A2.5,2.5 0 0 1 354,39.5659" fill="none" style="stroke:#000000;stroke-width:1.5;"/><line style="stroke:#000000;stroke-width:1.5;" x1="351.5" x2="510.1533" y1="61.8628" y2="61.8628"/><text fill="#000000" font-family="sans-serif" font-size="14" font-weight="bold" lengthAdjust="spacing" textLength="145.6533" x="355.5" y="54.561">relacionarTareas()</text></g><!--entity RelacionarTareasView--><g class="entity" data-qualified-name="relacionarTareas.RelacionarTareasView" data-source-line="5" id="ent0004"><rect fill="#629EF9" height="36.2969" rx="2.5" ry="2.5" style="stroke:#181818;stroke-width:0.5;" width="175.0732" x="538" y="93.5659"/><text fill="#000000" font-family="sans-serif" font-size="14" lengthAdjust="spacing" textLength="155.0732" x="548" y="116.561">RelacionarTareasView</text></g><!--entity TareasController--><g class="entity" data-qualified-name="relacionarTareas.TareasController" data-source-line="6" id="ent0005"><rect fill="#B5BD68" height="36.2969" rx="2.5" ry="2.5" style="stroke:#181818;stroke-width:0.5;" width="136.5459" x="419" y="226.5659"/><text fill="#000000" font-family="sans-serif" font-size="14" lengthAdjust="spacing" textLength="116.5459" x="429" y="249.561">TareasController</text></g><!--entity TareaRepository--><g class="entity" data-qualified-name="relacionarTareas.TareaRepository" data-source-line="7" id="ent0006"><rect fill="#F2AC4E" height="36.2969" rx="2.5" ry="2.5" style="stroke:#181818;stroke-width:0.5;" width="135.1514" x="368" y="93.5659"/><text fill="#000000" font-family="sans-serif" font-size="14" lengthAdjust="spacing" textLength="115.1514" x="378" y="116.561">TareaRepository</text></g><!--entity RelacionRepository--><g class="entity" data-qualified-name="relacionarTareas.RelacionRepository" data-source-line="8" id="ent0007"><rect fill="#F2AC4E" height="36.2969" rx="2.5" ry="2.5" style="stroke:#181818;stroke-width:0.5;" width="154.9072" x="410" y="339.5659"/><text fill="#000000" font-family="sans-serif" font-size="14" lengthAdjust="spacing" textLength="134.9072" x="420" y="362.561">RelacionRepository</text></g><!--entity Tarea--><g class="entity" data-qualified-name="relacionarTareas.Tarea" data-source-line="9" id="ent0008"><rect fill="#F2AC4E" height="36.2969" rx="2.5" ry="2.5" style="stroke:#181818;stroke-width:0.5;" width="60.0791" x="457.5" y="436.5659"/><text fill="#000000" font-family="sans-serif" font-size="14" lengthAdjust="spacing" textLength="40.0791" x="467.5" y="459.561">Tarea</text></g><!--entity Usuario--><g class="entity" data-qualified-name="Usuario" data-source-line="3" id="ent0002"><ellipse cx="774.6021" cy="82.0659" fill="#F1F1F1" rx="8" ry="8" style="stroke:#181818;stroke-width:0.5;"/><path d="M774.6021,90.0659 L774.6021,117.0659 M761.6021,98.0659 L787.6021,98.0659 M774.6021,117.0659 L761.6021,132.0659 M774.6021,117.0659 L787.6021,132.0659" fill="none" style="stroke:#181818;stroke-width:0.5;"/><text fill="#000000" font-family="sans-serif" font-size="14" lengthAdjust="spacing" textLength="53.2041" x="748" y="146.561">Usuario</text></g><!--entity SistemaDisponible--><g class="entity" data-qualified-name="SistemaDisponible" data-source-line="11" id="ent0009"><rect fill="#CDEBA5" height="36.2969" rx="2.5" ry="2.5" style="stroke:#181818;stroke-width:0.5;" width="159.125" x="7" y="93.5659"/><text fill="#000000" font-family="sans-serif" font-size="14" lengthAdjust="spacing" textLength="139.125" x="17" y="116.561">:Sistema Disponible</text></g><!--link SistemaDisponible to RelacionarTareasView--><g class="link" data-entity-1="ent0009" data-entity-2="ent0004" data-link-type="dependency" data-source-line="13" id="lnk10"><path d="M104.03,93.3659 C127.31,69.2059 165.5,29.5659 165.5,29.5659 C165.5,29.5659 337.5,29.5659 337.5,29.5659 C337.5,29.5659 520.5,31.5659 520.5,31.5659 C520.5,31.5659 565.9179,66.1691 596.8979,89.7791" fill="none" id="SistemaDisponible-to-RelacionarTareasView" style="stroke:#181818;stroke-width:1;"/><polygon fill="#181818" points="601.67,93.4159,596.9364,84.7792,597.6932,90.3852,592.0872,91.142,601.67,93.4159" style="stroke:#181818;stroke-width:1;"/><text fill="#000000" font-family="sans-serif" font-size="13" lengthAdjust="spacing" textLength="170.4727" x="166.5" y="19.6328">1: relacionarTareas(tarea)</text></g><!--link RelacionarTareasView to SistemaDisponible--><g class="link" data-entity-1="ent0004" data-entity-2="ent0009" data-link-type="dependency" data-source-line="21" id="lnk14"><path d="M606.19,93.3659 C580.56,69.2059 538.5,29.5659 538.5,29.5659 C538.5,29.5659 342.5,29.5659 342.5,29.5659 C342.5,29.5659 224.1042,67.4962 148.7142,91.6362" fill="none" id="RelacionarTareasView-to-SistemaDisponible" style="stroke:#181818;stroke-width:1;"/><polygon fill="#181818" points="143,93.4659,152.7911,94.5308,147.7618,91.9412,150.3515,86.9119,143,93.4659" style="stroke:#181818;stroke-width:1;"/><text fill="#000000" font-family="sans-serif" font-size="13" lengthAdjust="spacing" textLength="194.251" x="343.5" y="19.6328">4: sistemaDisponible(usuario)</text></g><!--link RelacionarTareasView to TareasController--><g class="link" data-entity-1="ent0004" data-entity-2="ent0005" data-link-type="dependency" data-source-line="15" id="lnk11"><path d="M607.46,129.6959 C581.01,154.7959 536.3514,197.1949 509.9014,222.3049" fill="none" id="RelacionarTareasView-to-TareasController" style="stroke:#181818;stroke-width:1;"/><polygon fill="#181818" points="505.55,226.4359,514.8311,223.1404,509.1762,222.9934,509.3232,217.3385,505.55,226.4359" style="stroke:#181818;stroke-width:1;"/><text fill="#000000" font-family="sans-serif" font-size="13" lengthAdjust="spacing" textLength="224.5229" x="552.5" y="192.6328">2: establecerVinculo(id1, id2, tipo)</text></g><!--link TareasController to RelacionRepository--><g class="link" data-entity-1="ent0005" data-entity-2="ent0007" data-link-type="dependency" data-source-line="17" id="lnk12"><path d="M487.5,262.9059 C487.5,283.7659 487.5,312.5459 487.5,333.3459" fill="none" id="TareasController-to-RelacionRepository" style="stroke:#181818;stroke-width:1;"/><polygon fill="#181818" points="487.5,339.3459,491.5,330.3459,487.5,334.3459,483.5,330.3459,487.5,339.3459" style="stroke:#181818;stroke-width:1;"/><text fill="#000000" font-family="sans-serif" font-size="13" lengthAdjust="spacing" textLength="198.0024" x="488.5" y="305.6328">3: crearRelacion(id1, id2, tipo)</text></g><!--link RelacionRepository to Tarea--><g class="link" data-entity-1="ent0007" data-entity-2="ent0008" data-link-type="association" data-source-line="19" id="lnk13"><path d="M487.5,375.9859 C487.5,393.1359 487.5,419.1459 487.5,436.2559" fill="none" id="RelacionRepository-Tarea" style="stroke:#181818;stroke-width:1;"/></g><?plantuml-src XPBTQW8n48NlynJ3zcO5zyAjIir5mVhp0BRrVimECXYJa4IAbBvxirLHiaf38EJacvF98M77ng77FMWs58-Em5bzR3T2e8hMmsSue6Sh7AeTRWayQLHi3VeFz8G1qYnoiUmLy2qW3KygejbgWgTnFLai9x3As3NJLuvkHfjc_08dO6PDz5PhyZcshAUpuUA4hSZPmAdZumFgSk-_u9-T-14t9xFvucqwWaA-SuYqHvXpSDRmHbFH1d2MhweG7GagNxtUVRs4WUpaMiPswGbnhmAg9ddbyKYe9L28c6vJvDTir47Rafj17xYf-n3PsUIOrq5rqzWr7WdF4bH2_UMiQzMjIcRd11zqtgRG2KV2K4B8rV9m-dozNm00?></g></svg>