<?plantuml 1.2026.2?><svg xmlns="http://www.w3.org/2000/svg" xmlns:xlink="http://www.w3.org/1999/xlink" contentStyleType="text/css" data-diagram-type="SEQUENCE" height="703px" preserveAspectRatio="none" style="width:1448px;height:703px;background:#FFFFFF;" version="1.1" viewBox="0 0 1448 703" width="1448px" zoomAndPan="magnify"><defs/><g><g class="participant-lifeline" data-entity-uid="part1" data-qualified-name="Actor" id="part1-lifeline"><g><title>Actor</title><rect fill="#000000" fill-opacity="0.00000" height="541.2578" width="8" x="22.5425" y="81.2969"/><line style="stroke:#181818;stroke-width:0.5;stroke-dasharray:5,5;" x1="26" x2="26" y1="81.2969" y2="622.5547"/></g></g><g class="participant-lifeline" data-entity-uid="part2" data-qualified-name="UI" id="part2-lifeline"><g><title>UI. React</title><rect fill="#000000" fill-opacity="0.00000" height="541.2578" width="8" x="268.2471" y="81.2969"/><line style="stroke:#181818;stroke-width:0.5;stroke-dasharray:5,5;" x1="271.4224" x2="271.4224" y1="81.2969" y2="622.5547"/></g></g><g class="participant-lifeline" data-entity-uid="part3" data-qualified-name="Auth" id="part3-lifeline"><g><title>AuthMiddleware</title><rect fill="#000000" fill-opacity="0.00000" height="541.2578" width="8" x="540.4912" y="81.2969"/><line style="stroke:#181818;stroke-width:0.5;stroke-dasharray:5,5;" x1="543.7632" x2="543.7632" y1="81.2969" y2="622.5547"/></g></g><g class="participant-lifeline" data-entity-uid="part4" data-qualified-name="Ctrl" id="part4-lifeline"><g><title>MemberController</title><rect fill="#000000" fill-opacity="0.00000" height="541.2578" width="8" x="838.3774" y="81.2969"/><line style="stroke:#181818;stroke-width:0.5;stroke-dasharray:5,5;" x1="841.998" x2="841.998" y1="81.2969" y2="622.5547"/></g></g><g class="participant-lifeline" data-entity-uid="part5" data-qualified-name="Svc" id="part5-lifeline"><g><title>MemberService</title><rect fill="#000000" fill-opacity="0.00000" height="541.2578" width="8" x="991.5269" y="81.2969"/><line style="stroke:#181818;stroke-width:0.5;stroke-dasharray:5,5;" x1="994.8633" x2="994.8633" y1="81.2969" y2="622.5547"/></g></g><g class="participant-lifeline" data-entity-uid="part6" data-qualified-name="Repo" id="part6-lifeline"><g><title>UserRepository</title><rect fill="#000000" fill-opacity="0.00000" height="541.2578" width="8" x="1297.1978" y="81.2969"/><line style="stroke:#181818;stroke-width:0.5;stroke-dasharray:5,5;" x1="1300.7065" x2="1300.7065" y1="81.2969" y2="622.5547"/></g></g><g class="participant-lifeline" data-entity-uid="part7" data-qualified-name="DB" id="part7-lifeline"><g><title>Database</title><rect fill="#000000" fill-opacity="0.00000" height="541.2578" width="8" x="1406.6943" y="81.2969"/><line style="stroke:#181818;stroke-width:0.5;stroke-dasharray:5,5;" x1="1410.2939" x2="1410.2939" y1="81.2969" y2="622.5547"/></g></g><g class="participant participant-head" data-entity-uid="part1" data-qualified-name="Actor" id="part1-head"><text fill="#000000" font-family="sans-serif" font-size="14" lengthAdjust="spacing" textLength="37.085" x="5" y="77.9951">Actor</text><ellipse cx="26.5425" cy="13.5" fill="#E2E2F0" rx="8" ry="8" style="stroke:#181818;stroke-width:0.5;"/><path d="M26.5425,21.5 L26.5425,48.5 M13.5425,29.5 L39.5425,29.5 M26.5425,48.5 L13.5425,63.5 M26.5425,48.5 L39.5425,63.5" fill="none" style="stroke:#181818;stroke-width:0.5;"/></g><g class="participant participant-tail" data-entity-uid="part1" data-qualified-name="Actor" id="part1-tail"><text fill="#000000" font-family="sans-serif" font-size="14" lengthAdjust="spacing" textLength="37.085" x="5" y="634.5498">Actor</text><ellipse cx="26.5425" cy="646.3516" fill="#E2E2F0" rx="8" ry="8" style="stroke:#181818;stroke-width:0.5;"/><path d="M26.5425,654.3516 L26.5425,681.3516 M13.5425,662.3516 L39.5425,662.3516 M26.5425,681.3516 L13.5425,696.3516 M26.5425,681.3516 L39.5425,696.3516" fill="none" style="stroke:#181818;stroke-width:0.5;"/></g><g class="participant participant-head" data-entity-uid="part2" data-qualified-name="UI" id="part2-head"><rect fill="#E2E2F0" height="30.2969" rx="2.5" ry="2.5" style="stroke:#181818;stroke-width:0.5;" width="77.6494" x="233.4224" y="50"/><text fill="#000000" font-family="sans-serif" font-size="14" lengthAdjust="spacing" textLength="63.6494" x="240.4224" y="69.9951">UI: React</text></g><g class="participant participant-tail" data-entity-uid="part2" data-qualified-name="UI" id="part2-tail"><rect fill="#E2E2F0" height="30.2969" rx="2.5" ry="2.5" style="stroke:#181818;stroke-width:0.5;" width="77.6494" x="233.4224" y="621.5547"/><text fill="#000000" font-family="sans-serif" font-size="14" lengthAdjust="spacing" textLength="63.6494" x="240.4224" y="641.5498">UI: React</text></g><g class="participant participant-head" data-entity-uid="part3" data-qualified-name="Auth" id="part3-head"><rect fill="#E2E2F0" height="30.2969" rx="2.5" ry="2.5" style="stroke:#181818;stroke-width:0.5;" width="127.4561" x="480.7632" y="50"/><text fill="#000000" font-family="sans-serif" font-size="14" lengthAdjust="spacing" textLength="113.4561" x="487.7632" y="69.9951">AuthMiddleware</text></g><g class="participant participant-tail" data-entity-uid="part3" data-qualified-name="Auth" id="part3-tail"><rect fill="#E2E2F0" height="30.2969" rx="2.5" ry="2.5" style="stroke:#181818;stroke-width:0.5;" width="127.4561" x="480.7632" y="621.5547"/><text fill="#000000" font-family="sans-serif" font-size="14" lengthAdjust="spacing" textLength="113.4561" x="487.7632" y="641.5498">AuthMiddleware</text></g><g class="participant participant-head" data-entity-uid="part4" data-qualified-name="Ctrl" id="part4-head"><rect fill="#E2E2F0" height="30.2969" rx="2.5" ry="2.5" style="stroke:#181818;stroke-width:0.5;" width="140.7588" x="771.998" y="50"/><text fill="#000000" font-family="sans-serif" font-size="14" lengthAdjust="spacing" textLength="126.7588" x="778.998" y="69.9951">MemberController</text></g><g class="participant participant-tail" data-entity-uid="part4" data-qualified-name="Ctrl" id="part4-tail"><rect fill="#E2E2F0" height="30.2969" rx="2.5" ry="2.5" style="stroke:#181818;stroke-width:0.5;" width="140.7588" x="771.998" y="621.5547"/><text fill="#000000" font-family="sans-serif" font-size="14" lengthAdjust="spacing" textLength="126.7588" x="778.998" y="641.5498">MemberController</text></g><g class="participant participant-head" data-entity-uid="part5" data-qualified-name="Svc" id="part5-head"><rect fill="#E2E2F0" height="30.2969" rx="2.5" ry="2.5" style="stroke:#181818;stroke-width:0.5;" width="123.3271" x="933.8633" y="50"/><text fill="#000000" font-family="sans-serif" font-size="14" lengthAdjust="spacing" textLength="109.3271" x="940.8633" y="69.9951">MemberService</text></g><g class="participant participant-tail" data-entity-uid="part5" data-qualified-name="Svc" id="part5-tail"><rect fill="#E2E2F0" height="30.2969" rx="2.5" ry="2.5" style="stroke:#181818;stroke-width:0.5;" width="123.3271" x="933.8633" y="621.5547"/><text fill="#000000" font-family="sans-serif" font-size="14" lengthAdjust="spacing" textLength="109.3271" x="940.8633" y="641.5498">MemberService</text></g><g class="participant participant-head" data-entity-uid="part6" data-qualified-name="Repo" id="part6-head"><rect fill="#E2E2F0" height="30.2969" rx="2.5" ry="2.5" style="stroke:#181818;stroke-width:0.5;" width="120.9824" x="1240.7065" y="50"/><text fill="#000000" font-family="sans-serif" font-size="14" lengthAdjust="spacing" textLength="106.9824" x="1247.7065" y="69.9951">UserRepository</text></g><g class="participant participant-tail" data-entity-uid="part6" data-qualified-name="Repo" id="part6-tail"><rect fill="#E2E2F0" height="30.2969" rx="2.5" ry="2.5" style="stroke:#181818;stroke-width:0.5;" width="120.9824" x="1240.7065" y="621.5547"/><text fill="#000000" font-family="sans-serif" font-size="14" lengthAdjust="spacing" textLength="106.9824" x="1247.7065" y="641.5498">UserRepository</text></g><g class="participant participant-head" data-entity-uid="part7" data-qualified-name="DB" id="part7-head"><text fill="#000000" font-family="sans-serif" font-size="14" lengthAdjust="spacing" textLength="66.8008" x="1374.2939" y="77.9951">Database</text><path d="M1392.6943,29 C1392.6943,19 1410.6943,19 1410.6943,19 C1410.6943,19 1428.6943,19 1428.6943,29 L1428.6943,55 C1428.6943,65 1410.6943,65 1410.6943,65 C1410.6943,65 1392.6943,65 1392.6943,55 L1392.6943,29" fill="#E2E2F0" style="stroke:#181818;stroke-width:0.5;"/><path d="M1392.6943,29 C1392.6943,39 1410.6943,39 1410.6943,39 C1410.6943,39 1428.6943,39 1428.6943,29" fill="none" style="stroke:#181818;stroke-width:0.5;"/></g><g class="participant participant-tail" data-entity-uid="part7" data-qualified-name="DB" id="part7-tail"><text fill="#000000" font-family="sans-serif" font-size="14" lengthAdjust="spacing" textLength="66.8008" x="1374.2939" y="634.5498">Database</text><path d="M1392.6943,647.8516 C1392.6943,637.8516 1410.6943,637.8516 1410.6943,637.8516 C1410.6943,637.8516 1428.6943,637.8516 1428.6943,647.8516 L1428.6943,673.8516 C1428.6943,683.8516 1410.6943,683.8516 1410.6943,683.8516 C1410.6943,683.8516 1392.6943,683.8516 1392.6943,673.8516 L1392.6943,647.8516" fill="#E2E2F0" style="stroke:#181818;stroke-width:0.5;"/><path d="M1392.6943,647.8516 C1392.6943,657.8516 1410.6943,657.8516 1410.6943,657.8516 C1410.6943,657.8516 1428.6943,657.8516 1428.6943,647.8516" fill="none" style="stroke:#181818;stroke-width:0.5;"/></g><g class="message" data-entity-1="part1" data-entity-2="part2" id="msg1"><polygon fill="#181818" points="260.2471,108.4297,270.2471,112.4297,260.2471,116.4297,264.2471,112.4297" style="stroke:#181818;stroke-width:1;"/><line style="stroke:#181818;stroke-width:1;" x1="26.5425" x2="266.2471" y1="112.4297" y2="112.4297"/><text fill="#000000" font-family="sans-serif" font-size="13" lengthAdjust="spacing" textLength="221.7046" x="33.5425" y="107.3638">Completa formulario de invitaci&#243;n</text></g><g class="message" data-entity-1="part2" data-entity-2="part3" id="msg2"><polygon fill="#181818" points="532.4912,137.5625,542.4912,141.5625,532.4912,145.5625,536.4912,141.5625" style="stroke:#181818;stroke-width:1;"/><line style="stroke:#181818;stroke-width:1;" x1="272.2471" x2="538.4912" y1="141.5625" y2="141.5625"/><text fill="#000000" font-family="sans-serif" font-size="13" lengthAdjust="spacing" textLength="248.2441" x="279.2471" y="136.4966">POST /api/members/invite (InviteDTO)</text></g><g class="message" data-entity-1="part3" data-entity-2="part3" id="msg3"><line style="stroke:#181818;stroke-width:1;" x1="544.4912" x2="586.4912" y1="170.6953" y2="170.6953"/><line style="stroke:#181818;stroke-width:1;" x1="586.4912" x2="586.4912" y1="170.6953" y2="183.6953"/><line style="stroke:#181818;stroke-width:1;" x1="545.4912" x2="586.4912" y1="183.6953" y2="183.6953"/><polygon fill="#181818" points="555.4912,179.6953,545.4912,183.6953,555.4912,187.6953,551.4912,183.6953" style="stroke:#181818;stroke-width:1;"/><text fill="#000000" font-family="sans-serif" font-size="13" lengthAdjust="spacing" textLength="283.8862" x="551.4912" y="165.6294">Validar Token &amp; Rol (Admin/MemberAdmin)</text></g><g class="message" data-entity-1="part3" data-entity-2="part4" id="msg4"><polygon fill="#181818" points="830.3774,208.8281,840.3774,212.8281,830.3774,216.8281,834.3774,212.8281" style="stroke:#181818;stroke-width:1;"/><line style="stroke:#181818;stroke-width:1;" x1="544.4912" x2="836.3774" y1="212.8281" y2="212.8281"/><text fill="#000000" font-family="sans-serif" font-size="13" lengthAdjust="spacing" textLength="129.1494" x="551.4912" y="207.7622">inviteMember(data)</text></g><g class="message" data-entity-1="part4" data-entity-2="part5" id="msg5"><polygon fill="#181818" points="983.5269,237.9609,993.5269,241.9609,983.5269,245.9609,987.5269,241.9609" style="stroke:#181818;stroke-width:1;"/><line style="stroke:#181818;stroke-width:1;" x1="842.3774" x2="989.5269" y1="241.9609" y2="241.9609"/><text fill="#000000" font-family="sans-serif" font-size="13" lengthAdjust="spacing" textLength="129.1494" x="849.3774" y="236.895">inviteMember(data)</text></g><g class="message" data-entity-1="part5" data-entity-2="part6" id="msg6"><polygon fill="#181818" points="1289.1978,267.0938,1299.1978,271.0938,1289.1978,275.0938,1293.1978,271.0938" style="stroke:#181818;stroke-width:1;"/><line style="stroke:#181818;stroke-width:1;" x1="995.5269" x2="1295.1978" y1="271.0938" y2="271.0938"/><text fill="#000000" font-family="sans-serif" font-size="13" lengthAdjust="spacing" textLength="156.7681" x="1002.5269" y="266.0278">findByEmail(data.email)</text></g><g class="message" data-entity-1="part6" data-entity-2="part7" id="msg7"><polygon fill="#181818" points="1398.6943,296.2266,1408.6943,300.2266,1398.6943,304.2266,1402.6943,300.2266" style="stroke:#181818;stroke-width:1;"/><line style="stroke:#181818;stroke-width:1;" x1="1301.1978" x2="1404.6943" y1="300.2266" y2="300.2266"/><text fill="#000000" font-family="sans-serif" font-size="13" lengthAdjust="spacing" textLength="65.4697" x="1308.1978" y="295.1606">SELECT ...</text></g><g class="message" data-entity-1="part7" data-entity-2="part6" id="msg8"><polygon fill="#181818" points="1312.1978,325.3594,1302.1978,329.3594,1312.1978,333.3594,1308.1978,329.3594" style="stroke:#181818;stroke-width:1;"/><line style="stroke:#181818;stroke-width:1;stroke-dasharray:2,2;" x1="1306.1978" x2="1409.6943" y1="329.3594" y2="329.3594"/><text fill="#000000" font-family="sans-serif" font-size="13" lengthAdjust="spacing" textLength="23.7021" x="1318.1978" y="324.2935">null</text></g><g class="message" data-entity-1="part6" data-entity-2="part5" id="msg9"><polygon fill="#181818" points="1006.5269,354.4922,996.5269,358.4922,1006.5269,362.4922,1002.5269,358.4922" style="stroke:#181818;stroke-width:1;"/><line style="stroke:#181818;stroke-width:1;stroke-dasharray:2,2;" x1="1000.5269" x2="1300.1978" y1="358.4922" y2="358.4922"/><text fill="#000000" font-family="sans-serif" font-size="13" lengthAdjust="spacing" textLength="92.5679" x="1012.5269" y="353.4263">UserNotFound</text></g><g class="message" data-entity-1="part5" data-entity-2="part6" id="msg10"><polygon fill="#181818" points="1289.1978,383.625,1299.1978,387.625,1289.1978,391.625,1293.1978,387.625" style="stroke:#181818;stroke-width:1;"/><line style="stroke:#181818;stroke-width:1;" x1="995.5269" x2="1295.1978" y1="387.625" y2="387.625"/><text fill="#000000" font-family="sans-serif" font-size="13" lengthAdjust="spacing" textLength="281.6709" x="1002.5269" y="382.5591">create(new User(status=PENDING_INVITE))</text></g><g class="message" data-entity-1="part6" data-entity-2="part7" id="msg11"><polygon fill="#181818" points="1398.6943,412.7578,1408.6943,416.7578,1398.6943,420.7578,1402.6943,416.7578" style="stroke:#181818;stroke-width:1;"/><line style="stroke:#181818;stroke-width:1;" x1="1301.1978" x2="1404.6943" y1="416.7578" y2="416.7578"/><text fill="#000000" font-family="sans-serif" font-size="13" lengthAdjust="spacing" textLength="63.5273" x="1308.1978" y="411.6919">INSERT ...</text></g><g class="message" data-entity-1="part7" data-entity-2="part6" id="msg12"><polygon fill="#181818" points="1312.1978,441.8906,1302.1978,445.8906,1312.1978,449.8906,1308.1978,445.8906" style="stroke:#181818;stroke-width:1;"/><line style="stroke:#181818;stroke-width:1;stroke-dasharray:2,2;" x1="1306.1978" x2="1409.6943" y1="445.8906" y2="445.8906"/><text fill="#000000" font-family="sans-serif" font-size="13" lengthAdjust="spacing" textLength="85.4966" x="1318.1978" y="440.8247">User Created</text></g><g class="message" data-entity-1="part5" data-entity-2="part5" id="msg13"><line style="stroke:#181818;stroke-width:1;" x1="995.5269" x2="1037.5269" y1="475.0234" y2="475.0234"/><line style="stroke:#181818;stroke-width:1;" x1="1037.5269" x2="1037.5269" y1="475.0234" y2="488.0234"/><line style="stroke:#181818;stroke-width:1;" x1="996.5269" x2="1037.5269" y1="488.0234" y2="488.0234"/><polygon fill="#181818" points="1006.5269,484.0234,996.5269,488.0234,1006.5269,492.0234,1002.5269,488.0234" style="stroke:#181818;stroke-width:1;"/><text fill="#000000" font-family="sans-serif" font-size="13" lengthAdjust="spacing" textLength="162.043" x="1002.5269" y="469.9575">Enviar Email Notificaci&#243;n</text></g><g class="message" data-entity-1="part5" data-entity-2="part4" id="msg14"><polygon fill="#181818" points="853.3774,513.1563,843.3774,517.1563,853.3774,521.1563,849.3774,517.1563" style="stroke:#181818;stroke-width:1;"/><line style="stroke:#181818;stroke-width:1;stroke-dasharray:2,2;" x1="847.3774" x2="994.5269" y1="517.1563" y2="517.1563"/><text fill="#000000" font-family="sans-serif" font-size="13" lengthAdjust="spacing" textLength="106.228" x="859.3774" y="512.0903">Invitation Result</text></g><g class="message" data-entity-1="part4" data-entity-2="part3" id="msg15"><polygon fill="#181818" points="555.4912,542.2891,545.4912,546.2891,555.4912,550.2891,551.4912,546.2891" style="stroke:#181818;stroke-width:1;"/><line style="stroke:#181818;stroke-width:1;stroke-dasharray:2,2;" x1="549.4912" x2="841.3774" y1="546.2891" y2="546.2891"/><text fill="#000000" font-family="sans-serif" font-size="13" lengthAdjust="spacing" textLength="80.6787" x="561.4912" y="541.2231">201 Created</text></g><g class="message" data-entity-1="part3" data-entity-2="part2" id="msg16"><polygon fill="#181818" points="283.2471,571.4219,273.2471,575.4219,283.2471,579.4219,279.2471,575.4219" style="stroke:#181818;stroke-width:1;"/><line style="stroke:#181818;stroke-width:1;stroke-dasharray:2,2;" x1="277.2471" x2="543.4912" y1="575.4219" y2="575.4219"/><text fill="#000000" font-family="sans-serif" font-size="13" lengthAdjust="spacing" textLength="113.439" x="289.2471" y="570.356">Success Message</text></g><g class="message" data-entity-1="part2" data-entity-2="part1" id="msg17"><polygon fill="#181818" points="37.5425,600.5547,27.5425,604.5547,37.5425,608.5547,33.5425,604.5547" style="stroke:#181818;stroke-width:1;"/><line style="stroke:#181818;stroke-width:1;stroke-dasharray:2,2;" x1="31.5425" x2="271.2471" y1="604.5547" y2="604.5547"/><text fill="#000000" font-family="sans-serif" font-size="13" lengthAdjust="spacing" textLength="141.2227" x="43.5425" y="599.4888">Muestra confirmaci&#243;n</text></g><?plantuml-src RLB1Rjim3BthAuWS1kVGPDlHm0OajZSOMDmYTdeTM9bfXScI8Saf-btxXFtOJDbpaI4NcTPxvECZXJ9O1pi-HOykAAbwD05MfpA58w4CAq0Ff_8QtGtXvQ3QLjChEeeKlhec7QXx8fTP4vpLcboaPS7fMxIQt4N9gLHzaVyruyaTgRTUZNs-HGx_YXO3Fg4dMELp5B5yBqIq17TVWOrajkir1OIpTTsWqIaBBO4o5nLGgZ-_ZJYLJ6OJAJpSrmriiLVRBlRcjv59a9JncpVtQy7KzvH7rAf51utzHGO-mD5gI7PjfynsyXVZzomUGperG1CXOJDhmG0JnXdSnCTxXjb-2cTbslrRqQ7I4TuGXsl1ABFoVGfryQF86jXiDYBVmzsIQmQjP-8_EHvpPSCtEvZsMaWwma29eTT8Idp0CFWl3qMLbzNtdsNrM3R5-bguhEhYU4EO2q0M2ougKRuOtOuZZ7PWx4ETbPot4sdBsE8MC2Xhnf9-q66UshADpny_BGhJnEU7K0zIalTm60zyfhXrpkB7ai9X81ySWhJch5mtQVy5?></g></svg>