<?plantuml 1.2026.2?><svg xmlns="http://www.w3.org/2000/svg" xmlns:xlink="http://www.w3.org/1999/xlink" contentStyleType="text/css" data-diagram-type="CLASS" height="520px" preserveAspectRatio="none" style="width:353px;height:520px;background:#FFFFFF;" version="1.1" viewBox="0 0 353 520" width="353px" zoomAndPan="magnify"><defs/><g><!--class MemberList--><g class="entity" data-qualified-name="MemberList" data-source-line="3" id="ent0002"><rect fill="#F1F1F1" height="72.5625" rx="2.5" ry="2.5" style="stroke:#181818;stroke-width:0.5;" width="255.4346" x="49.5" y="7"/><ellipse cx="131.938" cy="27.1328" fill="#ADD1B2" rx="11" ry="11" style="stroke:#181818;stroke-width:1;"/><path d="M134.9067,32.7734 Q134.3286,33.0703 133.688,33.2109 Q133.0474,33.3672 132.3442,33.3672 Q129.8442,33.3672 128.5161,31.7266 Q127.2036,30.0703 127.2036,26.9453 Q127.2036,23.8203 128.5161,22.1641 Q129.8442,20.5078 132.3442,20.5078 Q133.0474,20.5078 133.688,20.6641 Q134.3442,20.8203 134.9067,21.1172 L134.9067,23.8359 Q134.2817,23.2578 133.688,22.9922 Q133.0942,22.7109 132.4692,22.7109 Q131.1255,22.7109 130.438,23.7891 Q129.7505,24.8516 129.7505,26.9453 Q129.7505,29.0391 130.438,30.1172 Q131.1255,31.1797 132.4692,31.1797 Q133.0942,31.1797 133.688,30.9141 Q134.2817,30.6328 134.9067,30.0547 L134.9067,32.7734 Z " fill="#000000"/><text fill="#000000" font-family="sans-serif" font-size="12" font-style="italic" lengthAdjust="spacing" textLength="72.6035" x="157.1655" y="23.1387">&#171;Boundary&#187;</text><text fill="#000000" font-family="sans-serif" font-size="14" lengthAdjust="spacing" textLength="82.0586" x="152.438" y="38.9639">MemberList</text><line style="stroke:#181818;stroke-width:0.5;" x1="50.5" x2="303.9346" y1="47.2656" y2="47.2656"/><line style="stroke:#181818;stroke-width:0.5;" x1="50.5" x2="303.9346" y1="55.2656" y2="55.2656"/><text fill="#000000" font-family="sans-serif" font-size="14" lengthAdjust="spacing" textLength="243.4346" x="55.5" y="72.2607">+onRoleChange(user_id, newRole)</text></g><!--class GroupRouter--><g class="entity" data-qualified-name="GroupRouter" data-source-line="7" id="ent0003"><rect fill="#F1F1F1" height="72.5625" rx="2.5" ry="2.5" style="stroke:#181818;stroke-width:0.5;" width="339.6328" x="7" y="157"/><ellipse cx="127.5894" cy="177.1328" fill="#ADD1B2" rx="11" ry="11" style="stroke:#181818;stroke-width:1;"/><path d="M130.5581,182.7734 Q129.98,183.0703 129.3394,183.2109 Q128.6987,183.3672 127.9956,183.3672 Q125.4956,183.3672 124.1675,181.7266 Q122.855,180.0703 122.855,176.9453 Q122.855,173.8203 124.1675,172.1641 Q125.4956,170.5078 127.9956,170.5078 Q128.6987,170.5078 129.3394,170.6641 Q129.9956,170.8203 130.5581,171.1172 L130.5581,173.8359 Q129.9331,173.2578 129.3394,172.9922 Q128.7456,172.7109 128.1206,172.7109 Q126.7769,172.7109 126.0894,173.7891 Q125.4019,174.8516 125.4019,176.9453 Q125.4019,179.0391 126.0894,180.1172 Q126.7769,181.1797 128.1206,181.1797 Q128.7456,181.1797 129.3394,180.9141 Q129.9331,180.6328 130.5581,180.0547 L130.5581,182.7734 Z " fill="#000000"/><text fill="#000000" font-family="sans-serif" font-size="12" font-style="italic" lengthAdjust="spacing" textLength="72.6035" x="156.7646" y="173.1387">&#171;Boundary&#187;</text><text fill="#000000" font-family="sans-serif" font-size="14" lengthAdjust="spacing" textLength="89.9541" x="148.0894" y="188.9639">GroupRouter</text><line style="stroke:#181818;stroke-width:0.5;" x1="8" x2="345.6328" y1="197.2656" y2="197.2656"/><line style="stroke:#181818;stroke-width:0.5;" x1="8" x2="345.6328" y1="205.2656" y2="205.2656"/><text fill="#000000" font-family="sans-serif" font-size="14" lengthAdjust="spacing" textLength="327.6328" x="13" y="222.2607">+update_member_role(group_id, user_id, role)</text></g><!--class GroupService--><g class="entity" data-qualified-name="GroupService" data-source-line="11" id="ent0004"><rect fill="#F1F1F1" height="88.8594" rx="2.5" ry="2.5" style="stroke:#181818;stroke-width:0.5;" width="332.0791" x="11" y="291"/><ellipse cx="125.4541" cy="311.1328" fill="#ADD1B2" rx="11" ry="11" style="stroke:#181818;stroke-width:1;"/><path d="M128.4229,316.7734 Q127.8447,317.0703 127.2041,317.2109 Q126.5635,317.3672 125.8604,317.3672 Q123.3604,317.3672 122.0322,315.7266 Q120.7197,314.0703 120.7197,310.9453 Q120.7197,307.8203 122.0322,306.1641 Q123.3604,304.5078 125.8604,304.5078 Q126.5635,304.5078 127.2041,304.6641 Q127.8604,304.8203 128.4229,305.1172 L128.4229,307.8359 Q127.7979,307.2578 127.2041,306.9922 Q126.6104,306.7109 125.9854,306.7109 Q124.6416,306.7109 123.9541,307.7891 Q123.2666,308.8516 123.2666,310.9453 Q123.2666,313.0391 123.9541,314.1172 Q124.6416,315.1797 125.9854,315.1797 Q126.6104,315.1797 127.2041,314.9141 Q127.7979,314.6328 128.4229,314.0547 L128.4229,316.7734 Z " fill="#000000"/><text fill="#000000" font-family="sans-serif" font-size="12" font-style="italic" lengthAdjust="spacing" textLength="58.4531" x="164.063" y="307.1387">&#171;Control&#187;</text><text fill="#000000" font-family="sans-serif" font-size="14" lengthAdjust="spacing" textLength="94.6709" x="145.9541" y="322.9639">GroupService</text><line style="stroke:#181818;stroke-width:0.5;" x1="12" x2="342.0791" y1="331.2656" y2="331.2656"/><line style="stroke:#181818;stroke-width:0.5;" x1="12" x2="342.0791" y1="339.2656" y2="339.2656"/><text fill="#000000" font-family="sans-serif" font-size="14" lengthAdjust="spacing" textLength="268.4814" x="17" y="356.2607">+change_role(admin_id, gid, uid, role)</text><text fill="#000000" font-family="sans-serif" font-size="14" lengthAdjust="spacing" textLength="320.0791" x="17" y="372.5576">-validate_hierarchy(admin_id, gid, target_uid)</text></g><!--class MemberRepository--><g class="entity" data-qualified-name="MemberRepository" data-source-line="16" id="ent0005"><rect fill="#F1F1F1" height="72.5625" rx="2.5" ry="2.5" style="stroke:#181818;stroke-width:0.5;" width="205.7441" x="74" y="441"/><ellipse cx="107.4887" cy="461.1328" fill="#ADD1B2" rx="11" ry="11" style="stroke:#181818;stroke-width:1;"/><path d="M110.4574,466.7734 Q109.8793,467.0703 109.2387,467.2109 Q108.598,467.3672 107.8949,467.3672 Q105.3949,467.3672 104.0668,465.7266 Q102.7543,464.0703 102.7543,460.9453 Q102.7543,457.8203 104.0668,456.1641 Q105.3949,454.5078 107.8949,454.5078 Q108.598,454.5078 109.2387,454.6641 Q109.8949,454.8203 110.4574,455.1172 L110.4574,457.8359 Q109.8324,457.2578 109.2387,456.9922 Q108.6449,456.7109 108.0199,456.7109 Q106.6762,456.7109 105.9887,457.7891 Q105.3012,458.8516 105.3012,460.9453 Q105.3012,463.0391 105.9887,464.1172 Q106.6762,465.1797 108.0199,465.1797 Q108.6449,465.1797 109.2387,464.9141 Q109.8324,464.6328 110.4574,464.0547 L110.4574,466.7734 Z " fill="#000000"/><text fill="#000000" font-family="sans-serif" font-size="12" font-style="italic" lengthAdjust="spacing" textLength="49.8457" x="167.0035" y="457.1387">&#171;Entity&#187;</text><text fill="#000000" font-family="sans-serif" font-size="14" lengthAdjust="spacing" textLength="132.6582" x="125.5973" y="472.9639">MemberRepository</text><line style="stroke:#181818;stroke-width:0.5;" x1="75" x2="278.7441" y1="481.2656" y2="481.2656"/><line style="stroke:#181818;stroke-width:0.5;" x1="75" x2="278.7441" y1="489.2656" y2="489.2656"/><text fill="#000000" font-family="sans-serif" font-size="14" lengthAdjust="spacing" textLength="193.7441" x="80" y="506.2607">+update_role(gid, uid, role)</text></g><!--link MemberList to GroupRouter--><g class="link" data-entity-1="ent0002" data-entity-2="ent0003" data-link-type="dependency" data-source-line="20" id="lnk6"><path codeLine="20" d="M177,80.33 C177,103.51 177,127.58 177,150.75" fill="none" id="MemberList-to-GroupRouter" style="stroke:#181818;stroke-width:1;stroke-dasharray:7,7;"/><polygon fill="#181818" points="177,156.75,181,147.75,177,151.75,173,147.75,177,156.75" style="stroke:#181818;stroke-width:1;"/><text fill="#000000" font-family="sans-serif" font-size="13" lengthAdjust="spacing" textLength="62.9243" x="178" y="123.0669">HTTP PUT</text></g><!--link GroupRouter to GroupService--><g class="link" data-entity-1="ent0003" data-entity-2="ent0004" data-link-type="dependency" data-source-line="21" id="lnk7"><path codeLine="21" d="M177,230.19 C177,248.66 177,265.37 177,284.87" fill="none" id="GroupRouter-to-GroupService" style="stroke:#181818;stroke-width:1;"/><polygon fill="#181818" points="177,290.87,181,281.87,177,285.87,173,281.87,177,290.87" style="stroke:#181818;stroke-width:1;"/></g><!--link GroupService to MemberRepository--><g class="link" data-entity-1="ent0004" data-entity-2="ent0005" data-link-type="dependency" data-source-line="22" id="lnk8"><path codeLine="22" d="M177,380.03 C177,399.61 177,416.44 177,434.97" fill="none" id="GroupService-to-MemberRepository" style="stroke:#181818;stroke-width:1;"/><polygon fill="#181818" points="177,440.97,181,431.97,177,435.97,173,431.97,177,440.97" style="stroke:#181818;stroke-width:1;"/></g><?plantuml-src RP11IyH038NlyojoND4kdcKfwBAeeB1qwxdCjg4DjZCbawvKyRyxdQAsfJacULzUddidqshM3UIrTkvUXEdS2Jxdrfpe4-5MgJ21LspEo2_a17Qx1zkPGdCVn_2bmDSrM9FO6lULDYLkEeUSKN431Z-6zfNw_kKyiktQnFeRl0xgsa8BPasubx5NRyf14tX_O5wXdf0lbAF7xgqHlp6Xvi7OYDD5GoPGoi3yvmsx4LnqJS53HSYQywfVIaHpYP9vvSJ3c522hNKabdllus24PEMvyQl5SG-QXBpTnhEixk0fJOzmV4lLj1r5yUnvDKjYc2vj_G00?></g></svg>