<?plantuml 1.2026.2?><svg xmlns="http://www.w3.org/2000/svg" xmlns:xlink="http://www.w3.org/1999/xlink" contentStyleType="text/css" data-diagram-type="CLASS" height="610px" preserveAspectRatio="none" style="width:860px;height:610px;background:#FFFFFF;" version="1.1" viewBox="0 0 860 610" width="860px" zoomAndPan="magnify"><defs/><g><!--cluster Frontend--><g class="cluster" data-qualified-name="Frontend" data-source-line="3" id="ent0002"><path d="M158.5,6 L231.7285,6 A3.75,3.75 0 0 1 234.2285,8.5 L241.2285,28.2969 L417.5,28.2969 A2.5,2.5 0 0 1 420,30.7969 L420,127.5 A2.5,2.5 0 0 1 417.5,130 L158.5,130 A2.5,2.5 0 0 1 156,127.5 L156,8.5 A2.5,2.5 0 0 1 158.5,6" fill="none" style="stroke:#000000;stroke-width:1.5;"/><line style="stroke:#000000;stroke-width:1.5;" x1="156" x2="241.2285" y1="28.2969" y2="28.2969"/><text fill="#000000" font-family="sans-serif" font-size="14" font-weight="bold" lengthAdjust="spacing" textLength="72.2285" x="160" y="20.9951">Frontend</text></g><!--cluster Backend--><g class="cluster" data-qualified-name="Backend" data-source-line="9" id="ent0004"><path d="M8.5,179 L76.7109,179 A3.75,3.75 0 0 1 79.2109,181.5 L86.2109,201.2969 L850.5,201.2969 A2.5,2.5 0 0 1 853,203.7969 L853,600.5 A2.5,2.5 0 0 1 850.5,603 L8.5,603 A2.5,2.5 0 0 1 6,600.5 L6,181.5 A2.5,2.5 0 0 1 8.5,179" fill="none" style="stroke:#000000;stroke-width:1.5;"/><line style="stroke:#000000;stroke-width:1.5;" x1="6" x2="86.2109" y1="201.2969" y2="201.2969"/><text fill="#000000" font-family="sans-serif" font-size="14" font-weight="bold" lengthAdjust="spacing" textLength="67.2109" x="10" y="193.9951">Backend</text></g><!--class CreateGroupForm--><g class="entity" data-qualified-name="Frontend.CreateGroupForm" data-source-line="4" id="ent0003"><rect fill="#F1F1F1" height="72.5625" rx="2.5" ry="2.5" style="stroke:#181818;stroke-width:0.5;" width="232.2129" x="172" y="41"/><ellipse cx="220.9727" cy="61.1328" fill="#ADD1B2" rx="11" ry="11" style="stroke:#181818;stroke-width:1;"/><path d="M223.9414,66.7734 Q223.3633,67.0703 222.7227,67.2109 Q222.082,67.3672 221.3789,67.3672 Q218.8789,67.3672 217.5508,65.7266 Q216.2383,64.0703 216.2383,60.9453 Q216.2383,57.8203 217.5508,56.1641 Q218.8789,54.5078 221.3789,54.5078 Q222.082,54.5078 222.7227,54.6641 Q223.3789,54.8203 223.9414,55.1172 L223.9414,57.8359 Q223.3164,57.2578 222.7227,56.9922 Q222.1289,56.7109 221.5039,56.7109 Q220.1602,56.7109 219.4727,57.7891 Q218.7852,58.8516 218.7852,60.9453 Q218.7852,63.0391 219.4727,64.1172 Q220.1602,65.1797 221.5039,65.1797 Q222.1289,65.1797 222.7227,64.9141 Q223.3164,64.6328 223.9414,64.0547 L223.9414,66.7734 Z " fill="#000000"/><text fill="#000000" font-family="sans-serif" font-size="12" font-style="italic" lengthAdjust="spacing" textLength="72.6035" x="268.0547" y="57.1387">&#171;Boundary&#187;</text><text fill="#000000" font-family="sans-serif" font-size="14" lengthAdjust="spacing" textLength="125.7676" x="241.4727" y="72.9639">CreateGroupForm</text><line style="stroke:#181818;stroke-width:0.5;" x1="173" x2="403.2129" y1="81.2656" y2="81.2656"/><line style="stroke:#181818;stroke-width:0.5;" x1="173" x2="403.2129" y1="89.2656" y2="89.2656"/><text fill="#000000" font-family="sans-serif" font-size="14" lengthAdjust="spacing" textLength="220.2129" x="178" y="106.2607">+onSubmit(data: GroupCreate)</text></g><!--class GroupRouter--><g class="entity" data-qualified-name="Backend.GroupRouter" data-source-line="10" id="ent0005"><rect fill="#F1F1F1" height="72.5625" rx="2.5" ry="2.5" style="stroke:#181818;stroke-width:0.5;" width="257.8271" x="159" y="214"/><ellipse cx="238.6865" cy="234.1328" fill="#ADD1B2" rx="11" ry="11" style="stroke:#181818;stroke-width:1;"/><path d="M241.6553,239.7734 Q241.0771,240.0703 240.4365,240.2109 Q239.7959,240.3672 239.0928,240.3672 Q236.5928,240.3672 235.2646,238.7266 Q233.9521,237.0703 233.9521,233.9453 Q233.9521,230.8203 235.2646,229.1641 Q236.5928,227.5078 239.0928,227.5078 Q239.7959,227.5078 240.4365,227.6641 Q241.0928,227.8203 241.6553,228.1172 L241.6553,230.8359 Q241.0303,230.2578 240.4365,229.9922 Q239.8428,229.7109 239.2178,229.7109 Q237.874,229.7109 237.1865,230.7891 Q236.499,231.8516 236.499,233.9453 Q236.499,236.0391 237.1865,237.1172 Q237.874,238.1797 239.2178,238.1797 Q239.8428,238.1797 240.4365,237.9141 Q241.0303,237.6328 241.6553,237.0547 L241.6553,239.7734 Z " fill="#000000"/><text fill="#000000" font-family="sans-serif" font-size="12" font-style="italic" lengthAdjust="spacing" textLength="72.6035" x="267.8618" y="230.1387">&#171;Boundary&#187;</text><text fill="#000000" font-family="sans-serif" font-size="14" lengthAdjust="spacing" textLength="89.9541" x="259.1865" y="245.9639">GroupRouter</text><line style="stroke:#181818;stroke-width:0.5;" x1="160" x2="415.8271" y1="254.2656" y2="254.2656"/><line style="stroke:#181818;stroke-width:0.5;" x1="160" x2="415.8271" y1="262.2656" y2="262.2656"/><text fill="#000000" font-family="sans-serif" font-size="14" lengthAdjust="spacing" textLength="245.8271" x="165" y="279.2607">+create_group(data: GroupCreate)</text></g><!--class GroupService--><g class="entity" data-qualified-name="Backend.GroupService" data-source-line="13" id="ent0006"><rect fill="#F1F1F1" height="72.5625" rx="2.5" ry="2.5" style="stroke:#181818;stroke-width:0.5;" width="397.5469" x="89" y="348"/><ellipse cx="236.188" cy="368.1328" fill="#ADD1B2" rx="11" ry="11" style="stroke:#181818;stroke-width:1;"/><path d="M239.1567,373.7734 Q238.5786,374.0703 237.938,374.2109 Q237.2974,374.3672 236.5942,374.3672 Q234.0942,374.3672 232.7661,372.7266 Q231.4536,371.0703 231.4536,367.9453 Q231.4536,364.8203 232.7661,363.1641 Q234.0942,361.5078 236.5942,361.5078 Q237.2974,361.5078 237.938,361.6641 Q238.5942,361.8203 239.1567,362.1172 L239.1567,364.8359 Q238.5317,364.2578 237.938,363.9922 Q237.3442,363.7109 236.7192,363.7109 Q235.3755,363.7109 234.688,364.7891 Q234.0005,365.8516 234.0005,367.9453 Q234.0005,370.0391 234.688,371.1172 Q235.3755,372.1797 236.7192,372.1797 Q237.3442,372.1797 237.938,371.9141 Q238.5317,371.6328 239.1567,371.0547 L239.1567,373.7734 Z " fill="#000000"/><text fill="#000000" font-family="sans-serif" font-size="12" font-style="italic" lengthAdjust="spacing" textLength="58.4531" x="274.7969" y="364.1387">&#171;Control&#187;</text><text fill="#000000" font-family="sans-serif" font-size="14" lengthAdjust="spacing" textLength="94.6709" x="256.688" y="379.9639">GroupService</text><line style="stroke:#181818;stroke-width:0.5;" x1="90" x2="485.5469" y1="388.2656" y2="388.2656"/><line style="stroke:#181818;stroke-width:0.5;" x1="90" x2="485.5469" y1="396.2656" y2="396.2656"/><text fill="#000000" font-family="sans-serif" font-size="14" lengthAdjust="spacing" textLength="385.5469" x="95" y="413.2607">+create_new_group(user_id: UUID, data: GroupCreate)</text></g><!--class GroupCreate--><g class="entity" data-qualified-name="Backend.GroupCreate" data-source-line="16" id="ent0007"><rect fill="#F1F1F1" height="88.8594" rx="2.5" ry="2.5" style="stroke:#181818;stroke-width:0.5;" width="129.2773" x="22.5" y="498"/><ellipse cx="40.8847" cy="518.1328" fill="#ADD1B2" rx="11" ry="11" style="stroke:#181818;stroke-width:1;"/><path d="M43.8534,523.7734 Q43.2753,524.0703 42.6347,524.2109 Q41.994,524.3672 41.2909,524.3672 Q38.7909,524.3672 37.4628,522.7266 Q36.1503,521.0703 36.1503,517.9453 Q36.1503,514.8203 37.4628,513.1641 Q38.7909,511.5078 41.2909,511.5078 Q41.994,511.5078 42.6347,511.6641 Q43.2909,511.8203 43.8534,512.1172 L43.8534,514.8359 Q43.2284,514.2578 42.6347,513.9922 Q42.0409,513.7109 41.4159,513.7109 Q40.0722,513.7109 39.3847,514.7891 Q38.6972,515.8516 38.6972,517.9453 Q38.6972,520.0391 39.3847,521.1172 Q40.0722,522.1797 41.4159,522.1797 Q42.0409,522.1797 42.6347,521.9141 Q43.2284,521.6328 43.8534,521.0547 L43.8534,523.7734 Z " fill="#000000"/><text fill="#000000" font-family="sans-serif" font-size="12" font-style="italic" lengthAdjust="spacing" textLength="63.0586" x="68.9854" y="514.1387">&#171;Schema&#187;</text><text fill="#000000" font-family="sans-serif" font-size="14" lengthAdjust="spacing" textLength="89.7559" x="55.6368" y="529.9639">GroupCreate</text><line style="stroke:#181818;stroke-width:0.5;" x1="23.5" x2="150.7773" y1="538.2656" y2="538.2656"/><text fill="#000000" font-family="sans-serif" font-size="14" lengthAdjust="spacing" textLength="79.1396" x="28.5" y="555.2607">+name: str</text><text fill="#000000" font-family="sans-serif" font-size="14" lengthAdjust="spacing" textLength="117.2773" x="28.5" y="571.5576">+description: str</text><line style="stroke:#181818;stroke-width:0.5;" x1="23.5" x2="150.7773" y1="578.8594" y2="578.8594"/></g><!--class GroupRepository--><g class="entity" data-qualified-name="Backend.GroupRepository" data-source-line="20" id="ent0008"><rect fill="#F1F1F1" height="72.5625" rx="2.5" ry="2.5" style="stroke:#181818;stroke-width:0.5;" width="202.5244" x="186.5" y="506"/><ellipse cx="225.1351" cy="526.1328" fill="#ADD1B2" rx="11" ry="11" style="stroke:#181818;stroke-width:1;"/><path d="M228.1039,531.7734 Q227.5257,532.0703 226.8851,532.2109 Q226.2445,532.3672 225.5414,532.3672 Q223.0414,532.3672 221.7132,530.7266 Q220.4007,529.0703 220.4007,525.9453 Q220.4007,522.8203 221.7132,521.1641 Q223.0414,519.5078 225.5414,519.5078 Q226.2445,519.5078 226.8851,519.6641 Q227.5414,519.8203 228.1039,520.1172 L228.1039,522.8359 Q227.4789,522.2578 226.8851,521.9922 Q226.2914,521.7109 225.6664,521.7109 Q224.3226,521.7109 223.6351,522.7891 Q222.9476,523.8516 222.9476,525.9453 Q222.9476,528.0391 223.6351,529.1172 Q224.3226,530.1797 225.6664,530.1797 Q226.2914,530.1797 226.8851,529.9141 Q227.4789,529.6328 228.1039,529.0547 L228.1039,531.7734 Z " fill="#000000"/><text fill="#000000" font-family="sans-serif" font-size="12" font-style="italic" lengthAdjust="spacing" textLength="49.8457" x="278.4655" y="522.1387">&#171;Entity&#187;</text><text fill="#000000" font-family="sans-serif" font-size="14" lengthAdjust="spacing" textLength="118.002" x="244.3874" y="537.9639">GroupRepository</text><line style="stroke:#181818;stroke-width:0.5;" x1="187.5" x2="388.0244" y1="546.2656" y2="546.2656"/><line style="stroke:#181818;stroke-width:0.5;" x1="187.5" x2="388.0244" y1="554.2656" y2="554.2656"/><text fill="#000000" font-family="sans-serif" font-size="14" lengthAdjust="spacing" textLength="190.5244" x="192.5" y="571.2607">+save(group: GroupModel)</text></g><!--class MemberRepository--><g class="entity" data-qualified-name="Backend.MemberRepository" data-source-line="23" id="ent0009"><rect fill="#F1F1F1" height="72.5625" rx="2.5" ry="2.5" style="stroke:#181818;stroke-width:0.5;" width="411.9365" x="425" y="506"/><ellipse cx="560.3892" cy="526.1328" fill="#ADD1B2" rx="11" ry="11" style="stroke:#181818;stroke-width:1;"/><path d="M563.3579,531.7734 Q562.7798,532.0703 562.1392,532.2109 Q561.4985,532.3672 560.7954,532.3672 Q558.2954,532.3672 556.9673,530.7266 Q555.6548,529.0703 555.6548,525.9453 Q555.6548,522.8203 556.9673,521.1641 Q558.2954,519.5078 560.7954,519.5078 Q561.4985,519.5078 562.1392,519.6641 Q562.7954,519.8203 563.3579,520.1172 L563.3579,522.8359 Q562.7329,522.2578 562.1392,521.9922 Q561.5454,521.7109 560.9204,521.7109 Q559.5767,521.7109 558.8892,522.7891 Q558.2017,523.8516 558.2017,525.9453 Q558.2017,528.0391 558.8892,529.1172 Q559.5767,530.1797 560.9204,530.1797 Q561.5454,530.1797 562.1392,529.9141 Q562.7329,529.6328 563.3579,529.0547 L563.3579,531.7734 Z " fill="#000000"/><text fill="#000000" font-family="sans-serif" font-size="12" font-style="italic" lengthAdjust="spacing" textLength="49.8457" x="622.2954" y="522.1387">&#171;Entity&#187;</text><text fill="#000000" font-family="sans-serif" font-size="14" lengthAdjust="spacing" textLength="132.6582" x="580.8892" y="537.9639">MemberRepository</text><line style="stroke:#181818;stroke-width:0.5;" x1="426" x2="835.9365" y1="546.2656" y2="546.2656"/><line style="stroke:#181818;stroke-width:0.5;" x1="426" x2="835.9365" y1="554.2656" y2="554.2656"/><text fill="#000000" font-family="sans-serif" font-size="14" lengthAdjust="spacing" textLength="399.9365" x="431" y="571.2607">+add_member(user_id: UUID, group_id: UUID, role: Role)</text></g><!--link CreateGroupForm to GroupRouter--><g class="link" data-entity-1="ent0003" data-entity-2="ent0005" data-link-type="dependency" data-source-line="28" id="lnk10"><path codeLine="28" d="M288,114.35 C288,143.63 288,178.8 288,207.99" fill="none" id="CreateGroupForm-to-GroupRouter" style="stroke:#181818;stroke-width:1;stroke-dasharray:7,7;"/><polygon fill="#181818" points="288,213.99,292,204.99,288,208.99,284,204.99,288,213.99" style="stroke:#181818;stroke-width:1;"/><text fill="#000000" font-family="sans-serif" font-size="13" lengthAdjust="spacing" textLength="71.8936" x="289" y="159.0669">HTTP POST</text></g><!--link GroupRouter to GroupService--><g class="link" data-entity-1="ent0005" data-entity-2="ent0006" data-link-type="dependency" data-source-line="29" id="lnk11"><path codeLine="29" d="M288,287.22 C288,306 288,322.96 288,341.75" fill="none" id="GroupRouter-to-GroupService" style="stroke:#181818;stroke-width:1;"/><polygon fill="#181818" points="288,347.75,292,338.75,288,342.75,284,338.75,288,347.75" style="stroke:#181818;stroke-width:1;"/></g><!--link GroupService to GroupCreate--><g class="link" data-entity-1="ent0006" data-entity-2="ent0007" data-link-type="dependency" data-source-line="30" id="lnk12"><path codeLine="30" d="M242.14,421.09 C212.71,443.94 179.0404,470.0718 147.8004,494.3118" fill="none" id="GroupService-to-GroupCreate" style="stroke:#181818;stroke-width:1;stroke-dasharray:7,7;"/><polygon fill="#181818" points="143.06,497.99,152.6227,495.633,147.0103,494.9249,147.7184,489.3125,143.06,497.99" style="stroke:#181818;stroke-width:1;"/><text fill="#000000" font-family="sans-serif" font-size="13" lengthAdjust="spacing" textLength="58.9697" x="200" y="464.0669">validates</text></g><!--link GroupService to GroupRepository--><g class="link" data-entity-1="ent0006" data-entity-2="ent0008" data-link-type="dependency" data-source-line="31" id="lnk13"><path codeLine="31" d="M288,421.29 C288,446.66 288,474.55 288,499.88" fill="none" id="GroupService-to-GroupRepository" style="stroke:#181818;stroke-width:1;"/><polygon fill="#181818" points="288,505.88,292,496.88,288,500.88,284,496.88,288,505.88" style="stroke:#181818;stroke-width:1;"/></g><!--link GroupService to MemberRepository--><g class="link" data-entity-1="ent0006" data-entity-2="ent0009" data-link-type="dependency" data-source-line="32" id="lnk14"><path codeLine="32" d="M366.26,421.09 C422.12,446.5 491.4683,478.0361 547.3183,503.4361" fill="none" id="GroupService-to-MemberRepository" style="stroke:#181818;stroke-width:1;"/><polygon fill="#181818" points="552.78,505.92,546.2434,498.553,548.2286,503.8501,542.9315,505.8352,552.78,505.92" style="stroke:#181818;stroke-width:1;"/><text fill="#000000" font-family="sans-serif" font-size="13" lengthAdjust="spacing" textLength="111.2744" x="460" y="464.0669">At&#243;mico (ADMIN)</text></g><?plantuml-src ZP9BRi8m48RtESKeAr0BwZf2aNYKbWKj8h16ZZsY5h4TsGuLhJXLZz2BrPW8yYXglOWS-v_lduVDZikSQ2A0PiIOeRMQfuN56LKouHy83q6G4xeZMuHmgfMqA5a8dm6uvKDWh95OVDAgoATA2nWCHggGZEX379V2qxe3HonImMs74KiYy17duAvN7ODZnMpaDYql7xDKBa5zsuTwvcPxqjxsQa0Jr7jEqL77haYjij-X4jzBS65GRpYBOBsUJUxXlpxdIsUJq3SKfE4YYS08ZDMLCuQ6QfvRhkJrgiLTOguCjqeV7FjHMcwRRJ5aZnsVUvddN37CscdEKQIe_-OHnZR2Qvkzy2QLVzTDLzNIVIk3RZwRVZ-kZJU2vzLg0OlNP1LKptkzk3Qne3Q-2wNiSmHxad4t73HruGLpBRGjQBKYWd1elxy4fmewmybyzj8DVm00?></g></svg>