<?plantuml 1.2026.2?><svg xmlns="http://www.w3.org/2000/svg" xmlns:xlink="http://www.w3.org/1999/xlink" contentStyleType="text/css" data-diagram-type="SEQUENCE" height="517px" preserveAspectRatio="none" style="width:1163px;height:517px;background:#FFFFFF;" version="1.1" viewBox="0 0 1163 517" width="1163px" zoomAndPan="magnify"><defs/><g><g><title>..UI React..</title><rect fill="#FFFFFF" height="304.3281" style="stroke:#000000;stroke-width:1;" width="10" x="283.4287" y="113.4297"/></g><g><title>..Router FastAPI..</title><rect fill="#FFFFFF" height="246.0625" style="stroke:#000000;stroke-width:1;" width="10" x="475.7275" y="142.5625"/></g><g><title>..L.gica de Negocio..</title><rect fill="#FFFFFF" height="187.7969" style="stroke:#000000;stroke-width:1;" width="10" x="696.54" y="171.6953"/></g><g><title>..Capa Datos SQLAlchemy..</title><rect fill="#FFFFFF" height="87.3984" style="stroke:#000000;stroke-width:1;" width="10" x="917.3525" y="242.9609"/></g><g><title>PostgreSQL</title><rect fill="#FFFFFF" height="29.1328" style="stroke:#000000;stroke-width:1;" width="10" x="1114.228" y="272.0938"/></g><g class="participant-lifeline" data-entity-uid="part1" data-qualified-name="Usuario" id="part1-lifeline"><g><title>Usuario</title><rect fill="#000000" fill-opacity="0.00000" height="353.4609" width="8" x="35.6021" y="82.2969"/><line style="stroke:#000000;stroke-width:1;stroke-dasharray:5,5;" x1="39" x2="39" y1="82.2969" y2="435.7578"/></g></g><g class="participant-lifeline" data-entity-uid="part2" data-qualified-name="EditarInvitacionView" id="part2-lifeline"><g><title>..UI React..</title><rect fill="#000000" fill-opacity="0.00000" height="353.4609" width="8" x="284.4287" y="82.2969"/><line style="stroke:#000000;stroke-width:1;stroke-dasharray:5,5;" x1="287.8052" x2="287.8052" y1="82.2969" y2="435.7578"/></g></g><g class="participant-lifeline" data-entity-uid="part3" data-qualified-name="InvitacionesController" id="part3-lifeline"><g><title>..Router FastAPI..</title><rect fill="#000000" fill-opacity="0.00000" height="353.4609" width="8" x="476.7275" y="82.2969"/><line style="stroke:#000000;stroke-width:1;stroke-dasharray:5,5;" x1="480.0522" x2="480.0522" y1="82.2969" y2="435.7578"/></g></g><g class="participant-lifeline" data-entity-uid="part4" data-qualified-name="InvitacionesService" id="part4-lifeline"><g><title>..L.gica de Negocio..</title><rect fill="#000000" fill-opacity="0.00000" height="353.4609" width="8" x="697.54" y="82.2969"/><line style="stroke:#000000;stroke-width:1;stroke-dasharray:5,5;" x1="700.645" x2="700.645" y1="82.2969" y2="435.7578"/></g></g><g class="participant-lifeline" data-entity-uid="part5" data-qualified-name="InvitacionRepository" id="part5-lifeline"><g><title>..Capa Datos SQLAlchemy..</title><rect fill="#000000" fill-opacity="0.00000" height="353.4609" width="8" x="918.3525" y="82.2969"/><line style="stroke:#000000;stroke-width:1;stroke-dasharray:5,5;" x1="921.8579" x2="921.8579" y1="82.2969" y2="435.7578"/></g></g><g class="participant-lifeline" data-entity-uid="part6" data-qualified-name="PostgreSQL" id="part6-lifeline"><g><title>PostgreSQL</title><rect fill="#000000" fill-opacity="0.00000" height="353.4609" width="8" x="1115.228" y="82.2969"/><line style="stroke:#000000;stroke-width:1;stroke-dasharray:5,5;" x1="1118.8516" x2="1118.8516" y1="82.2969" y2="435.7578"/></g></g><g class="participant participant-head" data-entity-uid="part1" data-qualified-name="Usuario" id="part1-head"><text fill="#000000" font-family="Verdana" font-size="14" lengthAdjust="spacing" textLength="53.2041" x="10" y="78.9951">Usuario</text><ellipse cx="39.6021" cy="14" fill="#FFFFFF" rx="8" ry="8" style="stroke:#000000;stroke-width:1;"/><path d="M39.6021,22 L39.6021,49 M26.6021,30 L52.6021,30 M39.6021,49 L26.6021,64 M39.6021,49 L52.6021,64" fill="none" style="stroke:#000000;stroke-width:1;"/></g><g class="participant participant-tail" data-entity-uid="part1" data-qualified-name="Usuario" id="part1-tail"><text fill="#000000" font-family="Verdana" font-size="14" lengthAdjust="spacing" textLength="53.2041" x="10" y="447.7529">Usuario</text><ellipse cx="39.6021" cy="460.0547" fill="#FFFFFF" rx="8" ry="8" style="stroke:#000000;stroke-width:1;"/><path d="M39.6021,468.0547 L39.6021,495.0547 M26.6021,476.0547 L52.6021,476.0547 M39.6021,495.0547 L26.6021,510.0547 M39.6021,495.0547 L52.6021,510.0547" fill="none" style="stroke:#000000;stroke-width:1;"/></g><g class="participant participant-head" data-entity-uid="part2" data-qualified-name="EditarInvitacionView" id="part2-head"><rect fill="#FFFFFF" height="46.5938" rx="2.5" ry="2.5" style="stroke:#000000;stroke-width:1;" width="157.2471" x="209.8052" y="34.7031"/><text fill="#000000" font-family="Verdana" font-size="14" font-style="italic" lengthAdjust="spacing" textLength="76.2139" x="250.3218" y="54.6982">&#171;UI React&#187;</text><text fill="#000000" font-family="Verdana" font-size="14" lengthAdjust="spacing" textLength="143.2471" x="216.8052" y="70.9951">EditarInvitacionView</text></g><g class="participant participant-tail" data-entity-uid="part2" data-qualified-name="EditarInvitacionView" id="part2-tail"><rect fill="#FFFFFF" height="46.5938" rx="2.5" ry="2.5" style="stroke:#000000;stroke-width:1;" width="157.2471" x="209.8052" y="434.7578"/><text fill="#000000" font-family="Verdana" font-size="14" font-style="italic" lengthAdjust="spacing" textLength="76.2139" x="250.3218" y="454.7529">&#171;UI React&#187;</text><text fill="#000000" font-family="Verdana" font-size="14" lengthAdjust="spacing" textLength="143.2471" x="216.8052" y="471.0498">EditarInvitacionView</text></g><g class="participant participant-head" data-entity-uid="part3" data-qualified-name="InvitacionesController" id="part3-head"><rect fill="#FFFFFF" height="46.5938" rx="2.5" ry="2.5" style="stroke:#000000;stroke-width:1;" width="167.3506" x="397.0522" y="34.7031"/><text fill="#000000" font-family="Verdana" font-size="14" font-style="italic" lengthAdjust="spacing" textLength="120.3193" x="420.5679" y="54.6982">&#171;Router FastAPI&#187;</text><text fill="#000000" font-family="Verdana" font-size="14" lengthAdjust="spacing" textLength="153.3506" x="404.0522" y="70.9951">InvitacionesController</text></g><g class="participant participant-tail" data-entity-uid="part3" data-qualified-name="InvitacionesController" id="part3-tail"><rect fill="#FFFFFF" height="46.5938" rx="2.5" ry="2.5" style="stroke:#000000;stroke-width:1;" width="167.3506" x="397.0522" y="434.7578"/><text fill="#000000" font-family="Verdana" font-size="14" font-style="italic" lengthAdjust="spacing" textLength="120.3193" x="420.5679" y="454.7529">&#171;Router FastAPI&#187;</text><text fill="#000000" font-family="Verdana" font-size="14" lengthAdjust="spacing" textLength="153.3506" x="404.0522" y="471.0498">InvitacionesController</text></g><g class="participant participant-head" data-entity-uid="part4" data-qualified-name="InvitacionesService" id="part4-head"><rect fill="#FFFFFF" height="46.5938" rx="2.5" ry="2.5" style="stroke:#000000;stroke-width:1;" width="159.79" x="621.645" y="34.7031"/><text fill="#000000" font-family="Verdana" font-size="14" font-style="italic" lengthAdjust="spacing" textLength="145.79" x="628.645" y="54.6982">&#171;L&#243;gica de Negocio&#187;</text><text fill="#000000" font-family="Verdana" font-size="14" lengthAdjust="spacing" textLength="135.9189" x="633.5806" y="70.9951">InvitacionesService</text></g><g class="participant participant-tail" data-entity-uid="part4" data-qualified-name="InvitacionesService" id="part4-tail"><rect fill="#FFFFFF" height="46.5938" rx="2.5" ry="2.5" style="stroke:#000000;stroke-width:1;" width="159.79" x="621.645" y="434.7578"/><text fill="#000000" font-family="Verdana" font-size="14" font-style="italic" lengthAdjust="spacing" textLength="145.79" x="628.645" y="454.7529">&#171;L&#243;gica de Negocio&#187;</text><text fill="#000000" font-family="Verdana" font-size="14" lengthAdjust="spacing" textLength="135.9189" x="633.5806" y="471.0498">InvitacionesService</text></g><g class="participant participant-head" data-entity-uid="part5" data-qualified-name="InvitacionRepository" id="part5-head"><rect fill="#FFFFFF" height="46.5938" rx="2.5" ry="2.5" style="stroke:#000000;stroke-width:1;" width="204.9893" x="819.8579" y="34.7031"/><text fill="#000000" font-family="Verdana" font-size="14" font-style="italic" lengthAdjust="spacing" textLength="190.9893" x="826.8579" y="54.6982">&#171;Capa Datos SQLAlchemy&#187;</text><text fill="#000000" font-family="Verdana" font-size="14" lengthAdjust="spacing" textLength="143.3428" x="850.6812" y="70.9951">InvitacionRepository</text></g><g class="participant participant-tail" data-entity-uid="part5" data-qualified-name="InvitacionRepository" id="part5-tail"><rect fill="#FFFFFF" height="46.5938" rx="2.5" ry="2.5" style="stroke:#000000;stroke-width:1;" width="204.9893" x="819.8579" y="434.7578"/><text fill="#000000" font-family="Verdana" font-size="14" font-style="italic" lengthAdjust="spacing" textLength="190.9893" x="826.8579" y="454.7529">&#171;Capa Datos SQLAlchemy&#187;</text><text fill="#000000" font-family="Verdana" font-size="14" lengthAdjust="spacing" textLength="143.3428" x="850.6812" y="471.0498">InvitacionRepository</text></g><g class="participant participant-head" data-entity-uid="part6" data-qualified-name="PostgreSQL" id="part6-head"><text fill="#000000" font-family="Verdana" font-size="14" lengthAdjust="spacing" textLength="80.7529" x="1075.8516" y="78.9951">PostgreSQL</text><path d="M1101.228,30 C1101.228,20 1119.228,20 1119.228,20 C1119.228,20 1137.228,20 1137.228,30 L1137.228,56 C1137.228,66 1119.228,66 1119.228,66 C1119.228,66 1101.228,66 1101.228,56 L1101.228,30" fill="#FFFFFF" style="stroke:#000000;stroke-width:1;"/><path d="M1101.228,30 C1101.228,40 1119.228,40 1119.228,40 C1119.228,40 1137.228,40 1137.228,30" fill="none" style="stroke:#000000;stroke-width:1;"/></g><g class="participant participant-tail" data-entity-uid="part6" data-qualified-name="PostgreSQL" id="part6-tail"><text fill="#000000" font-family="Verdana" font-size="14" lengthAdjust="spacing" textLength="80.7529" x="1075.8516" y="447.7529">PostgreSQL</text><path d="M1101.228,461.0547 C1101.228,451.0547 1119.228,451.0547 1119.228,451.0547 C1119.228,451.0547 1137.228,451.0547 1137.228,461.0547 L1137.228,487.0547 C1137.228,497.0547 1119.228,497.0547 1119.228,497.0547 C1119.228,497.0547 1101.228,497.0547 1101.228,487.0547 L1101.228,461.0547" fill="#FFFFFF" style="stroke:#000000;stroke-width:1;"/><path d="M1101.228,461.0547 C1101.228,471.0547 1119.228,471.0547 1119.228,471.0547 C1119.228,471.0547 1137.228,471.0547 1137.228,461.0547" fill="none" style="stroke:#000000;stroke-width:1;"/></g><g><title>..UI React..</title><rect fill="#FFFFFF" height="304.3281" style="stroke:#000000;stroke-width:1;" width="10" x="283.4287" y="113.4297"/></g><g><title>..Router FastAPI..</title><rect fill="#FFFFFF" height="246.0625" style="stroke:#000000;stroke-width:1;" width="10" x="475.7275" y="142.5625"/></g><g><title>..L.gica de Negocio..</title><rect fill="#FFFFFF" height="187.7969" style="stroke:#000000;stroke-width:1;" width="10" x="696.54" y="171.6953"/></g><g><title>..Capa Datos SQLAlchemy..</title><rect fill="#FFFFFF" height="87.3984" style="stroke:#000000;stroke-width:1;" width="10" x="917.3525" y="242.9609"/></g><g><title>PostgreSQL</title><rect fill="#FFFFFF" height="29.1328" style="stroke:#000000;stroke-width:1;" width="10" x="1114.228" y="272.0938"/></g><g class="message" data-entity-1="part1" data-entity-2="part2" id="msg1"><polygon fill="#000000" points="271.4287,109.4297,281.4287,113.4297,271.4287,117.4297,275.4287,113.4297" style="stroke:#000000;stroke-width:1;"/><line style="stroke:#000000;stroke-width:1;" x1="39.6021" x2="277.4287" y1="113.4297" y2="113.4297"/><text fill="#000000" font-family="Verdana" font-size="13" font-weight="bold" lengthAdjust="spacing" textLength="9.0454" x="46.6021" y="108.3638">1</text><text fill="#000000" font-family="Verdana" font-size="13" lengthAdjust="spacing" textLength="178.4517" x="59.6475" y="108.3638">Env&#237;a formulario de edici&#243;n</text></g><g class="message" data-entity-1="part2" data-entity-2="part3" id="msg2"><polygon fill="#000000" points="463.7275,138.5625,473.7275,142.5625,463.7275,146.5625,467.7275,142.5625" style="stroke:#000000;stroke-width:1;"/><line style="stroke:#000000;stroke-width:1;" x1="293.4287" x2="469.7275" y1="142.5625" y2="142.5625"/><text fill="#000000" font-family="Verdana" font-size="13" font-weight="bold" lengthAdjust="spacing" textLength="9.0454" x="300.4287" y="137.4966">2</text><text fill="#000000" font-family="Verdana" font-size="13" lengthAdjust="spacing" textLength="144.5361" x="313.4741" y="137.4966">PUT /invitaciones/{id}</text></g><g class="message" data-entity-1="part3" data-entity-2="part4" id="msg3"><polygon fill="#000000" points="684.54,167.6953,694.54,171.6953,684.54,175.6953,688.54,171.6953" style="stroke:#000000;stroke-width:1;"/><line style="stroke:#000000;stroke-width:1;" x1="485.7275" x2="690.54" y1="171.6953" y2="171.6953"/><text fill="#000000" font-family="Verdana" font-size="13" font-weight="bold" lengthAdjust="spacing" textLength="9.0454" x="492.7275" y="166.6294">3</text><text fill="#000000" font-family="Verdana" font-size="13" lengthAdjust="spacing" textLength="174.2559" x="505.7729" y="166.6294">editar_invitacion(id, datos)</text></g><g class="message" data-entity-1="part4" data-entity-2="part4" id="msg4"><line style="stroke:#000000;stroke-width:1;" x1="706.54" x2="748.54" y1="200.8281" y2="200.8281"/><line style="stroke:#000000;stroke-width:1;" x1="748.54" x2="748.54" y1="200.8281" y2="213.8281"/><line style="stroke:#000000;stroke-width:1;" x1="707.54" x2="748.54" y1="213.8281" y2="213.8281"/><polygon fill="#000000" points="717.54,209.8281,707.54,213.8281,717.54,217.8281,713.54,213.8281" style="stroke:#000000;stroke-width:1;"/><text fill="#000000" font-family="Verdana" font-size="13" font-weight="bold" lengthAdjust="spacing" textLength="9.0454" x="713.54" y="195.7622">4</text><text fill="#000000" font-family="Verdana" font-size="13" lengthAdjust="spacing" textLength="160.0498" x="726.5854" y="195.7622">Valida reglas de negocio</text></g><g class="message" data-entity-1="part4" data-entity-2="part5" id="msg5"><polygon fill="#000000" points="905.3525,238.9609,915.3525,242.9609,905.3525,246.9609,909.3525,242.9609" style="stroke:#000000;stroke-width:1;"/><line style="stroke:#000000;stroke-width:1;" x1="706.54" x2="911.3525" y1="242.9609" y2="242.9609"/><text fill="#000000" font-family="Verdana" font-size="13" font-weight="bold" lengthAdjust="spacing" textLength="9.0454" x="713.54" y="237.895">5</text><text fill="#000000" font-family="Verdana" font-size="13" lengthAdjust="spacing" textLength="130.0889" x="726.5854" y="237.895">actualizar(id, datos)</text></g><g class="message" data-entity-1="part5" data-entity-2="part6" id="msg6"><polygon fill="#000000" points="1102.228,268.0938,1112.228,272.0938,1102.228,276.0938,1106.228,272.0938" style="stroke:#000000;stroke-width:1;"/><line style="stroke:#000000;stroke-width:1;" x1="927.3525" x2="1108.228" y1="272.0938" y2="272.0938"/><text fill="#000000" font-family="Verdana" font-size="13" font-weight="bold" lengthAdjust="spacing" textLength="9.0454" x="934.3525" y="267.0278">6</text><text fill="#000000" font-family="Verdana" font-size="13" lengthAdjust="spacing" textLength="124.4395" x="947.3979" y="267.0278">UPDATE invitations</text></g><g class="message" data-entity-1="part6" data-entity-2="part5" id="msg7"><polygon fill="#000000" points="938.3525,297.2266,928.3525,301.2266,938.3525,305.2266,934.3525,301.2266" style="stroke:#000000;stroke-width:1;"/><line style="stroke:#000000;stroke-width:1;stroke-dasharray:2,2;" x1="932.3525" x2="1118.228" y1="301.2266" y2="301.2266"/><text fill="#000000" font-family="Verdana" font-size="13" font-weight="bold" lengthAdjust="spacing" textLength="9.0454" x="944.3525" y="296.1606">7</text><text fill="#000000" font-family="Verdana" font-size="13" lengthAdjust="spacing" textLength="149.8301" x="957.3979" y="296.1606">Devuelve confirmaci&#243;n</text></g><g class="message" data-entity-1="part5" data-entity-2="part4" id="msg8"><polygon fill="#000000" points="717.54,326.3594,707.54,330.3594,717.54,334.3594,713.54,330.3594" style="stroke:#000000;stroke-width:1;"/><line style="stroke:#000000;stroke-width:1;stroke-dasharray:2,2;" x1="711.54" x2="921.3525" y1="330.3594" y2="330.3594"/><text fill="#000000" font-family="Verdana" font-size="13" font-weight="bold" lengthAdjust="spacing" textLength="9.0454" x="723.54" y="325.2935">8</text><text fill="#000000" font-family="Verdana" font-size="13" lengthAdjust="spacing" textLength="173.7671" x="736.5854" y="325.2935">Devuelve objeto Invitacion</text></g><g class="message" data-entity-1="part4" data-entity-2="part3" id="msg9"><polygon fill="#000000" points="496.7275,355.4922,486.7275,359.4922,496.7275,363.4922,492.7275,359.4922" style="stroke:#000000;stroke-width:1;"/><line style="stroke:#000000;stroke-width:1;stroke-dasharray:2,2;" x1="490.7275" x2="700.54" y1="359.4922" y2="359.4922"/><text fill="#000000" font-family="Verdana" font-size="13" font-weight="bold" lengthAdjust="spacing" textLength="9.0454" x="502.7275" y="354.4263">9</text><text fill="#000000" font-family="Verdana" font-size="13" lengthAdjust="spacing" textLength="173.7671" x="515.7729" y="354.4263">Devuelve objeto Invitacion</text></g><g class="message" data-entity-1="part3" data-entity-2="part2" id="msg10"><polygon fill="#000000" points="304.4287,384.625,294.4287,388.625,304.4287,392.625,300.4287,388.625" style="stroke:#000000;stroke-width:1;"/><line style="stroke:#000000;stroke-width:1;stroke-dasharray:2,2;" x1="298.4287" x2="479.7275" y1="388.625" y2="388.625"/><text fill="#000000" font-family="Verdana" font-size="13" font-weight="bold" lengthAdjust="spacing" textLength="18.0908" x="310.4287" y="383.5591">10</text><text fill="#000000" font-family="Verdana" font-size="13" lengthAdjust="spacing" textLength="104.3047" x="332.5195" y="383.5591">Respuesta JSON</text></g><g class="message" data-entity-1="part2" data-entity-2="part1" id="msg11"><polygon fill="#000000" points="50.6021,413.7578,40.6021,417.7578,50.6021,421.7578,46.6021,417.7578" style="stroke:#000000;stroke-width:1;"/><line style="stroke:#000000;stroke-width:1;stroke-dasharray:2,2;" x1="44.6021" x2="287.4287" y1="417.7578" y2="417.7578"/><text fill="#000000" font-family="Verdana" font-size="13" font-weight="bold" lengthAdjust="spacing" textLength="18.0908" x="56.6021" y="412.6919">11</text><text fill="#000000" font-family="Verdana" font-size="13" lengthAdjust="spacing" textLength="197.7358" x="78.6929" y="412.6919">Actualiza vista e informa &#233;xito</text></g><?plantuml-src bLFDRjf04BxlKqnlZTI8kuMG452925428TTgy4x8L6RNsbsxJQ8-K0uvvH5uiOvBg3VH6jIJBUryF_FDpATmJpk2ia0s2gjWJRNRa5CAys0Th7s5ZgqgqGNEkKGJOA8ve9kQMZuvMtFBz1Fw_VKKbYIemU1TTLj7VcHDSBOeo4dzqbP1VhwY3yF5z0HgHQxcd0GosxzkEKVG17FQMddkX2sfj9wbXGV1ZR1466Em7bRNis6HIyyF0jKOS8EUO65zs3gIHwNUMeRBGRhJ32QcthyWt5ctgug_jMA8j9ZOlvecEAunK1AjafGYrH5J1elr3VGuUkqziVxTggI1geFlWz8nsgonBxw-jqAVMNy1tMHsaHPxmweKNwVCBHQi4Hnj2_HDREOmn_CiqK0p44ELC3sYEsEpHQaabKYqinVYzM8yl9d08OOWjRvbZPOambnsknnJNL5H4-JMtB7RuM51DAKeq_OwW_p7RJS_ADYeAkO_4qGKzQaL_5-jz6x4MzXzMqloPKK-85ojlisx-AD5Jn-K21plE8FXSLkWveQPPBxDyIBidtz99h5AYkuF?></g></svg>